<?xml version="1.0" encoding="UTF-8" standalone="no"?>
<svg
   width="2000"
   height="300"
   fill="none"
   viewBox="0 0 2000 300"
   version="1.1"
   id="svg14"
   sodipodi:docname="green-assistant-logo-white.svg"
   inkscape:version="1.4 (86a8ad7, 2024-10-11)"
   xml:space="preserve"
   xmlns:inkscape="http://www.inkscape.org/namespaces/inkscape"
   xmlns:sodipodi="http://sodipodi.sourceforge.net/DTD/sodipodi-0.dtd"
   xmlns="http://www.w3.org/2000/svg"
   xmlns:svg="http://www.w3.org/2000/svg"><defs
     id="defs14" /><sodipodi:namedview
     id="namedview14"
     pagecolor="#505050"
     bordercolor="#ffffff"
     borderopacity="1"
     inkscape:showpageshadow="0"
     inkscape:pageopacity="0"
     inkscape:pagecheckerboard="1"
     inkscape:deskcolor="#d1d1d1"
     inkscape:zoom="0.35355339"
     inkscape:cx="1974.2421"
     inkscape:cy="329.51176"
     inkscape:window-width="3440"
     inkscape:window-height="1417"
     inkscape:window-x="-8"
     inkscape:window-y="-8"
     inkscape:window-maximized="1"
     inkscape:current-layer="svg14" /><text
     xml:space="preserve"
     style="font-size:184.653px;line-height:1.3;font-family:Poppins;-inkscape-font-specification:Poppins;text-align:start;text-decoration-color:#000000;letter-spacing:0px;writing-mode:lr-tb;direction:ltr;text-anchor:start;white-space:pre;fill:#ffffff;fill-opacity:1;fill-rule:evenodd;stroke:none;stroke-width:22;stroke-linecap:square;stroke-linejoin:round;stroke-dasharray:none;paint-order:markers fill stroke"
     x="308.17355"
     y="209.39435"
     id="text18"
     transform="translate(86.296731,12.158689)"
     inkscape:label="Green Assistant"><tspan
       sodipodi:role="line"
       id="tspan18"
       x="308.17355"
       y="209.39435"
       style="font-style:normal;font-variant:normal;font-weight:600;font-stretch:normal;font-size:184.653px;font-family:Poppins;-inkscape-font-specification:'Poppins Semi-Bold';fill:#ffffff;fill-opacity:1;stroke-width:22">Green Assistant</tspan></text><g
     id="g21"
     inkscape:label="icon"
     transform="translate(-16.970563,-33.217514)"><path
       id="rect21"
       style="fill:#89e29e;fill-rule:evenodd;stroke-width:22;stroke-linecap:square;stroke-linejoin:round;paint-order:markers fill stroke"
       inkscape:label="rect"
       d="m 150.4405,71.664642 h 151.64303 c 19.19512,0 34.64824,15.453112 34.64824,34.648228 v 153.80928 c 0,19.19512 -15.45312,34.64824 -34.64824,34.64824 H 150.4405 c -19.19512,0 -34.64823,-15.45312 -34.64823,-34.64824 V 106.31287 c 0,-19.195116 15.45311,-34.648228 34.64823,-34.648228 z" /><path
       id="path15"
       style="display:inline;fill:#ffffff;fill-rule:evenodd;stroke-linecap:square;stroke-linejoin:round;paint-order:markers fill stroke"
       d="m 175.80693,114.28094 c -3.91217,-0.0699 -9.16959,1.8511 -12.0664,5.45898 -2.89682,3.60788 -3.45857,7.35382 -3.5625,10.43555 -0.41575,12.32693 5.33272,23.86838 12.16015,38.0664 6.82743,14.19804 15.41273,29.33134 22.84766,41.26368 3.71746,5.96616 7.12607,11.1059 10.0039,15.04492 1.43891,1.96951 2.721,3.62371 4.04102,5.10351 0.41223,0.46214 0.84586,0.91236 1.31445,1.3711 0.96178,9.88451 0.58908,19.59613 -1.13086,29.13086 h 20 c 3.77584,-9.50848 3.9063,-21.00434 0.92188,-33.87305 -0.27037,-2.18064 0.2715,-8.03155 1.36328,-9.0293 1.09178,-0.99775 27.02248,-19.45377 41.75195,-32.30273 4.97892,-4.34326 9.54827,-8.62659 13.32617,-12.78711 3.7779,-4.16052 6.94917,-7.69947 8.78125,-13.49414 0.91604,-2.89733 1.46472,-7.19305 -0.67969,-11.45508 -2.14441,-4.26203 -6.36573,-6.65292 -9.64453,-7.54492 -1.6394,-0.446 -3.2171,-0.71757 -4.79101,-0.8457 -4.72174,-0.38441 -9.39792,0.51829 -15.51368,1.85351 -19.16949,4.18519 -32.56475,12.32991 -41.42773,21.72461 -5.95807,-11.862 -13.29602,-29.56567 -27.41992,-39.42773 -7.31349,-5.10668 -12.45104,-8.55357 -20.27539,-8.69336 z"
       sodipodi:nodetypes="ssssssscccczssssssscss"
       inkscape:label="sapling" /></g></svg>
