ISO-10303-21;
HEADER;
/* Generated by software containing ST-Developer
 * from STEP Tools, Inc. (www.steptools.com) 
 */

FILE_DESCRIPTION(
/* description */ (''),
/* implementation_level */ '2;1');

FILE_NAME(
/* name */ 'new_magnet_holder.step',
/* time_stamp */ '2025-08-06T23:45:28+02:00',
/* author */ (''),
/* organization */ (''),
/* preprocessor_version */ 'ST-DEVELOPER v20',
/* originating_system */ 'Autodesk Translation Framework v13.20.0.188',

/* authorisation */ '');

FILE_SCHEMA (('AUTOMOTIVE_DESIGN { 1 0 10303 214 3 1 1 }'));
ENDSEC;

DATA;
#10=MECHANICAL_DESIGN_GEOMETRIC_PRESENTATION_REPRESENTATION('',(#13,#14),
#1801);
#11=SHAPE_REPRESENTATION_RELATIONSHIP('SRR','None',#1808,#12);
#12=ADVANCED_BREP_SHAPE_REPRESENTATION('',(#15,#16),#1800);
#13=STYLED_ITEM('',(#1817),#15);
#14=STYLED_ITEM('',(#1817),#16);
#15=MANIFOLD_SOLID_BREP('K\X\F6rper1',#1112);
#16=MANIFOLD_SOLID_BREP('K\X\F6rper2',#1113);
#17=CYLINDRICAL_SURFACE('',#1149,5.1);
#18=CYLINDRICAL_SURFACE('',#1150,1.5);
#19=CYLINDRICAL_SURFACE('',#1151,1.5);
#20=CYLINDRICAL_SURFACE('',#1155,2.6);
#21=CYLINDRICAL_SURFACE('',#1160,2.6);
#22=CYLINDRICAL_SURFACE('',#1165,1.5);
#23=CYLINDRICAL_SURFACE('',#1167,1.5);
#24=FACE_BOUND('',#372,.T.);
#25=FACE_BOUND('',#373,.T.);
#26=FACE_BOUND('',#379,.T.);
#27=FACE_BOUND('',#380,.T.);
#28=FACE_BOUND('',#381,.T.);
#29=FACE_BOUND('',#396,.T.);
#30=FACE_BOUND('',#399,.T.);
#31=FACE_BOUND('',#427,.T.);
#32=FACE_BOUND('',#428,.T.);
#33=FACE_BOUND('',#433,.T.);
#34=FACE_BOUND('',#434,.T.);
#35=LINE('',#1499,#170);
#36=LINE('',#1501,#171);
#37=LINE('',#1503,#172);
#38=LINE('',#1504,#173);
#39=LINE('',#1507,#174);
#40=LINE('',#1509,#175);
#41=LINE('',#1510,#176);
#42=LINE('',#1514,#177);
#43=LINE('',#1516,#178);
#44=LINE('',#1518,#179);
#45=LINE('',#1519,#180);
#46=LINE('',#1522,#181);
#47=LINE('',#1524,#182);
#48=LINE('',#1526,#183);
#49=LINE('',#1528,#184);
#50=LINE('',#1530,#185);
#51=LINE('',#1532,#186);
#52=LINE('',#1534,#187);
#53=LINE('',#1536,#188);
#54=LINE('',#1538,#189);
#55=LINE('',#1540,#190);
#56=LINE('',#1542,#191);
#57=LINE('',#1543,#192);
#58=LINE('',#1544,#193);
#59=LINE('',#1551,#194);
#60=LINE('',#1552,#195);
#61=LINE('',#1555,#196);
#62=LINE('',#1556,#197);
#63=LINE('',#1560,#198);
#64=LINE('',#1561,#199);
#65=LINE('',#1562,#200);
#66=LINE('',#1565,#201);
#67=LINE('',#1566,#202);
#68=LINE('',#1568,#203);
#69=LINE('',#1570,#204);
#70=LINE('',#1572,#205);
#71=LINE('',#1574,#206);
#72=LINE('',#1576,#207);
#73=LINE('',#1578,#208);
#74=LINE('',#1580,#209);
#75=LINE('',#1581,#210);
#76=LINE('',#1582,#211);
#77=LINE('',#1590,#212);
#78=LINE('',#1592,#213);
#79=LINE('',#1594,#214);
#80=LINE('',#1596,#215);
#81=LINE('',#1597,#216);
#82=LINE('',#1599,#217);
#83=LINE('',#1602,#218);
#84=LINE('',#1604,#219);
#85=LINE('',#1606,#220);
#86=LINE('',#1614,#221);
#87=LINE('',#1623,#222);
#88=LINE('',#1631,#223);
#89=LINE('',#1635,#224);
#90=LINE('',#1639,#225);
#91=LINE('',#1641,#226);
#92=LINE('',#1643,#227);
#93=LINE('',#1644,#228);
#94=LINE('',#1647,#229);
#95=LINE('',#1649,#230);
#96=LINE('',#1650,#231);
#97=LINE('',#1653,#232);
#98=LINE('',#1655,#233);
#99=LINE('',#1656,#234);
#100=LINE('',#1659,#235);
#101=LINE('',#1661,#236);
#102=LINE('',#1662,#237);
#103=LINE('',#1665,#238);
#104=LINE('',#1667,#239);
#105=LINE('',#1668,#240);
#106=LINE('',#1671,#241);
#107=LINE('',#1673,#242);
#108=LINE('',#1674,#243);
#109=LINE('',#1677,#244);
#110=LINE('',#1679,#245);
#111=LINE('',#1680,#246);
#112=LINE('',#1683,#247);
#113=LINE('',#1685,#248);
#114=LINE('',#1686,#249);
#115=LINE('',#1689,#250);
#116=LINE('',#1691,#251);
#117=LINE('',#1692,#252);
#118=LINE('',#1695,#253);
#119=LINE('',#1697,#254);
#120=LINE('',#1698,#255);
#121=LINE('',#1701,#256);
#122=LINE('',#1703,#257);
#123=LINE('',#1704,#258);
#124=LINE('',#1707,#259);
#125=LINE('',#1709,#260);
#126=LINE('',#1710,#261);
#127=LINE('',#1713,#262);
#128=LINE('',#1715,#263);
#129=LINE('',#1716,#264);
#130=LINE('',#1719,#265);
#131=LINE('',#1721,#266);
#132=LINE('',#1722,#267);
#133=LINE('',#1725,#268);
#134=LINE('',#1727,#269);
#135=LINE('',#1728,#270);
#136=LINE('',#1730,#271);
#137=LINE('',#1731,#272);
#138=LINE('',#1734,#273);
#139=LINE('',#1736,#274);
#140=LINE('',#1737,#275);
#141=LINE('',#1740,#276);
#142=LINE('',#1741,#277);
#143=LINE('',#1744,#278);
#144=LINE('',#1745,#279);
#145=LINE('',#1748,#280);
#146=LINE('',#1749,#281);
#147=LINE('',#1752,#282);
#148=LINE('',#1753,#283);
#149=LINE('',#1756,#284);
#150=LINE('',#1757,#285);
#151=LINE('',#1760,#286);
#152=LINE('',#1761,#287);
#153=LINE('',#1764,#288);
#154=LINE('',#1765,#289);
#155=LINE('',#1769,#290);
#156=LINE('',#1770,#291);
#157=LINE('',#1773,#292);
#158=LINE('',#1774,#293);
#159=LINE('',#1777,#294);
#160=LINE('',#1778,#295);
#161=LINE('',#1781,#296);
#162=LINE('',#1783,#297);
#163=LINE('',#1785,#298);
#164=LINE('',#1787,#299);
#165=LINE('',#1788,#300);
#166=LINE('',#1790,#301);
#167=LINE('',#1792,#302);
#168=LINE('',#1794,#303);
#169=LINE('',#1796,#304);
#170=VECTOR('',#1211,10.);
#171=VECTOR('',#1212,10.);
#172=VECTOR('',#1213,10.);
#173=VECTOR('',#1214,10.);
#174=VECTOR('',#1217,10.);
#175=VECTOR('',#1218,10.);
#176=VECTOR('',#1219,10.);
#177=VECTOR('',#1222,10.);
#178=VECTOR('',#1223,10.);
#179=VECTOR('',#1224,10.);
#180=VECTOR('',#1225,10.);
#181=VECTOR('',#1228,10.);
#182=VECTOR('',#1229,10.);
#183=VECTOR('',#1230,10.);
#184=VECTOR('',#1231,10.);
#185=VECTOR('',#1232,10.);
#186=VECTOR('',#1233,10.);
#187=VECTOR('',#1234,10.);
#188=VECTOR('',#1235,10.);
#189=VECTOR('',#1236,10.);
#190=VECTOR('',#1237,10.);
#191=VECTOR('',#1238,10.);
#192=VECTOR('',#1239,10.);
#193=VECTOR('',#1240,10.);
#194=VECTOR('',#1247,10.);
#195=VECTOR('',#1248,10.);
#196=VECTOR('',#1251,10.);
#197=VECTOR('',#1252,10.);
#198=VECTOR('',#1255,10.);
#199=VECTOR('',#1256,10.);
#200=VECTOR('',#1257,10.);
#201=VECTOR('',#1260,10.);
#202=VECTOR('',#1261,10.);
#203=VECTOR('',#1264,10.);
#204=VECTOR('',#1265,10.);
#205=VECTOR('',#1266,10.);
#206=VECTOR('',#1267,10.);
#207=VECTOR('',#1268,10.);
#208=VECTOR('',#1269,10.);
#209=VECTOR('',#1270,10.);
#210=VECTOR('',#1271,10.);
#211=VECTOR('',#1272,10.);
#212=VECTOR('',#1281,10.);
#213=VECTOR('',#1284,10.);
#214=VECTOR('',#1287,10.);
#215=VECTOR('',#1290,10.);
#216=VECTOR('',#1291,10.);
#217=VECTOR('',#1294,10.);
#218=VECTOR('',#1299,5.1);
#219=VECTOR('',#1302,1.5);
#220=VECTOR('',#1305,1.5);
#221=VECTOR('',#1316,2.6);
#222=VECTOR('',#1327,2.6);
#223=VECTOR('',#1338,1.5);
#224=VECTOR('',#1343,1.5);
#225=VECTOR('',#1346,10.);
#226=VECTOR('',#1347,10.);
#227=VECTOR('',#1348,10.);
#228=VECTOR('',#1349,10.);
#229=VECTOR('',#1352,10.);
#230=VECTOR('',#1353,10.);
#231=VECTOR('',#1354,10.);
#232=VECTOR('',#1357,10.);
#233=VECTOR('',#1358,10.);
#234=VECTOR('',#1359,10.);
#235=VECTOR('',#1362,10.);
#236=VECTOR('',#1363,10.);
#237=VECTOR('',#1364,10.);
#238=VECTOR('',#1367,10.);
#239=VECTOR('',#1368,10.);
#240=VECTOR('',#1369,10.);
#241=VECTOR('',#1372,10.);
#242=VECTOR('',#1373,10.);
#243=VECTOR('',#1374,10.);
#244=VECTOR('',#1377,10.);
#245=VECTOR('',#1378,10.);
#246=VECTOR('',#1379,10.);
#247=VECTOR('',#1382,10.);
#248=VECTOR('',#1383,10.);
#249=VECTOR('',#1384,10.);
#250=VECTOR('',#1387,10.);
#251=VECTOR('',#1388,10.);
#252=VECTOR('',#1389,10.);
#253=VECTOR('',#1392,10.);
#254=VECTOR('',#1393,10.);
#255=VECTOR('',#1394,10.);
#256=VECTOR('',#1397,10.);
#257=VECTOR('',#1398,10.);
#258=VECTOR('',#1399,10.);
#259=VECTOR('',#1402,10.);
#260=VECTOR('',#1403,10.);
#261=VECTOR('',#1404,10.);
#262=VECTOR('',#1407,10.);
#263=VECTOR('',#1408,10.);
#264=VECTOR('',#1409,10.);
#265=VECTOR('',#1412,10.);
#266=VECTOR('',#1413,10.);
#267=VECTOR('',#1414,10.);
#268=VECTOR('',#1417,10.);
#269=VECTOR('',#1418,10.);
#270=VECTOR('',#1419,10.);
#271=VECTOR('',#1422,10.);
#272=VECTOR('',#1423,10.);
#273=VECTOR('',#1426,10.);
#274=VECTOR('',#1427,10.);
#275=VECTOR('',#1428,10.);
#276=VECTOR('',#1431,10.);
#277=VECTOR('',#1432,10.);
#278=VECTOR('',#1435,10.);
#279=VECTOR('',#1436,10.);
#280=VECTOR('',#1439,10.);
#281=VECTOR('',#1440,10.);
#282=VECTOR('',#1443,10.);
#283=VECTOR('',#1444,10.);
#284=VECTOR('',#1447,10.);
#285=VECTOR('',#1448,10.);
#286=VECTOR('',#1451,10.);
#287=VECTOR('',#1452,10.);
#288=VECTOR('',#1455,10.);
#289=VECTOR('',#1456,10.);
#290=VECTOR('',#1461,10.);
#291=VECTOR('',#1462,10.);
#292=VECTOR('',#1465,10.);
#293=VECTOR('',#1466,10.);
#294=VECTOR('',#1469,10.);
#295=VECTOR('',#1470,10.);
#296=VECTOR('',#1473,10.);
#297=VECTOR('',#1474,10.);
#298=VECTOR('',#1475,10.);
#299=VECTOR('',#1476,10.);
#300=VECTOR('',#1477,10.);
#301=VECTOR('',#1480,10.);
#302=VECTOR('',#1483,10.);
#303=VECTOR('',#1486,10.);
#304=VECTOR('',#1489,10.);
#305=FACE_OUTER_BOUND('',#367,.T.);
#306=FACE_OUTER_BOUND('',#368,.T.);
#307=FACE_OUTER_BOUND('',#369,.T.);
#308=FACE_OUTER_BOUND('',#370,.T.);
#309=FACE_OUTER_BOUND('',#371,.T.);
#310=FACE_OUTER_BOUND('',#374,.T.);
#311=FACE_OUTER_BOUND('',#375,.T.);
#312=FACE_OUTER_BOUND('',#376,.T.);
#313=FACE_OUTER_BOUND('',#377,.T.);
#314=FACE_OUTER_BOUND('',#378,.T.);
#315=FACE_OUTER_BOUND('',#382,.T.);
#316=FACE_OUTER_BOUND('',#383,.T.);
#317=FACE_OUTER_BOUND('',#384,.T.);
#318=FACE_OUTER_BOUND('',#385,.T.);
#319=FACE_OUTER_BOUND('',#386,.T.);
#320=FACE_OUTER_BOUND('',#387,.T.);
#321=FACE_OUTER_BOUND('',#388,.T.);
#322=FACE_OUTER_BOUND('',#389,.T.);
#323=FACE_OUTER_BOUND('',#390,.T.);
#324=FACE_OUTER_BOUND('',#391,.T.);
#325=FACE_OUTER_BOUND('',#392,.T.);
#326=FACE_OUTER_BOUND('',#393,.T.);
#327=FACE_OUTER_BOUND('',#394,.T.);
#328=FACE_OUTER_BOUND('',#395,.T.);
#329=FACE_OUTER_BOUND('',#397,.T.);
#330=FACE_OUTER_BOUND('',#398,.T.);
#331=FACE_OUTER_BOUND('',#400,.T.);
#332=FACE_OUTER_BOUND('',#401,.T.);
#333=FACE_OUTER_BOUND('',#402,.T.);
#334=FACE_OUTER_BOUND('',#403,.T.);
#335=FACE_OUTER_BOUND('',#404,.T.);
#336=FACE_OUTER_BOUND('',#405,.T.);
#337=FACE_OUTER_BOUND('',#406,.T.);
#338=FACE_OUTER_BOUND('',#407,.T.);
#339=FACE_OUTER_BOUND('',#408,.T.);
#340=FACE_OUTER_BOUND('',#409,.T.);
#341=FACE_OUTER_BOUND('',#410,.T.);
#342=FACE_OUTER_BOUND('',#411,.T.);
#343=FACE_OUTER_BOUND('',#412,.T.);
#344=FACE_OUTER_BOUND('',#413,.T.);
#345=FACE_OUTER_BOUND('',#414,.T.);
#346=FACE_OUTER_BOUND('',#415,.T.);
#347=FACE_OUTER_BOUND('',#416,.T.);
#348=FACE_OUTER_BOUND('',#417,.T.);
#349=FACE_OUTER_BOUND('',#418,.T.);
#350=FACE_OUTER_BOUND('',#419,.T.);
#351=FACE_OUTER_BOUND('',#420,.T.);
#352=FACE_OUTER_BOUND('',#421,.T.);
#353=FACE_OUTER_BOUND('',#422,.T.);
#354=FACE_OUTER_BOUND('',#423,.T.);
#355=FACE_OUTER_BOUND('',#424,.T.);
#356=FACE_OUTER_BOUND('',#425,.T.);
#357=FACE_OUTER_BOUND('',#426,.T.);
#358=FACE_OUTER_BOUND('',#429,.T.);
#359=FACE_OUTER_BOUND('',#430,.T.);
#360=FACE_OUTER_BOUND('',#431,.T.);
#361=FACE_OUTER_BOUND('',#432,.T.);
#362=FACE_OUTER_BOUND('',#435,.T.);
#363=FACE_OUTER_BOUND('',#436,.T.);
#364=FACE_OUTER_BOUND('',#437,.T.);
#365=FACE_OUTER_BOUND('',#438,.T.);
#366=FACE_OUTER_BOUND('',#439,.T.);
#367=EDGE_LOOP('',(#697));
#368=EDGE_LOOP('',(#698,#699,#700,#701));
#369=EDGE_LOOP('',(#702,#703,#704,#705));
#370=EDGE_LOOP('',(#706,#707,#708,#709));
#371=EDGE_LOOP('',(#710,#711,#712,#713,#714,#715,#716,#717,#718,#719,#720,
#721,#722,#723,#724,#725));
#372=EDGE_LOOP('',(#726));
#373=EDGE_LOOP('',(#727));
#374=EDGE_LOOP('',(#728,#729,#730,#731));
#375=EDGE_LOOP('',(#732,#733,#734,#735));
#376=EDGE_LOOP('',(#736,#737,#738,#739));
#377=EDGE_LOOP('',(#740,#741,#742,#743));
#378=EDGE_LOOP('',(#744,#745,#746,#747,#748,#749,#750,#751,#752,#753,#754,
#755,#756,#757,#758,#759));
#379=EDGE_LOOP('',(#760));
#380=EDGE_LOOP('',(#761));
#381=EDGE_LOOP('',(#762));
#382=EDGE_LOOP('',(#763,#764,#765,#766));
#383=EDGE_LOOP('',(#767,#768,#769,#770));
#384=EDGE_LOOP('',(#771,#772,#773,#774));
#385=EDGE_LOOP('',(#775,#776,#777,#778));
#386=EDGE_LOOP('',(#779,#780,#781,#782));
#387=EDGE_LOOP('',(#783,#784,#785,#786));
#388=EDGE_LOOP('',(#787,#788,#789,#790));
#389=EDGE_LOOP('',(#791,#792,#793,#794));
#390=EDGE_LOOP('',(#795,#796,#797,#798));
#391=EDGE_LOOP('',(#799,#800,#801,#802));
#392=EDGE_LOOP('',(#803,#804,#805,#806));
#393=EDGE_LOOP('',(#807,#808,#809,#810));
#394=EDGE_LOOP('',(#811,#812,#813,#814));
#395=EDGE_LOOP('',(#815));
#396=EDGE_LOOP('',(#816));
#397=EDGE_LOOP('',(#817,#818,#819,#820));
#398=EDGE_LOOP('',(#821));
#399=EDGE_LOOP('',(#822));
#400=EDGE_LOOP('',(#823,#824,#825,#826));
#401=EDGE_LOOP('',(#827,#828,#829,#830));
#402=EDGE_LOOP('',(#831,#832,#833,#834));
#403=EDGE_LOOP('',(#835,#836,#837,#838));
#404=EDGE_LOOP('',(#839,#840,#841,#842));
#405=EDGE_LOOP('',(#843,#844,#845,#846));
#406=EDGE_LOOP('',(#847,#848,#849,#850));
#407=EDGE_LOOP('',(#851,#852,#853,#854));
#408=EDGE_LOOP('',(#855,#856,#857,#858));
#409=EDGE_LOOP('',(#859,#860,#861,#862));
#410=EDGE_LOOP('',(#863,#864,#865,#866));
#411=EDGE_LOOP('',(#867,#868,#869,#870));
#412=EDGE_LOOP('',(#871,#872,#873,#874));
#413=EDGE_LOOP('',(#875,#876,#877,#878));
#414=EDGE_LOOP('',(#879,#880,#881,#882));
#415=EDGE_LOOP('',(#883,#884,#885,#886));
#416=EDGE_LOOP('',(#887,#888,#889,#890));
#417=EDGE_LOOP('',(#891,#892,#893,#894));
#418=EDGE_LOOP('',(#895,#896,#897,#898));
#419=EDGE_LOOP('',(#899,#900,#901,#902));
#420=EDGE_LOOP('',(#903,#904,#905,#906));
#421=EDGE_LOOP('',(#907,#908,#909,#910));
#422=EDGE_LOOP('',(#911,#912,#913,#914));
#423=EDGE_LOOP('',(#915,#916,#917,#918));
#424=EDGE_LOOP('',(#919,#920,#921,#922));
#425=EDGE_LOOP('',(#923,#924,#925,#926));
#426=EDGE_LOOP('',(#927,#928,#929,#930,#931,#932,#933,#934,#935,#936,#937,
#938,#939,#940,#941,#942));
#427=EDGE_LOOP('',(#943));
#428=EDGE_LOOP('',(#944));
#429=EDGE_LOOP('',(#945,#946,#947,#948));
#430=EDGE_LOOP('',(#949,#950,#951,#952));
#431=EDGE_LOOP('',(#953,#954,#955,#956));
#432=EDGE_LOOP('',(#957,#958,#959,#960,#961,#962,#963,#964,#965,#966,#967,
#968,#969,#970,#971,#972));
#433=EDGE_LOOP('',(#973));
#434=EDGE_LOOP('',(#974));
#435=EDGE_LOOP('',(#975,#976,#977,#978));
#436=EDGE_LOOP('',(#979,#980,#981,#982));
#437=EDGE_LOOP('',(#983,#984,#985,#986));
#438=EDGE_LOOP('',(#987,#988,#989,#990));
#439=EDGE_LOOP('',(#991,#992,#993,#994));
#440=CIRCLE('',#1128,5.1);
#441=CIRCLE('',#1133,1.5);
#442=CIRCLE('',#1134,1.5);
#443=CIRCLE('',#1140,1.5);
#444=CIRCLE('',#1141,1.5);
#445=CIRCLE('',#1142,5.1);
#446=CIRCLE('',#1156,2.6);
#447=CIRCLE('',#1157,2.6);
#448=CIRCLE('',#1159,1.5);
#449=CIRCLE('',#1161,2.6);
#450=CIRCLE('',#1162,2.6);
#451=CIRCLE('',#1164,1.5);
#452=CIRCLE('',#1166,1.5);
#453=CIRCLE('',#1168,1.5);
#454=VERTEX_POINT('',#1494);
#455=VERTEX_POINT('',#1497);
#456=VERTEX_POINT('',#1498);
#457=VERTEX_POINT('',#1500);
#458=VERTEX_POINT('',#1502);
#459=VERTEX_POINT('',#1506);
#460=VERTEX_POINT('',#1508);
#461=VERTEX_POINT('',#1512);
#462=VERTEX_POINT('',#1513);
#463=VERTEX_POINT('',#1515);
#464=VERTEX_POINT('',#1517);
#465=VERTEX_POINT('',#1521);
#466=VERTEX_POINT('',#1523);
#467=VERTEX_POINT('',#1525);
#468=VERTEX_POINT('',#1527);
#469=VERTEX_POINT('',#1529);
#470=VERTEX_POINT('',#1531);
#471=VERTEX_POINT('',#1533);
#472=VERTEX_POINT('',#1535);
#473=VERTEX_POINT('',#1537);
#474=VERTEX_POINT('',#1539);
#475=VERTEX_POINT('',#1541);
#476=VERTEX_POINT('',#1545);
#477=VERTEX_POINT('',#1547);
#478=VERTEX_POINT('',#1550);
#479=VERTEX_POINT('',#1554);
#480=VERTEX_POINT('',#1558);
#481=VERTEX_POINT('',#1559);
#482=VERTEX_POINT('',#1564);
#483=VERTEX_POINT('',#1569);
#484=VERTEX_POINT('',#1571);
#485=VERTEX_POINT('',#1573);
#486=VERTEX_POINT('',#1575);
#487=VERTEX_POINT('',#1577);
#488=VERTEX_POINT('',#1579);
#489=VERTEX_POINT('',#1583);
#490=VERTEX_POINT('',#1585);
#491=VERTEX_POINT('',#1587);
#492=VERTEX_POINT('',#1611);
#493=VERTEX_POINT('',#1613);
#494=VERTEX_POINT('',#1617);
#495=VERTEX_POINT('',#1620);
#496=VERTEX_POINT('',#1622);
#497=VERTEX_POINT('',#1626);
#498=VERTEX_POINT('',#1629);
#499=VERTEX_POINT('',#1633);
#500=VERTEX_POINT('',#1637);
#501=VERTEX_POINT('',#1638);
#502=VERTEX_POINT('',#1640);
#503=VERTEX_POINT('',#1642);
#504=VERTEX_POINT('',#1646);
#505=VERTEX_POINT('',#1648);
#506=VERTEX_POINT('',#1652);
#507=VERTEX_POINT('',#1654);
#508=VERTEX_POINT('',#1658);
#509=VERTEX_POINT('',#1660);
#510=VERTEX_POINT('',#1664);
#511=VERTEX_POINT('',#1666);
#512=VERTEX_POINT('',#1670);
#513=VERTEX_POINT('',#1672);
#514=VERTEX_POINT('',#1676);
#515=VERTEX_POINT('',#1678);
#516=VERTEX_POINT('',#1682);
#517=VERTEX_POINT('',#1684);
#518=VERTEX_POINT('',#1688);
#519=VERTEX_POINT('',#1690);
#520=VERTEX_POINT('',#1694);
#521=VERTEX_POINT('',#1696);
#522=VERTEX_POINT('',#1700);
#523=VERTEX_POINT('',#1702);
#524=VERTEX_POINT('',#1706);
#525=VERTEX_POINT('',#1708);
#526=VERTEX_POINT('',#1712);
#527=VERTEX_POINT('',#1714);
#528=VERTEX_POINT('',#1718);
#529=VERTEX_POINT('',#1720);
#530=VERTEX_POINT('',#1724);
#531=VERTEX_POINT('',#1726);
#532=VERTEX_POINT('',#1733);
#533=VERTEX_POINT('',#1735);
#534=VERTEX_POINT('',#1739);
#535=VERTEX_POINT('',#1743);
#536=VERTEX_POINT('',#1747);
#537=VERTEX_POINT('',#1751);
#538=VERTEX_POINT('',#1755);
#539=VERTEX_POINT('',#1759);
#540=VERTEX_POINT('',#1763);
#541=VERTEX_POINT('',#1768);
#542=VERTEX_POINT('',#1772);
#543=VERTEX_POINT('',#1776);
#544=VERTEX_POINT('',#1780);
#545=VERTEX_POINT('',#1782);
#546=VERTEX_POINT('',#1784);
#547=VERTEX_POINT('',#1786);
#548=EDGE_CURVE('',#454,#454,#440,.T.);
#549=EDGE_CURVE('',#455,#456,#35,.T.);
#550=EDGE_CURVE('',#456,#457,#36,.T.);
#551=EDGE_CURVE('',#457,#458,#37,.T.);
#552=EDGE_CURVE('',#458,#455,#38,.T.);
#553=EDGE_CURVE('',#456,#459,#39,.T.);
#554=EDGE_CURVE('',#460,#459,#40,.T.);
#555=EDGE_CURVE('',#457,#460,#41,.T.);
#556=EDGE_CURVE('',#461,#462,#42,.T.);
#557=EDGE_CURVE('',#462,#463,#43,.T.);
#558=EDGE_CURVE('',#463,#464,#44,.T.);
#559=EDGE_CURVE('',#464,#461,#45,.T.);
#560=EDGE_CURVE('',#463,#465,#46,.T.);
#561=EDGE_CURVE('',#466,#465,#47,.T.);
#562=EDGE_CURVE('',#467,#466,#48,.T.);
#563=EDGE_CURVE('',#468,#467,#49,.T.);
#564=EDGE_CURVE('',#469,#468,#50,.T.);
#565=EDGE_CURVE('',#470,#469,#51,.T.);
#566=EDGE_CURVE('',#471,#470,#52,.T.);
#567=EDGE_CURVE('',#472,#471,#53,.T.);
#568=EDGE_CURVE('',#473,#472,#54,.T.);
#569=EDGE_CURVE('',#474,#473,#55,.T.);
#570=EDGE_CURVE('',#475,#474,#56,.T.);
#571=EDGE_CURVE('',#459,#475,#57,.T.);
#572=EDGE_CURVE('',#455,#464,#58,.T.);
#573=EDGE_CURVE('',#476,#476,#441,.T.);
#574=EDGE_CURVE('',#477,#477,#442,.T.);
#575=EDGE_CURVE('',#478,#462,#59,.T.);
#576=EDGE_CURVE('',#465,#478,#60,.T.);
#577=EDGE_CURVE('',#478,#479,#61,.T.);
#578=EDGE_CURVE('',#479,#466,#62,.T.);
#579=EDGE_CURVE('',#480,#481,#63,.T.);
#580=EDGE_CURVE('',#481,#468,#64,.T.);
#581=EDGE_CURVE('',#467,#480,#65,.T.);
#582=EDGE_CURVE('',#482,#481,#66,.T.);
#583=EDGE_CURVE('',#469,#482,#67,.T.);
#584=EDGE_CURVE('',#461,#458,#68,.T.);
#585=EDGE_CURVE('',#483,#460,#69,.T.);
#586=EDGE_CURVE('',#483,#484,#70,.T.);
#587=EDGE_CURVE('',#485,#484,#71,.T.);
#588=EDGE_CURVE('',#485,#486,#72,.T.);
#589=EDGE_CURVE('',#487,#486,#73,.T.);
#590=EDGE_CURVE('',#487,#488,#74,.T.);
#591=EDGE_CURVE('',#482,#488,#75,.T.);
#592=EDGE_CURVE('',#480,#479,#76,.T.);
#593=EDGE_CURVE('',#489,#489,#443,.T.);
#594=EDGE_CURVE('',#490,#490,#444,.T.);
#595=EDGE_CURVE('',#491,#491,#445,.T.);
#596=EDGE_CURVE('',#488,#470,#77,.T.);
#597=EDGE_CURVE('',#471,#487,#78,.T.);
#598=EDGE_CURVE('',#486,#472,#79,.T.);
#599=EDGE_CURVE('',#484,#474,#80,.T.);
#600=EDGE_CURVE('',#473,#485,#81,.T.);
#601=EDGE_CURVE('',#475,#483,#82,.T.);
#602=EDGE_CURVE('',#491,#454,#83,.T.);
#603=EDGE_CURVE('',#489,#476,#84,.T.);
#604=EDGE_CURVE('',#490,#477,#85,.T.);
#605=EDGE_CURVE('',#492,#492,#446,.T.);
#606=EDGE_CURVE('',#492,#493,#86,.T.);
#607=EDGE_CURVE('',#493,#493,#447,.T.);
#608=EDGE_CURVE('',#494,#494,#448,.T.);
#609=EDGE_CURVE('',#495,#495,#449,.T.);
#610=EDGE_CURVE('',#495,#496,#87,.T.);
#611=EDGE_CURVE('',#496,#496,#450,.T.);
#612=EDGE_CURVE('',#497,#497,#451,.T.);
#613=EDGE_CURVE('',#498,#498,#452,.T.);
#614=EDGE_CURVE('',#498,#494,#88,.T.);
#615=EDGE_CURVE('',#499,#499,#453,.T.);
#616=EDGE_CURVE('',#499,#497,#89,.T.);
#617=EDGE_CURVE('',#500,#501,#90,.T.);
#618=EDGE_CURVE('',#501,#502,#91,.T.);
#619=EDGE_CURVE('',#502,#503,#92,.T.);
#620=EDGE_CURVE('',#500,#503,#93,.T.);
#621=EDGE_CURVE('',#501,#504,#94,.T.);
#622=EDGE_CURVE('',#504,#505,#95,.T.);
#623=EDGE_CURVE('',#505,#502,#96,.T.);
#624=EDGE_CURVE('',#504,#506,#97,.T.);
#625=EDGE_CURVE('',#506,#507,#98,.T.);
#626=EDGE_CURVE('',#507,#505,#99,.T.);
#627=EDGE_CURVE('',#506,#508,#100,.T.);
#628=EDGE_CURVE('',#508,#509,#101,.T.);
#629=EDGE_CURVE('',#509,#507,#102,.T.);
#630=EDGE_CURVE('',#508,#510,#103,.T.);
#631=EDGE_CURVE('',#510,#511,#104,.T.);
#632=EDGE_CURVE('',#511,#509,#105,.T.);
#633=EDGE_CURVE('',#510,#512,#106,.T.);
#634=EDGE_CURVE('',#512,#513,#107,.T.);
#635=EDGE_CURVE('',#513,#511,#108,.T.);
#636=EDGE_CURVE('',#512,#514,#109,.T.);
#637=EDGE_CURVE('',#514,#515,#110,.T.);
#638=EDGE_CURVE('',#515,#513,#111,.T.);
#639=EDGE_CURVE('',#516,#515,#112,.T.);
#640=EDGE_CURVE('',#514,#517,#113,.T.);
#641=EDGE_CURVE('',#517,#516,#114,.T.);
#642=EDGE_CURVE('',#518,#516,#115,.T.);
#643=EDGE_CURVE('',#517,#519,#116,.T.);
#644=EDGE_CURVE('',#519,#518,#117,.T.);
#645=EDGE_CURVE('',#520,#518,#118,.T.);
#646=EDGE_CURVE('',#519,#521,#119,.T.);
#647=EDGE_CURVE('',#521,#520,#120,.T.);
#648=EDGE_CURVE('',#522,#520,#121,.T.);
#649=EDGE_CURVE('',#521,#523,#122,.T.);
#650=EDGE_CURVE('',#523,#522,#123,.T.);
#651=EDGE_CURVE('',#524,#522,#124,.T.);
#652=EDGE_CURVE('',#523,#525,#125,.T.);
#653=EDGE_CURVE('',#525,#524,#126,.T.);
#654=EDGE_CURVE('',#526,#524,#127,.T.);
#655=EDGE_CURVE('',#525,#527,#128,.T.);
#656=EDGE_CURVE('',#527,#526,#129,.T.);
#657=EDGE_CURVE('',#528,#526,#130,.T.);
#658=EDGE_CURVE('',#527,#529,#131,.T.);
#659=EDGE_CURVE('',#529,#528,#132,.T.);
#660=EDGE_CURVE('',#530,#528,#133,.T.);
#661=EDGE_CURVE('',#529,#531,#134,.T.);
#662=EDGE_CURVE('',#531,#530,#135,.T.);
#663=EDGE_CURVE('',#503,#530,#136,.T.);
#664=EDGE_CURVE('',#531,#500,#137,.T.);
#665=EDGE_CURVE('',#520,#532,#138,.T.);
#666=EDGE_CURVE('',#532,#533,#139,.T.);
#667=EDGE_CURVE('',#533,#518,#140,.T.);
#668=EDGE_CURVE('',#534,#522,#141,.T.);
#669=EDGE_CURVE('',#534,#532,#142,.T.);
#670=EDGE_CURVE('',#524,#535,#143,.T.);
#671=EDGE_CURVE('',#535,#534,#144,.T.);
#672=EDGE_CURVE('',#536,#526,#145,.T.);
#673=EDGE_CURVE('',#536,#535,#146,.T.);
#674=EDGE_CURVE('',#528,#537,#147,.T.);
#675=EDGE_CURVE('',#537,#536,#148,.T.);
#676=EDGE_CURVE('',#538,#530,#149,.T.);
#677=EDGE_CURVE('',#538,#537,#150,.T.);
#678=EDGE_CURVE('',#503,#539,#151,.T.);
#679=EDGE_CURVE('',#539,#538,#152,.T.);
#680=EDGE_CURVE('',#540,#502,#153,.T.);
#681=EDGE_CURVE('',#540,#539,#154,.T.);
#682=EDGE_CURVE('',#533,#541,#155,.T.);
#683=EDGE_CURVE('',#516,#541,#156,.T.);
#684=EDGE_CURVE('',#541,#542,#157,.T.);
#685=EDGE_CURVE('',#542,#515,#158,.T.);
#686=EDGE_CURVE('',#542,#543,#159,.T.);
#687=EDGE_CURVE('',#513,#543,#160,.T.);
#688=EDGE_CURVE('',#544,#540,#161,.T.);
#689=EDGE_CURVE('',#545,#544,#162,.T.);
#690=EDGE_CURVE('',#546,#545,#163,.T.);
#691=EDGE_CURVE('',#547,#546,#164,.T.);
#692=EDGE_CURVE('',#543,#547,#165,.T.);
#693=EDGE_CURVE('',#547,#511,#166,.T.);
#694=EDGE_CURVE('',#509,#546,#167,.T.);
#695=EDGE_CURVE('',#545,#507,#168,.T.);
#696=EDGE_CURVE('',#505,#544,#169,.T.);
#697=ORIENTED_EDGE('',*,*,#548,.F.);
#698=ORIENTED_EDGE('',*,*,#549,.T.);
#699=ORIENTED_EDGE('',*,*,#550,.T.);
#700=ORIENTED_EDGE('',*,*,#551,.T.);
#701=ORIENTED_EDGE('',*,*,#552,.T.);
#702=ORIENTED_EDGE('',*,*,#550,.F.);
#703=ORIENTED_EDGE('',*,*,#553,.T.);
#704=ORIENTED_EDGE('',*,*,#554,.F.);
#705=ORIENTED_EDGE('',*,*,#555,.F.);
#706=ORIENTED_EDGE('',*,*,#556,.T.);
#707=ORIENTED_EDGE('',*,*,#557,.T.);
#708=ORIENTED_EDGE('',*,*,#558,.T.);
#709=ORIENTED_EDGE('',*,*,#559,.T.);
#710=ORIENTED_EDGE('',*,*,#558,.F.);
#711=ORIENTED_EDGE('',*,*,#560,.T.);
#712=ORIENTED_EDGE('',*,*,#561,.F.);
#713=ORIENTED_EDGE('',*,*,#562,.F.);
#714=ORIENTED_EDGE('',*,*,#563,.F.);
#715=ORIENTED_EDGE('',*,*,#564,.F.);
#716=ORIENTED_EDGE('',*,*,#565,.F.);
#717=ORIENTED_EDGE('',*,*,#566,.F.);
#718=ORIENTED_EDGE('',*,*,#567,.F.);
#719=ORIENTED_EDGE('',*,*,#568,.F.);
#720=ORIENTED_EDGE('',*,*,#569,.F.);
#721=ORIENTED_EDGE('',*,*,#570,.F.);
#722=ORIENTED_EDGE('',*,*,#571,.F.);
#723=ORIENTED_EDGE('',*,*,#553,.F.);
#724=ORIENTED_EDGE('',*,*,#549,.F.);
#725=ORIENTED_EDGE('',*,*,#572,.T.);
#726=ORIENTED_EDGE('',*,*,#573,.F.);
#727=ORIENTED_EDGE('',*,*,#574,.F.);
#728=ORIENTED_EDGE('',*,*,#557,.F.);
#729=ORIENTED_EDGE('',*,*,#575,.F.);
#730=ORIENTED_EDGE('',*,*,#576,.F.);
#731=ORIENTED_EDGE('',*,*,#560,.F.);
#732=ORIENTED_EDGE('',*,*,#577,.T.);
#733=ORIENTED_EDGE('',*,*,#578,.T.);
#734=ORIENTED_EDGE('',*,*,#561,.T.);
#735=ORIENTED_EDGE('',*,*,#576,.T.);
#736=ORIENTED_EDGE('',*,*,#579,.T.);
#737=ORIENTED_EDGE('',*,*,#580,.T.);
#738=ORIENTED_EDGE('',*,*,#563,.T.);
#739=ORIENTED_EDGE('',*,*,#581,.T.);
#740=ORIENTED_EDGE('',*,*,#580,.F.);
#741=ORIENTED_EDGE('',*,*,#582,.F.);
#742=ORIENTED_EDGE('',*,*,#583,.F.);
#743=ORIENTED_EDGE('',*,*,#564,.T.);
#744=ORIENTED_EDGE('',*,*,#556,.F.);
#745=ORIENTED_EDGE('',*,*,#584,.T.);
#746=ORIENTED_EDGE('',*,*,#551,.F.);
#747=ORIENTED_EDGE('',*,*,#555,.T.);
#748=ORIENTED_EDGE('',*,*,#585,.F.);
#749=ORIENTED_EDGE('',*,*,#586,.T.);
#750=ORIENTED_EDGE('',*,*,#587,.F.);
#751=ORIENTED_EDGE('',*,*,#588,.T.);
#752=ORIENTED_EDGE('',*,*,#589,.F.);
#753=ORIENTED_EDGE('',*,*,#590,.T.);
#754=ORIENTED_EDGE('',*,*,#591,.F.);
#755=ORIENTED_EDGE('',*,*,#582,.T.);
#756=ORIENTED_EDGE('',*,*,#579,.F.);
#757=ORIENTED_EDGE('',*,*,#592,.T.);
#758=ORIENTED_EDGE('',*,*,#577,.F.);
#759=ORIENTED_EDGE('',*,*,#575,.T.);
#760=ORIENTED_EDGE('',*,*,#593,.T.);
#761=ORIENTED_EDGE('',*,*,#594,.T.);
#762=ORIENTED_EDGE('',*,*,#595,.T.);
#763=ORIENTED_EDGE('',*,*,#591,.T.);
#764=ORIENTED_EDGE('',*,*,#596,.T.);
#765=ORIENTED_EDGE('',*,*,#565,.T.);
#766=ORIENTED_EDGE('',*,*,#583,.T.);
#767=ORIENTED_EDGE('',*,*,#596,.F.);
#768=ORIENTED_EDGE('',*,*,#590,.F.);
#769=ORIENTED_EDGE('',*,*,#597,.F.);
#770=ORIENTED_EDGE('',*,*,#566,.T.);
#771=ORIENTED_EDGE('',*,*,#567,.T.);
#772=ORIENTED_EDGE('',*,*,#597,.T.);
#773=ORIENTED_EDGE('',*,*,#589,.T.);
#774=ORIENTED_EDGE('',*,*,#598,.T.);
#775=ORIENTED_EDGE('',*,*,#587,.T.);
#776=ORIENTED_EDGE('',*,*,#599,.T.);
#777=ORIENTED_EDGE('',*,*,#569,.T.);
#778=ORIENTED_EDGE('',*,*,#600,.T.);
#779=ORIENTED_EDGE('',*,*,#599,.F.);
#780=ORIENTED_EDGE('',*,*,#586,.F.);
#781=ORIENTED_EDGE('',*,*,#601,.F.);
#782=ORIENTED_EDGE('',*,*,#570,.T.);
#783=ORIENTED_EDGE('',*,*,#585,.T.);
#784=ORIENTED_EDGE('',*,*,#554,.T.);
#785=ORIENTED_EDGE('',*,*,#571,.T.);
#786=ORIENTED_EDGE('',*,*,#601,.T.);
#787=ORIENTED_EDGE('',*,*,#595,.F.);
#788=ORIENTED_EDGE('',*,*,#602,.T.);
#789=ORIENTED_EDGE('',*,*,#548,.T.);
#790=ORIENTED_EDGE('',*,*,#602,.F.);
#791=ORIENTED_EDGE('',*,*,#593,.F.);
#792=ORIENTED_EDGE('',*,*,#603,.T.);
#793=ORIENTED_EDGE('',*,*,#573,.T.);
#794=ORIENTED_EDGE('',*,*,#603,.F.);
#795=ORIENTED_EDGE('',*,*,#594,.F.);
#796=ORIENTED_EDGE('',*,*,#604,.T.);
#797=ORIENTED_EDGE('',*,*,#574,.T.);
#798=ORIENTED_EDGE('',*,*,#604,.F.);
#799=ORIENTED_EDGE('',*,*,#552,.F.);
#800=ORIENTED_EDGE('',*,*,#584,.F.);
#801=ORIENTED_EDGE('',*,*,#559,.F.);
#802=ORIENTED_EDGE('',*,*,#572,.F.);
#803=ORIENTED_EDGE('',*,*,#578,.F.);
#804=ORIENTED_EDGE('',*,*,#592,.F.);
#805=ORIENTED_EDGE('',*,*,#581,.F.);
#806=ORIENTED_EDGE('',*,*,#562,.T.);
#807=ORIENTED_EDGE('',*,*,#598,.F.);
#808=ORIENTED_EDGE('',*,*,#588,.F.);
#809=ORIENTED_EDGE('',*,*,#600,.F.);
#810=ORIENTED_EDGE('',*,*,#568,.T.);
#811=ORIENTED_EDGE('',*,*,#605,.F.);
#812=ORIENTED_EDGE('',*,*,#606,.T.);
#813=ORIENTED_EDGE('',*,*,#607,.T.);
#814=ORIENTED_EDGE('',*,*,#606,.F.);
#815=ORIENTED_EDGE('',*,*,#607,.F.);
#816=ORIENTED_EDGE('',*,*,#608,.F.);
#817=ORIENTED_EDGE('',*,*,#609,.F.);
#818=ORIENTED_EDGE('',*,*,#610,.T.);
#819=ORIENTED_EDGE('',*,*,#611,.T.);
#820=ORIENTED_EDGE('',*,*,#610,.F.);
#821=ORIENTED_EDGE('',*,*,#611,.F.);
#822=ORIENTED_EDGE('',*,*,#612,.F.);
#823=ORIENTED_EDGE('',*,*,#613,.F.);
#824=ORIENTED_EDGE('',*,*,#614,.T.);
#825=ORIENTED_EDGE('',*,*,#608,.T.);
#826=ORIENTED_EDGE('',*,*,#614,.F.);
#827=ORIENTED_EDGE('',*,*,#615,.F.);
#828=ORIENTED_EDGE('',*,*,#616,.T.);
#829=ORIENTED_EDGE('',*,*,#612,.T.);
#830=ORIENTED_EDGE('',*,*,#616,.F.);
#831=ORIENTED_EDGE('',*,*,#617,.T.);
#832=ORIENTED_EDGE('',*,*,#618,.T.);
#833=ORIENTED_EDGE('',*,*,#619,.T.);
#834=ORIENTED_EDGE('',*,*,#620,.F.);
#835=ORIENTED_EDGE('',*,*,#621,.T.);
#836=ORIENTED_EDGE('',*,*,#622,.T.);
#837=ORIENTED_EDGE('',*,*,#623,.T.);
#838=ORIENTED_EDGE('',*,*,#618,.F.);
#839=ORIENTED_EDGE('',*,*,#624,.T.);
#840=ORIENTED_EDGE('',*,*,#625,.T.);
#841=ORIENTED_EDGE('',*,*,#626,.T.);
#842=ORIENTED_EDGE('',*,*,#622,.F.);
#843=ORIENTED_EDGE('',*,*,#627,.T.);
#844=ORIENTED_EDGE('',*,*,#628,.T.);
#845=ORIENTED_EDGE('',*,*,#629,.T.);
#846=ORIENTED_EDGE('',*,*,#625,.F.);
#847=ORIENTED_EDGE('',*,*,#630,.T.);
#848=ORIENTED_EDGE('',*,*,#631,.T.);
#849=ORIENTED_EDGE('',*,*,#632,.T.);
#850=ORIENTED_EDGE('',*,*,#628,.F.);
#851=ORIENTED_EDGE('',*,*,#633,.T.);
#852=ORIENTED_EDGE('',*,*,#634,.T.);
#853=ORIENTED_EDGE('',*,*,#635,.T.);
#854=ORIENTED_EDGE('',*,*,#631,.F.);
#855=ORIENTED_EDGE('',*,*,#636,.T.);
#856=ORIENTED_EDGE('',*,*,#637,.T.);
#857=ORIENTED_EDGE('',*,*,#638,.T.);
#858=ORIENTED_EDGE('',*,*,#634,.F.);
#859=ORIENTED_EDGE('',*,*,#639,.T.);
#860=ORIENTED_EDGE('',*,*,#637,.F.);
#861=ORIENTED_EDGE('',*,*,#640,.T.);
#862=ORIENTED_EDGE('',*,*,#641,.T.);
#863=ORIENTED_EDGE('',*,*,#642,.T.);
#864=ORIENTED_EDGE('',*,*,#641,.F.);
#865=ORIENTED_EDGE('',*,*,#643,.T.);
#866=ORIENTED_EDGE('',*,*,#644,.T.);
#867=ORIENTED_EDGE('',*,*,#645,.T.);
#868=ORIENTED_EDGE('',*,*,#644,.F.);
#869=ORIENTED_EDGE('',*,*,#646,.T.);
#870=ORIENTED_EDGE('',*,*,#647,.T.);
#871=ORIENTED_EDGE('',*,*,#648,.T.);
#872=ORIENTED_EDGE('',*,*,#647,.F.);
#873=ORIENTED_EDGE('',*,*,#649,.T.);
#874=ORIENTED_EDGE('',*,*,#650,.T.);
#875=ORIENTED_EDGE('',*,*,#651,.T.);
#876=ORIENTED_EDGE('',*,*,#650,.F.);
#877=ORIENTED_EDGE('',*,*,#652,.T.);
#878=ORIENTED_EDGE('',*,*,#653,.T.);
#879=ORIENTED_EDGE('',*,*,#654,.T.);
#880=ORIENTED_EDGE('',*,*,#653,.F.);
#881=ORIENTED_EDGE('',*,*,#655,.T.);
#882=ORIENTED_EDGE('',*,*,#656,.T.);
#883=ORIENTED_EDGE('',*,*,#657,.T.);
#884=ORIENTED_EDGE('',*,*,#656,.F.);
#885=ORIENTED_EDGE('',*,*,#658,.T.);
#886=ORIENTED_EDGE('',*,*,#659,.T.);
#887=ORIENTED_EDGE('',*,*,#660,.T.);
#888=ORIENTED_EDGE('',*,*,#659,.F.);
#889=ORIENTED_EDGE('',*,*,#661,.T.);
#890=ORIENTED_EDGE('',*,*,#662,.T.);
#891=ORIENTED_EDGE('',*,*,#663,.T.);
#892=ORIENTED_EDGE('',*,*,#662,.F.);
#893=ORIENTED_EDGE('',*,*,#664,.T.);
#894=ORIENTED_EDGE('',*,*,#620,.T.);
#895=ORIENTED_EDGE('',*,*,#645,.F.);
#896=ORIENTED_EDGE('',*,*,#665,.T.);
#897=ORIENTED_EDGE('',*,*,#666,.T.);
#898=ORIENTED_EDGE('',*,*,#667,.T.);
#899=ORIENTED_EDGE('',*,*,#648,.F.);
#900=ORIENTED_EDGE('',*,*,#668,.F.);
#901=ORIENTED_EDGE('',*,*,#669,.T.);
#902=ORIENTED_EDGE('',*,*,#665,.F.);
#903=ORIENTED_EDGE('',*,*,#651,.F.);
#904=ORIENTED_EDGE('',*,*,#670,.T.);
#905=ORIENTED_EDGE('',*,*,#671,.T.);
#906=ORIENTED_EDGE('',*,*,#668,.T.);
#907=ORIENTED_EDGE('',*,*,#654,.F.);
#908=ORIENTED_EDGE('',*,*,#672,.F.);
#909=ORIENTED_EDGE('',*,*,#673,.T.);
#910=ORIENTED_EDGE('',*,*,#670,.F.);
#911=ORIENTED_EDGE('',*,*,#657,.F.);
#912=ORIENTED_EDGE('',*,*,#674,.T.);
#913=ORIENTED_EDGE('',*,*,#675,.T.);
#914=ORIENTED_EDGE('',*,*,#672,.T.);
#915=ORIENTED_EDGE('',*,*,#660,.F.);
#916=ORIENTED_EDGE('',*,*,#676,.F.);
#917=ORIENTED_EDGE('',*,*,#677,.T.);
#918=ORIENTED_EDGE('',*,*,#674,.F.);
#919=ORIENTED_EDGE('',*,*,#663,.F.);
#920=ORIENTED_EDGE('',*,*,#678,.T.);
#921=ORIENTED_EDGE('',*,*,#679,.T.);
#922=ORIENTED_EDGE('',*,*,#676,.T.);
#923=ORIENTED_EDGE('',*,*,#619,.F.);
#924=ORIENTED_EDGE('',*,*,#680,.F.);
#925=ORIENTED_EDGE('',*,*,#681,.T.);
#926=ORIENTED_EDGE('',*,*,#678,.F.);
#927=ORIENTED_EDGE('',*,*,#617,.F.);
#928=ORIENTED_EDGE('',*,*,#664,.F.);
#929=ORIENTED_EDGE('',*,*,#661,.F.);
#930=ORIENTED_EDGE('',*,*,#658,.F.);
#931=ORIENTED_EDGE('',*,*,#655,.F.);
#932=ORIENTED_EDGE('',*,*,#652,.F.);
#933=ORIENTED_EDGE('',*,*,#649,.F.);
#934=ORIENTED_EDGE('',*,*,#646,.F.);
#935=ORIENTED_EDGE('',*,*,#643,.F.);
#936=ORIENTED_EDGE('',*,*,#640,.F.);
#937=ORIENTED_EDGE('',*,*,#636,.F.);
#938=ORIENTED_EDGE('',*,*,#633,.F.);
#939=ORIENTED_EDGE('',*,*,#630,.F.);
#940=ORIENTED_EDGE('',*,*,#627,.F.);
#941=ORIENTED_EDGE('',*,*,#624,.F.);
#942=ORIENTED_EDGE('',*,*,#621,.F.);
#943=ORIENTED_EDGE('',*,*,#605,.T.);
#944=ORIENTED_EDGE('',*,*,#609,.T.);
#945=ORIENTED_EDGE('',*,*,#642,.F.);
#946=ORIENTED_EDGE('',*,*,#667,.F.);
#947=ORIENTED_EDGE('',*,*,#682,.T.);
#948=ORIENTED_EDGE('',*,*,#683,.F.);
#949=ORIENTED_EDGE('',*,*,#639,.F.);
#950=ORIENTED_EDGE('',*,*,#683,.T.);
#951=ORIENTED_EDGE('',*,*,#684,.T.);
#952=ORIENTED_EDGE('',*,*,#685,.T.);
#953=ORIENTED_EDGE('',*,*,#638,.F.);
#954=ORIENTED_EDGE('',*,*,#685,.F.);
#955=ORIENTED_EDGE('',*,*,#686,.T.);
#956=ORIENTED_EDGE('',*,*,#687,.F.);
#957=ORIENTED_EDGE('',*,*,#684,.F.);
#958=ORIENTED_EDGE('',*,*,#682,.F.);
#959=ORIENTED_EDGE('',*,*,#666,.F.);
#960=ORIENTED_EDGE('',*,*,#669,.F.);
#961=ORIENTED_EDGE('',*,*,#671,.F.);
#962=ORIENTED_EDGE('',*,*,#673,.F.);
#963=ORIENTED_EDGE('',*,*,#675,.F.);
#964=ORIENTED_EDGE('',*,*,#677,.F.);
#965=ORIENTED_EDGE('',*,*,#679,.F.);
#966=ORIENTED_EDGE('',*,*,#681,.F.);
#967=ORIENTED_EDGE('',*,*,#688,.F.);
#968=ORIENTED_EDGE('',*,*,#689,.F.);
#969=ORIENTED_EDGE('',*,*,#690,.F.);
#970=ORIENTED_EDGE('',*,*,#691,.F.);
#971=ORIENTED_EDGE('',*,*,#692,.F.);
#972=ORIENTED_EDGE('',*,*,#686,.F.);
#973=ORIENTED_EDGE('',*,*,#613,.T.);
#974=ORIENTED_EDGE('',*,*,#615,.T.);
#975=ORIENTED_EDGE('',*,*,#635,.F.);
#976=ORIENTED_EDGE('',*,*,#687,.T.);
#977=ORIENTED_EDGE('',*,*,#692,.T.);
#978=ORIENTED_EDGE('',*,*,#693,.T.);
#979=ORIENTED_EDGE('',*,*,#632,.F.);
#980=ORIENTED_EDGE('',*,*,#693,.F.);
#981=ORIENTED_EDGE('',*,*,#691,.T.);
#982=ORIENTED_EDGE('',*,*,#694,.F.);
#983=ORIENTED_EDGE('',*,*,#629,.F.);
#984=ORIENTED_EDGE('',*,*,#694,.T.);
#985=ORIENTED_EDGE('',*,*,#690,.T.);
#986=ORIENTED_EDGE('',*,*,#695,.T.);
#987=ORIENTED_EDGE('',*,*,#626,.F.);
#988=ORIENTED_EDGE('',*,*,#695,.F.);
#989=ORIENTED_EDGE('',*,*,#689,.T.);
#990=ORIENTED_EDGE('',*,*,#696,.F.);
#991=ORIENTED_EDGE('',*,*,#623,.F.);
#992=ORIENTED_EDGE('',*,*,#696,.T.);
#993=ORIENTED_EDGE('',*,*,#688,.T.);
#994=ORIENTED_EDGE('',*,*,#680,.T.);
#995=PLANE('',#1127);
#996=PLANE('',#1129);
#997=PLANE('',#1130);
#998=PLANE('',#1131);
#999=PLANE('',#1132);
#1000=PLANE('',#1135);
#1001=PLANE('',#1136);
#1002=PLANE('',#1137);
#1003=PLANE('',#1138);
#1004=PLANE('',#1139);
#1005=PLANE('',#1143);
#1006=PLANE('',#1144);
#1007=PLANE('',#1145);
#1008=PLANE('',#1146);
#1009=PLANE('',#1147);
#1010=PLANE('',#1148);
#1011=PLANE('',#1152);
#1012=PLANE('',#1153);
#1013=PLANE('',#1154);
#1014=PLANE('',#1158);
#1015=PLANE('',#1163);
#1016=PLANE('',#1169);
#1017=PLANE('',#1170);
#1018=PLANE('',#1171);
#1019=PLANE('',#1172);
#1020=PLANE('',#1173);
#1021=PLANE('',#1174);
#1022=PLANE('',#1175);
#1023=PLANE('',#1176);
#1024=PLANE('',#1177);
#1025=PLANE('',#1178);
#1026=PLANE('',#1179);
#1027=PLANE('',#1180);
#1028=PLANE('',#1181);
#1029=PLANE('',#1182);
#1030=PLANE('',#1183);
#1031=PLANE('',#1184);
#1032=PLANE('',#1185);
#1033=PLANE('',#1186);
#1034=PLANE('',#1187);
#1035=PLANE('',#1188);
#1036=PLANE('',#1189);
#1037=PLANE('',#1190);
#1038=PLANE('',#1191);
#1039=PLANE('',#1192);
#1040=PLANE('',#1193);
#1041=PLANE('',#1194);
#1042=PLANE('',#1195);
#1043=PLANE('',#1196);
#1044=PLANE('',#1197);
#1045=PLANE('',#1198);
#1046=PLANE('',#1199);
#1047=PLANE('',#1200);
#1048=PLANE('',#1201);
#1049=PLANE('',#1202);
#1050=ADVANCED_FACE('',(#305),#995,.T.);
#1051=ADVANCED_FACE('',(#306),#996,.T.);
#1052=ADVANCED_FACE('',(#307),#997,.T.);
#1053=ADVANCED_FACE('',(#308),#998,.T.);
#1054=ADVANCED_FACE('',(#309,#24,#25),#999,.F.);
#1055=ADVANCED_FACE('',(#310),#1000,.T.);
#1056=ADVANCED_FACE('',(#311),#1001,.T.);
#1057=ADVANCED_FACE('',(#312),#1002,.T.);
#1058=ADVANCED_FACE('',(#313),#1003,.T.);
#1059=ADVANCED_FACE('',(#314,#26,#27,#28),#1004,.T.);
#1060=ADVANCED_FACE('',(#315),#1005,.T.);
#1061=ADVANCED_FACE('',(#316),#1006,.T.);
#1062=ADVANCED_FACE('',(#317),#1007,.T.);
#1063=ADVANCED_FACE('',(#318),#1008,.T.);
#1064=ADVANCED_FACE('',(#319),#1009,.T.);
#1065=ADVANCED_FACE('',(#320),#1010,.T.);
#1066=ADVANCED_FACE('',(#321),#17,.F.);
#1067=ADVANCED_FACE('',(#322),#18,.F.);
#1068=ADVANCED_FACE('',(#323),#19,.F.);
#1069=ADVANCED_FACE('',(#324),#1011,.T.);
#1070=ADVANCED_FACE('',(#325),#1012,.T.);
#1071=ADVANCED_FACE('',(#326),#1013,.T.);
#1072=ADVANCED_FACE('',(#327),#20,.F.);
#1073=ADVANCED_FACE('',(#328,#29),#1014,.T.);
#1074=ADVANCED_FACE('',(#329),#21,.F.);
#1075=ADVANCED_FACE('',(#330,#30),#1015,.T.);
#1076=ADVANCED_FACE('',(#331),#22,.F.);
#1077=ADVANCED_FACE('',(#332),#23,.F.);
#1078=ADVANCED_FACE('',(#333),#1016,.T.);
#1079=ADVANCED_FACE('',(#334),#1017,.T.);
#1080=ADVANCED_FACE('',(#335),#1018,.T.);
#1081=ADVANCED_FACE('',(#336),#1019,.T.);
#1082=ADVANCED_FACE('',(#337),#1020,.T.);
#1083=ADVANCED_FACE('',(#338),#1021,.T.);
#1084=ADVANCED_FACE('',(#339),#1022,.T.);
#1085=ADVANCED_FACE('',(#340),#1023,.T.);
#1086=ADVANCED_FACE('',(#341),#1024,.T.);
#1087=ADVANCED_FACE('',(#342),#1025,.T.);
#1088=ADVANCED_FACE('',(#343),#1026,.T.);
#1089=ADVANCED_FACE('',(#344),#1027,.T.);
#1090=ADVANCED_FACE('',(#345),#1028,.T.);
#1091=ADVANCED_FACE('',(#346),#1029,.T.);
#1092=ADVANCED_FACE('',(#347),#1030,.T.);
#1093=ADVANCED_FACE('',(#348),#1031,.T.);
#1094=ADVANCED_FACE('',(#349),#1032,.T.);
#1095=ADVANCED_FACE('',(#350),#1033,.T.);
#1096=ADVANCED_FACE('',(#351),#1034,.T.);
#1097=ADVANCED_FACE('',(#352),#1035,.T.);
#1098=ADVANCED_FACE('',(#353),#1036,.T.);
#1099=ADVANCED_FACE('',(#354),#1037,.T.);
#1100=ADVANCED_FACE('',(#355),#1038,.T.);
#1101=ADVANCED_FACE('',(#356),#1039,.T.);
#1102=ADVANCED_FACE('',(#357,#31,#32),#1040,.T.);
#1103=ADVANCED_FACE('',(#358),#1041,.T.);
#1104=ADVANCED_FACE('',(#359),#1042,.T.);
#1105=ADVANCED_FACE('',(#360),#1043,.T.);
#1106=ADVANCED_FACE('',(#361,#33,#34),#1044,.F.);
#1107=ADVANCED_FACE('',(#362),#1045,.T.);
#1108=ADVANCED_FACE('',(#363),#1046,.T.);
#1109=ADVANCED_FACE('',(#364),#1047,.T.);
#1110=ADVANCED_FACE('',(#365),#1048,.T.);
#1111=ADVANCED_FACE('',(#366),#1049,.T.);
#1112=CLOSED_SHELL('',(#1050,#1051,#1052,#1053,#1054,#1055,#1056,#1057,
#1058,#1059,#1060,#1061,#1062,#1063,#1064,#1065,#1066,#1067,#1068,#1069,
#1070,#1071));
#1113=CLOSED_SHELL('',(#1072,#1073,#1074,#1075,#1076,#1077,#1078,#1079,
#1080,#1081,#1082,#1083,#1084,#1085,#1086,#1087,#1088,#1089,#1090,#1091,
#1092,#1093,#1094,#1095,#1096,#1097,#1098,#1099,#1100,#1101,#1102,#1103,
#1104,#1105,#1106,#1107,#1108,#1109,#1110,#1111));
#1114=DERIVED_UNIT_ELEMENT(#1116,1.);
#1115=DERIVED_UNIT_ELEMENT(#1803,-3.);
#1116=(
MASS_UNIT()
NAMED_UNIT(*)
SI_UNIT(.KILO.,.GRAM.)
);
#1117=DERIVED_UNIT((#1114,#1115));
#1118=MEASURE_REPRESENTATION_ITEM('density measure',
POSITIVE_RATIO_MEASURE(7850.),#1117);
#1119=PROPERTY_DEFINITION_REPRESENTATION(#1124,#1121);
#1120=PROPERTY_DEFINITION_REPRESENTATION(#1125,#1122);
#1121=REPRESENTATION('material name',(#1123),#1800);
#1122=REPRESENTATION('density',(#1118),#1800);
#1123=DESCRIPTIVE_REPRESENTATION_ITEM('Stahl','Stahl');
#1124=PROPERTY_DEFINITION('material property','material name',#1810);
#1125=PROPERTY_DEFINITION('material property','density of part',#1810);
#1126=AXIS2_PLACEMENT_3D('',#1492,#1203,#1204);
#1127=AXIS2_PLACEMENT_3D('',#1493,#1205,#1206);
#1128=AXIS2_PLACEMENT_3D('',#1495,#1207,#1208);
#1129=AXIS2_PLACEMENT_3D('',#1496,#1209,#1210);
#1130=AXIS2_PLACEMENT_3D('',#1505,#1215,#1216);
#1131=AXIS2_PLACEMENT_3D('',#1511,#1220,#1221);
#1132=AXIS2_PLACEMENT_3D('',#1520,#1226,#1227);
#1133=AXIS2_PLACEMENT_3D('',#1546,#1241,#1242);
#1134=AXIS2_PLACEMENT_3D('',#1548,#1243,#1244);
#1135=AXIS2_PLACEMENT_3D('',#1549,#1245,#1246);
#1136=AXIS2_PLACEMENT_3D('',#1553,#1249,#1250);
#1137=AXIS2_PLACEMENT_3D('',#1557,#1253,#1254);
#1138=AXIS2_PLACEMENT_3D('',#1563,#1258,#1259);
#1139=AXIS2_PLACEMENT_3D('',#1567,#1262,#1263);
#1140=AXIS2_PLACEMENT_3D('',#1584,#1273,#1274);
#1141=AXIS2_PLACEMENT_3D('',#1586,#1275,#1276);
#1142=AXIS2_PLACEMENT_3D('',#1588,#1277,#1278);
#1143=AXIS2_PLACEMENT_3D('',#1589,#1279,#1280);
#1144=AXIS2_PLACEMENT_3D('',#1591,#1282,#1283);
#1145=AXIS2_PLACEMENT_3D('',#1593,#1285,#1286);
#1146=AXIS2_PLACEMENT_3D('',#1595,#1288,#1289);
#1147=AXIS2_PLACEMENT_3D('',#1598,#1292,#1293);
#1148=AXIS2_PLACEMENT_3D('',#1600,#1295,#1296);
#1149=AXIS2_PLACEMENT_3D('',#1601,#1297,#1298);
#1150=AXIS2_PLACEMENT_3D('',#1603,#1300,#1301);
#1151=AXIS2_PLACEMENT_3D('',#1605,#1303,#1304);
#1152=AXIS2_PLACEMENT_3D('',#1607,#1306,#1307);
#1153=AXIS2_PLACEMENT_3D('',#1608,#1308,#1309);
#1154=AXIS2_PLACEMENT_3D('',#1609,#1310,#1311);
#1155=AXIS2_PLACEMENT_3D('',#1610,#1312,#1313);
#1156=AXIS2_PLACEMENT_3D('',#1612,#1314,#1315);
#1157=AXIS2_PLACEMENT_3D('',#1615,#1317,#1318);
#1158=AXIS2_PLACEMENT_3D('',#1616,#1319,#1320);
#1159=AXIS2_PLACEMENT_3D('',#1618,#1321,#1322);
#1160=AXIS2_PLACEMENT_3D('',#1619,#1323,#1324);
#1161=AXIS2_PLACEMENT_3D('',#1621,#1325,#1326);
#1162=AXIS2_PLACEMENT_3D('',#1624,#1328,#1329);
#1163=AXIS2_PLACEMENT_3D('',#1625,#1330,#1331);
#1164=AXIS2_PLACEMENT_3D('',#1627,#1332,#1333);
#1165=AXIS2_PLACEMENT_3D('',#1628,#1334,#1335);
#1166=AXIS2_PLACEMENT_3D('',#1630,#1336,#1337);
#1167=AXIS2_PLACEMENT_3D('',#1632,#1339,#1340);
#1168=AXIS2_PLACEMENT_3D('',#1634,#1341,#1342);
#1169=AXIS2_PLACEMENT_3D('',#1636,#1344,#1345);
#1170=AXIS2_PLACEMENT_3D('',#1645,#1350,#1351);
#1171=AXIS2_PLACEMENT_3D('',#1651,#1355,#1356);
#1172=AXIS2_PLACEMENT_3D('',#1657,#1360,#1361);
#1173=AXIS2_PLACEMENT_3D('',#1663,#1365,#1366);
#1174=AXIS2_PLACEMENT_3D('',#1669,#1370,#1371);
#1175=AXIS2_PLACEMENT_3D('',#1675,#1375,#1376);
#1176=AXIS2_PLACEMENT_3D('',#1681,#1380,#1381);
#1177=AXIS2_PLACEMENT_3D('',#1687,#1385,#1386);
#1178=AXIS2_PLACEMENT_3D('',#1693,#1390,#1391);
#1179=AXIS2_PLACEMENT_3D('',#1699,#1395,#1396);
#1180=AXIS2_PLACEMENT_3D('',#1705,#1400,#1401);
#1181=AXIS2_PLACEMENT_3D('',#1711,#1405,#1406);
#1182=AXIS2_PLACEMENT_3D('',#1717,#1410,#1411);
#1183=AXIS2_PLACEMENT_3D('',#1723,#1415,#1416);
#1184=AXIS2_PLACEMENT_3D('',#1729,#1420,#1421);
#1185=AXIS2_PLACEMENT_3D('',#1732,#1424,#1425);
#1186=AXIS2_PLACEMENT_3D('',#1738,#1429,#1430);
#1187=AXIS2_PLACEMENT_3D('',#1742,#1433,#1434);
#1188=AXIS2_PLACEMENT_3D('',#1746,#1437,#1438);
#1189=AXIS2_PLACEMENT_3D('',#1750,#1441,#1442);
#1190=AXIS2_PLACEMENT_3D('',#1754,#1445,#1446);
#1191=AXIS2_PLACEMENT_3D('',#1758,#1449,#1450);
#1192=AXIS2_PLACEMENT_3D('',#1762,#1453,#1454);
#1193=AXIS2_PLACEMENT_3D('',#1766,#1457,#1458);
#1194=AXIS2_PLACEMENT_3D('',#1767,#1459,#1460);
#1195=AXIS2_PLACEMENT_3D('',#1771,#1463,#1464);
#1196=AXIS2_PLACEMENT_3D('',#1775,#1467,#1468);
#1197=AXIS2_PLACEMENT_3D('',#1779,#1471,#1472);
#1198=AXIS2_PLACEMENT_3D('',#1789,#1478,#1479);
#1199=AXIS2_PLACEMENT_3D('',#1791,#1481,#1482);
#1200=AXIS2_PLACEMENT_3D('',#1793,#1484,#1485);
#1201=AXIS2_PLACEMENT_3D('',#1795,#1487,#1488);
#1202=AXIS2_PLACEMENT_3D('',#1797,#1490,#1491);
#1203=DIRECTION('axis',(0.,0.,1.));
#1204=DIRECTION('refdir',(1.,0.,0.));
#1205=DIRECTION('center_axis',(0.,0.,1.));
#1206=DIRECTION('ref_axis',(1.,0.,0.));
#1207=DIRECTION('center_axis',(0.,0.,-1.));
#1208=DIRECTION('ref_axis',(-1.,0.,0.));
#1209=DIRECTION('center_axis',(-0.707106781186548,-0.707106781186547,0.));
#1210=DIRECTION('ref_axis',(0.,0.,1.));
#1211=DIRECTION('',(0.707106781186547,-0.707106781186548,0.));
#1212=DIRECTION('',(0.,0.,1.));
#1213=DIRECTION('',(-0.707106781186547,0.707106781186548,0.));
#1214=DIRECTION('',(0.,0.,-1.));
#1215=DIRECTION('center_axis',(-1.,2.05432527401305E-33,0.));
#1216=DIRECTION('ref_axis',(-2.05432527401305E-33,-1.,0.));
#1217=DIRECTION('',(-2.05432527401305E-33,-1.,0.));
#1218=DIRECTION('',(0.,0.,-1.));
#1219=DIRECTION('',(0.,-1.,0.));
#1220=DIRECTION('center_axis',(-0.707106781186548,-0.707106781186548,0.));
#1221=DIRECTION('ref_axis',(0.,0.,1.));
#1222=DIRECTION('',(-0.707106781186548,0.707106781186548,0.));
#1223=DIRECTION('',(0.,0.,-1.));
#1224=DIRECTION('',(0.707106781186548,-0.707106781186548,0.));
#1225=DIRECTION('',(0.,0.,1.));
#1226=DIRECTION('center_axis',(0.,0.,1.));
#1227=DIRECTION('ref_axis',(1.,0.,0.));
#1228=DIRECTION('',(0.,1.,0.));
#1229=DIRECTION('',(-0.707106781186547,-0.707106781186548,0.));
#1230=DIRECTION('',(-1.,0.,0.));
#1231=DIRECTION('',(-0.707106781186548,0.707106781186548,0.));
#1232=DIRECTION('',(0.,1.,0.));
#1233=DIRECTION('',(0.707106781186548,0.707106781186548,0.));
#1234=DIRECTION('',(1.,0.,0.));
#1235=DIRECTION('',(0.707106781186548,0.707106781186547,0.));
#1236=DIRECTION('',(0.,1.,0.));
#1237=DIRECTION('',(0.707106781186548,0.707106781186547,0.));
#1238=DIRECTION('',(1.,0.,0.));
#1239=DIRECTION('',(0.707106781186547,-0.707106781186548,0.));
#1240=DIRECTION('',(-1.,0.,0.));
#1241=DIRECTION('center_axis',(0.,0.,-1.));
#1242=DIRECTION('ref_axis',(1.,0.,0.));
#1243=DIRECTION('center_axis',(0.,0.,-1.));
#1244=DIRECTION('ref_axis',(1.,0.,0.));
#1245=DIRECTION('center_axis',(-1.,0.,0.));
#1246=DIRECTION('ref_axis',(0.,-1.,0.));
#1247=DIRECTION('',(0.,-1.,0.));
#1248=DIRECTION('',(0.,0.,1.));
#1249=DIRECTION('center_axis',(-0.707106781186548,0.707106781186547,0.));
#1250=DIRECTION('ref_axis',(0.,0.,1.));
#1251=DIRECTION('',(0.707106781186547,0.707106781186548,0.));
#1252=DIRECTION('',(0.,0.,-1.));
#1253=DIRECTION('center_axis',(0.707106781186548,0.707106781186548,0.));
#1254=DIRECTION('ref_axis',(0.,0.,-1.));
#1255=DIRECTION('',(0.707106781186548,-0.707106781186548,0.));
#1256=DIRECTION('',(0.,0.,-1.));
#1257=DIRECTION('',(0.,0.,1.));
#1258=DIRECTION('center_axis',(1.,0.,0.));
#1259=DIRECTION('ref_axis',(0.,1.,0.));
#1260=DIRECTION('',(0.,1.,0.));
#1261=DIRECTION('',(0.,0.,1.));
#1262=DIRECTION('center_axis',(0.,0.,1.));
#1263=DIRECTION('ref_axis',(-1.,0.,0.));
#1264=DIRECTION('',(1.,0.,0.));
#1265=DIRECTION('',(-0.707106781186547,0.707106781186548,0.));
#1266=DIRECTION('',(1.,0.,0.));
#1267=DIRECTION('',(-0.707106781186548,-0.707106781186547,0.));
#1268=DIRECTION('',(0.,1.,0.));
#1269=DIRECTION('',(-0.707106781186548,-0.707106781186547,0.));
#1270=DIRECTION('',(1.,0.,0.));
#1271=DIRECTION('',(-0.707106781186548,-0.707106781186548,0.));
#1272=DIRECTION('',(-1.,0.,0.));
#1273=DIRECTION('center_axis',(0.,0.,-1.));
#1274=DIRECTION('ref_axis',(-1.,0.,0.));
#1275=DIRECTION('center_axis',(0.,0.,-1.));
#1276=DIRECTION('ref_axis',(-1.,0.,0.));
#1277=DIRECTION('center_axis',(0.,0.,-1.));
#1278=DIRECTION('ref_axis',(-1.,0.,0.));
#1279=DIRECTION('center_axis',(0.707106781186548,-0.707106781186548,0.));
#1280=DIRECTION('ref_axis',(0.,0.,-1.));
#1281=DIRECTION('',(0.,0.,-1.));
#1282=DIRECTION('center_axis',(0.,-1.,0.));
#1283=DIRECTION('ref_axis',(1.,0.,0.));
#1284=DIRECTION('',(0.,0.,1.));
#1285=DIRECTION('center_axis',(0.707106781186547,-0.707106781186548,0.));
#1286=DIRECTION('ref_axis',(0.,0.,-1.));
#1287=DIRECTION('',(0.,0.,-1.));
#1288=DIRECTION('center_axis',(0.707106781186547,-0.707106781186548,0.));
#1289=DIRECTION('ref_axis',(0.,0.,-1.));
#1290=DIRECTION('',(0.,0.,-1.));
#1291=DIRECTION('',(0.,0.,1.));
#1292=DIRECTION('center_axis',(0.,-1.,0.));
#1293=DIRECTION('ref_axis',(1.,0.,0.));
#1294=DIRECTION('',(0.,0.,1.));
#1295=DIRECTION('center_axis',(-0.707106781186548,-0.707106781186547,0.));
#1296=DIRECTION('ref_axis',(0.,0.,1.));
#1297=DIRECTION('center_axis',(0.,0.,1.));
#1298=DIRECTION('ref_axis',(-1.,0.,0.));
#1299=DIRECTION('',(0.,0.,-1.));
#1300=DIRECTION('center_axis',(0.,0.,1.));
#1301=DIRECTION('ref_axis',(1.,0.,0.));
#1302=DIRECTION('',(0.,0.,-1.));
#1303=DIRECTION('center_axis',(0.,0.,1.));
#1304=DIRECTION('ref_axis',(1.,0.,0.));
#1305=DIRECTION('',(0.,0.,-1.));
#1306=DIRECTION('center_axis',(0.,-1.,0.));
#1307=DIRECTION('ref_axis',(1.,0.,0.));
#1308=DIRECTION('center_axis',(0.,1.,0.));
#1309=DIRECTION('ref_axis',(-1.,0.,0.));
#1310=DIRECTION('center_axis',(1.,0.,0.));
#1311=DIRECTION('ref_axis',(0.,1.,0.));
#1312=DIRECTION('center_axis',(0.,0.,-1.));
#1313=DIRECTION('ref_axis',(-1.,0.,0.));
#1314=DIRECTION('center_axis',(0.,0.,-1.));
#1315=DIRECTION('ref_axis',(-1.,0.,0.));
#1316=DIRECTION('',(0.,0.,-1.));
#1317=DIRECTION('center_axis',(0.,0.,-1.));
#1318=DIRECTION('ref_axis',(-1.,0.,0.));
#1319=DIRECTION('center_axis',(0.,0.,1.));
#1320=DIRECTION('ref_axis',(-1.,0.,0.));
#1321=DIRECTION('center_axis',(0.,0.,1.));
#1322=DIRECTION('ref_axis',(-1.,0.,0.));
#1323=DIRECTION('center_axis',(0.,0.,-1.));
#1324=DIRECTION('ref_axis',(-1.,0.,0.));
#1325=DIRECTION('center_axis',(0.,0.,-1.));
#1326=DIRECTION('ref_axis',(-1.,0.,0.));
#1327=DIRECTION('',(0.,0.,-1.));
#1328=DIRECTION('center_axis',(0.,0.,-1.));
#1329=DIRECTION('ref_axis',(-1.,0.,0.));
#1330=DIRECTION('center_axis',(0.,0.,1.));
#1331=DIRECTION('ref_axis',(-1.,0.,0.));
#1332=DIRECTION('center_axis',(0.,0.,1.));
#1333=DIRECTION('ref_axis',(-1.,0.,0.));
#1334=DIRECTION('center_axis',(0.,0.,1.));
#1335=DIRECTION('ref_axis',(-1.,0.,0.));
#1336=DIRECTION('center_axis',(0.,0.,1.));
#1337=DIRECTION('ref_axis',(-1.,0.,0.));
#1338=DIRECTION('',(0.,0.,1.));
#1339=DIRECTION('center_axis',(0.,0.,1.));
#1340=DIRECTION('ref_axis',(-1.,0.,0.));
#1341=DIRECTION('center_axis',(0.,0.,1.));
#1342=DIRECTION('ref_axis',(-1.,0.,0.));
#1343=DIRECTION('',(0.,0.,1.));
#1344=DIRECTION('center_axis',(0.707106781186547,0.,0.707106781186548));
#1345=DIRECTION('ref_axis',(0.707106781186548,0.,-0.707106781186547));
#1346=DIRECTION('',(0.,-1.,0.));
#1347=DIRECTION('',(0.678598344545848,-0.281084637714818,-0.678598344545847));
#1348=DIRECTION('',(0.,1.,0.));
#1349=DIRECTION('',(0.678598344545849,0.281084637714812,-0.678598344545848));
#1350=DIRECTION('center_axis',(0.5,-0.5,0.707106781186547));
#1351=DIRECTION('ref_axis',(0.816496580927726,0.,-0.577350269189627));
#1352=DIRECTION('',(-0.707106781186548,-0.707106781186548,0.));
#1353=DIRECTION('',(0.281084637714818,-0.678598344545848,-0.678598344545847));
#1354=DIRECTION('',(0.707106781186548,0.707106781186548,0.));
#1355=DIRECTION('center_axis',(0.,-0.707106781186547,0.707106781186548));
#1356=DIRECTION('ref_axis',(1.,0.,0.));
#1357=DIRECTION('',(-1.,0.,0.));
#1358=DIRECTION('',(0.281084637714818,-0.678598344545848,-0.678598344545847));
#1359=DIRECTION('',(1.,0.,0.));
#1360=DIRECTION('center_axis',(0.5,-0.5,0.707106781186547));
#1361=DIRECTION('ref_axis',(0.816496580927726,0.,-0.577350269189626));
#1362=DIRECTION('',(-0.707106781186548,-0.707106781186547,0.));
#1363=DIRECTION('',(0.678598344545848,-0.281084637714818,-0.678598344545847));
#1364=DIRECTION('',(0.707106781186548,0.707106781186547,0.));
#1365=DIRECTION('center_axis',(0.707106781186547,0.,0.707106781186548));
#1366=DIRECTION('ref_axis',(0.707106781186548,0.,-0.707106781186547));
#1367=DIRECTION('',(0.,-1.,0.));
#1368=DIRECTION('',(0.678598344545848,-0.281084637714816,-0.678598344545848));
#1369=DIRECTION('',(0.,1.,0.));
#1370=DIRECTION('center_axis',(0.5,-0.500000000000001,0.707106781186547));
#1371=DIRECTION('ref_axis',(0.816496580927725,0.,-0.577350269189627));
#1372=DIRECTION('',(-0.707106781186548,-0.707106781186547,0.));
#1373=DIRECTION('',(0.281084637714815,-0.678598344545848,-0.678598344545848));
#1374=DIRECTION('',(0.707106781186548,0.707106781186547,0.));
#1375=DIRECTION('center_axis',(0.,-0.707106781186548,0.707106781186548));
#1376=DIRECTION('ref_axis',(1.,0.,0.));
#1377=DIRECTION('',(-1.,0.,0.));
#1378=DIRECTION('',(-0.281084637714818,-0.678598344545847,-0.678598344545847));
#1379=DIRECTION('',(1.,0.,0.));
#1380=DIRECTION('center_axis',(-0.500000000000001,-0.5,0.707106781186547));
#1381=DIRECTION('ref_axis',(0.816496580927725,0.,0.577350269189627));
#1382=DIRECTION('',(0.707106781186547,-0.707106781186548,0.));
#1383=DIRECTION('',(-0.707106781186547,0.707106781186548,0.));
#1384=DIRECTION('',(-0.678598344545847,-0.281084637714819,-0.678598344545847));
#1385=DIRECTION('center_axis',(-0.707106781186548,0.,0.707106781186548));
#1386=DIRECTION('ref_axis',(0.707106781186548,0.,0.707106781186548));
#1387=DIRECTION('',(0.,-1.,0.));
#1388=DIRECTION('',(0.,1.,0.));
#1389=DIRECTION('',(-0.678598344545847,-0.281084637714819,-0.678598344545847));
#1390=DIRECTION('center_axis',(-0.5,-0.5,0.707106781186547));
#1391=DIRECTION('ref_axis',(0.816496580927726,0.,0.577350269189626));
#1392=DIRECTION('',(0.707106781186547,-0.707106781186548,0.));
#1393=DIRECTION('',(-0.707106781186547,0.707106781186548,0.));
#1394=DIRECTION('',(-0.281084637714819,-0.678598344545848,-0.678598344545847));
#1395=DIRECTION('center_axis',(0.,-0.707106781186547,0.707106781186548));
#1396=DIRECTION('ref_axis',(1.,0.,0.));
#1397=DIRECTION('',(1.,0.,0.));
#1398=DIRECTION('',(-1.,0.,0.));
#1399=DIRECTION('',(-0.281084637714823,-0.678598344545847,-0.678598344545846));
#1400=DIRECTION('center_axis',(-0.499999999999999,-0.499999999999999,0.707106781186549));
#1401=DIRECTION('ref_axis',(0.816496580927727,0.,0.577350269189624));
#1402=DIRECTION('',(0.707106781186548,-0.707106781186548,0.));
#1403=DIRECTION('',(-0.707106781186548,0.707106781186548,0.));
#1404=DIRECTION('',(-0.678598344545847,-0.281084637714822,-0.678598344545846));
#1405=DIRECTION('center_axis',(-0.707106781186547,-1.04672830578918E-16,
0.707106781186548));
#1406=DIRECTION('ref_axis',(0.707106781186548,0.,0.707106781186547));
#1407=DIRECTION('',(1.48029736616688E-16,-1.,0.));
#1408=DIRECTION('',(-1.48029736616688E-16,1.,0.));
#1409=DIRECTION('',(-0.678598344545849,0.281084637714815,-0.678598344545847));
#1410=DIRECTION('center_axis',(-0.500000000000001,0.5,0.707106781186547));
#1411=DIRECTION('ref_axis',(0.816496580927725,0.,0.577350269189627));
#1412=DIRECTION('',(-0.707106781186547,-0.707106781186548,0.));
#1413=DIRECTION('',(0.707106781186547,0.707106781186548,0.));
#1414=DIRECTION('',(-0.281084637714818,0.678598344545848,-0.678598344545847));
#1415=DIRECTION('center_axis',(0.,0.707106781186547,0.707106781186548));
#1416=DIRECTION('ref_axis',(1.,0.,0.));
#1417=DIRECTION('',(-1.,0.,0.));
#1418=DIRECTION('',(1.,0.,0.));
#1419=DIRECTION('',(0.281084637714812,0.678598344545849,-0.678598344545848));
#1420=DIRECTION('center_axis',(0.500000000000002,0.500000000000002,0.707106781186545));
#1421=DIRECTION('ref_axis',(0.816496580927724,0.,-0.577350269189629));
#1422=DIRECTION('',(-0.707106781186548,0.707106781186548,0.));
#1423=DIRECTION('',(0.707106781186548,-0.707106781186548,0.));
#1424=DIRECTION('center_axis',(-0.707106781186548,-0.707106781186547,0.));
#1425=DIRECTION('ref_axis',(0.,0.,1.));
#1426=DIRECTION('',(0.,0.,-1.));
#1427=DIRECTION('',(0.707106781186547,-0.707106781186548,0.));
#1428=DIRECTION('',(0.,0.,1.));
#1429=DIRECTION('center_axis',(0.,-1.,0.));
#1430=DIRECTION('ref_axis',(1.,0.,0.));
#1431=DIRECTION('',(0.,0.,1.));
#1432=DIRECTION('',(1.,0.,0.));
#1433=DIRECTION('center_axis',(-0.707106781186548,-0.707106781186548,0.));
#1434=DIRECTION('ref_axis',(0.,0.,1.));
#1435=DIRECTION('',(0.,0.,-1.));
#1436=DIRECTION('',(0.707106781186548,-0.707106781186548,0.));
#1437=DIRECTION('center_axis',(-1.,-1.48029736616688E-16,0.));
#1438=DIRECTION('ref_axis',(1.48029736616688E-16,-1.,0.));
#1439=DIRECTION('',(0.,0.,1.));
#1440=DIRECTION('',(1.48029736616688E-16,-1.,0.));
#1441=DIRECTION('center_axis',(-0.707106781186548,0.707106781186547,0.));
#1442=DIRECTION('ref_axis',(0.,0.,1.));
#1443=DIRECTION('',(0.,0.,-1.));
#1444=DIRECTION('',(-0.707106781186547,-0.707106781186548,0.));
#1445=DIRECTION('center_axis',(0.,1.,0.));
#1446=DIRECTION('ref_axis',(-1.,0.,0.));
#1447=DIRECTION('',(0.,0.,1.));
#1448=DIRECTION('',(-1.,0.,0.));
#1449=DIRECTION('center_axis',(0.707106781186548,0.707106781186548,0.));
#1450=DIRECTION('ref_axis',(0.,0.,-1.));
#1451=DIRECTION('',(0.,0.,-1.));
#1452=DIRECTION('',(-0.707106781186548,0.707106781186548,0.));
#1453=DIRECTION('center_axis',(1.,0.,0.));
#1454=DIRECTION('ref_axis',(0.,1.,0.));
#1455=DIRECTION('',(0.,0.,1.));
#1456=DIRECTION('',(0.,1.,0.));
#1457=DIRECTION('center_axis',(0.,0.,1.));
#1458=DIRECTION('ref_axis',(1.,0.,0.));
#1459=DIRECTION('center_axis',(-1.,0.,0.));
#1460=DIRECTION('ref_axis',(0.,-1.,0.));
#1461=DIRECTION('',(0.,-1.,0.));
#1462=DIRECTION('',(0.,0.,-1.));
#1463=DIRECTION('center_axis',(-0.707106781186548,-0.707106781186547,0.));
#1464=DIRECTION('ref_axis',(0.,0.,1.));
#1465=DIRECTION('',(0.707106781186547,-0.707106781186548,0.));
#1466=DIRECTION('',(0.,0.,1.));
#1467=DIRECTION('center_axis',(0.,-1.,0.));
#1468=DIRECTION('ref_axis',(1.,0.,0.));
#1469=DIRECTION('',(1.,0.,0.));
#1470=DIRECTION('',(0.,0.,-1.));
#1471=DIRECTION('center_axis',(0.,0.,1.));
#1472=DIRECTION('ref_axis',(-1.,0.,0.));
#1473=DIRECTION('',(0.707106781186548,0.707106781186548,0.));
#1474=DIRECTION('',(1.,0.,0.));
#1475=DIRECTION('',(0.707106781186548,0.707106781186547,0.));
#1476=DIRECTION('',(0.,1.,0.));
#1477=DIRECTION('',(0.707106781186548,0.707106781186547,0.));
#1478=DIRECTION('center_axis',(0.707106781186547,-0.707106781186548,0.));
#1479=DIRECTION('ref_axis',(0.,0.,-1.));
#1480=DIRECTION('',(0.,0.,1.));
#1481=DIRECTION('center_axis',(1.,0.,0.));
#1482=DIRECTION('ref_axis',(0.,1.,0.));
#1483=DIRECTION('',(0.,0.,-1.));
#1484=DIRECTION('center_axis',(0.707106781186547,-0.707106781186548,0.));
#1485=DIRECTION('ref_axis',(0.,0.,-1.));
#1486=DIRECTION('',(0.,0.,1.));
#1487=DIRECTION('center_axis',(0.,-1.,0.));
#1488=DIRECTION('ref_axis',(1.,0.,0.));
#1489=DIRECTION('',(0.,0.,-1.));
#1490=DIRECTION('center_axis',(0.707106781186548,-0.707106781186548,0.));
#1491=DIRECTION('ref_axis',(0.,0.,-1.));
#1492=CARTESIAN_POINT('',(0.,0.,0.));
#1493=CARTESIAN_POINT('Origin',(12.5000002607703,15.,0.9));
#1494=CARTESIAN_POINT('',(17.6000001862645,7.50000011175871,0.9));
#1495=CARTESIAN_POINT('Origin',(12.5000001862645,7.50000011175871,0.9));
#1496=CARTESIAN_POINT('Origin',(-1.,14.,0.));
#1497=CARTESIAN_POINT('',(-2.,15.,0.));
#1498=CARTESIAN_POINT('',(2.67062285621697E-32,13.,0.));
#1499=CARTESIAN_POINT('',(2.12500006519258,10.8749999348074,0.));
#1500=CARTESIAN_POINT('',(0.,13.,5.35));
#1501=CARTESIAN_POINT('',(0.,13.,0.));
#1502=CARTESIAN_POINT('',(-2.,15.,5.35));
#1503=CARTESIAN_POINT('',(2.12500006519258,10.8749999348074,5.35));
#1504=CARTESIAN_POINT('',(-2.,15.,0.));
#1505=CARTESIAN_POINT('Origin',(3.08148791101958E-32,15.,0.));
#1506=CARTESIAN_POINT('',(4.10865054802611E-33,2.,0.));
#1507=CARTESIAN_POINT('',(3.08148791101958E-32,15.,0.));
#1508=CARTESIAN_POINT('',(0.,2.,5.35));
#1509=CARTESIAN_POINT('',(0.,2.,0.));
#1510=CARTESIAN_POINT('',(0.,15.,5.35));
#1511=CARTESIAN_POINT('Origin',(-9.,16.,0.));
#1512=CARTESIAN_POINT('',(-8.,15.,5.35));
#1513=CARTESIAN_POINT('',(-10.,17.,5.35));
#1514=CARTESIAN_POINT('',(-3.37499993480742,10.3749999348074,5.35));
#1515=CARTESIAN_POINT('',(-10.,17.,0.));
#1516=CARTESIAN_POINT('',(-10.,17.,0.));
#1517=CARTESIAN_POINT('',(-8.,15.,0.));
#1518=CARTESIAN_POINT('',(-3.37499993480742,10.3749999348074,0.));
#1519=CARTESIAN_POINT('',(-8.,15.,0.));
#1520=CARTESIAN_POINT('Origin',(12.5000002607703,15.,0.));
#1521=CARTESIAN_POINT('',(-10.,28.,0.));
#1522=CARTESIAN_POINT('',(-10.,15.,0.));
#1523=CARTESIAN_POINT('',(-8.00000000000001,30.,0.));
#1524=CARTESIAN_POINT('',(-7.12499993480743,30.8750000651926,0.));
#1525=CARTESIAN_POINT('',(33.0000005215406,30.,0.));
#1526=CARTESIAN_POINT('',(35.0000005215406,30.,0.));
#1527=CARTESIAN_POINT('',(35.0000005215406,28.,0.));
#1528=CARTESIAN_POINT('',(32.1250004563481,30.8750000651926,0.));
#1529=CARTESIAN_POINT('',(35.0000005215406,17.,0.));
#1530=CARTESIAN_POINT('',(35.0000005215406,15.,0.));
#1531=CARTESIAN_POINT('',(33.0000005215406,15.,0.));
#1532=CARTESIAN_POINT('',(28.3750004563481,10.3749999348074,0.));
#1533=CARTESIAN_POINT('',(27.000000372529,15.,0.));
#1534=CARTESIAN_POINT('',(25.000000372529,15.,0.));
#1535=CARTESIAN_POINT('',(25.000000372529,13.,0.));
#1536=CARTESIAN_POINT('',(22.8750003445893,10.8749999720603,0.));
#1537=CARTESIAN_POINT('',(25.000000372529,2.,0.));
#1538=CARTESIAN_POINT('',(25.000000372529,0.,0.));
#1539=CARTESIAN_POINT('',(23.000000372529,0.,0.));
#1540=CARTESIAN_POINT('',(24.6250003445893,1.62499997206032,0.));
#1541=CARTESIAN_POINT('',(2.,0.,0.));
#1542=CARTESIAN_POINT('',(0.,0.,0.));
#1543=CARTESIAN_POINT('',(0.37500006519258,1.62499993480742,0.));
#1544=CARTESIAN_POINT('',(3.08148791101958E-32,15.,0.));
#1545=CARTESIAN_POINT('',(28.5000004470348,22.5000003352761,0.));
#1546=CARTESIAN_POINT('Origin',(30.0000004470348,22.5000003352761,0.));
#1547=CARTESIAN_POINT('',(-6.50000007450581,22.5000003352761,0.));
#1548=CARTESIAN_POINT('Origin',(-5.00000007450581,22.5000003352761,0.));
#1549=CARTESIAN_POINT('Origin',(-10.,30.,0.));
#1550=CARTESIAN_POINT('',(-10.,28.,5.35));
#1551=CARTESIAN_POINT('',(-10.,30.,5.35));
#1552=CARTESIAN_POINT('',(-10.,28.,0.));
#1553=CARTESIAN_POINT('Origin',(-9.,29.,0.));
#1554=CARTESIAN_POINT('',(-8.00000000000001,30.,5.35));
#1555=CARTESIAN_POINT('',(-7.12499993480743,30.8750000651926,5.35));
#1556=CARTESIAN_POINT('',(-8.,30.,0.));
#1557=CARTESIAN_POINT('Origin',(34.0000005215406,29.,0.));
#1558=CARTESIAN_POINT('',(33.0000005215406,30.,5.35));
#1559=CARTESIAN_POINT('',(35.0000005215406,28.,5.35));
#1560=CARTESIAN_POINT('',(32.1250004563481,30.8750000651926,5.35));
#1561=CARTESIAN_POINT('',(35.0000005215406,28.,0.));
#1562=CARTESIAN_POINT('',(33.0000005215406,30.,0.));
#1563=CARTESIAN_POINT('Origin',(35.0000005215406,15.,0.));
#1564=CARTESIAN_POINT('',(35.0000005215406,17.,5.35));
#1565=CARTESIAN_POINT('',(35.0000005215406,15.,5.35));
#1566=CARTESIAN_POINT('',(35.0000005215406,17.,0.));
#1567=CARTESIAN_POINT('Origin',(12.5000002607703,15.,5.35));
#1568=CARTESIAN_POINT('',(-10.,15.,5.35));
#1569=CARTESIAN_POINT('',(2.,0.,5.35));
#1570=CARTESIAN_POINT('',(0.37500006519258,1.62499993480742,5.35));
#1571=CARTESIAN_POINT('',(23.000000372529,0.,5.35));
#1572=CARTESIAN_POINT('',(0.,0.,5.35));
#1573=CARTESIAN_POINT('',(25.000000372529,2.,5.35));
#1574=CARTESIAN_POINT('',(24.6250003445893,1.62499997206032,5.35));
#1575=CARTESIAN_POINT('',(25.000000372529,13.,5.35));
#1576=CARTESIAN_POINT('',(25.000000372529,0.,5.35));
#1577=CARTESIAN_POINT('',(27.000000372529,15.,5.35));
#1578=CARTESIAN_POINT('',(22.8750003445893,10.8749999720603,5.35));
#1579=CARTESIAN_POINT('',(33.0000005215406,15.,5.35));
#1580=CARTESIAN_POINT('',(25.000000372529,15.,5.35));
#1581=CARTESIAN_POINT('',(28.3750004563481,10.3749999348074,5.35));
#1582=CARTESIAN_POINT('',(35.0000005215406,30.,5.35));
#1583=CARTESIAN_POINT('',(28.5000004470348,22.5000003352761,5.35));
#1584=CARTESIAN_POINT('Origin',(30.0000004470348,22.5000003352761,5.35));
#1585=CARTESIAN_POINT('',(-6.50000007450581,22.5000003352761,5.35));
#1586=CARTESIAN_POINT('Origin',(-5.00000007450581,22.5000003352761,5.35));
#1587=CARTESIAN_POINT('',(17.6000001862645,7.50000011175871,5.35));
#1588=CARTESIAN_POINT('Origin',(12.5000001862645,7.50000011175871,5.35));
#1589=CARTESIAN_POINT('Origin',(34.0000005215406,16.,0.));
#1590=CARTESIAN_POINT('',(33.0000005215406,15.,0.));
#1591=CARTESIAN_POINT('Origin',(25.000000372529,15.,0.));
#1592=CARTESIAN_POINT('',(27.000000372529,15.,0.));
#1593=CARTESIAN_POINT('Origin',(26.000000372529,14.,0.));
#1594=CARTESIAN_POINT('',(25.000000372529,13.,0.));
#1595=CARTESIAN_POINT('Origin',(24.000000372529,1.,0.));
#1596=CARTESIAN_POINT('',(23.000000372529,0.,0.));
#1597=CARTESIAN_POINT('',(25.000000372529,2.,0.));
#1598=CARTESIAN_POINT('Origin',(0.,0.,0.));
#1599=CARTESIAN_POINT('',(2.,0.,0.));
#1600=CARTESIAN_POINT('Origin',(1.,1.,0.));
#1601=CARTESIAN_POINT('Origin',(12.5000001862645,7.50000011175871,1.));
#1602=CARTESIAN_POINT('',(17.6000001862645,7.50000011175871,1.));
#1603=CARTESIAN_POINT('Origin',(30.0000004470348,22.5000003352761,0.));
#1604=CARTESIAN_POINT('',(28.5000004470348,22.5000003352761,0.));
#1605=CARTESIAN_POINT('Origin',(-5.00000007450581,22.5000003352761,0.));
#1606=CARTESIAN_POINT('',(-6.50000007450581,22.5000003352761,0.));
#1607=CARTESIAN_POINT('Origin',(-10.,15.,0.));
#1608=CARTESIAN_POINT('Origin',(35.0000005215406,30.,0.));
#1609=CARTESIAN_POINT('Origin',(25.000000372529,0.,0.));
#1610=CARTESIAN_POINT('Origin',(-5.00000007450581,22.5000003352761,7.35));
#1611=CARTESIAN_POINT('',(-2.4000000745058,22.5000003352761,7.35));
#1612=CARTESIAN_POINT('Origin',(-5.00000007450581,22.5000003352761,7.35));
#1613=CARTESIAN_POINT('',(-2.4000000745058,22.5000003352761,6.35));
#1614=CARTESIAN_POINT('',(-2.4000000745058,22.5000003352761,7.35));
#1615=CARTESIAN_POINT('Origin',(-5.00000007450581,22.5000003352761,6.35));
#1616=CARTESIAN_POINT('Origin',(-5.00000007450581,22.5000003352761,6.35));
#1617=CARTESIAN_POINT('',(-3.5000000745058,22.5000003352761,6.35));
#1618=CARTESIAN_POINT('Origin',(-5.00000007450581,22.5000003352761,6.35));
#1619=CARTESIAN_POINT('Origin',(30.0000004470348,22.5000003352761,7.35));
#1620=CARTESIAN_POINT('',(32.6000004470348,22.5000003352761,7.35));
#1621=CARTESIAN_POINT('Origin',(30.0000004470348,22.5000003352761,7.35));
#1622=CARTESIAN_POINT('',(32.6000004470348,22.5000003352761,6.35));
#1623=CARTESIAN_POINT('',(32.6000004470348,22.5000003352761,7.35));
#1624=CARTESIAN_POINT('Origin',(30.0000004470348,22.5000003352761,6.35));
#1625=CARTESIAN_POINT('Origin',(30.0000004470348,22.5000003352761,6.35));
#1626=CARTESIAN_POINT('',(31.5000004470348,22.5000003352761,6.35));
#1627=CARTESIAN_POINT('Origin',(30.0000004470348,22.5000003352761,6.35));
#1628=CARTESIAN_POINT('Origin',(-5.00000007450581,22.5000003352761,5.35));
#1629=CARTESIAN_POINT('',(-3.5000000745058,22.5000003352761,5.35));
#1630=CARTESIAN_POINT('Origin',(-5.00000007450581,22.5000003352761,5.35));
#1631=CARTESIAN_POINT('',(-3.5000000745058,22.5000003352761,5.35));
#1632=CARTESIAN_POINT('Origin',(30.0000004470348,22.5000003352761,5.35));
#1633=CARTESIAN_POINT('',(31.5000004470348,22.5000003352761,5.35));
#1634=CARTESIAN_POINT('Origin',(30.0000004470348,22.5000003352761,5.35));
#1635=CARTESIAN_POINT('',(31.5000004470348,22.5000003352761,5.35));
#1636=CARTESIAN_POINT('Origin',(34.5000005215406,15.,6.85));
#1637=CARTESIAN_POINT('',(34.0000005215406,27.5857864376269,7.35));
#1638=CARTESIAN_POINT('',(34.0000005215406,17.4142135623731,7.35));
#1639=CARTESIAN_POINT('',(34.0000005215406,15.,7.35));
#1640=CARTESIAN_POINT('',(35.0000005215406,17.,6.35));
#1641=CARTESIAN_POINT('',(34.0000005215406,17.4142135623731,7.35));
#1642=CARTESIAN_POINT('',(35.0000005215406,28.,6.35));
#1643=CARTESIAN_POINT('',(35.0000005215406,15.,6.35));
#1644=CARTESIAN_POINT('',(34.0000005215406,27.5857864376269,7.35));
#1645=CARTESIAN_POINT('Origin',(28.0214470657548,10.7285533254007,6.85));
#1646=CARTESIAN_POINT('',(32.5857869591675,16.,7.35));
#1647=CARTESIAN_POINT('',(27.6678936751615,11.082106715994,7.35));
#1648=CARTESIAN_POINT('',(33.0000005215406,15.,6.35));
#1649=CARTESIAN_POINT('',(32.5857869591675,16.,7.35));
#1650=CARTESIAN_POINT('',(28.3750004563481,10.3749999348074,6.35));
#1651=CARTESIAN_POINT('Origin',(18.7500003166497,15.5,6.85));
#1652=CARTESIAN_POINT('',(26.5857868101559,16.,7.35));
#1653=CARTESIAN_POINT('',(18.7500003166497,16.,7.35));
#1654=CARTESIAN_POINT('',(27.000000372529,15.,6.35));
#1655=CARTESIAN_POINT('',(26.5857868101559,16.,7.35));
#1656=CARTESIAN_POINT('',(18.7500003166497,15.,6.35));
#1657=CARTESIAN_POINT('Origin',(22.5214469539961,11.2285533626536,6.85));
#1658=CARTESIAN_POINT('',(24.000000372529,13.4142135623731,7.35));
#1659=CARTESIAN_POINT('',(22.1678935634028,11.5821067532469,7.35));
#1660=CARTESIAN_POINT('',(25.000000372529,13.,6.35));
#1661=CARTESIAN_POINT('',(24.000000372529,13.4142135623731,7.35));
#1662=CARTESIAN_POINT('',(22.8750003445893,10.8749999720603,6.35));
#1663=CARTESIAN_POINT('Origin',(24.500000372529,7.5,6.85));
#1664=CARTESIAN_POINT('',(24.000000372529,2.41421356237309,7.35));
#1665=CARTESIAN_POINT('',(24.000000372529,7.5,7.35));
#1666=CARTESIAN_POINT('',(25.000000372529,2.,6.35));
#1667=CARTESIAN_POINT('',(24.000000372529,2.41421356237309,7.35));
#1668=CARTESIAN_POINT('',(25.000000372529,7.5,6.35));
#1669=CARTESIAN_POINT('Origin',(24.2714469539961,1.97855336265359,6.85));
#1670=CARTESIAN_POINT('',(22.5857868101559,1.,7.35));
#1671=CARTESIAN_POINT('',(23.9178935634028,2.33210675324687,7.35));
#1672=CARTESIAN_POINT('',(23.000000372529,0.,6.35));
#1673=CARTESIAN_POINT('',(22.5857868101559,1.,7.35));
#1674=CARTESIAN_POINT('',(24.6250003445894,1.62499997206032,6.35));
#1675=CARTESIAN_POINT('Origin',(6.25000013038516,0.5,6.85));
#1676=CARTESIAN_POINT('',(2.41421356237309,1.,7.35));
#1677=CARTESIAN_POINT('',(6.25000013038516,1.,7.35));
#1678=CARTESIAN_POINT('',(2.,0.,6.35));
#1679=CARTESIAN_POINT('',(2.41421356237309,1.,7.35));
#1680=CARTESIAN_POINT('',(6.25000013038516,0.,6.35));
#1681=CARTESIAN_POINT('Origin',(0.728553455785852,1.97855332540069,6.85));
#1682=CARTESIAN_POINT('',(0.,2.,6.35));
#1683=CARTESIAN_POINT('',(0.375000065192579,1.62499993480742,6.35));
#1684=CARTESIAN_POINT('',(1.,2.41421356237309,7.35));
#1685=CARTESIAN_POINT('',(1.08210684637913,2.33210671599397,7.35));
#1686=CARTESIAN_POINT('',(1.,2.41421356237309,7.35));
#1687=CARTESIAN_POINT('Origin',(0.5,15.,6.85));
#1688=CARTESIAN_POINT('',(0.,13.,6.35));
#1689=CARTESIAN_POINT('',(0.,15.,6.35));
#1690=CARTESIAN_POINT('',(0.999999999999999,13.4142135623731,7.35));
#1691=CARTESIAN_POINT('',(1.,15.,7.35));
#1692=CARTESIAN_POINT('',(0.999999999999999,13.4142135623731,7.35));
#1693=CARTESIAN_POINT('Origin',(2.47855345578585,11.2285533254007,6.85));
#1694=CARTESIAN_POINT('',(-2.,15.,6.35));
#1695=CARTESIAN_POINT('',(2.12500006519258,10.8749999348074,6.35));
#1696=CARTESIAN_POINT('',(-1.58578643762691,16.,7.35));
#1697=CARTESIAN_POINT('',(2.83210684637912,11.582106715994,7.35));
#1698=CARTESIAN_POINT('',(-1.58578643762691,16.,7.35));
#1699=CARTESIAN_POINT('Origin',(1.25000013038516,15.5,6.85));
#1700=CARTESIAN_POINT('',(-8.,15.,6.35));
#1701=CARTESIAN_POINT('',(1.25000013038516,15.,6.35));
#1702=CARTESIAN_POINT('',(-7.5857864376269,16.,7.35));
#1703=CARTESIAN_POINT('',(1.25000013038516,16.,7.35));
#1704=CARTESIAN_POINT('',(-7.5857864376269,16.,7.35));
#1705=CARTESIAN_POINT('Origin',(-3.02144654421414,10.7285533254007,6.85));
#1706=CARTESIAN_POINT('',(-10.,17.,6.35));
#1707=CARTESIAN_POINT('',(-3.37499993480742,10.3749999348074,6.35));
#1708=CARTESIAN_POINT('',(-9.,17.4142135623731,7.35));
#1709=CARTESIAN_POINT('',(-2.66789315362087,11.082106715994,7.35));
#1710=CARTESIAN_POINT('',(-9.,17.4142135623731,7.35));
#1711=CARTESIAN_POINT('Origin',(-9.5,22.5,6.85));
#1712=CARTESIAN_POINT('',(-10.,28.,6.35));
#1713=CARTESIAN_POINT('',(-10.,22.5,6.35));
#1714=CARTESIAN_POINT('',(-9.,27.5857864376269,7.35));
#1715=CARTESIAN_POINT('',(-9.,22.5,7.35));
#1716=CARTESIAN_POINT('',(-9.,27.5857864376269,7.35));
#1717=CARTESIAN_POINT('Origin',(-6.77144654421416,30.5214466745993,6.85));
#1718=CARTESIAN_POINT('',(-8.,30.,6.35));
#1719=CARTESIAN_POINT('',(-7.12499993480743,30.8750000651926,6.35));
#1720=CARTESIAN_POINT('',(-7.58578643762691,29.,7.35));
#1721=CARTESIAN_POINT('',(-6.41789315362089,30.167893284006,7.35));
#1722=CARTESIAN_POINT('',(-7.58578643762691,29.,7.35));
#1723=CARTESIAN_POINT('Origin',(23.7500003911555,29.5,6.85));
#1724=CARTESIAN_POINT('',(33.0000005215406,30.,6.35));
#1725=CARTESIAN_POINT('',(23.7500003911555,30.,6.35));
#1726=CARTESIAN_POINT('',(32.5857869591676,29.,7.35));
#1727=CARTESIAN_POINT('',(23.7500003911555,29.,7.35));
#1728=CARTESIAN_POINT('',(32.5857869591676,29.,7.35));
#1729=CARTESIAN_POINT('Origin',(31.7714470657548,30.5214466745993,6.85));
#1730=CARTESIAN_POINT('',(32.1250004563481,30.8750000651926,6.35));
#1731=CARTESIAN_POINT('',(31.4178936751615,30.167893284006,7.35));
#1732=CARTESIAN_POINT('Origin',(-1.,14.,5.35));
#1733=CARTESIAN_POINT('',(-2.,15.,5.35));
#1734=CARTESIAN_POINT('',(-2.,15.,5.35));
#1735=CARTESIAN_POINT('',(0.,13.,5.35));
#1736=CARTESIAN_POINT('',(2.12500006519258,10.8749999348074,5.35));
#1737=CARTESIAN_POINT('',(0.,13.,5.35));
#1738=CARTESIAN_POINT('Origin',(-10.,15.,5.35));
#1739=CARTESIAN_POINT('',(-8.,15.,5.35));
#1740=CARTESIAN_POINT('',(-8.,15.,5.35));
#1741=CARTESIAN_POINT('',(-10.,15.,5.35));
#1742=CARTESIAN_POINT('Origin',(-9.,16.,5.35));
#1743=CARTESIAN_POINT('',(-10.,17.,5.35));
#1744=CARTESIAN_POINT('',(-10.,17.,5.35));
#1745=CARTESIAN_POINT('',(-3.37499993480742,10.3749999348074,5.35));
#1746=CARTESIAN_POINT('Origin',(-10.,30.,5.35));
#1747=CARTESIAN_POINT('',(-10.,28.,5.35));
#1748=CARTESIAN_POINT('',(-10.,28.,5.35));
#1749=CARTESIAN_POINT('',(-10.,30.,5.35));
#1750=CARTESIAN_POINT('Origin',(-9.,29.,5.35));
#1751=CARTESIAN_POINT('',(-8.00000000000001,30.,5.35));
#1752=CARTESIAN_POINT('',(-8.,30.,5.35));
#1753=CARTESIAN_POINT('',(-7.12499993480743,30.8750000651926,5.35));
#1754=CARTESIAN_POINT('Origin',(35.0000005215406,30.,5.35));
#1755=CARTESIAN_POINT('',(33.0000005215406,30.,5.35));
#1756=CARTESIAN_POINT('',(33.0000005215406,30.,5.35));
#1757=CARTESIAN_POINT('',(35.0000005215406,30.,5.35));
#1758=CARTESIAN_POINT('Origin',(34.0000005215406,29.,5.35));
#1759=CARTESIAN_POINT('',(35.0000005215406,28.,5.35));
#1760=CARTESIAN_POINT('',(35.0000005215406,28.,5.35));
#1761=CARTESIAN_POINT('',(32.1250004563481,30.8750000651926,5.35));
#1762=CARTESIAN_POINT('Origin',(35.0000005215406,15.,5.35));
#1763=CARTESIAN_POINT('',(35.0000005215406,17.,5.35));
#1764=CARTESIAN_POINT('',(35.0000005215406,17.,5.35));
#1765=CARTESIAN_POINT('',(35.0000005215406,15.,5.35));
#1766=CARTESIAN_POINT('Origin',(12.5000002607703,15.,7.35));
#1767=CARTESIAN_POINT('Origin',(0.,15.,5.35));
#1768=CARTESIAN_POINT('',(0.,2.,5.35));
#1769=CARTESIAN_POINT('',(0.,15.,5.35));
#1770=CARTESIAN_POINT('',(0.,2.,5.35));
#1771=CARTESIAN_POINT('Origin',(1.,1.,5.35));
#1772=CARTESIAN_POINT('',(2.,0.,5.35));
#1773=CARTESIAN_POINT('',(0.37500006519258,1.62499993480742,5.35));
#1774=CARTESIAN_POINT('',(2.,0.,5.35));
#1775=CARTESIAN_POINT('Origin',(0.,0.,5.35));
#1776=CARTESIAN_POINT('',(23.000000372529,0.,5.35));
#1777=CARTESIAN_POINT('',(0.,0.,5.35));
#1778=CARTESIAN_POINT('',(23.000000372529,0.,5.35));
#1779=CARTESIAN_POINT('Origin',(12.5000002607703,15.,5.35));
#1780=CARTESIAN_POINT('',(33.0000005215406,15.,5.35));
#1781=CARTESIAN_POINT('',(28.3750004563481,10.3749999348074,5.35));
#1782=CARTESIAN_POINT('',(27.000000372529,15.,5.35));
#1783=CARTESIAN_POINT('',(25.000000372529,15.,5.35));
#1784=CARTESIAN_POINT('',(25.000000372529,13.,5.35));
#1785=CARTESIAN_POINT('',(22.8750003445893,10.8749999720603,5.35));
#1786=CARTESIAN_POINT('',(25.000000372529,2.,5.35));
#1787=CARTESIAN_POINT('',(25.000000372529,0.,5.35));
#1788=CARTESIAN_POINT('',(24.6250003445893,1.62499997206032,5.35));
#1789=CARTESIAN_POINT('Origin',(24.000000372529,1.,5.35));
#1790=CARTESIAN_POINT('',(25.000000372529,2.,5.35));
#1791=CARTESIAN_POINT('Origin',(25.000000372529,0.,5.35));
#1792=CARTESIAN_POINT('',(25.000000372529,13.,5.35));
#1793=CARTESIAN_POINT('Origin',(26.000000372529,14.,5.35));
#1794=CARTESIAN_POINT('',(27.000000372529,15.,5.35));
#1795=CARTESIAN_POINT('Origin',(25.000000372529,15.,5.35));
#1796=CARTESIAN_POINT('',(33.0000005215406,15.,5.35));
#1797=CARTESIAN_POINT('Origin',(34.0000005215406,16.,5.35));
#1798=UNCERTAINTY_MEASURE_WITH_UNIT(LENGTH_MEASURE(0.01),#1802,
'DISTANCE_ACCURACY_VALUE',
'Maximum model space distance between geometric entities at asserted c
onnectivities');
#1799=UNCERTAINTY_MEASURE_WITH_UNIT(LENGTH_MEASURE(0.01),#1802,
'DISTANCE_ACCURACY_VALUE',
'Maximum model space distance between geometric entities at asserted c
onnectivities');
#1800=(
GEOMETRIC_REPRESENTATION_CONTEXT(3)
GLOBAL_UNCERTAINTY_ASSIGNED_CONTEXT((#1798))
GLOBAL_UNIT_ASSIGNED_CONTEXT((#1802,#1804,#1805))
REPRESENTATION_CONTEXT('','3D')
);
#1801=(
GEOMETRIC_REPRESENTATION_CONTEXT(3)
GLOBAL_UNCERTAINTY_ASSIGNED_CONTEXT((#1799))
GLOBAL_UNIT_ASSIGNED_CONTEXT((#1802,#1804,#1805))
REPRESENTATION_CONTEXT('','3D')
);
#1802=(
LENGTH_UNIT()
NAMED_UNIT(*)
SI_UNIT(.MILLI.,.METRE.)
);
#1803=(
LENGTH_UNIT()
NAMED_UNIT(*)
SI_UNIT($,.METRE.)
);
#1804=(
NAMED_UNIT(*)
PLANE_ANGLE_UNIT()
SI_UNIT($,.RADIAN.)
);
#1805=(
NAMED_UNIT(*)
SI_UNIT($,.STERADIAN.)
SOLID_ANGLE_UNIT()
);
#1806=SHAPE_DEFINITION_REPRESENTATION(#1807,#1808);
#1807=PRODUCT_DEFINITION_SHAPE('',$,#1810);
#1808=SHAPE_REPRESENTATION('',(#1126),#1800);
#1809=PRODUCT_DEFINITION_CONTEXT('part definition',#1814,'design');
#1810=PRODUCT_DEFINITION('new_magnet_holder','new_magnet_holder v2',#1811,
#1809);
#1811=PRODUCT_DEFINITION_FORMATION('',$,#1816);
#1812=PRODUCT_RELATED_PRODUCT_CATEGORY('new_magnet_holder v2',
'new_magnet_holder v2',(#1816));
#1813=APPLICATION_PROTOCOL_DEFINITION('international standard',
'automotive_design',2009,#1814);
#1814=APPLICATION_CONTEXT(
'Core Data for Automotive Mechanical Design Process');
#1815=PRODUCT_CONTEXT('part definition',#1814,'mechanical');
#1816=PRODUCT('new_magnet_holder','new_magnet_holder v2',$,(#1815));
#1817=PRESENTATION_STYLE_ASSIGNMENT((#1818));
#1818=SURFACE_STYLE_USAGE(.BOTH.,#1819);
#1819=SURFACE_SIDE_STYLE('',(#1820));
#1820=SURFACE_STYLE_FILL_AREA(#1821);
#1821=FILL_AREA_STYLE('Stahl - satiniert',(#1822));
#1822=FILL_AREA_STYLE_COLOUR('Stahl - satiniert',#1823);
#1823=COLOUR_RGB('Stahl - satiniert',0.627450980392157,0.627450980392157,
0.627450980392157);
ENDSEC;
END-ISO-10303-21;
