ISO-10303-21;
HEADER;
/* Generated by software containing ST-Developer
 * from STEP Tools, Inc. (www.steptools.com) 
 */

FILE_DESCRIPTION(
/* description */ (''),
/* implementation_level */ '2;1');

FILE_NAME(
/* name */ 'door_magnet_holder.step',
/* time_stamp */ '2025-08-06T23:40:06+02:00',
/* author */ (''),
/* organization */ (''),
/* preprocessor_version */ 'ST-DEVELOPER v20',
/* originating_system */ 'Autodesk Translation Framework v13.20.0.188',

/* authorisation */ '');

FILE_SCHEMA (('AUTOMOTIVE_DESIGN { 1 0 10303 214 3 1 1 }'));
ENDSEC;

DATA;
#10=MECHANICAL_DESIGN_GEOMETRIC_PRESENTATION_REPRESENTATION('',(#13,#14),
#2180);
#11=SHAPE_REPRESENTATION_RELATIONSHIP('SRR','None',#2187,#12);
#12=ADVANCED_BREP_SHAPE_REPRESENTATION('',(#15,#16),#2179);
#13=STYLED_ITEM('',(#2196),#15);
#14=STYLED_ITEM('',(#2196),#16);
#15=MANIFOLD_SOLID_BREP('K\X\F6rper1',#1343);
#16=MANIFOLD_SOLID_BREP('K\X\F6rper2',#1344);
#17=FACE_BOUND('',#175,.T.);
#18=FACE_BOUND('',#176,.T.);
#19=FACE_BOUND('',#177,.T.);
#20=FACE_BOUND('',#182,.T.);
#21=FACE_BOUND('',#183,.T.);
#22=FACE_BOUND('',#207,.T.);
#23=FACE_BOUND('',#209,.T.);
#24=FACE_BOUND('',#211,.T.);
#25=FACE_BOUND('',#212,.T.);
#26=FACE_BOUND('',#213,.T.);
#27=FACE_BOUND('',#243,.T.);
#28=FACE_BOUND('',#244,.T.);
#29=PLANE('',#1361);
#30=PLANE('',#1363);
#31=PLANE('',#1366);
#32=PLANE('',#1367);
#33=PLANE('',#1368);
#34=PLANE('',#1369);
#35=PLANE('',#1372);
#36=PLANE('',#1373);
#37=PLANE('',#1374);
#38=PLANE('',#1375);
#39=PLANE('',#1378);
#40=PLANE('',#1379);
#41=PLANE('',#1380);
#42=PLANE('',#1381);
#43=PLANE('',#1382);
#44=PLANE('',#1383);
#45=PLANE('',#1384);
#46=PLANE('',#1385);
#47=PLANE('',#1386);
#48=PLANE('',#1387);
#49=PLANE('',#1390);
#50=PLANE('',#1391);
#51=PLANE('',#1392);
#52=PLANE('',#1396);
#53=PLANE('',#1398);
#54=PLANE('',#1401);
#55=PLANE('',#1402);
#56=PLANE('',#1403);
#57=PLANE('',#1404);
#58=PLANE('',#1407);
#59=PLANE('',#1410);
#60=PLANE('',#1419);
#61=PLANE('',#1420);
#62=PLANE('',#1421);
#63=PLANE('',#1422);
#64=PLANE('',#1423);
#65=PLANE('',#1424);
#66=PLANE('',#1425);
#67=PLANE('',#1426);
#68=PLANE('',#1427);
#69=PLANE('',#1428);
#70=PLANE('',#1429);
#71=PLANE('',#1430);
#72=PLANE('',#1431);
#73=PLANE('',#1432);
#74=PLANE('',#1433);
#75=PLANE('',#1434);
#76=PLANE('',#1435);
#77=PLANE('',#1436);
#78=PLANE('',#1437);
#79=PLANE('',#1438);
#80=PLANE('',#1439);
#81=PLANE('',#1440);
#82=PLANE('',#1441);
#83=PLANE('',#1442);
#84=PLANE('',#1443);
#85=PLANE('',#1444);
#86=PLANE('',#1445);
#87=PLANE('',#1446);
#88=PLANE('',#1447);
#89=PLANE('',#1448);
#90=PLANE('',#1449);
#91=PLANE('',#1450);
#92=PLANE('',#1451);
#93=FACE_OUTER_BOUND('',#167,.T.);
#94=FACE_OUTER_BOUND('',#168,.T.);
#95=FACE_OUTER_BOUND('',#169,.T.);
#96=FACE_OUTER_BOUND('',#170,.T.);
#97=FACE_OUTER_BOUND('',#171,.T.);
#98=FACE_OUTER_BOUND('',#172,.T.);
#99=FACE_OUTER_BOUND('',#173,.T.);
#100=FACE_OUTER_BOUND('',#174,.T.);
#101=FACE_OUTER_BOUND('',#178,.T.);
#102=FACE_OUTER_BOUND('',#179,.T.);
#103=FACE_OUTER_BOUND('',#180,.T.);
#104=FACE_OUTER_BOUND('',#181,.T.);
#105=FACE_OUTER_BOUND('',#184,.T.);
#106=FACE_OUTER_BOUND('',#185,.T.);
#107=FACE_OUTER_BOUND('',#186,.T.);
#108=FACE_OUTER_BOUND('',#187,.T.);
#109=FACE_OUTER_BOUND('',#188,.T.);
#110=FACE_OUTER_BOUND('',#189,.T.);
#111=FACE_OUTER_BOUND('',#190,.T.);
#112=FACE_OUTER_BOUND('',#191,.T.);
#113=FACE_OUTER_BOUND('',#192,.T.);
#114=FACE_OUTER_BOUND('',#193,.T.);
#115=FACE_OUTER_BOUND('',#194,.T.);
#116=FACE_OUTER_BOUND('',#195,.T.);
#117=FACE_OUTER_BOUND('',#196,.T.);
#118=FACE_OUTER_BOUND('',#197,.T.);
#119=FACE_OUTER_BOUND('',#198,.T.);
#120=FACE_OUTER_BOUND('',#199,.T.);
#121=FACE_OUTER_BOUND('',#200,.T.);
#122=FACE_OUTER_BOUND('',#201,.T.);
#123=FACE_OUTER_BOUND('',#202,.T.);
#124=FACE_OUTER_BOUND('',#203,.T.);
#125=FACE_OUTER_BOUND('',#204,.T.);
#126=FACE_OUTER_BOUND('',#205,.T.);
#127=FACE_OUTER_BOUND('',#206,.T.);
#128=FACE_OUTER_BOUND('',#208,.T.);
#129=FACE_OUTER_BOUND('',#210,.T.);
#130=FACE_OUTER_BOUND('',#214,.T.);
#131=FACE_OUTER_BOUND('',#215,.T.);
#132=FACE_OUTER_BOUND('',#216,.T.);
#133=FACE_OUTER_BOUND('',#217,.T.);
#134=FACE_OUTER_BOUND('',#218,.T.);
#135=FACE_OUTER_BOUND('',#219,.T.);
#136=FACE_OUTER_BOUND('',#220,.T.);
#137=FACE_OUTER_BOUND('',#221,.T.);
#138=FACE_OUTER_BOUND('',#222,.T.);
#139=FACE_OUTER_BOUND('',#223,.T.);
#140=FACE_OUTER_BOUND('',#224,.T.);
#141=FACE_OUTER_BOUND('',#225,.T.);
#142=FACE_OUTER_BOUND('',#226,.T.);
#143=FACE_OUTER_BOUND('',#227,.T.);
#144=FACE_OUTER_BOUND('',#228,.T.);
#145=FACE_OUTER_BOUND('',#229,.T.);
#146=FACE_OUTER_BOUND('',#230,.T.);
#147=FACE_OUTER_BOUND('',#231,.T.);
#148=FACE_OUTER_BOUND('',#232,.T.);
#149=FACE_OUTER_BOUND('',#233,.T.);
#150=FACE_OUTER_BOUND('',#234,.T.);
#151=FACE_OUTER_BOUND('',#235,.T.);
#152=FACE_OUTER_BOUND('',#236,.T.);
#153=FACE_OUTER_BOUND('',#237,.T.);
#154=FACE_OUTER_BOUND('',#238,.T.);
#155=FACE_OUTER_BOUND('',#239,.T.);
#156=FACE_OUTER_BOUND('',#240,.T.);
#157=FACE_OUTER_BOUND('',#241,.T.);
#158=FACE_OUTER_BOUND('',#242,.T.);
#159=FACE_OUTER_BOUND('',#245,.T.);
#160=FACE_OUTER_BOUND('',#246,.T.);
#161=FACE_OUTER_BOUND('',#247,.T.);
#162=FACE_OUTER_BOUND('',#248,.T.);
#163=FACE_OUTER_BOUND('',#249,.T.);
#164=FACE_OUTER_BOUND('',#250,.T.);
#165=FACE_OUTER_BOUND('',#251,.T.);
#166=FACE_OUTER_BOUND('',#252,.T.);
#167=EDGE_LOOP('',(#895,#896,#897,#898));
#168=EDGE_LOOP('',(#899,#900,#901,#902,#903,#904));
#169=EDGE_LOOP('',(#905,#906,#907,#908));
#170=EDGE_LOOP('',(#909,#910,#911,#912));
#171=EDGE_LOOP('',(#913,#914,#915,#916));
#172=EDGE_LOOP('',(#917,#918,#919,#920,#921,#922));
#173=EDGE_LOOP('',(#923,#924,#925,#926));
#174=EDGE_LOOP('',(#927,#928,#929,#930,#931,#932,#933,#934,#935,#936,#937,
#938,#939,#940,#941,#942));
#175=EDGE_LOOP('',(#943,#944,#945,#946));
#176=EDGE_LOOP('',(#947));
#177=EDGE_LOOP('',(#948));
#178=EDGE_LOOP('',(#949,#950,#951,#952));
#179=EDGE_LOOP('',(#953,#954,#955,#956));
#180=EDGE_LOOP('',(#957,#958,#959,#960));
#181=EDGE_LOOP('',(#961,#962,#963,#964,#965,#966,#967,#968,#969,#970,#971,
#972,#973,#974,#975,#976));
#182=EDGE_LOOP('',(#977));
#183=EDGE_LOOP('',(#978));
#184=EDGE_LOOP('',(#979,#980,#981,#982));
#185=EDGE_LOOP('',(#983,#984,#985,#986));
#186=EDGE_LOOP('',(#987,#988,#989,#990));
#187=EDGE_LOOP('',(#991,#992,#993,#994));
#188=EDGE_LOOP('',(#995,#996,#997,#998));
#189=EDGE_LOOP('',(#999,#1000,#1001,#1002));
#190=EDGE_LOOP('',(#1003,#1004,#1005,#1006));
#191=EDGE_LOOP('',(#1007,#1008,#1009,#1010));
#192=EDGE_LOOP('',(#1011,#1012,#1013,#1014));
#193=EDGE_LOOP('',(#1015,#1016,#1017,#1018));
#194=EDGE_LOOP('',(#1019,#1020,#1021,#1022));
#195=EDGE_LOOP('',(#1023,#1024,#1025,#1026));
#196=EDGE_LOOP('',(#1027,#1028,#1029,#1030));
#197=EDGE_LOOP('',(#1031,#1032,#1033,#1034));
#198=EDGE_LOOP('',(#1035,#1036,#1037,#1038));
#199=EDGE_LOOP('',(#1039,#1040,#1041,#1042));
#200=EDGE_LOOP('',(#1043,#1044,#1045,#1046,#1047,#1048));
#201=EDGE_LOOP('',(#1049,#1050,#1051,#1052));
#202=EDGE_LOOP('',(#1053,#1054,#1055,#1056));
#203=EDGE_LOOP('',(#1057,#1058,#1059,#1060,#1061,#1062));
#204=EDGE_LOOP('',(#1063,#1064,#1065,#1066));
#205=EDGE_LOOP('',(#1067,#1068,#1069,#1070));
#206=EDGE_LOOP('',(#1071));
#207=EDGE_LOOP('',(#1072));
#208=EDGE_LOOP('',(#1073));
#209=EDGE_LOOP('',(#1074));
#210=EDGE_LOOP('',(#1075,#1076,#1077,#1078,#1079,#1080,#1081,#1082,#1083,
#1084,#1085,#1086,#1087,#1088,#1089,#1090));
#211=EDGE_LOOP('',(#1091,#1092,#1093,#1094));
#212=EDGE_LOOP('',(#1095));
#213=EDGE_LOOP('',(#1096));
#214=EDGE_LOOP('',(#1097,#1098,#1099,#1100));
#215=EDGE_LOOP('',(#1101,#1102,#1103,#1104));
#216=EDGE_LOOP('',(#1105,#1106,#1107,#1108));
#217=EDGE_LOOP('',(#1109,#1110,#1111,#1112));
#218=EDGE_LOOP('',(#1113,#1114,#1115,#1116));
#219=EDGE_LOOP('',(#1117,#1118,#1119,#1120));
#220=EDGE_LOOP('',(#1121,#1122,#1123,#1124));
#221=EDGE_LOOP('',(#1125,#1126,#1127,#1128));
#222=EDGE_LOOP('',(#1129,#1130,#1131,#1132));
#223=EDGE_LOOP('',(#1133,#1134,#1135,#1136));
#224=EDGE_LOOP('',(#1137,#1138,#1139,#1140));
#225=EDGE_LOOP('',(#1141,#1142,#1143,#1144));
#226=EDGE_LOOP('',(#1145,#1146,#1147,#1148));
#227=EDGE_LOOP('',(#1149,#1150,#1151,#1152));
#228=EDGE_LOOP('',(#1153,#1154,#1155,#1156));
#229=EDGE_LOOP('',(#1157,#1158,#1159,#1160));
#230=EDGE_LOOP('',(#1161,#1162,#1163,#1164));
#231=EDGE_LOOP('',(#1165,#1166,#1167,#1168));
#232=EDGE_LOOP('',(#1169,#1170,#1171,#1172));
#233=EDGE_LOOP('',(#1173,#1174,#1175,#1176));
#234=EDGE_LOOP('',(#1177,#1178,#1179,#1180));
#235=EDGE_LOOP('',(#1181,#1182,#1183,#1184));
#236=EDGE_LOOP('',(#1185,#1186,#1187,#1188));
#237=EDGE_LOOP('',(#1189,#1190,#1191,#1192));
#238=EDGE_LOOP('',(#1193,#1194,#1195,#1196));
#239=EDGE_LOOP('',(#1197,#1198,#1199,#1200));
#240=EDGE_LOOP('',(#1201,#1202,#1203,#1204));
#241=EDGE_LOOP('',(#1205,#1206,#1207,#1208));
#242=EDGE_LOOP('',(#1209,#1210,#1211,#1212,#1213,#1214,#1215,#1216,#1217,
#1218,#1219,#1220,#1221,#1222,#1223,#1224));
#243=EDGE_LOOP('',(#1225));
#244=EDGE_LOOP('',(#1226));
#245=EDGE_LOOP('',(#1227,#1228,#1229,#1230));
#246=EDGE_LOOP('',(#1231,#1232,#1233,#1234));
#247=EDGE_LOOP('',(#1235,#1236,#1237,#1238));
#248=EDGE_LOOP('',(#1239,#1240,#1241,#1242));
#249=EDGE_LOOP('',(#1243,#1244,#1245,#1246));
#250=EDGE_LOOP('',(#1247,#1248,#1249,#1250));
#251=EDGE_LOOP('',(#1251,#1252,#1253,#1254));
#252=EDGE_LOOP('',(#1255,#1256,#1257,#1258));
#253=LINE('',#1810,#415);
#254=LINE('',#1813,#416);
#255=LINE('',#1816,#417);
#256=LINE('',#1820,#418);
#257=LINE('',#1822,#419);
#258=LINE('',#1823,#420);
#259=LINE('',#1826,#421);
#260=LINE('',#1827,#422);
#261=LINE('',#1831,#423);
#262=LINE('',#1834,#424);
#263=LINE('',#1835,#425);
#264=LINE('',#1838,#426);
#265=LINE('',#1839,#427);
#266=LINE('',#1841,#428);
#267=LINE('',#1845,#429);
#268=LINE('',#1847,#430);
#269=LINE('',#1849,#431);
#270=LINE('',#1851,#432);
#271=LINE('',#1853,#433);
#272=LINE('',#1855,#434);
#273=LINE('',#1857,#435);
#274=LINE('',#1859,#436);
#275=LINE('',#1861,#437);
#276=LINE('',#1863,#438);
#277=LINE('',#1865,#439);
#278=LINE('',#1867,#440);
#279=LINE('',#1869,#441);
#280=LINE('',#1871,#442);
#281=LINE('',#1873,#443);
#282=LINE('',#1874,#444);
#283=LINE('',#1882,#445);
#284=LINE('',#1883,#446);
#285=LINE('',#1884,#447);
#286=LINE('',#1887,#448);
#287=LINE('',#1888,#449);
#288=LINE('',#1891,#450);
#289=LINE('',#1893,#451);
#290=LINE('',#1894,#452);
#291=LINE('',#1897,#453);
#292=LINE('',#1899,#454);
#293=LINE('',#1901,#455);
#294=LINE('',#1903,#456);
#295=LINE('',#1905,#457);
#296=LINE('',#1907,#458);
#297=LINE('',#1909,#459);
#298=LINE('',#1911,#460);
#299=LINE('',#1913,#461);
#300=LINE('',#1915,#462);
#301=LINE('',#1917,#463);
#302=LINE('',#1918,#464);
#303=LINE('',#1919,#465);
#304=LINE('',#1925,#466);
#305=LINE('',#1927,#467);
#306=LINE('',#1929,#468);
#307=LINE('',#1930,#469);
#308=LINE('',#1932,#470);
#309=LINE('',#1934,#471);
#310=LINE('',#1936,#472);
#311=LINE('',#1938,#473);
#312=LINE('',#1940,#474);
#313=LINE('',#1941,#475);
#314=LINE('',#1943,#476);
#315=LINE('',#1946,#477);
#316=LINE('',#1948,#478);
#317=LINE('',#1957,#479);
#318=LINE('',#1960,#480);
#319=LINE('',#1963,#481);
#320=LINE('',#1965,#482);
#321=LINE('',#1967,#483);
#322=LINE('',#1970,#484);
#323=LINE('',#1973,#485);
#324=LINE('',#1974,#486);
#325=LINE('',#1977,#487);
#326=LINE('',#1980,#488);
#327=LINE('',#1982,#489);
#328=LINE('',#1984,#490);
#329=LINE('',#1985,#491);
#330=LINE('',#1987,#492);
#331=LINE('',#2002,#493);
#332=LINE('',#2004,#494);
#333=LINE('',#2006,#495);
#334=LINE('',#2008,#496);
#335=LINE('',#2010,#497);
#336=LINE('',#2012,#498);
#337=LINE('',#2014,#499);
#338=LINE('',#2016,#500);
#339=LINE('',#2018,#501);
#340=LINE('',#2020,#502);
#341=LINE('',#2022,#503);
#342=LINE('',#2024,#504);
#343=LINE('',#2026,#505);
#344=LINE('',#2028,#506);
#345=LINE('',#2030,#507);
#346=LINE('',#2031,#508);
#347=LINE('',#2039,#509);
#348=LINE('',#2043,#510);
#349=LINE('',#2045,#511);
#350=LINE('',#2047,#512);
#351=LINE('',#2051,#513);
#352=LINE('',#2053,#514);
#353=LINE('',#2055,#515);
#354=LINE('',#2056,#516);
#355=LINE('',#2059,#517);
#356=LINE('',#2061,#518);
#357=LINE('',#2062,#519);
#358=LINE('',#2065,#520);
#359=LINE('',#2067,#521);
#360=LINE('',#2068,#522);
#361=LINE('',#2071,#523);
#362=LINE('',#2073,#524);
#363=LINE('',#2074,#525);
#364=LINE('',#2077,#526);
#365=LINE('',#2079,#527);
#366=LINE('',#2080,#528);
#367=LINE('',#2083,#529);
#368=LINE('',#2085,#530);
#369=LINE('',#2086,#531);
#370=LINE('',#2089,#532);
#371=LINE('',#2091,#533);
#372=LINE('',#2092,#534);
#373=LINE('',#2095,#535);
#374=LINE('',#2097,#536);
#375=LINE('',#2098,#537);
#376=LINE('',#2101,#538);
#377=LINE('',#2103,#539);
#378=LINE('',#2104,#540);
#379=LINE('',#2107,#541);
#380=LINE('',#2109,#542);
#381=LINE('',#2110,#543);
#382=LINE('',#2113,#544);
#383=LINE('',#2115,#545);
#384=LINE('',#2116,#546);
#385=LINE('',#2119,#547);
#386=LINE('',#2121,#548);
#387=LINE('',#2122,#549);
#388=LINE('',#2125,#550);
#389=LINE('',#2127,#551);
#390=LINE('',#2128,#552);
#391=LINE('',#2131,#553);
#392=LINE('',#2133,#554);
#393=LINE('',#2134,#555);
#394=LINE('',#2137,#556);
#395=LINE('',#2139,#557);
#396=LINE('',#2140,#558);
#397=LINE('',#2142,#559);
#398=LINE('',#2143,#560);
#399=LINE('',#2145,#561);
#400=LINE('',#2146,#562);
#401=LINE('',#2148,#563);
#402=LINE('',#2150,#564);
#403=LINE('',#2152,#565);
#404=LINE('',#2154,#566);
#405=LINE('',#2156,#567);
#406=LINE('',#2158,#568);
#407=LINE('',#2160,#569);
#408=LINE('',#2163,#570);
#409=LINE('',#2165,#571);
#410=LINE('',#2167,#572);
#411=LINE('',#2169,#573);
#412=LINE('',#2171,#574);
#413=LINE('',#2173,#575);
#414=LINE('',#2175,#576);
#415=VECTOR('',#1458,10.);
#416=VECTOR('',#1461,10.);
#417=VECTOR('',#1464,10.);
#418=VECTOR('',#1467,10.);
#419=VECTOR('',#1468,10.);
#420=VECTOR('',#1469,10.);
#421=VECTOR('',#1472,10.);
#422=VECTOR('',#1473,10.);
#423=VECTOR('',#1478,10.);
#424=VECTOR('',#1481,10.);
#425=VECTOR('',#1482,10.);
#426=VECTOR('',#1485,10.);
#427=VECTOR('',#1486,10.);
#428=VECTOR('',#1489,10.);
#429=VECTOR('',#1492,10.);
#430=VECTOR('',#1493,10.);
#431=VECTOR('',#1494,10.);
#432=VECTOR('',#1495,10.);
#433=VECTOR('',#1496,10.);
#434=VECTOR('',#1497,10.);
#435=VECTOR('',#1498,10.);
#436=VECTOR('',#1499,10.);
#437=VECTOR('',#1500,10.);
#438=VECTOR('',#1501,10.);
#439=VECTOR('',#1502,10.);
#440=VECTOR('',#1503,10.);
#441=VECTOR('',#1504,10.);
#442=VECTOR('',#1505,10.);
#443=VECTOR('',#1506,10.);
#444=VECTOR('',#1507,10.);
#445=VECTOR('',#1514,10.);
#446=VECTOR('',#1515,10.);
#447=VECTOR('',#1516,10.);
#448=VECTOR('',#1519,10.);
#449=VECTOR('',#1520,10.);
#450=VECTOR('',#1523,10.);
#451=VECTOR('',#1524,10.);
#452=VECTOR('',#1525,10.);
#453=VECTOR('',#1528,10.);
#454=VECTOR('',#1529,10.);
#455=VECTOR('',#1530,10.);
#456=VECTOR('',#1531,10.);
#457=VECTOR('',#1532,10.);
#458=VECTOR('',#1533,10.);
#459=VECTOR('',#1534,10.);
#460=VECTOR('',#1535,10.);
#461=VECTOR('',#1536,10.);
#462=VECTOR('',#1537,10.);
#463=VECTOR('',#1538,10.);
#464=VECTOR('',#1539,10.);
#465=VECTOR('',#1540,10.);
#466=VECTOR('',#1547,10.);
#467=VECTOR('',#1550,10.);
#468=VECTOR('',#1553,10.);
#469=VECTOR('',#1554,10.);
#470=VECTOR('',#1557,10.);
#471=VECTOR('',#1560,10.);
#472=VECTOR('',#1563,10.);
#473=VECTOR('',#1566,10.);
#474=VECTOR('',#1569,10.);
#475=VECTOR('',#1570,10.);
#476=VECTOR('',#1573,10.);
#477=VECTOR('',#1578,1.5);
#478=VECTOR('',#1581,1.5);
#479=VECTOR('',#1592,10.);
#480=VECTOR('',#1595,10.);
#481=VECTOR('',#1598,10.);
#482=VECTOR('',#1599,10.);
#483=VECTOR('',#1600,10.);
#484=VECTOR('',#1603,10.);
#485=VECTOR('',#1606,10.);
#486=VECTOR('',#1607,10.);
#487=VECTOR('',#1610,10.);
#488=VECTOR('',#1613,10.);
#489=VECTOR('',#1616,10.);
#490=VECTOR('',#1617,10.);
#491=VECTOR('',#1618,10.);
#492=VECTOR('',#1621,10.);
#493=VECTOR('',#1638,10.);
#494=VECTOR('',#1639,10.);
#495=VECTOR('',#1640,10.);
#496=VECTOR('',#1641,10.);
#497=VECTOR('',#1642,10.);
#498=VECTOR('',#1643,10.);
#499=VECTOR('',#1644,10.);
#500=VECTOR('',#1645,10.);
#501=VECTOR('',#1646,10.);
#502=VECTOR('',#1647,10.);
#503=VECTOR('',#1648,10.);
#504=VECTOR('',#1649,10.);
#505=VECTOR('',#1650,10.);
#506=VECTOR('',#1651,10.);
#507=VECTOR('',#1652,10.);
#508=VECTOR('',#1653,10.);
#509=VECTOR('',#1662,2.6);
#510=VECTOR('',#1667,2.6);
#511=VECTOR('',#1670,1.5);
#512=VECTOR('',#1673,1.5);
#513=VECTOR('',#1676,10.);
#514=VECTOR('',#1677,10.);
#515=VECTOR('',#1678,10.);
#516=VECTOR('',#1679,10.);
#517=VECTOR('',#1682,10.);
#518=VECTOR('',#1683,10.);
#519=VECTOR('',#1684,10.);
#520=VECTOR('',#1687,10.);
#521=VECTOR('',#1688,10.);
#522=VECTOR('',#1689,10.);
#523=VECTOR('',#1692,10.);
#524=VECTOR('',#1693,10.);
#525=VECTOR('',#1694,10.);
#526=VECTOR('',#1697,10.);
#527=VECTOR('',#1698,10.);
#528=VECTOR('',#1699,10.);
#529=VECTOR('',#1702,10.);
#530=VECTOR('',#1703,10.);
#531=VECTOR('',#1704,10.);
#532=VECTOR('',#1707,10.);
#533=VECTOR('',#1708,10.);
#534=VECTOR('',#1709,10.);
#535=VECTOR('',#1712,10.);
#536=VECTOR('',#1713,10.);
#537=VECTOR('',#1714,10.);
#538=VECTOR('',#1717,10.);
#539=VECTOR('',#1718,10.);
#540=VECTOR('',#1719,10.);
#541=VECTOR('',#1722,10.);
#542=VECTOR('',#1723,10.);
#543=VECTOR('',#1724,10.);
#544=VECTOR('',#1727,10.);
#545=VECTOR('',#1728,10.);
#546=VECTOR('',#1729,10.);
#547=VECTOR('',#1732,10.);
#548=VECTOR('',#1733,10.);
#549=VECTOR('',#1734,10.);
#550=VECTOR('',#1737,10.);
#551=VECTOR('',#1738,10.);
#552=VECTOR('',#1739,10.);
#553=VECTOR('',#1742,10.);
#554=VECTOR('',#1743,10.);
#555=VECTOR('',#1744,10.);
#556=VECTOR('',#1747,10.);
#557=VECTOR('',#1748,10.);
#558=VECTOR('',#1749,10.);
#559=VECTOR('',#1752,10.);
#560=VECTOR('',#1753,10.);
#561=VECTOR('',#1756,10.);
#562=VECTOR('',#1757,10.);
#563=VECTOR('',#1760,10.);
#564=VECTOR('',#1763,10.);
#565=VECTOR('',#1766,10.);
#566=VECTOR('',#1769,10.);
#567=VECTOR('',#1772,10.);
#568=VECTOR('',#1775,10.);
#569=VECTOR('',#1778,10.);
#570=VECTOR('',#1783,10.);
#571=VECTOR('',#1786,10.);
#572=VECTOR('',#1789,10.);
#573=VECTOR('',#1792,10.);
#574=VECTOR('',#1795,10.);
#575=VECTOR('',#1798,10.);
#576=VECTOR('',#1801,10.);
#577=CIRCLE('',#1359,4.8);
#578=CIRCLE('',#1360,4.8);
#579=CIRCLE('',#1362,4.8);
#580=CIRCLE('',#1365,4.8);
#581=CIRCLE('',#1370,1.5);
#582=CIRCLE('',#1371,1.5);
#583=CIRCLE('',#1376,1.5);
#584=CIRCLE('',#1377,1.5);
#585=CIRCLE('',#1394,4.8);
#586=CIRCLE('',#1395,4.8);
#587=CIRCLE('',#1397,4.8);
#588=CIRCLE('',#1400,4.8);
#589=CIRCLE('',#1405,2.6);
#590=CIRCLE('',#1406,1.5);
#591=CIRCLE('',#1408,2.6);
#592=CIRCLE('',#1409,1.5);
#593=CIRCLE('',#1411,1.5);
#594=CIRCLE('',#1412,1.5);
#595=CIRCLE('',#1414,2.6);
#596=CIRCLE('',#1416,2.6);
#597=VERTEX_POINT('',#1806);
#598=VERTEX_POINT('',#1807);
#599=VERTEX_POINT('',#1809);
#600=VERTEX_POINT('',#1811);
#601=VERTEX_POINT('',#1815);
#602=VERTEX_POINT('',#1817);
#603=VERTEX_POINT('',#1819);
#604=VERTEX_POINT('',#1821);
#605=VERTEX_POINT('',#1825);
#606=VERTEX_POINT('',#1829);
#607=VERTEX_POINT('',#1833);
#608=VERTEX_POINT('',#1837);
#609=VERTEX_POINT('',#1843);
#610=VERTEX_POINT('',#1844);
#611=VERTEX_POINT('',#1846);
#612=VERTEX_POINT('',#1848);
#613=VERTEX_POINT('',#1850);
#614=VERTEX_POINT('',#1852);
#615=VERTEX_POINT('',#1854);
#616=VERTEX_POINT('',#1856);
#617=VERTEX_POINT('',#1858);
#618=VERTEX_POINT('',#1860);
#619=VERTEX_POINT('',#1862);
#620=VERTEX_POINT('',#1864);
#621=VERTEX_POINT('',#1866);
#622=VERTEX_POINT('',#1868);
#623=VERTEX_POINT('',#1870);
#624=VERTEX_POINT('',#1872);
#625=VERTEX_POINT('',#1875);
#626=VERTEX_POINT('',#1877);
#627=VERTEX_POINT('',#1880);
#628=VERTEX_POINT('',#1881);
#629=VERTEX_POINT('',#1886);
#630=VERTEX_POINT('',#1890);
#631=VERTEX_POINT('',#1892);
#632=VERTEX_POINT('',#1896);
#633=VERTEX_POINT('',#1898);
#634=VERTEX_POINT('',#1900);
#635=VERTEX_POINT('',#1902);
#636=VERTEX_POINT('',#1904);
#637=VERTEX_POINT('',#1906);
#638=VERTEX_POINT('',#1908);
#639=VERTEX_POINT('',#1910);
#640=VERTEX_POINT('',#1912);
#641=VERTEX_POINT('',#1914);
#642=VERTEX_POINT('',#1916);
#643=VERTEX_POINT('',#1920);
#644=VERTEX_POINT('',#1922);
#645=VERTEX_POINT('',#1953);
#646=VERTEX_POINT('',#1954);
#647=VERTEX_POINT('',#1956);
#648=VERTEX_POINT('',#1958);
#649=VERTEX_POINT('',#1962);
#650=VERTEX_POINT('',#1964);
#651=VERTEX_POINT('',#1966);
#652=VERTEX_POINT('',#1968);
#653=VERTEX_POINT('',#1972);
#654=VERTEX_POINT('',#1976);
#655=VERTEX_POINT('',#1978);
#656=VERTEX_POINT('',#1983);
#657=VERTEX_POINT('',#1990);
#658=VERTEX_POINT('',#1992);
#659=VERTEX_POINT('',#1995);
#660=VERTEX_POINT('',#1997);
#661=VERTEX_POINT('',#2000);
#662=VERTEX_POINT('',#2001);
#663=VERTEX_POINT('',#2003);
#664=VERTEX_POINT('',#2005);
#665=VERTEX_POINT('',#2007);
#666=VERTEX_POINT('',#2009);
#667=VERTEX_POINT('',#2011);
#668=VERTEX_POINT('',#2013);
#669=VERTEX_POINT('',#2015);
#670=VERTEX_POINT('',#2017);
#671=VERTEX_POINT('',#2019);
#672=VERTEX_POINT('',#2021);
#673=VERTEX_POINT('',#2023);
#674=VERTEX_POINT('',#2025);
#675=VERTEX_POINT('',#2027);
#676=VERTEX_POINT('',#2029);
#677=VERTEX_POINT('',#2032);
#678=VERTEX_POINT('',#2034);
#679=VERTEX_POINT('',#2037);
#680=VERTEX_POINT('',#2041);
#681=VERTEX_POINT('',#2049);
#682=VERTEX_POINT('',#2050);
#683=VERTEX_POINT('',#2052);
#684=VERTEX_POINT('',#2054);
#685=VERTEX_POINT('',#2058);
#686=VERTEX_POINT('',#2060);
#687=VERTEX_POINT('',#2064);
#688=VERTEX_POINT('',#2066);
#689=VERTEX_POINT('',#2070);
#690=VERTEX_POINT('',#2072);
#691=VERTEX_POINT('',#2076);
#692=VERTEX_POINT('',#2078);
#693=VERTEX_POINT('',#2082);
#694=VERTEX_POINT('',#2084);
#695=VERTEX_POINT('',#2088);
#696=VERTEX_POINT('',#2090);
#697=VERTEX_POINT('',#2094);
#698=VERTEX_POINT('',#2096);
#699=VERTEX_POINT('',#2100);
#700=VERTEX_POINT('',#2102);
#701=VERTEX_POINT('',#2106);
#702=VERTEX_POINT('',#2108);
#703=VERTEX_POINT('',#2112);
#704=VERTEX_POINT('',#2114);
#705=VERTEX_POINT('',#2118);
#706=VERTEX_POINT('',#2120);
#707=VERTEX_POINT('',#2124);
#708=VERTEX_POINT('',#2126);
#709=VERTEX_POINT('',#2130);
#710=VERTEX_POINT('',#2132);
#711=VERTEX_POINT('',#2136);
#712=VERTEX_POINT('',#2138);
#713=EDGE_CURVE('',#597,#598,#577,.T.);
#714=EDGE_CURVE('',#597,#599,#253,.T.);
#715=EDGE_CURVE('',#600,#599,#578,.T.);
#716=EDGE_CURVE('',#600,#598,#254,.T.);
#717=EDGE_CURVE('',#598,#601,#255,.T.);
#718=EDGE_CURVE('',#601,#602,#579,.T.);
#719=EDGE_CURVE('',#603,#602,#256,.T.);
#720=EDGE_CURVE('',#604,#603,#257,.T.);
#721=EDGE_CURVE('',#604,#597,#258,.T.);
#722=EDGE_CURVE('',#605,#600,#259,.T.);
#723=EDGE_CURVE('',#601,#605,#260,.T.);
#724=EDGE_CURVE('',#606,#605,#580,.T.);
#725=EDGE_CURVE('',#606,#602,#261,.T.);
#726=EDGE_CURVE('',#607,#606,#262,.T.);
#727=EDGE_CURVE('',#603,#607,#263,.T.);
#728=EDGE_CURVE('',#608,#599,#264,.T.);
#729=EDGE_CURVE('',#607,#608,#265,.T.);
#730=EDGE_CURVE('',#608,#604,#266,.T.);
#731=EDGE_CURVE('',#609,#610,#267,.T.);
#732=EDGE_CURVE('',#610,#611,#268,.T.);
#733=EDGE_CURVE('',#611,#612,#269,.T.);
#734=EDGE_CURVE('',#612,#613,#270,.T.);
#735=EDGE_CURVE('',#613,#614,#271,.T.);
#736=EDGE_CURVE('',#614,#615,#272,.T.);
#737=EDGE_CURVE('',#615,#616,#273,.T.);
#738=EDGE_CURVE('',#616,#617,#274,.T.);
#739=EDGE_CURVE('',#617,#618,#275,.T.);
#740=EDGE_CURVE('',#618,#619,#276,.T.);
#741=EDGE_CURVE('',#619,#620,#277,.T.);
#742=EDGE_CURVE('',#620,#621,#278,.T.);
#743=EDGE_CURVE('',#621,#622,#279,.T.);
#744=EDGE_CURVE('',#622,#623,#280,.T.);
#745=EDGE_CURVE('',#623,#624,#281,.T.);
#746=EDGE_CURVE('',#624,#609,#282,.T.);
#747=EDGE_CURVE('',#625,#625,#581,.T.);
#748=EDGE_CURVE('',#626,#626,#582,.T.);
#749=EDGE_CURVE('',#627,#628,#283,.T.);
#750=EDGE_CURVE('',#628,#612,#284,.T.);
#751=EDGE_CURVE('',#611,#627,#285,.T.);
#752=EDGE_CURVE('',#628,#629,#286,.T.);
#753=EDGE_CURVE('',#613,#629,#287,.T.);
#754=EDGE_CURVE('',#609,#630,#288,.T.);
#755=EDGE_CURVE('',#630,#631,#289,.T.);
#756=EDGE_CURVE('',#631,#610,#290,.T.);
#757=EDGE_CURVE('',#630,#632,#291,.T.);
#758=EDGE_CURVE('',#633,#632,#292,.T.);
#759=EDGE_CURVE('',#634,#633,#293,.T.);
#760=EDGE_CURVE('',#635,#634,#294,.T.);
#761=EDGE_CURVE('',#636,#635,#295,.T.);
#762=EDGE_CURVE('',#637,#636,#296,.T.);
#763=EDGE_CURVE('',#638,#637,#297,.T.);
#764=EDGE_CURVE('',#639,#638,#298,.T.);
#765=EDGE_CURVE('',#640,#639,#299,.T.);
#766=EDGE_CURVE('',#641,#640,#300,.T.);
#767=EDGE_CURVE('',#642,#641,#301,.T.);
#768=EDGE_CURVE('',#629,#642,#302,.T.);
#769=EDGE_CURVE('',#627,#631,#303,.T.);
#770=EDGE_CURVE('',#643,#643,#583,.T.);
#771=EDGE_CURVE('',#644,#644,#584,.T.);
#772=EDGE_CURVE('',#632,#624,#304,.T.);
#773=EDGE_CURVE('',#623,#633,#305,.T.);
#774=EDGE_CURVE('',#621,#635,#306,.T.);
#775=EDGE_CURVE('',#634,#622,#307,.T.);
#776=EDGE_CURVE('',#636,#620,#308,.T.);
#777=EDGE_CURVE('',#619,#637,#309,.T.);
#778=EDGE_CURVE('',#638,#618,#310,.T.);
#779=EDGE_CURVE('',#617,#639,#311,.T.);
#780=EDGE_CURVE('',#615,#641,#312,.T.);
#781=EDGE_CURVE('',#640,#616,#313,.T.);
#782=EDGE_CURVE('',#642,#614,#314,.T.);
#783=EDGE_CURVE('',#625,#643,#315,.T.);
#784=EDGE_CURVE('',#626,#644,#316,.T.);
#785=EDGE_CURVE('',#645,#646,#585,.T.);
#786=EDGE_CURVE('',#645,#647,#317,.T.);
#787=EDGE_CURVE('',#648,#647,#586,.T.);
#788=EDGE_CURVE('',#648,#646,#318,.T.);
#789=EDGE_CURVE('',#649,#647,#319,.T.);
#790=EDGE_CURVE('',#650,#649,#320,.T.);
#791=EDGE_CURVE('',#650,#651,#321,.T.);
#792=EDGE_CURVE('',#651,#652,#587,.T.);
#793=EDGE_CURVE('',#652,#648,#322,.T.);
#794=EDGE_CURVE('',#653,#645,#323,.T.);
#795=EDGE_CURVE('',#649,#653,#324,.T.);
#796=EDGE_CURVE('',#651,#654,#325,.T.);
#797=EDGE_CURVE('',#655,#654,#588,.T.);
#798=EDGE_CURVE('',#655,#652,#326,.T.);
#799=EDGE_CURVE('',#646,#655,#327,.T.);
#800=EDGE_CURVE('',#656,#654,#328,.T.);
#801=EDGE_CURVE('',#653,#656,#329,.T.);
#802=EDGE_CURVE('',#656,#650,#330,.T.);
#803=EDGE_CURVE('',#657,#657,#589,.T.);
#804=EDGE_CURVE('',#658,#658,#590,.T.);
#805=EDGE_CURVE('',#659,#659,#591,.T.);
#806=EDGE_CURVE('',#660,#660,#592,.T.);
#807=EDGE_CURVE('',#661,#662,#331,.T.);
#808=EDGE_CURVE('',#662,#663,#332,.T.);
#809=EDGE_CURVE('',#663,#664,#333,.T.);
#810=EDGE_CURVE('',#664,#665,#334,.T.);
#811=EDGE_CURVE('',#665,#666,#335,.T.);
#812=EDGE_CURVE('',#666,#667,#336,.T.);
#813=EDGE_CURVE('',#667,#668,#337,.T.);
#814=EDGE_CURVE('',#668,#669,#338,.T.);
#815=EDGE_CURVE('',#669,#670,#339,.T.);
#816=EDGE_CURVE('',#670,#671,#340,.T.);
#817=EDGE_CURVE('',#671,#672,#341,.T.);
#818=EDGE_CURVE('',#672,#673,#342,.T.);
#819=EDGE_CURVE('',#673,#674,#343,.T.);
#820=EDGE_CURVE('',#674,#675,#344,.T.);
#821=EDGE_CURVE('',#675,#676,#345,.T.);
#822=EDGE_CURVE('',#676,#661,#346,.T.);
#823=EDGE_CURVE('',#677,#677,#593,.T.);
#824=EDGE_CURVE('',#678,#678,#594,.T.);
#825=EDGE_CURVE('',#679,#679,#595,.T.);
#826=EDGE_CURVE('',#679,#659,#347,.T.);
#827=EDGE_CURVE('',#680,#680,#596,.T.);
#828=EDGE_CURVE('',#680,#657,#348,.T.);
#829=EDGE_CURVE('',#677,#660,#349,.T.);
#830=EDGE_CURVE('',#678,#658,#350,.T.);
#831=EDGE_CURVE('',#681,#682,#351,.T.);
#832=EDGE_CURVE('',#682,#683,#352,.T.);
#833=EDGE_CURVE('',#683,#684,#353,.T.);
#834=EDGE_CURVE('',#681,#684,#354,.T.);
#835=EDGE_CURVE('',#682,#685,#355,.T.);
#836=EDGE_CURVE('',#685,#686,#356,.T.);
#837=EDGE_CURVE('',#686,#683,#357,.T.);
#838=EDGE_CURVE('',#685,#687,#358,.T.);
#839=EDGE_CURVE('',#687,#688,#359,.T.);
#840=EDGE_CURVE('',#688,#686,#360,.T.);
#841=EDGE_CURVE('',#687,#689,#361,.T.);
#842=EDGE_CURVE('',#689,#690,#362,.T.);
#843=EDGE_CURVE('',#690,#688,#363,.T.);
#844=EDGE_CURVE('',#689,#691,#364,.T.);
#845=EDGE_CURVE('',#691,#692,#365,.T.);
#846=EDGE_CURVE('',#692,#690,#366,.T.);
#847=EDGE_CURVE('',#691,#693,#367,.T.);
#848=EDGE_CURVE('',#693,#694,#368,.T.);
#849=EDGE_CURVE('',#694,#692,#369,.T.);
#850=EDGE_CURVE('',#693,#695,#370,.T.);
#851=EDGE_CURVE('',#695,#696,#371,.T.);
#852=EDGE_CURVE('',#696,#694,#372,.T.);
#853=EDGE_CURVE('',#697,#696,#373,.T.);
#854=EDGE_CURVE('',#695,#698,#374,.T.);
#855=EDGE_CURVE('',#698,#697,#375,.T.);
#856=EDGE_CURVE('',#699,#697,#376,.T.);
#857=EDGE_CURVE('',#698,#700,#377,.T.);
#858=EDGE_CURVE('',#700,#699,#378,.T.);
#859=EDGE_CURVE('',#701,#699,#379,.T.);
#860=EDGE_CURVE('',#700,#702,#380,.T.);
#861=EDGE_CURVE('',#702,#701,#381,.T.);
#862=EDGE_CURVE('',#703,#701,#382,.T.);
#863=EDGE_CURVE('',#702,#704,#383,.T.);
#864=EDGE_CURVE('',#704,#703,#384,.T.);
#865=EDGE_CURVE('',#705,#703,#385,.T.);
#866=EDGE_CURVE('',#704,#706,#386,.T.);
#867=EDGE_CURVE('',#706,#705,#387,.T.);
#868=EDGE_CURVE('',#707,#705,#388,.T.);
#869=EDGE_CURVE('',#706,#708,#389,.T.);
#870=EDGE_CURVE('',#708,#707,#390,.T.);
#871=EDGE_CURVE('',#709,#707,#391,.T.);
#872=EDGE_CURVE('',#708,#710,#392,.T.);
#873=EDGE_CURVE('',#710,#709,#393,.T.);
#874=EDGE_CURVE('',#711,#709,#394,.T.);
#875=EDGE_CURVE('',#710,#712,#395,.T.);
#876=EDGE_CURVE('',#712,#711,#396,.T.);
#877=EDGE_CURVE('',#684,#711,#397,.T.);
#878=EDGE_CURVE('',#712,#681,#398,.T.);
#879=EDGE_CURVE('',#701,#664,#399,.T.);
#880=EDGE_CURVE('',#699,#663,#400,.T.);
#881=EDGE_CURVE('',#703,#665,#401,.T.);
#882=EDGE_CURVE('',#705,#666,#402,.T.);
#883=EDGE_CURVE('',#707,#667,#403,.T.);
#884=EDGE_CURVE('',#709,#668,#404,.T.);
#885=EDGE_CURVE('',#711,#669,#405,.T.);
#886=EDGE_CURVE('',#684,#670,#406,.T.);
#887=EDGE_CURVE('',#683,#671,#407,.T.);
#888=EDGE_CURVE('',#697,#662,#408,.T.);
#889=EDGE_CURVE('',#696,#661,#409,.T.);
#890=EDGE_CURVE('',#694,#676,#410,.T.);
#891=EDGE_CURVE('',#692,#675,#411,.T.);
#892=EDGE_CURVE('',#690,#674,#412,.T.);
#893=EDGE_CURVE('',#688,#673,#413,.T.);
#894=EDGE_CURVE('',#686,#672,#414,.T.);
#895=ORIENTED_EDGE('',*,*,#713,.F.);
#896=ORIENTED_EDGE('',*,*,#714,.T.);
#897=ORIENTED_EDGE('',*,*,#715,.F.);
#898=ORIENTED_EDGE('',*,*,#716,.T.);
#899=ORIENTED_EDGE('',*,*,#713,.T.);
#900=ORIENTED_EDGE('',*,*,#717,.T.);
#901=ORIENTED_EDGE('',*,*,#718,.T.);
#902=ORIENTED_EDGE('',*,*,#719,.F.);
#903=ORIENTED_EDGE('',*,*,#720,.F.);
#904=ORIENTED_EDGE('',*,*,#721,.T.);
#905=ORIENTED_EDGE('',*,*,#716,.F.);
#906=ORIENTED_EDGE('',*,*,#722,.F.);
#907=ORIENTED_EDGE('',*,*,#723,.F.);
#908=ORIENTED_EDGE('',*,*,#717,.F.);
#909=ORIENTED_EDGE('',*,*,#724,.F.);
#910=ORIENTED_EDGE('',*,*,#725,.T.);
#911=ORIENTED_EDGE('',*,*,#718,.F.);
#912=ORIENTED_EDGE('',*,*,#723,.T.);
#913=ORIENTED_EDGE('',*,*,#725,.F.);
#914=ORIENTED_EDGE('',*,*,#726,.F.);
#915=ORIENTED_EDGE('',*,*,#727,.F.);
#916=ORIENTED_EDGE('',*,*,#719,.T.);
#917=ORIENTED_EDGE('',*,*,#715,.T.);
#918=ORIENTED_EDGE('',*,*,#728,.F.);
#919=ORIENTED_EDGE('',*,*,#729,.F.);
#920=ORIENTED_EDGE('',*,*,#726,.T.);
#921=ORIENTED_EDGE('',*,*,#724,.T.);
#922=ORIENTED_EDGE('',*,*,#722,.T.);
#923=ORIENTED_EDGE('',*,*,#714,.F.);
#924=ORIENTED_EDGE('',*,*,#721,.F.);
#925=ORIENTED_EDGE('',*,*,#730,.F.);
#926=ORIENTED_EDGE('',*,*,#728,.T.);
#927=ORIENTED_EDGE('',*,*,#731,.T.);
#928=ORIENTED_EDGE('',*,*,#732,.T.);
#929=ORIENTED_EDGE('',*,*,#733,.T.);
#930=ORIENTED_EDGE('',*,*,#734,.T.);
#931=ORIENTED_EDGE('',*,*,#735,.T.);
#932=ORIENTED_EDGE('',*,*,#736,.T.);
#933=ORIENTED_EDGE('',*,*,#737,.T.);
#934=ORIENTED_EDGE('',*,*,#738,.T.);
#935=ORIENTED_EDGE('',*,*,#739,.T.);
#936=ORIENTED_EDGE('',*,*,#740,.T.);
#937=ORIENTED_EDGE('',*,*,#741,.T.);
#938=ORIENTED_EDGE('',*,*,#742,.T.);
#939=ORIENTED_EDGE('',*,*,#743,.T.);
#940=ORIENTED_EDGE('',*,*,#744,.T.);
#941=ORIENTED_EDGE('',*,*,#745,.T.);
#942=ORIENTED_EDGE('',*,*,#746,.T.);
#943=ORIENTED_EDGE('',*,*,#729,.T.);
#944=ORIENTED_EDGE('',*,*,#730,.T.);
#945=ORIENTED_EDGE('',*,*,#720,.T.);
#946=ORIENTED_EDGE('',*,*,#727,.T.);
#947=ORIENTED_EDGE('',*,*,#747,.T.);
#948=ORIENTED_EDGE('',*,*,#748,.T.);
#949=ORIENTED_EDGE('',*,*,#749,.T.);
#950=ORIENTED_EDGE('',*,*,#750,.T.);
#951=ORIENTED_EDGE('',*,*,#733,.F.);
#952=ORIENTED_EDGE('',*,*,#751,.T.);
#953=ORIENTED_EDGE('',*,*,#750,.F.);
#954=ORIENTED_EDGE('',*,*,#752,.T.);
#955=ORIENTED_EDGE('',*,*,#753,.F.);
#956=ORIENTED_EDGE('',*,*,#734,.F.);
#957=ORIENTED_EDGE('',*,*,#754,.T.);
#958=ORIENTED_EDGE('',*,*,#755,.T.);
#959=ORIENTED_EDGE('',*,*,#756,.T.);
#960=ORIENTED_EDGE('',*,*,#731,.F.);
#961=ORIENTED_EDGE('',*,*,#755,.F.);
#962=ORIENTED_EDGE('',*,*,#757,.T.);
#963=ORIENTED_EDGE('',*,*,#758,.F.);
#964=ORIENTED_EDGE('',*,*,#759,.F.);
#965=ORIENTED_EDGE('',*,*,#760,.F.);
#966=ORIENTED_EDGE('',*,*,#761,.F.);
#967=ORIENTED_EDGE('',*,*,#762,.F.);
#968=ORIENTED_EDGE('',*,*,#763,.F.);
#969=ORIENTED_EDGE('',*,*,#764,.F.);
#970=ORIENTED_EDGE('',*,*,#765,.F.);
#971=ORIENTED_EDGE('',*,*,#766,.F.);
#972=ORIENTED_EDGE('',*,*,#767,.F.);
#973=ORIENTED_EDGE('',*,*,#768,.F.);
#974=ORIENTED_EDGE('',*,*,#752,.F.);
#975=ORIENTED_EDGE('',*,*,#749,.F.);
#976=ORIENTED_EDGE('',*,*,#769,.T.);
#977=ORIENTED_EDGE('',*,*,#770,.F.);
#978=ORIENTED_EDGE('',*,*,#771,.F.);
#979=ORIENTED_EDGE('',*,*,#754,.F.);
#980=ORIENTED_EDGE('',*,*,#746,.F.);
#981=ORIENTED_EDGE('',*,*,#772,.F.);
#982=ORIENTED_EDGE('',*,*,#757,.F.);
#983=ORIENTED_EDGE('',*,*,#773,.T.);
#984=ORIENTED_EDGE('',*,*,#758,.T.);
#985=ORIENTED_EDGE('',*,*,#772,.T.);
#986=ORIENTED_EDGE('',*,*,#745,.F.);
#987=ORIENTED_EDGE('',*,*,#774,.T.);
#988=ORIENTED_EDGE('',*,*,#760,.T.);
#989=ORIENTED_EDGE('',*,*,#775,.T.);
#990=ORIENTED_EDGE('',*,*,#743,.F.);
#991=ORIENTED_EDGE('',*,*,#774,.F.);
#992=ORIENTED_EDGE('',*,*,#742,.F.);
#993=ORIENTED_EDGE('',*,*,#776,.F.);
#994=ORIENTED_EDGE('',*,*,#761,.T.);
#995=ORIENTED_EDGE('',*,*,#777,.T.);
#996=ORIENTED_EDGE('',*,*,#762,.T.);
#997=ORIENTED_EDGE('',*,*,#776,.T.);
#998=ORIENTED_EDGE('',*,*,#741,.F.);
#999=ORIENTED_EDGE('',*,*,#777,.F.);
#1000=ORIENTED_EDGE('',*,*,#740,.F.);
#1001=ORIENTED_EDGE('',*,*,#778,.F.);
#1002=ORIENTED_EDGE('',*,*,#763,.T.);
#1003=ORIENTED_EDGE('',*,*,#764,.T.);
#1004=ORIENTED_EDGE('',*,*,#778,.T.);
#1005=ORIENTED_EDGE('',*,*,#739,.F.);
#1006=ORIENTED_EDGE('',*,*,#779,.T.);
#1007=ORIENTED_EDGE('',*,*,#780,.T.);
#1008=ORIENTED_EDGE('',*,*,#766,.T.);
#1009=ORIENTED_EDGE('',*,*,#781,.T.);
#1010=ORIENTED_EDGE('',*,*,#737,.F.);
#1011=ORIENTED_EDGE('',*,*,#780,.F.);
#1012=ORIENTED_EDGE('',*,*,#736,.F.);
#1013=ORIENTED_EDGE('',*,*,#782,.F.);
#1014=ORIENTED_EDGE('',*,*,#767,.T.);
#1015=ORIENTED_EDGE('',*,*,#753,.T.);
#1016=ORIENTED_EDGE('',*,*,#768,.T.);
#1017=ORIENTED_EDGE('',*,*,#782,.T.);
#1018=ORIENTED_EDGE('',*,*,#735,.F.);
#1019=ORIENTED_EDGE('',*,*,#747,.F.);
#1020=ORIENTED_EDGE('',*,*,#783,.T.);
#1021=ORIENTED_EDGE('',*,*,#770,.T.);
#1022=ORIENTED_EDGE('',*,*,#783,.F.);
#1023=ORIENTED_EDGE('',*,*,#748,.F.);
#1024=ORIENTED_EDGE('',*,*,#784,.T.);
#1025=ORIENTED_EDGE('',*,*,#771,.T.);
#1026=ORIENTED_EDGE('',*,*,#784,.F.);
#1027=ORIENTED_EDGE('',*,*,#751,.F.);
#1028=ORIENTED_EDGE('',*,*,#732,.F.);
#1029=ORIENTED_EDGE('',*,*,#756,.F.);
#1030=ORIENTED_EDGE('',*,*,#769,.F.);
#1031=ORIENTED_EDGE('',*,*,#773,.F.);
#1032=ORIENTED_EDGE('',*,*,#744,.F.);
#1033=ORIENTED_EDGE('',*,*,#775,.F.);
#1034=ORIENTED_EDGE('',*,*,#759,.T.);
#1035=ORIENTED_EDGE('',*,*,#779,.F.);
#1036=ORIENTED_EDGE('',*,*,#738,.F.);
#1037=ORIENTED_EDGE('',*,*,#781,.F.);
#1038=ORIENTED_EDGE('',*,*,#765,.T.);
#1039=ORIENTED_EDGE('',*,*,#785,.F.);
#1040=ORIENTED_EDGE('',*,*,#786,.T.);
#1041=ORIENTED_EDGE('',*,*,#787,.F.);
#1042=ORIENTED_EDGE('',*,*,#788,.T.);
#1043=ORIENTED_EDGE('',*,*,#787,.T.);
#1044=ORIENTED_EDGE('',*,*,#789,.F.);
#1045=ORIENTED_EDGE('',*,*,#790,.F.);
#1046=ORIENTED_EDGE('',*,*,#791,.T.);
#1047=ORIENTED_EDGE('',*,*,#792,.T.);
#1048=ORIENTED_EDGE('',*,*,#793,.T.);
#1049=ORIENTED_EDGE('',*,*,#786,.F.);
#1050=ORIENTED_EDGE('',*,*,#794,.F.);
#1051=ORIENTED_EDGE('',*,*,#795,.F.);
#1052=ORIENTED_EDGE('',*,*,#789,.T.);
#1053=ORIENTED_EDGE('',*,*,#792,.F.);
#1054=ORIENTED_EDGE('',*,*,#796,.T.);
#1055=ORIENTED_EDGE('',*,*,#797,.F.);
#1056=ORIENTED_EDGE('',*,*,#798,.T.);
#1057=ORIENTED_EDGE('',*,*,#785,.T.);
#1058=ORIENTED_EDGE('',*,*,#799,.T.);
#1059=ORIENTED_EDGE('',*,*,#797,.T.);
#1060=ORIENTED_EDGE('',*,*,#800,.F.);
#1061=ORIENTED_EDGE('',*,*,#801,.F.);
#1062=ORIENTED_EDGE('',*,*,#794,.T.);
#1063=ORIENTED_EDGE('',*,*,#796,.F.);
#1064=ORIENTED_EDGE('',*,*,#791,.F.);
#1065=ORIENTED_EDGE('',*,*,#802,.F.);
#1066=ORIENTED_EDGE('',*,*,#800,.T.);
#1067=ORIENTED_EDGE('',*,*,#788,.F.);
#1068=ORIENTED_EDGE('',*,*,#793,.F.);
#1069=ORIENTED_EDGE('',*,*,#798,.F.);
#1070=ORIENTED_EDGE('',*,*,#799,.F.);
#1071=ORIENTED_EDGE('',*,*,#803,.F.);
#1072=ORIENTED_EDGE('',*,*,#804,.F.);
#1073=ORIENTED_EDGE('',*,*,#805,.F.);
#1074=ORIENTED_EDGE('',*,*,#806,.F.);
#1075=ORIENTED_EDGE('',*,*,#807,.T.);
#1076=ORIENTED_EDGE('',*,*,#808,.T.);
#1077=ORIENTED_EDGE('',*,*,#809,.T.);
#1078=ORIENTED_EDGE('',*,*,#810,.T.);
#1079=ORIENTED_EDGE('',*,*,#811,.T.);
#1080=ORIENTED_EDGE('',*,*,#812,.T.);
#1081=ORIENTED_EDGE('',*,*,#813,.T.);
#1082=ORIENTED_EDGE('',*,*,#814,.T.);
#1083=ORIENTED_EDGE('',*,*,#815,.T.);
#1084=ORIENTED_EDGE('',*,*,#816,.T.);
#1085=ORIENTED_EDGE('',*,*,#817,.T.);
#1086=ORIENTED_EDGE('',*,*,#818,.T.);
#1087=ORIENTED_EDGE('',*,*,#819,.T.);
#1088=ORIENTED_EDGE('',*,*,#820,.T.);
#1089=ORIENTED_EDGE('',*,*,#821,.T.);
#1090=ORIENTED_EDGE('',*,*,#822,.T.);
#1091=ORIENTED_EDGE('',*,*,#801,.T.);
#1092=ORIENTED_EDGE('',*,*,#802,.T.);
#1093=ORIENTED_EDGE('',*,*,#790,.T.);
#1094=ORIENTED_EDGE('',*,*,#795,.T.);
#1095=ORIENTED_EDGE('',*,*,#823,.T.);
#1096=ORIENTED_EDGE('',*,*,#824,.T.);
#1097=ORIENTED_EDGE('',*,*,#825,.F.);
#1098=ORIENTED_EDGE('',*,*,#826,.T.);
#1099=ORIENTED_EDGE('',*,*,#805,.T.);
#1100=ORIENTED_EDGE('',*,*,#826,.F.);
#1101=ORIENTED_EDGE('',*,*,#827,.F.);
#1102=ORIENTED_EDGE('',*,*,#828,.T.);
#1103=ORIENTED_EDGE('',*,*,#803,.T.);
#1104=ORIENTED_EDGE('',*,*,#828,.F.);
#1105=ORIENTED_EDGE('',*,*,#823,.F.);
#1106=ORIENTED_EDGE('',*,*,#829,.T.);
#1107=ORIENTED_EDGE('',*,*,#806,.T.);
#1108=ORIENTED_EDGE('',*,*,#829,.F.);
#1109=ORIENTED_EDGE('',*,*,#824,.F.);
#1110=ORIENTED_EDGE('',*,*,#830,.T.);
#1111=ORIENTED_EDGE('',*,*,#804,.T.);
#1112=ORIENTED_EDGE('',*,*,#830,.F.);
#1113=ORIENTED_EDGE('',*,*,#831,.T.);
#1114=ORIENTED_EDGE('',*,*,#832,.T.);
#1115=ORIENTED_EDGE('',*,*,#833,.T.);
#1116=ORIENTED_EDGE('',*,*,#834,.F.);
#1117=ORIENTED_EDGE('',*,*,#835,.T.);
#1118=ORIENTED_EDGE('',*,*,#836,.T.);
#1119=ORIENTED_EDGE('',*,*,#837,.T.);
#1120=ORIENTED_EDGE('',*,*,#832,.F.);
#1121=ORIENTED_EDGE('',*,*,#838,.T.);
#1122=ORIENTED_EDGE('',*,*,#839,.T.);
#1123=ORIENTED_EDGE('',*,*,#840,.T.);
#1124=ORIENTED_EDGE('',*,*,#836,.F.);
#1125=ORIENTED_EDGE('',*,*,#841,.T.);
#1126=ORIENTED_EDGE('',*,*,#842,.T.);
#1127=ORIENTED_EDGE('',*,*,#843,.T.);
#1128=ORIENTED_EDGE('',*,*,#839,.F.);
#1129=ORIENTED_EDGE('',*,*,#844,.T.);
#1130=ORIENTED_EDGE('',*,*,#845,.T.);
#1131=ORIENTED_EDGE('',*,*,#846,.T.);
#1132=ORIENTED_EDGE('',*,*,#842,.F.);
#1133=ORIENTED_EDGE('',*,*,#847,.T.);
#1134=ORIENTED_EDGE('',*,*,#848,.T.);
#1135=ORIENTED_EDGE('',*,*,#849,.T.);
#1136=ORIENTED_EDGE('',*,*,#845,.F.);
#1137=ORIENTED_EDGE('',*,*,#850,.T.);
#1138=ORIENTED_EDGE('',*,*,#851,.T.);
#1139=ORIENTED_EDGE('',*,*,#852,.T.);
#1140=ORIENTED_EDGE('',*,*,#848,.F.);
#1141=ORIENTED_EDGE('',*,*,#853,.T.);
#1142=ORIENTED_EDGE('',*,*,#851,.F.);
#1143=ORIENTED_EDGE('',*,*,#854,.T.);
#1144=ORIENTED_EDGE('',*,*,#855,.T.);
#1145=ORIENTED_EDGE('',*,*,#856,.T.);
#1146=ORIENTED_EDGE('',*,*,#855,.F.);
#1147=ORIENTED_EDGE('',*,*,#857,.T.);
#1148=ORIENTED_EDGE('',*,*,#858,.T.);
#1149=ORIENTED_EDGE('',*,*,#859,.T.);
#1150=ORIENTED_EDGE('',*,*,#858,.F.);
#1151=ORIENTED_EDGE('',*,*,#860,.T.);
#1152=ORIENTED_EDGE('',*,*,#861,.T.);
#1153=ORIENTED_EDGE('',*,*,#862,.T.);
#1154=ORIENTED_EDGE('',*,*,#861,.F.);
#1155=ORIENTED_EDGE('',*,*,#863,.T.);
#1156=ORIENTED_EDGE('',*,*,#864,.T.);
#1157=ORIENTED_EDGE('',*,*,#865,.T.);
#1158=ORIENTED_EDGE('',*,*,#864,.F.);
#1159=ORIENTED_EDGE('',*,*,#866,.T.);
#1160=ORIENTED_EDGE('',*,*,#867,.T.);
#1161=ORIENTED_EDGE('',*,*,#868,.T.);
#1162=ORIENTED_EDGE('',*,*,#867,.F.);
#1163=ORIENTED_EDGE('',*,*,#869,.T.);
#1164=ORIENTED_EDGE('',*,*,#870,.T.);
#1165=ORIENTED_EDGE('',*,*,#871,.T.);
#1166=ORIENTED_EDGE('',*,*,#870,.F.);
#1167=ORIENTED_EDGE('',*,*,#872,.T.);
#1168=ORIENTED_EDGE('',*,*,#873,.T.);
#1169=ORIENTED_EDGE('',*,*,#874,.T.);
#1170=ORIENTED_EDGE('',*,*,#873,.F.);
#1171=ORIENTED_EDGE('',*,*,#875,.T.);
#1172=ORIENTED_EDGE('',*,*,#876,.T.);
#1173=ORIENTED_EDGE('',*,*,#877,.T.);
#1174=ORIENTED_EDGE('',*,*,#876,.F.);
#1175=ORIENTED_EDGE('',*,*,#878,.T.);
#1176=ORIENTED_EDGE('',*,*,#834,.T.);
#1177=ORIENTED_EDGE('',*,*,#859,.F.);
#1178=ORIENTED_EDGE('',*,*,#879,.T.);
#1179=ORIENTED_EDGE('',*,*,#809,.F.);
#1180=ORIENTED_EDGE('',*,*,#880,.F.);
#1181=ORIENTED_EDGE('',*,*,#862,.F.);
#1182=ORIENTED_EDGE('',*,*,#881,.T.);
#1183=ORIENTED_EDGE('',*,*,#810,.F.);
#1184=ORIENTED_EDGE('',*,*,#879,.F.);
#1185=ORIENTED_EDGE('',*,*,#865,.F.);
#1186=ORIENTED_EDGE('',*,*,#882,.T.);
#1187=ORIENTED_EDGE('',*,*,#811,.F.);
#1188=ORIENTED_EDGE('',*,*,#881,.F.);
#1189=ORIENTED_EDGE('',*,*,#868,.F.);
#1190=ORIENTED_EDGE('',*,*,#883,.T.);
#1191=ORIENTED_EDGE('',*,*,#812,.F.);
#1192=ORIENTED_EDGE('',*,*,#882,.F.);
#1193=ORIENTED_EDGE('',*,*,#871,.F.);
#1194=ORIENTED_EDGE('',*,*,#884,.T.);
#1195=ORIENTED_EDGE('',*,*,#813,.F.);
#1196=ORIENTED_EDGE('',*,*,#883,.F.);
#1197=ORIENTED_EDGE('',*,*,#874,.F.);
#1198=ORIENTED_EDGE('',*,*,#885,.T.);
#1199=ORIENTED_EDGE('',*,*,#814,.F.);
#1200=ORIENTED_EDGE('',*,*,#884,.F.);
#1201=ORIENTED_EDGE('',*,*,#877,.F.);
#1202=ORIENTED_EDGE('',*,*,#886,.T.);
#1203=ORIENTED_EDGE('',*,*,#815,.F.);
#1204=ORIENTED_EDGE('',*,*,#885,.F.);
#1205=ORIENTED_EDGE('',*,*,#833,.F.);
#1206=ORIENTED_EDGE('',*,*,#887,.T.);
#1207=ORIENTED_EDGE('',*,*,#816,.F.);
#1208=ORIENTED_EDGE('',*,*,#886,.F.);
#1209=ORIENTED_EDGE('',*,*,#831,.F.);
#1210=ORIENTED_EDGE('',*,*,#878,.F.);
#1211=ORIENTED_EDGE('',*,*,#875,.F.);
#1212=ORIENTED_EDGE('',*,*,#872,.F.);
#1213=ORIENTED_EDGE('',*,*,#869,.F.);
#1214=ORIENTED_EDGE('',*,*,#866,.F.);
#1215=ORIENTED_EDGE('',*,*,#863,.F.);
#1216=ORIENTED_EDGE('',*,*,#860,.F.);
#1217=ORIENTED_EDGE('',*,*,#857,.F.);
#1218=ORIENTED_EDGE('',*,*,#854,.F.);
#1219=ORIENTED_EDGE('',*,*,#850,.F.);
#1220=ORIENTED_EDGE('',*,*,#847,.F.);
#1221=ORIENTED_EDGE('',*,*,#844,.F.);
#1222=ORIENTED_EDGE('',*,*,#841,.F.);
#1223=ORIENTED_EDGE('',*,*,#838,.F.);
#1224=ORIENTED_EDGE('',*,*,#835,.F.);
#1225=ORIENTED_EDGE('',*,*,#825,.T.);
#1226=ORIENTED_EDGE('',*,*,#827,.T.);
#1227=ORIENTED_EDGE('',*,*,#856,.F.);
#1228=ORIENTED_EDGE('',*,*,#880,.T.);
#1229=ORIENTED_EDGE('',*,*,#808,.F.);
#1230=ORIENTED_EDGE('',*,*,#888,.F.);
#1231=ORIENTED_EDGE('',*,*,#853,.F.);
#1232=ORIENTED_EDGE('',*,*,#888,.T.);
#1233=ORIENTED_EDGE('',*,*,#807,.F.);
#1234=ORIENTED_EDGE('',*,*,#889,.F.);
#1235=ORIENTED_EDGE('',*,*,#852,.F.);
#1236=ORIENTED_EDGE('',*,*,#889,.T.);
#1237=ORIENTED_EDGE('',*,*,#822,.F.);
#1238=ORIENTED_EDGE('',*,*,#890,.F.);
#1239=ORIENTED_EDGE('',*,*,#849,.F.);
#1240=ORIENTED_EDGE('',*,*,#890,.T.);
#1241=ORIENTED_EDGE('',*,*,#821,.F.);
#1242=ORIENTED_EDGE('',*,*,#891,.F.);
#1243=ORIENTED_EDGE('',*,*,#846,.F.);
#1244=ORIENTED_EDGE('',*,*,#891,.T.);
#1245=ORIENTED_EDGE('',*,*,#820,.F.);
#1246=ORIENTED_EDGE('',*,*,#892,.F.);
#1247=ORIENTED_EDGE('',*,*,#843,.F.);
#1248=ORIENTED_EDGE('',*,*,#892,.T.);
#1249=ORIENTED_EDGE('',*,*,#819,.F.);
#1250=ORIENTED_EDGE('',*,*,#893,.F.);
#1251=ORIENTED_EDGE('',*,*,#840,.F.);
#1252=ORIENTED_EDGE('',*,*,#893,.T.);
#1253=ORIENTED_EDGE('',*,*,#818,.F.);
#1254=ORIENTED_EDGE('',*,*,#894,.F.);
#1255=ORIENTED_EDGE('',*,*,#837,.F.);
#1256=ORIENTED_EDGE('',*,*,#894,.T.);
#1257=ORIENTED_EDGE('',*,*,#817,.F.);
#1258=ORIENTED_EDGE('',*,*,#887,.F.);
#1259=CYLINDRICAL_SURFACE('',#1358,4.8);
#1260=CYLINDRICAL_SURFACE('',#1364,4.8);
#1261=CYLINDRICAL_SURFACE('',#1388,1.5);
#1262=CYLINDRICAL_SURFACE('',#1389,1.5);
#1263=CYLINDRICAL_SURFACE('',#1393,4.8);
#1264=CYLINDRICAL_SURFACE('',#1399,4.8);
#1265=CYLINDRICAL_SURFACE('',#1413,2.6);
#1266=CYLINDRICAL_SURFACE('',#1415,2.6);
#1267=CYLINDRICAL_SURFACE('',#1417,1.5);
#1268=CYLINDRICAL_SURFACE('',#1418,1.5);
#1269=ADVANCED_FACE('',(#93),#1259,.F.);
#1270=ADVANCED_FACE('',(#94),#29,.F.);
#1271=ADVANCED_FACE('',(#95),#30,.F.);
#1272=ADVANCED_FACE('',(#96),#1260,.F.);
#1273=ADVANCED_FACE('',(#97),#31,.F.);
#1274=ADVANCED_FACE('',(#98),#32,.F.);
#1275=ADVANCED_FACE('',(#99),#33,.F.);
#1276=ADVANCED_FACE('',(#100,#17,#18,#19),#34,.T.);
#1277=ADVANCED_FACE('',(#101),#35,.T.);
#1278=ADVANCED_FACE('',(#102),#36,.T.);
#1279=ADVANCED_FACE('',(#103),#37,.T.);
#1280=ADVANCED_FACE('',(#104,#20,#21),#38,.F.);
#1281=ADVANCED_FACE('',(#105),#39,.T.);
#1282=ADVANCED_FACE('',(#106),#40,.T.);
#1283=ADVANCED_FACE('',(#107),#41,.T.);
#1284=ADVANCED_FACE('',(#108),#42,.T.);
#1285=ADVANCED_FACE('',(#109),#43,.T.);
#1286=ADVANCED_FACE('',(#110),#44,.T.);
#1287=ADVANCED_FACE('',(#111),#45,.T.);
#1288=ADVANCED_FACE('',(#112),#46,.T.);
#1289=ADVANCED_FACE('',(#113),#47,.T.);
#1290=ADVANCED_FACE('',(#114),#48,.T.);
#1291=ADVANCED_FACE('',(#115),#1261,.F.);
#1292=ADVANCED_FACE('',(#116),#1262,.F.);
#1293=ADVANCED_FACE('',(#117),#49,.T.);
#1294=ADVANCED_FACE('',(#118),#50,.T.);
#1295=ADVANCED_FACE('',(#119),#51,.T.);
#1296=ADVANCED_FACE('',(#120),#1263,.F.);
#1297=ADVANCED_FACE('',(#121),#52,.F.);
#1298=ADVANCED_FACE('',(#122),#53,.F.);
#1299=ADVANCED_FACE('',(#123),#1264,.F.);
#1300=ADVANCED_FACE('',(#124),#54,.F.);
#1301=ADVANCED_FACE('',(#125),#55,.F.);
#1302=ADVANCED_FACE('',(#126),#56,.F.);
#1303=ADVANCED_FACE('',(#127,#22),#57,.T.);
#1304=ADVANCED_FACE('',(#128,#23),#58,.T.);
#1305=ADVANCED_FACE('',(#129,#24,#25,#26),#59,.F.);
#1306=ADVANCED_FACE('',(#130),#1265,.F.);
#1307=ADVANCED_FACE('',(#131),#1266,.F.);
#1308=ADVANCED_FACE('',(#132),#1267,.F.);
#1309=ADVANCED_FACE('',(#133),#1268,.F.);
#1310=ADVANCED_FACE('',(#134),#60,.T.);
#1311=ADVANCED_FACE('',(#135),#61,.T.);
#1312=ADVANCED_FACE('',(#136),#62,.T.);
#1313=ADVANCED_FACE('',(#137),#63,.T.);
#1314=ADVANCED_FACE('',(#138),#64,.T.);
#1315=ADVANCED_FACE('',(#139),#65,.T.);
#1316=ADVANCED_FACE('',(#140),#66,.T.);
#1317=ADVANCED_FACE('',(#141),#67,.T.);
#1318=ADVANCED_FACE('',(#142),#68,.T.);
#1319=ADVANCED_FACE('',(#143),#69,.T.);
#1320=ADVANCED_FACE('',(#144),#70,.T.);
#1321=ADVANCED_FACE('',(#145),#71,.T.);
#1322=ADVANCED_FACE('',(#146),#72,.T.);
#1323=ADVANCED_FACE('',(#147),#73,.T.);
#1324=ADVANCED_FACE('',(#148),#74,.T.);
#1325=ADVANCED_FACE('',(#149),#75,.T.);
#1326=ADVANCED_FACE('',(#150),#76,.T.);
#1327=ADVANCED_FACE('',(#151),#77,.T.);
#1328=ADVANCED_FACE('',(#152),#78,.T.);
#1329=ADVANCED_FACE('',(#153),#79,.T.);
#1330=ADVANCED_FACE('',(#154),#80,.T.);
#1331=ADVANCED_FACE('',(#155),#81,.T.);
#1332=ADVANCED_FACE('',(#156),#82,.T.);
#1333=ADVANCED_FACE('',(#157),#83,.T.);
#1334=ADVANCED_FACE('',(#158,#27,#28),#84,.T.);
#1335=ADVANCED_FACE('',(#159),#85,.T.);
#1336=ADVANCED_FACE('',(#160),#86,.T.);
#1337=ADVANCED_FACE('',(#161),#87,.T.);
#1338=ADVANCED_FACE('',(#162),#88,.T.);
#1339=ADVANCED_FACE('',(#163),#89,.T.);
#1340=ADVANCED_FACE('',(#164),#90,.T.);
#1341=ADVANCED_FACE('',(#165),#91,.T.);
#1342=ADVANCED_FACE('',(#166),#92,.T.);
#1343=CLOSED_SHELL('',(#1269,#1270,#1271,#1272,#1273,#1274,#1275,#1276,
#1277,#1278,#1279,#1280,#1281,#1282,#1283,#1284,#1285,#1286,#1287,#1288,
#1289,#1290,#1291,#1292,#1293,#1294,#1295));
#1344=CLOSED_SHELL('',(#1296,#1297,#1298,#1299,#1300,#1301,#1302,#1303,
#1304,#1305,#1306,#1307,#1308,#1309,#1310,#1311,#1312,#1313,#1314,#1315,
#1316,#1317,#1318,#1319,#1320,#1321,#1322,#1323,#1324,#1325,#1326,#1327,
#1328,#1329,#1330,#1331,#1332,#1333,#1334,#1335,#1336,#1337,#1338,#1339,
#1340,#1341,#1342));
#1345=DERIVED_UNIT_ELEMENT(#1347,1.);
#1346=DERIVED_UNIT_ELEMENT(#2182,-3.);
#1347=(
MASS_UNIT()
NAMED_UNIT(*)
SI_UNIT(.KILO.,.GRAM.)
);
#1348=DERIVED_UNIT((#1345,#1346));
#1349=MEASURE_REPRESENTATION_ITEM('density measure',
POSITIVE_RATIO_MEASURE(7850.),#1348);
#1350=PROPERTY_DEFINITION_REPRESENTATION(#1355,#1352);
#1351=PROPERTY_DEFINITION_REPRESENTATION(#1356,#1353);
#1352=REPRESENTATION('material name',(#1354),#2179);
#1353=REPRESENTATION('density',(#1349),#2179);
#1354=DESCRIPTIVE_REPRESENTATION_ITEM('Stahl','Stahl');
#1355=PROPERTY_DEFINITION('material property','material name',#2189);
#1356=PROPERTY_DEFINITION('material property','density of part',#2189);
#1357=AXIS2_PLACEMENT_3D('',#1804,#1452,#1453);
#1358=AXIS2_PLACEMENT_3D('',#1805,#1454,#1455);
#1359=AXIS2_PLACEMENT_3D('',#1808,#1456,#1457);
#1360=AXIS2_PLACEMENT_3D('',#1812,#1459,#1460);
#1361=AXIS2_PLACEMENT_3D('',#1814,#1462,#1463);
#1362=AXIS2_PLACEMENT_3D('',#1818,#1465,#1466);
#1363=AXIS2_PLACEMENT_3D('',#1824,#1470,#1471);
#1364=AXIS2_PLACEMENT_3D('',#1828,#1474,#1475);
#1365=AXIS2_PLACEMENT_3D('',#1830,#1476,#1477);
#1366=AXIS2_PLACEMENT_3D('',#1832,#1479,#1480);
#1367=AXIS2_PLACEMENT_3D('',#1836,#1483,#1484);
#1368=AXIS2_PLACEMENT_3D('',#1840,#1487,#1488);
#1369=AXIS2_PLACEMENT_3D('',#1842,#1490,#1491);
#1370=AXIS2_PLACEMENT_3D('',#1876,#1508,#1509);
#1371=AXIS2_PLACEMENT_3D('',#1878,#1510,#1511);
#1372=AXIS2_PLACEMENT_3D('',#1879,#1512,#1513);
#1373=AXIS2_PLACEMENT_3D('',#1885,#1517,#1518);
#1374=AXIS2_PLACEMENT_3D('',#1889,#1521,#1522);
#1375=AXIS2_PLACEMENT_3D('',#1895,#1526,#1527);
#1376=AXIS2_PLACEMENT_3D('',#1921,#1541,#1542);
#1377=AXIS2_PLACEMENT_3D('',#1923,#1543,#1544);
#1378=AXIS2_PLACEMENT_3D('',#1924,#1545,#1546);
#1379=AXIS2_PLACEMENT_3D('',#1926,#1548,#1549);
#1380=AXIS2_PLACEMENT_3D('',#1928,#1551,#1552);
#1381=AXIS2_PLACEMENT_3D('',#1931,#1555,#1556);
#1382=AXIS2_PLACEMENT_3D('',#1933,#1558,#1559);
#1383=AXIS2_PLACEMENT_3D('',#1935,#1561,#1562);
#1384=AXIS2_PLACEMENT_3D('',#1937,#1564,#1565);
#1385=AXIS2_PLACEMENT_3D('',#1939,#1567,#1568);
#1386=AXIS2_PLACEMENT_3D('',#1942,#1571,#1572);
#1387=AXIS2_PLACEMENT_3D('',#1944,#1574,#1575);
#1388=AXIS2_PLACEMENT_3D('',#1945,#1576,#1577);
#1389=AXIS2_PLACEMENT_3D('',#1947,#1579,#1580);
#1390=AXIS2_PLACEMENT_3D('',#1949,#1582,#1583);
#1391=AXIS2_PLACEMENT_3D('',#1950,#1584,#1585);
#1392=AXIS2_PLACEMENT_3D('',#1951,#1586,#1587);
#1393=AXIS2_PLACEMENT_3D('',#1952,#1588,#1589);
#1394=AXIS2_PLACEMENT_3D('',#1955,#1590,#1591);
#1395=AXIS2_PLACEMENT_3D('',#1959,#1593,#1594);
#1396=AXIS2_PLACEMENT_3D('',#1961,#1596,#1597);
#1397=AXIS2_PLACEMENT_3D('',#1969,#1601,#1602);
#1398=AXIS2_PLACEMENT_3D('',#1971,#1604,#1605);
#1399=AXIS2_PLACEMENT_3D('',#1975,#1608,#1609);
#1400=AXIS2_PLACEMENT_3D('',#1979,#1611,#1612);
#1401=AXIS2_PLACEMENT_3D('',#1981,#1614,#1615);
#1402=AXIS2_PLACEMENT_3D('',#1986,#1619,#1620);
#1403=AXIS2_PLACEMENT_3D('',#1988,#1622,#1623);
#1404=AXIS2_PLACEMENT_3D('',#1989,#1624,#1625);
#1405=AXIS2_PLACEMENT_3D('',#1991,#1626,#1627);
#1406=AXIS2_PLACEMENT_3D('',#1993,#1628,#1629);
#1407=AXIS2_PLACEMENT_3D('',#1994,#1630,#1631);
#1408=AXIS2_PLACEMENT_3D('',#1996,#1632,#1633);
#1409=AXIS2_PLACEMENT_3D('',#1998,#1634,#1635);
#1410=AXIS2_PLACEMENT_3D('',#1999,#1636,#1637);
#1411=AXIS2_PLACEMENT_3D('',#2033,#1654,#1655);
#1412=AXIS2_PLACEMENT_3D('',#2035,#1656,#1657);
#1413=AXIS2_PLACEMENT_3D('',#2036,#1658,#1659);
#1414=AXIS2_PLACEMENT_3D('',#2038,#1660,#1661);
#1415=AXIS2_PLACEMENT_3D('',#2040,#1663,#1664);
#1416=AXIS2_PLACEMENT_3D('',#2042,#1665,#1666);
#1417=AXIS2_PLACEMENT_3D('',#2044,#1668,#1669);
#1418=AXIS2_PLACEMENT_3D('',#2046,#1671,#1672);
#1419=AXIS2_PLACEMENT_3D('',#2048,#1674,#1675);
#1420=AXIS2_PLACEMENT_3D('',#2057,#1680,#1681);
#1421=AXIS2_PLACEMENT_3D('',#2063,#1685,#1686);
#1422=AXIS2_PLACEMENT_3D('',#2069,#1690,#1691);
#1423=AXIS2_PLACEMENT_3D('',#2075,#1695,#1696);
#1424=AXIS2_PLACEMENT_3D('',#2081,#1700,#1701);
#1425=AXIS2_PLACEMENT_3D('',#2087,#1705,#1706);
#1426=AXIS2_PLACEMENT_3D('',#2093,#1710,#1711);
#1427=AXIS2_PLACEMENT_3D('',#2099,#1715,#1716);
#1428=AXIS2_PLACEMENT_3D('',#2105,#1720,#1721);
#1429=AXIS2_PLACEMENT_3D('',#2111,#1725,#1726);
#1430=AXIS2_PLACEMENT_3D('',#2117,#1730,#1731);
#1431=AXIS2_PLACEMENT_3D('',#2123,#1735,#1736);
#1432=AXIS2_PLACEMENT_3D('',#2129,#1740,#1741);
#1433=AXIS2_PLACEMENT_3D('',#2135,#1745,#1746);
#1434=AXIS2_PLACEMENT_3D('',#2141,#1750,#1751);
#1435=AXIS2_PLACEMENT_3D('',#2144,#1754,#1755);
#1436=AXIS2_PLACEMENT_3D('',#2147,#1758,#1759);
#1437=AXIS2_PLACEMENT_3D('',#2149,#1761,#1762);
#1438=AXIS2_PLACEMENT_3D('',#2151,#1764,#1765);
#1439=AXIS2_PLACEMENT_3D('',#2153,#1767,#1768);
#1440=AXIS2_PLACEMENT_3D('',#2155,#1770,#1771);
#1441=AXIS2_PLACEMENT_3D('',#2157,#1773,#1774);
#1442=AXIS2_PLACEMENT_3D('',#2159,#1776,#1777);
#1443=AXIS2_PLACEMENT_3D('',#2161,#1779,#1780);
#1444=AXIS2_PLACEMENT_3D('',#2162,#1781,#1782);
#1445=AXIS2_PLACEMENT_3D('',#2164,#1784,#1785);
#1446=AXIS2_PLACEMENT_3D('',#2166,#1787,#1788);
#1447=AXIS2_PLACEMENT_3D('',#2168,#1790,#1791);
#1448=AXIS2_PLACEMENT_3D('',#2170,#1793,#1794);
#1449=AXIS2_PLACEMENT_3D('',#2172,#1796,#1797);
#1450=AXIS2_PLACEMENT_3D('',#2174,#1799,#1800);
#1451=AXIS2_PLACEMENT_3D('',#2176,#1802,#1803);
#1452=DIRECTION('axis',(0.,0.,1.));
#1453=DIRECTION('refdir',(1.,0.,0.));
#1454=DIRECTION('center_axis',(-1.,0.,0.));
#1455=DIRECTION('ref_axis',(0.,-0.707106781186548,-0.707106781186548));
#1456=DIRECTION('center_axis',(1.,0.,0.));
#1457=DIRECTION('ref_axis',(0.,-0.707106781186548,-0.707106781186548));
#1458=DIRECTION('',(1.,0.,0.));
#1459=DIRECTION('center_axis',(-1.,0.,0.));
#1460=DIRECTION('ref_axis',(0.,-0.707106781186548,-0.707106781186548));
#1461=DIRECTION('',(-1.,0.,0.));
#1462=DIRECTION('center_axis',(-1.,0.,0.));
#1463=DIRECTION('ref_axis',(0.,1.,0.));
#1464=DIRECTION('',(0.,1.,0.));
#1465=DIRECTION('center_axis',(1.,0.,0.));
#1466=DIRECTION('ref_axis',(0.,0.707106781186548,-0.707106781186548));
#1467=DIRECTION('',(0.,0.,-1.));
#1468=DIRECTION('',(0.,1.,0.));
#1469=DIRECTION('',(0.,0.,-1.));
#1470=DIRECTION('center_axis',(0.,0.,-1.));
#1471=DIRECTION('ref_axis',(-1.,0.,0.));
#1472=DIRECTION('',(0.,-1.,0.));
#1473=DIRECTION('',(1.,0.,0.));
#1474=DIRECTION('center_axis',(1.,0.,0.));
#1475=DIRECTION('ref_axis',(0.,0.707106781186548,-0.707106781186548));
#1476=DIRECTION('center_axis',(-1.,0.,0.));
#1477=DIRECTION('ref_axis',(0.,0.707106781186548,-0.707106781186548));
#1478=DIRECTION('',(-1.,0.,0.));
#1479=DIRECTION('center_axis',(0.,1.,0.));
#1480=DIRECTION('ref_axis',(1.,0.,0.));
#1481=DIRECTION('',(0.,0.,-1.));
#1482=DIRECTION('',(1.,0.,0.));
#1483=DIRECTION('center_axis',(1.,0.,0.));
#1484=DIRECTION('ref_axis',(0.,-1.,0.));
#1485=DIRECTION('',(0.,0.,-1.));
#1486=DIRECTION('',(0.,-1.,0.));
#1487=DIRECTION('center_axis',(0.,-1.,0.));
#1488=DIRECTION('ref_axis',(-1.,0.,0.));
#1489=DIRECTION('',(-1.,0.,0.));
#1490=DIRECTION('center_axis',(0.,0.,1.));
#1491=DIRECTION('ref_axis',(-1.,0.,0.));
#1492=DIRECTION('',(0.707106781186548,-0.707106781186548,0.));
#1493=DIRECTION('',(1.,0.,0.));
#1494=DIRECTION('',(0.707106781186547,-0.707106781186548,0.));
#1495=DIRECTION('',(0.,-1.,0.));
#1496=DIRECTION('',(0.707106781186547,-0.707106781186548,0.));
#1497=DIRECTION('',(1.,0.,0.));
#1498=DIRECTION('',(0.707106781186548,0.707106781186547,0.));
#1499=DIRECTION('',(0.,1.,0.));
#1500=DIRECTION('',(0.707106781186548,0.707106781186547,0.));
#1501=DIRECTION('',(1.,0.,0.));
#1502=DIRECTION('',(0.707106781186548,0.707106781186548,0.));
#1503=DIRECTION('',(0.,1.,0.));
#1504=DIRECTION('',(-0.707106781186548,0.707106781186548,0.));
#1505=DIRECTION('',(-1.,0.,0.));
#1506=DIRECTION('',(-0.707106781186547,-0.707106781186548,0.));
#1507=DIRECTION('',(0.,-1.,0.));
#1508=DIRECTION('center_axis',(0.,0.,-1.));
#1509=DIRECTION('ref_axis',(-1.,0.,0.));
#1510=DIRECTION('center_axis',(0.,0.,-1.));
#1511=DIRECTION('ref_axis',(-1.,0.,0.));
#1512=DIRECTION('center_axis',(-0.707106781186548,-0.707106781186547,0.));
#1513=DIRECTION('ref_axis',(0.,0.,1.));
#1514=DIRECTION('',(0.707106781186547,-0.707106781186548,0.));
#1515=DIRECTION('',(0.,0.,1.));
#1516=DIRECTION('',(0.,0.,-1.));
#1517=DIRECTION('center_axis',(-1.,2.05432527401305E-33,0.));
#1518=DIRECTION('ref_axis',(-2.05432527401305E-33,-1.,0.));
#1519=DIRECTION('',(-2.05432527401305E-33,-1.,0.));
#1520=DIRECTION('',(0.,0.,-1.));
#1521=DIRECTION('center_axis',(-0.707106781186548,-0.707106781186548,0.));
#1522=DIRECTION('ref_axis',(0.,0.,1.));
#1523=DIRECTION('',(0.,0.,-1.));
#1524=DIRECTION('',(0.707106781186548,-0.707106781186548,0.));
#1525=DIRECTION('',(0.,0.,1.));
#1526=DIRECTION('center_axis',(0.,0.,1.));
#1527=DIRECTION('ref_axis',(1.,0.,0.));
#1528=DIRECTION('',(0.,1.,0.));
#1529=DIRECTION('',(-0.707106781186547,-0.707106781186548,0.));
#1530=DIRECTION('',(-1.,0.,0.));
#1531=DIRECTION('',(-0.707106781186548,0.707106781186548,0.));
#1532=DIRECTION('',(0.,1.,0.));
#1533=DIRECTION('',(0.707106781186548,0.707106781186548,0.));
#1534=DIRECTION('',(1.,0.,0.));
#1535=DIRECTION('',(0.707106781186548,0.707106781186547,0.));
#1536=DIRECTION('',(0.,1.,0.));
#1537=DIRECTION('',(0.707106781186548,0.707106781186547,0.));
#1538=DIRECTION('',(1.,0.,0.));
#1539=DIRECTION('',(0.707106781186547,-0.707106781186548,0.));
#1540=DIRECTION('',(-1.,0.,0.));
#1541=DIRECTION('center_axis',(0.,0.,-1.));
#1542=DIRECTION('ref_axis',(1.,0.,0.));
#1543=DIRECTION('center_axis',(0.,0.,-1.));
#1544=DIRECTION('ref_axis',(1.,0.,0.));
#1545=DIRECTION('center_axis',(-1.,0.,0.));
#1546=DIRECTION('ref_axis',(0.,-1.,0.));
#1547=DIRECTION('',(0.,0.,1.));
#1548=DIRECTION('center_axis',(-0.707106781186548,0.707106781186547,0.));
#1549=DIRECTION('ref_axis',(0.,0.,1.));
#1550=DIRECTION('',(0.,0.,-1.));
#1551=DIRECTION('center_axis',(0.707106781186548,0.707106781186548,0.));
#1552=DIRECTION('ref_axis',(0.,0.,-1.));
#1553=DIRECTION('',(0.,0.,-1.));
#1554=DIRECTION('',(0.,0.,1.));
#1555=DIRECTION('center_axis',(1.,0.,0.));
#1556=DIRECTION('ref_axis',(0.,1.,0.));
#1557=DIRECTION('',(0.,0.,1.));
#1558=DIRECTION('center_axis',(0.707106781186548,-0.707106781186548,0.));
#1559=DIRECTION('ref_axis',(0.,0.,-1.));
#1560=DIRECTION('',(0.,0.,-1.));
#1561=DIRECTION('center_axis',(0.,-1.,0.));
#1562=DIRECTION('ref_axis',(1.,0.,0.));
#1563=DIRECTION('',(0.,0.,1.));
#1564=DIRECTION('center_axis',(0.707106781186547,-0.707106781186548,0.));
#1565=DIRECTION('ref_axis',(0.,0.,-1.));
#1566=DIRECTION('',(0.,0.,-1.));
#1567=DIRECTION('center_axis',(0.707106781186547,-0.707106781186548,0.));
#1568=DIRECTION('ref_axis',(0.,0.,-1.));
#1569=DIRECTION('',(0.,0.,-1.));
#1570=DIRECTION('',(0.,0.,1.));
#1571=DIRECTION('center_axis',(0.,-1.,0.));
#1572=DIRECTION('ref_axis',(1.,0.,0.));
#1573=DIRECTION('',(0.,0.,1.));
#1574=DIRECTION('center_axis',(-0.707106781186548,-0.707106781186547,0.));
#1575=DIRECTION('ref_axis',(0.,0.,1.));
#1576=DIRECTION('center_axis',(0.,0.,1.));
#1577=DIRECTION('ref_axis',(1.,0.,0.));
#1578=DIRECTION('',(0.,0.,-1.));
#1579=DIRECTION('center_axis',(0.,0.,1.));
#1580=DIRECTION('ref_axis',(1.,0.,0.));
#1581=DIRECTION('',(0.,0.,-1.));
#1582=DIRECTION('center_axis',(0.,-1.,0.));
#1583=DIRECTION('ref_axis',(1.,0.,0.));
#1584=DIRECTION('center_axis',(0.,1.,0.));
#1585=DIRECTION('ref_axis',(-1.,0.,0.));
#1586=DIRECTION('center_axis',(1.,0.,0.));
#1587=DIRECTION('ref_axis',(0.,1.,0.));
#1588=DIRECTION('center_axis',(-1.,0.,0.));
#1589=DIRECTION('ref_axis',(0.,0.707106781186548,0.707106781186548));
#1590=DIRECTION('center_axis',(1.,0.,0.));
#1591=DIRECTION('ref_axis',(0.,0.707106781186548,0.707106781186548));
#1592=DIRECTION('',(1.,0.,0.));
#1593=DIRECTION('center_axis',(-1.,0.,0.));
#1594=DIRECTION('ref_axis',(0.,0.707106781186548,0.707106781186548));
#1595=DIRECTION('',(-1.,0.,0.));
#1596=DIRECTION('center_axis',(1.,0.,0.));
#1597=DIRECTION('ref_axis',(0.,1.,0.));
#1598=DIRECTION('',(0.,0.,1.));
#1599=DIRECTION('',(0.,1.,0.));
#1600=DIRECTION('',(0.,0.,1.));
#1601=DIRECTION('center_axis',(-1.,0.,0.));
#1602=DIRECTION('ref_axis',(0.,-0.707106781186548,0.707106781186548));
#1603=DIRECTION('',(0.,1.,0.));
#1604=DIRECTION('center_axis',(0.,1.,0.));
#1605=DIRECTION('ref_axis',(-1.,0.,0.));
#1606=DIRECTION('',(0.,0.,1.));
#1607=DIRECTION('',(-1.,0.,0.));
#1608=DIRECTION('center_axis',(1.,0.,0.));
#1609=DIRECTION('ref_axis',(0.,-0.707106781186548,0.707106781186548));
#1610=DIRECTION('',(-1.,0.,0.));
#1611=DIRECTION('center_axis',(1.,0.,0.));
#1612=DIRECTION('ref_axis',(0.,-0.707106781186548,0.707106781186548));
#1613=DIRECTION('',(1.,0.,0.));
#1614=DIRECTION('center_axis',(-1.,0.,0.));
#1615=DIRECTION('ref_axis',(0.,-1.,0.));
#1616=DIRECTION('',(0.,-1.,0.));
#1617=DIRECTION('',(0.,0.,1.));
#1618=DIRECTION('',(0.,-1.,0.));
#1619=DIRECTION('center_axis',(0.,-1.,0.));
#1620=DIRECTION('ref_axis',(1.,0.,0.));
#1621=DIRECTION('',(1.,0.,0.));
#1622=DIRECTION('center_axis',(0.,0.,1.));
#1623=DIRECTION('ref_axis',(1.,0.,0.));
#1624=DIRECTION('center_axis',(0.,0.,1.));
#1625=DIRECTION('ref_axis',(-1.,0.,0.));
#1626=DIRECTION('center_axis',(0.,0.,-1.));
#1627=DIRECTION('ref_axis',(-1.,0.,0.));
#1628=DIRECTION('center_axis',(0.,0.,1.));
#1629=DIRECTION('ref_axis',(-1.,0.,0.));
#1630=DIRECTION('center_axis',(0.,0.,1.));
#1631=DIRECTION('ref_axis',(-1.,0.,0.));
#1632=DIRECTION('center_axis',(0.,0.,-1.));
#1633=DIRECTION('ref_axis',(-1.,0.,0.));
#1634=DIRECTION('center_axis',(0.,0.,1.));
#1635=DIRECTION('ref_axis',(-1.,0.,0.));
#1636=DIRECTION('center_axis',(0.,0.,1.));
#1637=DIRECTION('ref_axis',(-1.,0.,0.));
#1638=DIRECTION('',(-0.707106781186547,0.707106781186548,0.));
#1639=DIRECTION('',(0.,1.,0.));
#1640=DIRECTION('',(-0.707106781186547,0.707106781186548,0.));
#1641=DIRECTION('',(-1.,0.,0.));
#1642=DIRECTION('',(-0.707106781186548,0.707106781186548,0.));
#1643=DIRECTION('',(-1.48029736616688E-16,1.,0.));
#1644=DIRECTION('',(0.707106781186547,0.707106781186548,0.));
#1645=DIRECTION('',(1.,0.,0.));
#1646=DIRECTION('',(0.707106781186548,-0.707106781186548,0.));
#1647=DIRECTION('',(0.,-1.,0.));
#1648=DIRECTION('',(-0.707106781186548,-0.707106781186548,0.));
#1649=DIRECTION('',(-1.,0.,0.));
#1650=DIRECTION('',(-0.707106781186548,-0.707106781186547,0.));
#1651=DIRECTION('',(0.,-1.,0.));
#1652=DIRECTION('',(-0.707106781186548,-0.707106781186547,0.));
#1653=DIRECTION('',(-1.,0.,0.));
#1654=DIRECTION('center_axis',(0.,0.,1.));
#1655=DIRECTION('ref_axis',(-1.,0.,0.));
#1656=DIRECTION('center_axis',(0.,0.,1.));
#1657=DIRECTION('ref_axis',(-1.,0.,0.));
#1658=DIRECTION('center_axis',(0.,0.,-1.));
#1659=DIRECTION('ref_axis',(-1.,0.,0.));
#1660=DIRECTION('center_axis',(0.,0.,-1.));
#1661=DIRECTION('ref_axis',(-1.,0.,0.));
#1662=DIRECTION('',(0.,0.,-1.));
#1663=DIRECTION('center_axis',(0.,0.,-1.));
#1664=DIRECTION('ref_axis',(-1.,0.,0.));
#1665=DIRECTION('center_axis',(0.,0.,-1.));
#1666=DIRECTION('ref_axis',(-1.,0.,0.));
#1667=DIRECTION('',(0.,0.,-1.));
#1668=DIRECTION('center_axis',(0.,0.,1.));
#1669=DIRECTION('ref_axis',(-1.,0.,0.));
#1670=DIRECTION('',(0.,0.,1.));
#1671=DIRECTION('center_axis',(0.,0.,1.));
#1672=DIRECTION('ref_axis',(-1.,0.,0.));
#1673=DIRECTION('',(0.,0.,1.));
#1674=DIRECTION('center_axis',(0.707106781186547,0.,0.707106781186548));
#1675=DIRECTION('ref_axis',(0.707106781186548,0.,-0.707106781186547));
#1676=DIRECTION('',(0.,-1.,0.));
#1677=DIRECTION('',(0.678598344545848,-0.281084637714818,-0.678598344545847));
#1678=DIRECTION('',(0.,1.,0.));
#1679=DIRECTION('',(0.678598344545849,0.281084637714812,-0.678598344545848));
#1680=DIRECTION('center_axis',(0.5,-0.5,0.707106781186547));
#1681=DIRECTION('ref_axis',(0.816496580927726,0.,-0.577350269189627));
#1682=DIRECTION('',(-0.707106781186548,-0.707106781186548,0.));
#1683=DIRECTION('',(0.281084637714818,-0.678598344545848,-0.678598344545847));
#1684=DIRECTION('',(0.707106781186548,0.707106781186548,0.));
#1685=DIRECTION('center_axis',(0.,-0.707106781186547,0.707106781186548));
#1686=DIRECTION('ref_axis',(1.,0.,0.));
#1687=DIRECTION('',(-1.,0.,0.));
#1688=DIRECTION('',(0.281084637714818,-0.678598344545848,-0.678598344545847));
#1689=DIRECTION('',(1.,0.,0.));
#1690=DIRECTION('center_axis',(0.5,-0.5,0.707106781186547));
#1691=DIRECTION('ref_axis',(0.816496580927726,0.,-0.577350269189626));
#1692=DIRECTION('',(-0.707106781186548,-0.707106781186547,0.));
#1693=DIRECTION('',(0.678598344545848,-0.281084637714818,-0.678598344545847));
#1694=DIRECTION('',(0.707106781186548,0.707106781186547,0.));
#1695=DIRECTION('center_axis',(0.707106781186547,0.,0.707106781186548));
#1696=DIRECTION('ref_axis',(0.707106781186548,0.,-0.707106781186547));
#1697=DIRECTION('',(0.,-1.,0.));
#1698=DIRECTION('',(0.678598344545848,-0.281084637714816,-0.678598344545848));
#1699=DIRECTION('',(0.,1.,0.));
#1700=DIRECTION('center_axis',(0.5,-0.500000000000001,0.707106781186547));
#1701=DIRECTION('ref_axis',(0.816496580927725,0.,-0.577350269189627));
#1702=DIRECTION('',(-0.707106781186548,-0.707106781186547,0.));
#1703=DIRECTION('',(0.281084637714815,-0.678598344545848,-0.678598344545848));
#1704=DIRECTION('',(0.707106781186548,0.707106781186547,0.));
#1705=DIRECTION('center_axis',(0.,-0.707106781186548,0.707106781186548));
#1706=DIRECTION('ref_axis',(1.,0.,0.));
#1707=DIRECTION('',(-1.,0.,0.));
#1708=DIRECTION('',(-0.281084637714818,-0.678598344545847,-0.678598344545847));
#1709=DIRECTION('',(1.,0.,0.));
#1710=DIRECTION('center_axis',(-0.500000000000001,-0.5,0.707106781186547));
#1711=DIRECTION('ref_axis',(0.816496580927725,0.,0.577350269189627));
#1712=DIRECTION('',(0.707106781186547,-0.707106781186548,0.));
#1713=DIRECTION('',(-0.707106781186547,0.707106781186548,0.));
#1714=DIRECTION('',(-0.678598344545847,-0.281084637714819,-0.678598344545847));
#1715=DIRECTION('center_axis',(-0.707106781186548,0.,0.707106781186548));
#1716=DIRECTION('ref_axis',(0.707106781186548,0.,0.707106781186548));
#1717=DIRECTION('',(0.,-1.,0.));
#1718=DIRECTION('',(0.,1.,0.));
#1719=DIRECTION('',(-0.678598344545847,-0.281084637714819,-0.678598344545847));
#1720=DIRECTION('center_axis',(-0.5,-0.5,0.707106781186547));
#1721=DIRECTION('ref_axis',(0.816496580927726,0.,0.577350269189626));
#1722=DIRECTION('',(0.707106781186547,-0.707106781186548,0.));
#1723=DIRECTION('',(-0.707106781186547,0.707106781186548,0.));
#1724=DIRECTION('',(-0.281084637714819,-0.678598344545848,-0.678598344545847));
#1725=DIRECTION('center_axis',(0.,-0.707106781186547,0.707106781186548));
#1726=DIRECTION('ref_axis',(1.,0.,0.));
#1727=DIRECTION('',(1.,0.,0.));
#1728=DIRECTION('',(-1.,0.,0.));
#1729=DIRECTION('',(-0.281084637714823,-0.678598344545847,-0.678598344545846));
#1730=DIRECTION('center_axis',(-0.499999999999999,-0.499999999999999,0.707106781186549));
#1731=DIRECTION('ref_axis',(0.816496580927727,0.,0.577350269189624));
#1732=DIRECTION('',(0.707106781186548,-0.707106781186548,0.));
#1733=DIRECTION('',(-0.707106781186548,0.707106781186548,0.));
#1734=DIRECTION('',(-0.678598344545847,-0.281084637714822,-0.678598344545846));
#1735=DIRECTION('center_axis',(-0.707106781186547,-1.04672830578918E-16,
0.707106781186548));
#1736=DIRECTION('ref_axis',(0.707106781186548,0.,0.707106781186547));
#1737=DIRECTION('',(1.48029736616688E-16,-1.,0.));
#1738=DIRECTION('',(-1.48029736616688E-16,1.,0.));
#1739=DIRECTION('',(-0.678598344545849,0.281084637714815,-0.678598344545847));
#1740=DIRECTION('center_axis',(-0.500000000000001,0.5,0.707106781186547));
#1741=DIRECTION('ref_axis',(0.816496580927725,0.,0.577350269189627));
#1742=DIRECTION('',(-0.707106781186547,-0.707106781186548,0.));
#1743=DIRECTION('',(0.707106781186547,0.707106781186548,0.));
#1744=DIRECTION('',(-0.281084637714818,0.678598344545848,-0.678598344545847));
#1745=DIRECTION('center_axis',(0.,0.707106781186547,0.707106781186548));
#1746=DIRECTION('ref_axis',(1.,0.,0.));
#1747=DIRECTION('',(-1.,0.,0.));
#1748=DIRECTION('',(1.,0.,0.));
#1749=DIRECTION('',(0.281084637714812,0.678598344545849,-0.678598344545848));
#1750=DIRECTION('center_axis',(0.500000000000002,0.500000000000002,0.707106781186545));
#1751=DIRECTION('ref_axis',(0.816496580927724,0.,-0.577350269189629));
#1752=DIRECTION('',(-0.707106781186548,0.707106781186548,0.));
#1753=DIRECTION('',(0.707106781186548,-0.707106781186548,0.));
#1754=DIRECTION('center_axis',(-0.707106781186548,-0.707106781186547,0.));
#1755=DIRECTION('ref_axis',(0.,0.,1.));
#1756=DIRECTION('',(0.,0.,-1.));
#1757=DIRECTION('',(0.,0.,-1.));
#1758=DIRECTION('center_axis',(0.,-1.,0.));
#1759=DIRECTION('ref_axis',(1.,0.,0.));
#1760=DIRECTION('',(0.,0.,-1.));
#1761=DIRECTION('center_axis',(-0.707106781186548,-0.707106781186548,0.));
#1762=DIRECTION('ref_axis',(0.,0.,1.));
#1763=DIRECTION('',(0.,0.,-1.));
#1764=DIRECTION('center_axis',(-1.,-1.48029736616688E-16,0.));
#1765=DIRECTION('ref_axis',(1.48029736616688E-16,-1.,0.));
#1766=DIRECTION('',(0.,0.,-1.));
#1767=DIRECTION('center_axis',(-0.707106781186548,0.707106781186547,0.));
#1768=DIRECTION('ref_axis',(0.,0.,1.));
#1769=DIRECTION('',(0.,0.,-1.));
#1770=DIRECTION('center_axis',(0.,1.,0.));
#1771=DIRECTION('ref_axis',(-1.,0.,0.));
#1772=DIRECTION('',(0.,0.,-1.));
#1773=DIRECTION('center_axis',(0.707106781186548,0.707106781186548,0.));
#1774=DIRECTION('ref_axis',(0.,0.,-1.));
#1775=DIRECTION('',(0.,0.,-1.));
#1776=DIRECTION('center_axis',(1.,0.,0.));
#1777=DIRECTION('ref_axis',(0.,1.,0.));
#1778=DIRECTION('',(0.,0.,-1.));
#1779=DIRECTION('center_axis',(0.,0.,1.));
#1780=DIRECTION('ref_axis',(1.,0.,0.));
#1781=DIRECTION('center_axis',(-1.,0.,0.));
#1782=DIRECTION('ref_axis',(0.,-1.,0.));
#1783=DIRECTION('',(0.,0.,-1.));
#1784=DIRECTION('center_axis',(-0.707106781186548,-0.707106781186547,0.));
#1785=DIRECTION('ref_axis',(0.,0.,1.));
#1786=DIRECTION('',(0.,0.,-1.));
#1787=DIRECTION('center_axis',(0.,-1.,0.));
#1788=DIRECTION('ref_axis',(1.,0.,0.));
#1789=DIRECTION('',(0.,0.,-1.));
#1790=DIRECTION('center_axis',(0.707106781186547,-0.707106781186548,0.));
#1791=DIRECTION('ref_axis',(0.,0.,-1.));
#1792=DIRECTION('',(0.,0.,-1.));
#1793=DIRECTION('center_axis',(1.,0.,0.));
#1794=DIRECTION('ref_axis',(0.,1.,0.));
#1795=DIRECTION('',(0.,0.,-1.));
#1796=DIRECTION('center_axis',(0.707106781186547,-0.707106781186548,0.));
#1797=DIRECTION('ref_axis',(0.,0.,-1.));
#1798=DIRECTION('',(0.,0.,-1.));
#1799=DIRECTION('center_axis',(0.,-1.,0.));
#1800=DIRECTION('ref_axis',(1.,0.,0.));
#1801=DIRECTION('',(0.,0.,-1.));
#1802=DIRECTION('center_axis',(0.707106781186548,-0.707106781186548,0.));
#1803=DIRECTION('ref_axis',(0.,0.,-1.));
#1804=CARTESIAN_POINT('',(0.,0.,0.));
#1805=CARTESIAN_POINT('Origin',(13.55,6.8,6.7));
#1806=CARTESIAN_POINT('',(10.4,2.,6.7));
#1807=CARTESIAN_POINT('',(10.4,6.8,1.9));
#1808=CARTESIAN_POINT('Origin',(10.4,6.8,6.7));
#1809=CARTESIAN_POINT('',(14.6,2.,6.7));
#1810=CARTESIAN_POINT('',(13.55,2.,6.7));
#1811=CARTESIAN_POINT('',(14.6,6.8,1.9));
#1812=CARTESIAN_POINT('Origin',(14.6,6.8,6.7));
#1813=CARTESIAN_POINT('',(13.55,6.8,1.9));
#1814=CARTESIAN_POINT('Origin',(10.4,2.,7.));
#1815=CARTESIAN_POINT('',(10.4,7.4,1.9));
#1816=CARTESIAN_POINT('',(10.4,2.,1.9));
#1817=CARTESIAN_POINT('',(10.4,12.2,6.7));
#1818=CARTESIAN_POINT('Origin',(10.4,7.4,6.7));
#1819=CARTESIAN_POINT('',(10.4,12.2,7.));
#1820=CARTESIAN_POINT('',(10.4,12.2,7.));
#1821=CARTESIAN_POINT('',(10.4,2.,7.));
#1822=CARTESIAN_POINT('',(10.4,8.5,7.));
#1823=CARTESIAN_POINT('',(10.4,2.,7.));
#1824=CARTESIAN_POINT('Origin',(12.5,7.1,1.9));
#1825=CARTESIAN_POINT('',(14.6,7.4,1.9));
#1826=CARTESIAN_POINT('',(14.6,12.2,1.9));
#1827=CARTESIAN_POINT('',(11.45,7.4,1.9));
#1828=CARTESIAN_POINT('Origin',(11.45,7.4,6.7));
#1829=CARTESIAN_POINT('',(14.6,12.2,6.7));
#1830=CARTESIAN_POINT('Origin',(14.6,7.4,6.7));
#1831=CARTESIAN_POINT('',(11.45,12.2,6.7));
#1832=CARTESIAN_POINT('Origin',(10.4,12.2,7.));
#1833=CARTESIAN_POINT('',(14.6,12.2,7.));
#1834=CARTESIAN_POINT('',(14.6,12.2,7.));
#1835=CARTESIAN_POINT('',(11.4500001303852,12.2,7.));
#1836=CARTESIAN_POINT('Origin',(14.6,12.2,7.));
#1837=CARTESIAN_POINT('',(14.6,2.,7.));
#1838=CARTESIAN_POINT('',(14.6,2.,7.));
#1839=CARTESIAN_POINT('',(14.6,13.6,7.));
#1840=CARTESIAN_POINT('Origin',(14.6,2.,7.));
#1841=CARTESIAN_POINT('',(13.5500001303852,2.,7.));
#1842=CARTESIAN_POINT('Origin',(12.5000002607703,15.,7.));
#1843=CARTESIAN_POINT('',(-10.,17.,7.));
#1844=CARTESIAN_POINT('',(-8.,15.,7.));
#1845=CARTESIAN_POINT('',(-3.37499993480742,10.3749999348074,7.));
#1846=CARTESIAN_POINT('',(-2.,15.,7.));
#1847=CARTESIAN_POINT('',(-10.,15.,7.));
#1848=CARTESIAN_POINT('',(0.,13.,7.));
#1849=CARTESIAN_POINT('',(2.12500006519258,10.8749999348074,7.));
#1850=CARTESIAN_POINT('',(0.,2.,7.));
#1851=CARTESIAN_POINT('',(0.,15.,7.));
#1852=CARTESIAN_POINT('',(2.,0.,7.));
#1853=CARTESIAN_POINT('',(0.37500006519258,1.62499993480742,7.));
#1854=CARTESIAN_POINT('',(23.000000372529,0.,7.));
#1855=CARTESIAN_POINT('',(0.,0.,7.));
#1856=CARTESIAN_POINT('',(25.000000372529,2.,7.));
#1857=CARTESIAN_POINT('',(24.6250003445893,1.62499997206032,7.));
#1858=CARTESIAN_POINT('',(25.000000372529,13.,7.));
#1859=CARTESIAN_POINT('',(25.000000372529,0.,7.));
#1860=CARTESIAN_POINT('',(27.000000372529,15.,7.));
#1861=CARTESIAN_POINT('',(22.8750003445893,10.8749999720603,7.));
#1862=CARTESIAN_POINT('',(33.0000005215406,15.,7.));
#1863=CARTESIAN_POINT('',(25.000000372529,15.,7.));
#1864=CARTESIAN_POINT('',(35.0000005215406,17.,7.));
#1865=CARTESIAN_POINT('',(28.3750004563481,10.3749999348074,7.));
#1866=CARTESIAN_POINT('',(35.0000005215406,28.,7.));
#1867=CARTESIAN_POINT('',(35.0000005215406,15.,7.));
#1868=CARTESIAN_POINT('',(33.0000005215406,30.,7.));
#1869=CARTESIAN_POINT('',(32.1250004563481,30.8750000651926,7.));
#1870=CARTESIAN_POINT('',(-8.00000000000001,30.,7.));
#1871=CARTESIAN_POINT('',(35.0000005215406,30.,7.));
#1872=CARTESIAN_POINT('',(-10.,28.,7.));
#1873=CARTESIAN_POINT('',(-7.12499993480743,30.8750000651926,7.));
#1874=CARTESIAN_POINT('',(-10.,30.,7.));
#1875=CARTESIAN_POINT('',(28.5000004470348,22.5000003352761,7.));
#1876=CARTESIAN_POINT('Origin',(30.0000004470348,22.5000003352761,7.));
#1877=CARTESIAN_POINT('',(-6.50000007450581,22.5000003352761,7.));
#1878=CARTESIAN_POINT('Origin',(-5.00000007450581,22.5000003352761,7.));
#1879=CARTESIAN_POINT('Origin',(-1.,14.,0.));
#1880=CARTESIAN_POINT('',(-2.,15.,0.));
#1881=CARTESIAN_POINT('',(2.67062285621697E-32,13.,0.));
#1882=CARTESIAN_POINT('',(2.12500006519258,10.8749999348074,0.));
#1883=CARTESIAN_POINT('',(0.,13.,0.));
#1884=CARTESIAN_POINT('',(-2.,15.,0.));
#1885=CARTESIAN_POINT('Origin',(3.08148791101958E-32,15.,0.));
#1886=CARTESIAN_POINT('',(4.10865054802611E-33,2.,0.));
#1887=CARTESIAN_POINT('',(3.08148791101958E-32,15.,0.));
#1888=CARTESIAN_POINT('',(0.,2.,0.));
#1889=CARTESIAN_POINT('Origin',(-9.,16.,0.));
#1890=CARTESIAN_POINT('',(-10.,17.,0.));
#1891=CARTESIAN_POINT('',(-10.,17.,0.));
#1892=CARTESIAN_POINT('',(-8.,15.,0.));
#1893=CARTESIAN_POINT('',(-3.37499993480742,10.3749999348074,0.));
#1894=CARTESIAN_POINT('',(-8.,15.,0.));
#1895=CARTESIAN_POINT('Origin',(12.5000002607703,15.,0.));
#1896=CARTESIAN_POINT('',(-10.,28.,0.));
#1897=CARTESIAN_POINT('',(-10.,15.,0.));
#1898=CARTESIAN_POINT('',(-8.00000000000001,30.,0.));
#1899=CARTESIAN_POINT('',(-7.12499993480743,30.8750000651926,0.));
#1900=CARTESIAN_POINT('',(33.0000005215406,30.,0.));
#1901=CARTESIAN_POINT('',(35.0000005215406,30.,0.));
#1902=CARTESIAN_POINT('',(35.0000005215406,28.,0.));
#1903=CARTESIAN_POINT('',(32.1250004563481,30.8750000651926,0.));
#1904=CARTESIAN_POINT('',(35.0000005215406,17.,0.));
#1905=CARTESIAN_POINT('',(35.0000005215406,15.,0.));
#1906=CARTESIAN_POINT('',(33.0000005215406,15.,0.));
#1907=CARTESIAN_POINT('',(28.3750004563481,10.3749999348074,0.));
#1908=CARTESIAN_POINT('',(27.000000372529,15.,0.));
#1909=CARTESIAN_POINT('',(25.000000372529,15.,0.));
#1910=CARTESIAN_POINT('',(25.000000372529,13.,0.));
#1911=CARTESIAN_POINT('',(22.8750003445893,10.8749999720603,0.));
#1912=CARTESIAN_POINT('',(25.000000372529,2.,0.));
#1913=CARTESIAN_POINT('',(25.000000372529,0.,0.));
#1914=CARTESIAN_POINT('',(23.000000372529,0.,0.));
#1915=CARTESIAN_POINT('',(24.6250003445893,1.62499997206032,0.));
#1916=CARTESIAN_POINT('',(2.,0.,0.));
#1917=CARTESIAN_POINT('',(0.,0.,0.));
#1918=CARTESIAN_POINT('',(0.37500006519258,1.62499993480742,0.));
#1919=CARTESIAN_POINT('',(3.08148791101958E-32,15.,0.));
#1920=CARTESIAN_POINT('',(28.5000004470348,22.5000003352761,0.));
#1921=CARTESIAN_POINT('Origin',(30.0000004470348,22.5000003352761,0.));
#1922=CARTESIAN_POINT('',(-6.50000007450581,22.5000003352761,0.));
#1923=CARTESIAN_POINT('Origin',(-5.00000007450581,22.5000003352761,0.));
#1924=CARTESIAN_POINT('Origin',(-10.,30.,0.));
#1925=CARTESIAN_POINT('',(-10.,28.,0.));
#1926=CARTESIAN_POINT('Origin',(-9.,29.,0.));
#1927=CARTESIAN_POINT('',(-8.,30.,0.));
#1928=CARTESIAN_POINT('Origin',(34.0000005215406,29.,0.));
#1929=CARTESIAN_POINT('',(35.0000005215406,28.,0.));
#1930=CARTESIAN_POINT('',(33.0000005215406,30.,0.));
#1931=CARTESIAN_POINT('Origin',(35.0000005215406,15.,0.));
#1932=CARTESIAN_POINT('',(35.0000005215406,17.,0.));
#1933=CARTESIAN_POINT('Origin',(34.0000005215406,16.,0.));
#1934=CARTESIAN_POINT('',(33.0000005215406,15.,0.));
#1935=CARTESIAN_POINT('Origin',(25.000000372529,15.,0.));
#1936=CARTESIAN_POINT('',(27.000000372529,15.,0.));
#1937=CARTESIAN_POINT('Origin',(26.000000372529,14.,0.));
#1938=CARTESIAN_POINT('',(25.000000372529,13.,0.));
#1939=CARTESIAN_POINT('Origin',(24.000000372529,1.,0.));
#1940=CARTESIAN_POINT('',(23.000000372529,0.,0.));
#1941=CARTESIAN_POINT('',(25.000000372529,2.,0.));
#1942=CARTESIAN_POINT('Origin',(0.,0.,0.));
#1943=CARTESIAN_POINT('',(2.,0.,0.));
#1944=CARTESIAN_POINT('Origin',(1.,1.,0.));
#1945=CARTESIAN_POINT('Origin',(30.0000004470348,22.5000003352761,0.));
#1946=CARTESIAN_POINT('',(28.5000004470348,22.5000003352761,0.));
#1947=CARTESIAN_POINT('Origin',(-5.00000007450581,22.5000003352761,0.));
#1948=CARTESIAN_POINT('',(-6.50000007450581,22.5000003352761,0.));
#1949=CARTESIAN_POINT('Origin',(-10.,15.,0.));
#1950=CARTESIAN_POINT('Origin',(35.0000005215406,30.,0.));
#1951=CARTESIAN_POINT('Origin',(25.000000372529,0.,0.));
#1952=CARTESIAN_POINT('Origin',(13.55,7.4,7.3));
#1953=CARTESIAN_POINT('',(10.4,12.2,7.3));
#1954=CARTESIAN_POINT('',(10.4,7.4,12.1));
#1955=CARTESIAN_POINT('Origin',(10.4,7.4,7.3));
#1956=CARTESIAN_POINT('',(14.6,12.2,7.3));
#1957=CARTESIAN_POINT('',(13.55,12.2,7.3));
#1958=CARTESIAN_POINT('',(14.6,7.4,12.1));
#1959=CARTESIAN_POINT('Origin',(14.6,7.4,7.3));
#1960=CARTESIAN_POINT('',(13.55,7.4,12.1));
#1961=CARTESIAN_POINT('Origin',(14.6,2.,7.));
#1962=CARTESIAN_POINT('',(14.6,12.2,7.));
#1963=CARTESIAN_POINT('',(14.6,12.2,7.));
#1964=CARTESIAN_POINT('',(14.6,2.,7.));
#1965=CARTESIAN_POINT('',(14.6,8.5,7.));
#1966=CARTESIAN_POINT('',(14.6,2.,7.3));
#1967=CARTESIAN_POINT('',(14.6,2.,7.));
#1968=CARTESIAN_POINT('',(14.6,6.8,12.1));
#1969=CARTESIAN_POINT('Origin',(14.6,6.8,7.3));
#1970=CARTESIAN_POINT('',(14.6,12.2,12.1));
#1971=CARTESIAN_POINT('Origin',(14.6,12.2,7.));
#1972=CARTESIAN_POINT('',(10.4,12.2,7.));
#1973=CARTESIAN_POINT('',(10.4,12.2,7.));
#1974=CARTESIAN_POINT('',(13.5500001303852,12.2,7.));
#1975=CARTESIAN_POINT('Origin',(11.45,6.8,7.3));
#1976=CARTESIAN_POINT('',(10.4,2.,7.3));
#1977=CARTESIAN_POINT('',(11.45,2.,7.3));
#1978=CARTESIAN_POINT('',(10.4,6.8,12.1));
#1979=CARTESIAN_POINT('Origin',(10.4,6.8,7.3));
#1980=CARTESIAN_POINT('',(11.45,6.8,12.1));
#1981=CARTESIAN_POINT('Origin',(10.4,12.2,7.));
#1982=CARTESIAN_POINT('',(10.4,2.,12.1));
#1983=CARTESIAN_POINT('',(10.4,2.,7.));
#1984=CARTESIAN_POINT('',(10.4,2.,7.));
#1985=CARTESIAN_POINT('',(10.4,13.6,7.));
#1986=CARTESIAN_POINT('Origin',(10.4,2.,7.));
#1987=CARTESIAN_POINT('',(11.4500001303852,2.,7.));
#1988=CARTESIAN_POINT('Origin',(12.5,7.1,12.1));
#1989=CARTESIAN_POINT('Origin',(30.0000004470348,22.5000003352761,11.));
#1990=CARTESIAN_POINT('',(32.6000004470348,22.5000003352761,11.));
#1991=CARTESIAN_POINT('Origin',(30.0000004470348,22.5000003352761,11.));
#1992=CARTESIAN_POINT('',(31.5000004470348,22.5000003352761,11.));
#1993=CARTESIAN_POINT('Origin',(30.0000004470348,22.5000003352761,11.));
#1994=CARTESIAN_POINT('Origin',(-5.00000007450581,22.5000003352761,11.));
#1995=CARTESIAN_POINT('',(-2.4000000745058,22.5000003352761,11.));
#1996=CARTESIAN_POINT('Origin',(-5.00000007450581,22.5000003352761,11.));
#1997=CARTESIAN_POINT('',(-3.5000000745058,22.5000003352761,11.));
#1998=CARTESIAN_POINT('Origin',(-5.00000007450581,22.5000003352761,11.));
#1999=CARTESIAN_POINT('Origin',(12.5000002607703,15.,7.));
#2000=CARTESIAN_POINT('',(2.,0.,7.));
#2001=CARTESIAN_POINT('',(0.,2.,7.));
#2002=CARTESIAN_POINT('',(0.37500006519258,1.62499993480742,7.));
#2003=CARTESIAN_POINT('',(0.,13.,7.));
#2004=CARTESIAN_POINT('',(0.,15.,7.));
#2005=CARTESIAN_POINT('',(-2.,15.,7.));
#2006=CARTESIAN_POINT('',(2.12500006519258,10.8749999348074,7.));
#2007=CARTESIAN_POINT('',(-8.,15.,7.));
#2008=CARTESIAN_POINT('',(-10.,15.,7.));
#2009=CARTESIAN_POINT('',(-10.,17.,7.));
#2010=CARTESIAN_POINT('',(-3.37499993480742,10.3749999348074,7.));
#2011=CARTESIAN_POINT('',(-10.,28.,7.));
#2012=CARTESIAN_POINT('',(-10.,30.,7.));
#2013=CARTESIAN_POINT('',(-8.00000000000001,30.,7.));
#2014=CARTESIAN_POINT('',(-7.12499993480743,30.8750000651926,7.));
#2015=CARTESIAN_POINT('',(33.0000005215406,30.,7.));
#2016=CARTESIAN_POINT('',(35.0000005215406,30.,7.));
#2017=CARTESIAN_POINT('',(35.0000005215406,28.,7.));
#2018=CARTESIAN_POINT('',(32.1250004563481,30.8750000651926,7.));
#2019=CARTESIAN_POINT('',(35.0000005215406,17.,7.));
#2020=CARTESIAN_POINT('',(35.0000005215406,15.,7.));
#2021=CARTESIAN_POINT('',(33.0000005215406,15.,7.));
#2022=CARTESIAN_POINT('',(28.3750004563481,10.3749999348074,7.));
#2023=CARTESIAN_POINT('',(27.000000372529,15.,7.));
#2024=CARTESIAN_POINT('',(25.000000372529,15.,7.));
#2025=CARTESIAN_POINT('',(25.000000372529,13.,7.));
#2026=CARTESIAN_POINT('',(22.8750003445893,10.8749999720603,7.));
#2027=CARTESIAN_POINT('',(25.000000372529,2.,7.));
#2028=CARTESIAN_POINT('',(25.000000372529,0.,7.));
#2029=CARTESIAN_POINT('',(23.000000372529,0.,7.));
#2030=CARTESIAN_POINT('',(24.6250003445893,1.62499997206032,7.));
#2031=CARTESIAN_POINT('',(0.,0.,7.));
#2032=CARTESIAN_POINT('',(-3.5000000745058,22.5000003352761,7.));
#2033=CARTESIAN_POINT('Origin',(-5.00000007450581,22.5000003352761,7.));
#2034=CARTESIAN_POINT('',(31.5000004470348,22.5000003352761,7.));
#2035=CARTESIAN_POINT('Origin',(30.0000004470348,22.5000003352761,7.));
#2036=CARTESIAN_POINT('Origin',(-5.00000007450581,22.5000003352761,14.));
#2037=CARTESIAN_POINT('',(-2.4000000745058,22.5000003352761,14.));
#2038=CARTESIAN_POINT('Origin',(-5.00000007450581,22.5000003352761,14.));
#2039=CARTESIAN_POINT('',(-2.4000000745058,22.5000003352761,14.));
#2040=CARTESIAN_POINT('Origin',(30.0000004470348,22.5000003352761,14.));
#2041=CARTESIAN_POINT('',(32.6000004470348,22.5000003352761,14.));
#2042=CARTESIAN_POINT('Origin',(30.0000004470348,22.5000003352761,14.));
#2043=CARTESIAN_POINT('',(32.6000004470348,22.5000003352761,14.));
#2044=CARTESIAN_POINT('Origin',(-5.00000007450581,22.5000003352761,12.));
#2045=CARTESIAN_POINT('',(-3.5000000745058,22.5000003352761,12.));
#2046=CARTESIAN_POINT('Origin',(30.0000004470348,22.5000003352761,12.));
#2047=CARTESIAN_POINT('',(31.5000004470348,22.5000003352761,12.));
#2048=CARTESIAN_POINT('Origin',(34.5000005215406,15.,13.5));
#2049=CARTESIAN_POINT('',(34.0000005215406,27.5857864376269,14.));
#2050=CARTESIAN_POINT('',(34.0000005215406,17.4142135623731,14.));
#2051=CARTESIAN_POINT('',(34.0000005215406,15.,14.));
#2052=CARTESIAN_POINT('',(35.0000005215406,17.,13.));
#2053=CARTESIAN_POINT('',(34.0000005215406,17.4142135623731,14.));
#2054=CARTESIAN_POINT('',(35.0000005215406,28.,13.));
#2055=CARTESIAN_POINT('',(35.0000005215406,15.,13.));
#2056=CARTESIAN_POINT('',(34.0000005215406,27.5857864376269,14.));
#2057=CARTESIAN_POINT('Origin',(28.0214470657548,10.7285533254007,13.5));
#2058=CARTESIAN_POINT('',(32.5857869591675,16.,14.));
#2059=CARTESIAN_POINT('',(27.6678936751615,11.082106715994,14.));
#2060=CARTESIAN_POINT('',(33.0000005215406,15.,13.));
#2061=CARTESIAN_POINT('',(32.5857869591675,16.,14.));
#2062=CARTESIAN_POINT('',(28.3750004563481,10.3749999348074,13.));
#2063=CARTESIAN_POINT('Origin',(18.7500003166497,15.5,13.5));
#2064=CARTESIAN_POINT('',(26.5857868101559,16.,14.));
#2065=CARTESIAN_POINT('',(18.7500003166497,16.,14.));
#2066=CARTESIAN_POINT('',(27.000000372529,15.,13.));
#2067=CARTESIAN_POINT('',(26.5857868101559,16.,14.));
#2068=CARTESIAN_POINT('',(18.7500003166497,15.,13.));
#2069=CARTESIAN_POINT('Origin',(22.5214469539961,11.2285533626536,13.5));
#2070=CARTESIAN_POINT('',(24.000000372529,13.4142135623731,14.));
#2071=CARTESIAN_POINT('',(22.1678935634028,11.5821067532469,14.));
#2072=CARTESIAN_POINT('',(25.000000372529,13.,13.));
#2073=CARTESIAN_POINT('',(24.000000372529,13.4142135623731,14.));
#2074=CARTESIAN_POINT('',(22.8750003445893,10.8749999720603,13.));
#2075=CARTESIAN_POINT('Origin',(24.500000372529,7.5,13.5));
#2076=CARTESIAN_POINT('',(24.000000372529,2.41421356237309,14.));
#2077=CARTESIAN_POINT('',(24.000000372529,7.5,14.));
#2078=CARTESIAN_POINT('',(25.000000372529,2.,13.));
#2079=CARTESIAN_POINT('',(24.000000372529,2.41421356237309,14.));
#2080=CARTESIAN_POINT('',(25.000000372529,7.5,13.));
#2081=CARTESIAN_POINT('Origin',(24.2714469539961,1.97855336265359,13.5));
#2082=CARTESIAN_POINT('',(22.5857868101559,1.,14.));
#2083=CARTESIAN_POINT('',(23.9178935634028,2.33210675324687,14.));
#2084=CARTESIAN_POINT('',(23.000000372529,0.,13.));
#2085=CARTESIAN_POINT('',(22.5857868101559,1.,14.));
#2086=CARTESIAN_POINT('',(24.6250003445894,1.62499997206032,13.));
#2087=CARTESIAN_POINT('Origin',(6.25000013038516,0.5,13.5));
#2088=CARTESIAN_POINT('',(2.41421356237309,1.,14.));
#2089=CARTESIAN_POINT('',(6.25000013038516,1.,14.));
#2090=CARTESIAN_POINT('',(2.,0.,13.));
#2091=CARTESIAN_POINT('',(2.41421356237309,1.,14.));
#2092=CARTESIAN_POINT('',(6.25000013038516,0.,13.));
#2093=CARTESIAN_POINT('Origin',(0.728553455785852,1.97855332540069,13.5));
#2094=CARTESIAN_POINT('',(0.,2.,13.));
#2095=CARTESIAN_POINT('',(0.375000065192579,1.62499993480742,13.));
#2096=CARTESIAN_POINT('',(1.,2.41421356237309,14.));
#2097=CARTESIAN_POINT('',(1.08210684637913,2.33210671599397,14.));
#2098=CARTESIAN_POINT('',(1.,2.41421356237309,14.));
#2099=CARTESIAN_POINT('Origin',(0.5,15.,13.5));
#2100=CARTESIAN_POINT('',(0.,13.,13.));
#2101=CARTESIAN_POINT('',(0.,15.,13.));
#2102=CARTESIAN_POINT('',(0.999999999999999,13.4142135623731,14.));
#2103=CARTESIAN_POINT('',(1.,15.,14.));
#2104=CARTESIAN_POINT('',(0.999999999999999,13.4142135623731,14.));
#2105=CARTESIAN_POINT('Origin',(2.47855345578585,11.2285533254007,13.5));
#2106=CARTESIAN_POINT('',(-2.,15.,13.));
#2107=CARTESIAN_POINT('',(2.12500006519258,10.8749999348074,13.));
#2108=CARTESIAN_POINT('',(-1.58578643762691,16.,14.));
#2109=CARTESIAN_POINT('',(2.83210684637912,11.582106715994,14.));
#2110=CARTESIAN_POINT('',(-1.58578643762691,16.,14.));
#2111=CARTESIAN_POINT('Origin',(1.25000013038516,15.5,13.5));
#2112=CARTESIAN_POINT('',(-8.,15.,13.));
#2113=CARTESIAN_POINT('',(1.25000013038516,15.,13.));
#2114=CARTESIAN_POINT('',(-7.5857864376269,16.,14.));
#2115=CARTESIAN_POINT('',(1.25000013038516,16.,14.));
#2116=CARTESIAN_POINT('',(-7.5857864376269,16.,14.));
#2117=CARTESIAN_POINT('Origin',(-3.02144654421414,10.7285533254007,13.5));
#2118=CARTESIAN_POINT('',(-10.,17.,13.));
#2119=CARTESIAN_POINT('',(-3.37499993480742,10.3749999348074,13.));
#2120=CARTESIAN_POINT('',(-9.,17.4142135623731,14.));
#2121=CARTESIAN_POINT('',(-2.66789315362087,11.082106715994,14.));
#2122=CARTESIAN_POINT('',(-9.,17.4142135623731,14.));
#2123=CARTESIAN_POINT('Origin',(-9.5,22.5,13.5));
#2124=CARTESIAN_POINT('',(-10.,28.,13.));
#2125=CARTESIAN_POINT('',(-10.,22.5,13.));
#2126=CARTESIAN_POINT('',(-9.,27.5857864376269,14.));
#2127=CARTESIAN_POINT('',(-9.,22.5,14.));
#2128=CARTESIAN_POINT('',(-9.,27.5857864376269,14.));
#2129=CARTESIAN_POINT('Origin',(-6.77144654421416,30.5214466745993,13.5));
#2130=CARTESIAN_POINT('',(-8.,30.,13.));
#2131=CARTESIAN_POINT('',(-7.12499993480743,30.8750000651926,13.));
#2132=CARTESIAN_POINT('',(-7.58578643762691,29.,14.));
#2133=CARTESIAN_POINT('',(-6.41789315362089,30.167893284006,14.));
#2134=CARTESIAN_POINT('',(-7.58578643762691,29.,14.));
#2135=CARTESIAN_POINT('Origin',(23.7500003911555,29.5,13.5));
#2136=CARTESIAN_POINT('',(33.0000005215406,30.,13.));
#2137=CARTESIAN_POINT('',(23.7500003911555,30.,13.));
#2138=CARTESIAN_POINT('',(32.5857869591676,29.,14.));
#2139=CARTESIAN_POINT('',(23.7500003911555,29.,14.));
#2140=CARTESIAN_POINT('',(32.5857869591676,29.,14.));
#2141=CARTESIAN_POINT('Origin',(31.7714470657548,30.5214466745993,13.5));
#2142=CARTESIAN_POINT('',(32.1250004563481,30.8750000651926,13.));
#2143=CARTESIAN_POINT('',(31.4178936751615,30.167893284006,14.));
#2144=CARTESIAN_POINT('Origin',(-1.,14.,12.));
#2145=CARTESIAN_POINT('',(-2.,15.,12.));
#2146=CARTESIAN_POINT('',(0.,13.,12.));
#2147=CARTESIAN_POINT('Origin',(-10.,15.,12.));
#2148=CARTESIAN_POINT('',(-8.,15.,12.));
#2149=CARTESIAN_POINT('Origin',(-9.,16.,12.));
#2150=CARTESIAN_POINT('',(-10.,17.,12.));
#2151=CARTESIAN_POINT('Origin',(-10.,30.,12.));
#2152=CARTESIAN_POINT('',(-10.,28.,12.));
#2153=CARTESIAN_POINT('Origin',(-9.,29.,12.));
#2154=CARTESIAN_POINT('',(-8.00000000000001,30.,12.));
#2155=CARTESIAN_POINT('Origin',(35.0000005215406,30.,12.));
#2156=CARTESIAN_POINT('',(33.0000005215406,30.,12.));
#2157=CARTESIAN_POINT('Origin',(34.0000005215406,29.,12.));
#2158=CARTESIAN_POINT('',(35.0000005215406,28.,12.));
#2159=CARTESIAN_POINT('Origin',(35.0000005215406,15.,12.));
#2160=CARTESIAN_POINT('',(35.0000005215406,17.,12.));
#2161=CARTESIAN_POINT('Origin',(12.5000002607703,15.,14.));
#2162=CARTESIAN_POINT('Origin',(0.,15.,12.));
#2163=CARTESIAN_POINT('',(0.,2.,12.));
#2164=CARTESIAN_POINT('Origin',(1.,1.,12.));
#2165=CARTESIAN_POINT('',(2.,0.,12.));
#2166=CARTESIAN_POINT('Origin',(0.,0.,12.));
#2167=CARTESIAN_POINT('',(23.000000372529,0.,12.));
#2168=CARTESIAN_POINT('Origin',(24.000000372529,1.,12.));
#2169=CARTESIAN_POINT('',(25.000000372529,2.,12.));
#2170=CARTESIAN_POINT('Origin',(25.000000372529,0.,12.));
#2171=CARTESIAN_POINT('',(25.000000372529,13.,12.));
#2172=CARTESIAN_POINT('Origin',(26.000000372529,14.,12.));
#2173=CARTESIAN_POINT('',(27.000000372529,15.,12.));
#2174=CARTESIAN_POINT('Origin',(25.000000372529,15.,12.));
#2175=CARTESIAN_POINT('',(33.0000005215406,15.,12.));
#2176=CARTESIAN_POINT('Origin',(34.0000005215406,16.,12.));
#2177=UNCERTAINTY_MEASURE_WITH_UNIT(LENGTH_MEASURE(0.01),#2181,
'DISTANCE_ACCURACY_VALUE',
'Maximum model space distance between geometric entities at asserted c
onnectivities');
#2178=UNCERTAINTY_MEASURE_WITH_UNIT(LENGTH_MEASURE(0.01),#2181,
'DISTANCE_ACCURACY_VALUE',
'Maximum model space distance between geometric entities at asserted c
onnectivities');
#2179=(
GEOMETRIC_REPRESENTATION_CONTEXT(3)
GLOBAL_UNCERTAINTY_ASSIGNED_CONTEXT((#2177))
GLOBAL_UNIT_ASSIGNED_CONTEXT((#2181,#2183,#2184))
REPRESENTATION_CONTEXT('','3D')
);
#2180=(
GEOMETRIC_REPRESENTATION_CONTEXT(3)
GLOBAL_UNCERTAINTY_ASSIGNED_CONTEXT((#2178))
GLOBAL_UNIT_ASSIGNED_CONTEXT((#2181,#2183,#2184))
REPRESENTATION_CONTEXT('','3D')
);
#2181=(
LENGTH_UNIT()
NAMED_UNIT(*)
SI_UNIT(.MILLI.,.METRE.)
);
#2182=(
LENGTH_UNIT()
NAMED_UNIT(*)
SI_UNIT($,.METRE.)
);
#2183=(
NAMED_UNIT(*)
PLANE_ANGLE_UNIT()
SI_UNIT($,.RADIAN.)
);
#2184=(
NAMED_UNIT(*)
SI_UNIT($,.STERADIAN.)
SOLID_ANGLE_UNIT()
);
#2185=SHAPE_DEFINITION_REPRESENTATION(#2186,#2187);
#2186=PRODUCT_DEFINITION_SHAPE('',$,#2189);
#2187=SHAPE_REPRESENTATION('',(#1357),#2179);
#2188=PRODUCT_DEFINITION_CONTEXT('part definition',#2193,'design');
#2189=PRODUCT_DEFINITION('new_magnet_holder','new_magnet_holder v3',#2190,
#2188);
#2190=PRODUCT_DEFINITION_FORMATION('',$,#2195);
#2191=PRODUCT_RELATED_PRODUCT_CATEGORY('new_magnet_holder v3',
'new_magnet_holder v3',(#2195));
#2192=APPLICATION_PROTOCOL_DEFINITION('international standard',
'automotive_design',2009,#2193);
#2193=APPLICATION_CONTEXT(
'Core Data for Automotive Mechanical Design Process');
#2194=PRODUCT_CONTEXT('part definition',#2193,'mechanical');
#2195=PRODUCT('new_magnet_holder','new_magnet_holder v3',$,(#2194));
#2196=PRESENTATION_STYLE_ASSIGNMENT((#2197));
#2197=SURFACE_STYLE_USAGE(.BOTH.,#2198);
#2198=SURFACE_SIDE_STYLE('',(#2199));
#2199=SURFACE_STYLE_FILL_AREA(#2200);
#2200=FILL_AREA_STYLE('Stahl - satiniert',(#2201));
#2201=FILL_AREA_STYLE_COLOUR('Stahl - satiniert',#2202);
#2202=COLOUR_RGB('Stahl - satiniert',0.627450980392157,0.627450980392157,
0.627450980392157);
ENDSEC;
END-ISO-10303-21;
