ISO-10303-21;
HEADER;
/* Generated by software containing ST-Developer
 * from STEP Tools, Inc. (www.steptools.com) 
 */

FILE_DESCRIPTION(
/* description */ (''),
/* implementation_level */ '2;1');

FILE_NAME(
/* name */ 'cable_clip.step',
/* time_stamp */ '2025-07-17T21:54:45+02:00',
/* author */ (''),
/* organization */ (''),
/* preprocessor_version */ 'ST-DEVELOPER v20',
/* originating_system */ 'Autodesk Translation Framework v13.20.0.188',

/* authorisation */ '');

FILE_SCHEMA (('AUTOMOTIVE_DESIGN { 1 0 10303 214 3 1 1 }'));
ENDSEC;

DATA;
#10=MECHANICAL_DESIGN_GEOMETRIC_PRESENTATION_REPRESENTATION('',(#13),#720);
#11=SHAPE_REPRESENTATION_RELATIONSHIP('SRR','None',#727,#12);
#12=ADVANCED_BREP_SHAPE_REPRESENTATION('',(#14),#719);
#13=STYLED_ITEM('',(#736),#14);
#14=MANIFOLD_SOLID_BREP('K\X\F6rper1',#428);
#15=CYLINDRICAL_SURFACE('',#452,4.5);
#16=CYLINDRICAL_SURFACE('',#457,4.5);
#17=CYLINDRICAL_SURFACE('',#459,2.5);
#18=CYLINDRICAL_SURFACE('',#466,3.);
#19=CIRCLE('',#445,4.5);
#20=CIRCLE('',#446,2.5);
#21=CIRCLE('',#447,4.5);
#22=CIRCLE('',#453,4.5);
#23=CIRCLE('',#455,4.5);
#24=CIRCLE('',#456,2.5);
#25=CIRCLE('',#462,3.);
#26=CIRCLE('',#463,3.);
#27=CIRCLE('',#465,3.);
#28=CIRCLE('',#467,3.);
#29=CIRCLE('',#468,3.);
#30=CIRCLE('',#469,3.);
#31=FACE_OUTER_BOUND('',#54,.T.);
#32=FACE_OUTER_BOUND('',#55,.T.);
#33=FACE_OUTER_BOUND('',#56,.T.);
#34=FACE_OUTER_BOUND('',#57,.T.);
#35=FACE_OUTER_BOUND('',#58,.T.);
#36=FACE_OUTER_BOUND('',#59,.T.);
#37=FACE_OUTER_BOUND('',#60,.T.);
#38=FACE_OUTER_BOUND('',#61,.T.);
#39=FACE_OUTER_BOUND('',#62,.T.);
#40=FACE_OUTER_BOUND('',#63,.T.);
#41=FACE_OUTER_BOUND('',#64,.T.);
#42=FACE_OUTER_BOUND('',#65,.T.);
#43=FACE_OUTER_BOUND('',#66,.T.);
#44=FACE_OUTER_BOUND('',#67,.T.);
#45=FACE_OUTER_BOUND('',#68,.T.);
#46=FACE_OUTER_BOUND('',#69,.T.);
#47=FACE_OUTER_BOUND('',#70,.T.);
#48=FACE_OUTER_BOUND('',#71,.T.);
#49=FACE_OUTER_BOUND('',#72,.T.);
#50=FACE_OUTER_BOUND('',#73,.T.);
#51=FACE_OUTER_BOUND('',#74,.T.);
#52=FACE_OUTER_BOUND('',#75,.T.);
#53=FACE_OUTER_BOUND('',#76,.T.);
#54=EDGE_LOOP('',(#268,#269,#270,#271));
#55=EDGE_LOOP('',(#272,#273,#274,#275));
#56=EDGE_LOOP('',(#276,#277,#278,#279,#280,#281,#282,#283,#284,#285,#286,
#287,#288));
#57=EDGE_LOOP('',(#289,#290,#291,#292));
#58=EDGE_LOOP('',(#293,#294,#295,#296));
#59=EDGE_LOOP('',(#297,#298,#299,#300));
#60=EDGE_LOOP('',(#301,#302,#303,#304));
#61=EDGE_LOOP('',(#305,#306,#307,#308));
#62=EDGE_LOOP('',(#309,#310,#311,#312,#313,#314,#315,#316,#317,#318,#319,
#320,#321));
#63=EDGE_LOOP('',(#322,#323,#324,#325));
#64=EDGE_LOOP('',(#326,#327,#328,#329));
#65=EDGE_LOOP('',(#330,#331,#332,#333));
#66=EDGE_LOOP('',(#334,#335,#336,#337));
#67=EDGE_LOOP('',(#338,#339,#340,#341,#342));
#68=EDGE_LOOP('',(#343,#344,#345,#346));
#69=EDGE_LOOP('',(#347,#348,#349,#350,#351,#352,#353,#354));
#70=EDGE_LOOP('',(#355,#356,#357,#358));
#71=EDGE_LOOP('',(#359,#360,#361,#362,#363));
#72=EDGE_LOOP('',(#364,#365,#366,#367));
#73=EDGE_LOOP('',(#368,#369,#370,#371));
#74=EDGE_LOOP('',(#372,#373,#374,#375));
#75=EDGE_LOOP('',(#376,#377,#378,#379,#380));
#76=EDGE_LOOP('',(#381,#382,#383,#384,#385));
#77=LINE('',#600,#124);
#78=LINE('',#602,#125);
#79=LINE('',#604,#126);
#80=LINE('',#605,#127);
#81=LINE('',#608,#128);
#82=LINE('',#610,#129);
#83=LINE('',#611,#130);
#84=LINE('',#614,#131);
#85=LINE('',#618,#132);
#86=LINE('',#622,#133);
#87=LINE('',#626,#134);
#88=LINE('',#628,#135);
#89=LINE('',#630,#136);
#90=LINE('',#632,#137);
#91=LINE('',#633,#138);
#92=LINE('',#636,#139);
#93=LINE('',#638,#140);
#94=LINE('',#639,#141);
#95=LINE('',#642,#142);
#96=LINE('',#643,#143);
#97=LINE('',#646,#144);
#98=LINE('',#647,#145);
#99=LINE('',#650,#146);
#100=LINE('',#651,#147);
#101=LINE('',#655,#148);
#102=LINE('',#658,#149);
#103=LINE('',#659,#150);
#104=LINE('',#663,#151);
#105=LINE('',#666,#152);
#106=LINE('',#668,#153);
#107=LINE('',#670,#154);
#108=LINE('',#672,#155);
#109=LINE('',#682,#156);
#110=LINE('',#690,#157);
#111=LINE('',#692,#158);
#112=LINE('',#693,#159);
#113=LINE('',#696,#160);
#114=LINE('',#698,#161);
#115=LINE('',#699,#162);
#116=LINE('',#702,#163);
#117=LINE('',#704,#164);
#118=LINE('',#705,#165);
#119=LINE('',#708,#166);
#120=LINE('',#710,#167);
#121=LINE('',#711,#168);
#122=LINE('',#713,#169);
#123=LINE('',#714,#170);
#124=VECTOR('',#481,10.);
#125=VECTOR('',#482,10.);
#126=VECTOR('',#483,10.);
#127=VECTOR('',#484,10.);
#128=VECTOR('',#487,10.);
#129=VECTOR('',#488,10.);
#130=VECTOR('',#489,10.);
#131=VECTOR('',#492,10.);
#132=VECTOR('',#495,10.);
#133=VECTOR('',#498,10.);
#134=VECTOR('',#501,10.);
#135=VECTOR('',#502,10.);
#136=VECTOR('',#503,10.);
#137=VECTOR('',#504,10.);
#138=VECTOR('',#505,10.);
#139=VECTOR('',#508,10.);
#140=VECTOR('',#509,10.);
#141=VECTOR('',#510,10.);
#142=VECTOR('',#513,10.);
#143=VECTOR('',#514,10.);
#144=VECTOR('',#517,10.);
#145=VECTOR('',#518,10.);
#146=VECTOR('',#521,10.);
#147=VECTOR('',#522,10.);
#148=VECTOR('',#527,10.);
#149=VECTOR('',#530,10.);
#150=VECTOR('',#531,10.);
#151=VECTOR('',#534,10.);
#152=VECTOR('',#537,10.);
#153=VECTOR('',#540,10.);
#154=VECTOR('',#543,10.);
#155=VECTOR('',#546,10.);
#156=VECTOR('',#561,3.);
#157=VECTOR('',#570,10.);
#158=VECTOR('',#571,10.);
#159=VECTOR('',#572,10.);
#160=VECTOR('',#575,10.);
#161=VECTOR('',#576,10.);
#162=VECTOR('',#577,10.);
#163=VECTOR('',#580,10.);
#164=VECTOR('',#581,10.);
#165=VECTOR('',#582,10.);
#166=VECTOR('',#585,10.);
#167=VECTOR('',#586,10.);
#168=VECTOR('',#587,10.);
#169=VECTOR('',#590,10.);
#170=VECTOR('',#591,10.);
#171=VERTEX_POINT('',#598);
#172=VERTEX_POINT('',#599);
#173=VERTEX_POINT('',#601);
#174=VERTEX_POINT('',#603);
#175=VERTEX_POINT('',#607);
#176=VERTEX_POINT('',#609);
#177=VERTEX_POINT('',#613);
#178=VERTEX_POINT('',#615);
#179=VERTEX_POINT('',#617);
#180=VERTEX_POINT('',#619);
#181=VERTEX_POINT('',#621);
#182=VERTEX_POINT('',#623);
#183=VERTEX_POINT('',#625);
#184=VERTEX_POINT('',#627);
#185=VERTEX_POINT('',#629);
#186=VERTEX_POINT('',#631);
#187=VERTEX_POINT('',#635);
#188=VERTEX_POINT('',#637);
#189=VERTEX_POINT('',#641);
#190=VERTEX_POINT('',#645);
#191=VERTEX_POINT('',#649);
#192=VERTEX_POINT('',#653);
#193=VERTEX_POINT('',#657);
#194=VERTEX_POINT('',#660);
#195=VERTEX_POINT('',#662);
#196=VERTEX_POINT('',#664);
#197=VERTEX_POINT('',#675);
#198=VERTEX_POINT('',#681);
#199=VERTEX_POINT('',#683);
#200=VERTEX_POINT('',#685);
#201=VERTEX_POINT('',#689);
#202=VERTEX_POINT('',#691);
#203=VERTEX_POINT('',#695);
#204=VERTEX_POINT('',#697);
#205=VERTEX_POINT('',#701);
#206=VERTEX_POINT('',#703);
#207=VERTEX_POINT('',#707);
#208=VERTEX_POINT('',#709);
#209=EDGE_CURVE('',#171,#172,#77,.T.);
#210=EDGE_CURVE('',#172,#173,#78,.T.);
#211=EDGE_CURVE('',#173,#174,#79,.T.);
#212=EDGE_CURVE('',#174,#171,#80,.T.);
#213=EDGE_CURVE('',#175,#172,#81,.T.);
#214=EDGE_CURVE('',#176,#175,#82,.T.);
#215=EDGE_CURVE('',#176,#173,#83,.T.);
#216=EDGE_CURVE('',#171,#177,#84,.T.);
#217=EDGE_CURVE('',#177,#178,#19,.T.);
#218=EDGE_CURVE('',#178,#179,#85,.T.);
#219=EDGE_CURVE('',#179,#180,#20,.T.);
#220=EDGE_CURVE('',#180,#181,#86,.T.);
#221=EDGE_CURVE('',#181,#182,#21,.T.);
#222=EDGE_CURVE('',#182,#183,#87,.T.);
#223=EDGE_CURVE('',#184,#183,#88,.T.);
#224=EDGE_CURVE('',#185,#184,#89,.T.);
#225=EDGE_CURVE('',#186,#185,#90,.T.);
#226=EDGE_CURVE('',#175,#186,#91,.T.);
#227=EDGE_CURVE('',#183,#187,#92,.T.);
#228=EDGE_CURVE('',#187,#188,#93,.T.);
#229=EDGE_CURVE('',#188,#184,#94,.T.);
#230=EDGE_CURVE('',#189,#188,#95,.T.);
#231=EDGE_CURVE('',#185,#189,#96,.T.);
#232=EDGE_CURVE('',#190,#182,#97,.T.);
#233=EDGE_CURVE('',#190,#187,#98,.T.);
#234=EDGE_CURVE('',#174,#191,#99,.T.);
#235=EDGE_CURVE('',#177,#191,#100,.T.);
#236=EDGE_CURVE('',#192,#191,#22,.T.);
#237=EDGE_CURVE('',#192,#178,#101,.T.);
#238=EDGE_CURVE('',#193,#176,#102,.T.);
#239=EDGE_CURVE('',#189,#193,#103,.T.);
#240=EDGE_CURVE('',#194,#190,#23,.T.);
#241=EDGE_CURVE('',#195,#194,#104,.T.);
#242=EDGE_CURVE('',#195,#196,#24,.T.);
#243=EDGE_CURVE('',#192,#196,#105,.T.);
#244=EDGE_CURVE('',#194,#181,#106,.T.);
#245=EDGE_CURVE('',#195,#180,#107,.T.);
#246=EDGE_CURVE('',#196,#179,#108,.T.);
#247=EDGE_CURVE('',#186,#197,#25,.T.);
#248=EDGE_CURVE('',#197,#193,#26,.T.);
#249=EDGE_CURVE('',#193,#186,#27,.T.);
#250=EDGE_CURVE('',#197,#198,#109,.T.);
#251=EDGE_CURVE('',#199,#198,#28,.T.);
#252=EDGE_CURVE('',#200,#199,#29,.T.);
#253=EDGE_CURVE('',#198,#200,#30,.T.);
#254=EDGE_CURVE('',#199,#201,#110,.T.);
#255=EDGE_CURVE('',#201,#202,#111,.T.);
#256=EDGE_CURVE('',#200,#202,#112,.T.);
#257=EDGE_CURVE('',#203,#200,#113,.T.);
#258=EDGE_CURVE('',#204,#203,#114,.T.);
#259=EDGE_CURVE('',#204,#199,#115,.T.);
#260=EDGE_CURVE('',#205,#204,#116,.T.);
#261=EDGE_CURVE('',#206,#203,#117,.T.);
#262=EDGE_CURVE('',#205,#206,#118,.T.);
#263=EDGE_CURVE('',#207,#205,#119,.T.);
#264=EDGE_CURVE('',#208,#206,#120,.T.);
#265=EDGE_CURVE('',#207,#208,#121,.T.);
#266=EDGE_CURVE('',#201,#207,#122,.T.);
#267=EDGE_CURVE('',#202,#208,#123,.T.);
#268=ORIENTED_EDGE('',*,*,#209,.T.);
#269=ORIENTED_EDGE('',*,*,#210,.T.);
#270=ORIENTED_EDGE('',*,*,#211,.T.);
#271=ORIENTED_EDGE('',*,*,#212,.T.);
#272=ORIENTED_EDGE('',*,*,#210,.F.);
#273=ORIENTED_EDGE('',*,*,#213,.F.);
#274=ORIENTED_EDGE('',*,*,#214,.F.);
#275=ORIENTED_EDGE('',*,*,#215,.T.);
#276=ORIENTED_EDGE('',*,*,#209,.F.);
#277=ORIENTED_EDGE('',*,*,#216,.T.);
#278=ORIENTED_EDGE('',*,*,#217,.T.);
#279=ORIENTED_EDGE('',*,*,#218,.T.);
#280=ORIENTED_EDGE('',*,*,#219,.T.);
#281=ORIENTED_EDGE('',*,*,#220,.T.);
#282=ORIENTED_EDGE('',*,*,#221,.T.);
#283=ORIENTED_EDGE('',*,*,#222,.T.);
#284=ORIENTED_EDGE('',*,*,#223,.F.);
#285=ORIENTED_EDGE('',*,*,#224,.F.);
#286=ORIENTED_EDGE('',*,*,#225,.F.);
#287=ORIENTED_EDGE('',*,*,#226,.F.);
#288=ORIENTED_EDGE('',*,*,#213,.T.);
#289=ORIENTED_EDGE('',*,*,#223,.T.);
#290=ORIENTED_EDGE('',*,*,#227,.T.);
#291=ORIENTED_EDGE('',*,*,#228,.T.);
#292=ORIENTED_EDGE('',*,*,#229,.T.);
#293=ORIENTED_EDGE('',*,*,#229,.F.);
#294=ORIENTED_EDGE('',*,*,#230,.F.);
#295=ORIENTED_EDGE('',*,*,#231,.F.);
#296=ORIENTED_EDGE('',*,*,#224,.T.);
#297=ORIENTED_EDGE('',*,*,#227,.F.);
#298=ORIENTED_EDGE('',*,*,#222,.F.);
#299=ORIENTED_EDGE('',*,*,#232,.F.);
#300=ORIENTED_EDGE('',*,*,#233,.T.);
#301=ORIENTED_EDGE('',*,*,#212,.F.);
#302=ORIENTED_EDGE('',*,*,#234,.T.);
#303=ORIENTED_EDGE('',*,*,#235,.F.);
#304=ORIENTED_EDGE('',*,*,#216,.F.);
#305=ORIENTED_EDGE('',*,*,#235,.T.);
#306=ORIENTED_EDGE('',*,*,#236,.F.);
#307=ORIENTED_EDGE('',*,*,#237,.T.);
#308=ORIENTED_EDGE('',*,*,#217,.F.);
#309=ORIENTED_EDGE('',*,*,#211,.F.);
#310=ORIENTED_EDGE('',*,*,#215,.F.);
#311=ORIENTED_EDGE('',*,*,#238,.F.);
#312=ORIENTED_EDGE('',*,*,#239,.F.);
#313=ORIENTED_EDGE('',*,*,#230,.T.);
#314=ORIENTED_EDGE('',*,*,#228,.F.);
#315=ORIENTED_EDGE('',*,*,#233,.F.);
#316=ORIENTED_EDGE('',*,*,#240,.F.);
#317=ORIENTED_EDGE('',*,*,#241,.F.);
#318=ORIENTED_EDGE('',*,*,#242,.T.);
#319=ORIENTED_EDGE('',*,*,#243,.F.);
#320=ORIENTED_EDGE('',*,*,#236,.T.);
#321=ORIENTED_EDGE('',*,*,#234,.F.);
#322=ORIENTED_EDGE('',*,*,#232,.T.);
#323=ORIENTED_EDGE('',*,*,#221,.F.);
#324=ORIENTED_EDGE('',*,*,#244,.F.);
#325=ORIENTED_EDGE('',*,*,#240,.T.);
#326=ORIENTED_EDGE('',*,*,#241,.T.);
#327=ORIENTED_EDGE('',*,*,#244,.T.);
#328=ORIENTED_EDGE('',*,*,#220,.F.);
#329=ORIENTED_EDGE('',*,*,#245,.F.);
#330=ORIENTED_EDGE('',*,*,#242,.F.);
#331=ORIENTED_EDGE('',*,*,#245,.T.);
#332=ORIENTED_EDGE('',*,*,#219,.F.);
#333=ORIENTED_EDGE('',*,*,#246,.F.);
#334=ORIENTED_EDGE('',*,*,#243,.T.);
#335=ORIENTED_EDGE('',*,*,#246,.T.);
#336=ORIENTED_EDGE('',*,*,#218,.F.);
#337=ORIENTED_EDGE('',*,*,#237,.F.);
#338=ORIENTED_EDGE('',*,*,#247,.T.);
#339=ORIENTED_EDGE('',*,*,#248,.T.);
#340=ORIENTED_EDGE('',*,*,#238,.T.);
#341=ORIENTED_EDGE('',*,*,#214,.T.);
#342=ORIENTED_EDGE('',*,*,#226,.T.);
#343=ORIENTED_EDGE('',*,*,#249,.T.);
#344=ORIENTED_EDGE('',*,*,#225,.T.);
#345=ORIENTED_EDGE('',*,*,#231,.T.);
#346=ORIENTED_EDGE('',*,*,#239,.T.);
#347=ORIENTED_EDGE('',*,*,#247,.F.);
#348=ORIENTED_EDGE('',*,*,#249,.F.);
#349=ORIENTED_EDGE('',*,*,#248,.F.);
#350=ORIENTED_EDGE('',*,*,#250,.T.);
#351=ORIENTED_EDGE('',*,*,#251,.F.);
#352=ORIENTED_EDGE('',*,*,#252,.F.);
#353=ORIENTED_EDGE('',*,*,#253,.F.);
#354=ORIENTED_EDGE('',*,*,#250,.F.);
#355=ORIENTED_EDGE('',*,*,#252,.T.);
#356=ORIENTED_EDGE('',*,*,#254,.T.);
#357=ORIENTED_EDGE('',*,*,#255,.T.);
#358=ORIENTED_EDGE('',*,*,#256,.F.);
#359=ORIENTED_EDGE('',*,*,#251,.T.);
#360=ORIENTED_EDGE('',*,*,#253,.T.);
#361=ORIENTED_EDGE('',*,*,#257,.F.);
#362=ORIENTED_EDGE('',*,*,#258,.F.);
#363=ORIENTED_EDGE('',*,*,#259,.T.);
#364=ORIENTED_EDGE('',*,*,#260,.T.);
#365=ORIENTED_EDGE('',*,*,#258,.T.);
#366=ORIENTED_EDGE('',*,*,#261,.F.);
#367=ORIENTED_EDGE('',*,*,#262,.F.);
#368=ORIENTED_EDGE('',*,*,#263,.T.);
#369=ORIENTED_EDGE('',*,*,#262,.T.);
#370=ORIENTED_EDGE('',*,*,#264,.F.);
#371=ORIENTED_EDGE('',*,*,#265,.F.);
#372=ORIENTED_EDGE('',*,*,#266,.T.);
#373=ORIENTED_EDGE('',*,*,#265,.T.);
#374=ORIENTED_EDGE('',*,*,#267,.F.);
#375=ORIENTED_EDGE('',*,*,#255,.F.);
#376=ORIENTED_EDGE('',*,*,#267,.T.);
#377=ORIENTED_EDGE('',*,*,#264,.T.);
#378=ORIENTED_EDGE('',*,*,#261,.T.);
#379=ORIENTED_EDGE('',*,*,#257,.T.);
#380=ORIENTED_EDGE('',*,*,#256,.T.);
#381=ORIENTED_EDGE('',*,*,#266,.F.);
#382=ORIENTED_EDGE('',*,*,#254,.F.);
#383=ORIENTED_EDGE('',*,*,#259,.F.);
#384=ORIENTED_EDGE('',*,*,#260,.F.);
#385=ORIENTED_EDGE('',*,*,#263,.F.);
#386=PLANE('',#442);
#387=PLANE('',#443);
#388=PLANE('',#444);
#389=PLANE('',#448);
#390=PLANE('',#449);
#391=PLANE('',#450);
#392=PLANE('',#451);
#393=PLANE('',#454);
#394=PLANE('',#458);
#395=PLANE('',#460);
#396=PLANE('',#461);
#397=PLANE('',#464);
#398=PLANE('',#470);
#399=PLANE('',#471);
#400=PLANE('',#472);
#401=PLANE('',#473);
#402=PLANE('',#474);
#403=PLANE('',#475);
#404=PLANE('',#476);
#405=ADVANCED_FACE('',(#31),#386,.T.);
#406=ADVANCED_FACE('',(#32),#387,.T.);
#407=ADVANCED_FACE('',(#33),#388,.T.);
#408=ADVANCED_FACE('',(#34),#389,.T.);
#409=ADVANCED_FACE('',(#35),#390,.T.);
#410=ADVANCED_FACE('',(#36),#391,.T.);
#411=ADVANCED_FACE('',(#37),#392,.T.);
#412=ADVANCED_FACE('',(#38),#15,.T.);
#413=ADVANCED_FACE('',(#39),#393,.T.);
#414=ADVANCED_FACE('',(#40),#16,.T.);
#415=ADVANCED_FACE('',(#41),#394,.T.);
#416=ADVANCED_FACE('',(#42),#17,.F.);
#417=ADVANCED_FACE('',(#43),#395,.T.);
#418=ADVANCED_FACE('',(#44),#396,.F.);
#419=ADVANCED_FACE('',(#45),#397,.F.);
#420=ADVANCED_FACE('',(#46),#18,.T.);
#421=ADVANCED_FACE('',(#47),#398,.T.);
#422=ADVANCED_FACE('',(#48),#399,.T.);
#423=ADVANCED_FACE('',(#49),#400,.T.);
#424=ADVANCED_FACE('',(#50),#401,.T.);
#425=ADVANCED_FACE('',(#51),#402,.T.);
#426=ADVANCED_FACE('',(#52),#403,.T.);
#427=ADVANCED_FACE('',(#53),#404,.F.);
#428=CLOSED_SHELL('',(#405,#406,#407,#408,#409,#410,#411,#412,#413,#414,
#415,#416,#417,#418,#419,#420,#421,#422,#423,#424,#425,#426,#427));
#429=DERIVED_UNIT_ELEMENT(#431,1.);
#430=DERIVED_UNIT_ELEMENT(#722,-3.);
#431=(
MASS_UNIT()
NAMED_UNIT(*)
SI_UNIT(.KILO.,.GRAM.)
);
#432=DERIVED_UNIT((#429,#430));
#433=MEASURE_REPRESENTATION_ITEM('density measure',
POSITIVE_RATIO_MEASURE(7850.),#432);
#434=PROPERTY_DEFINITION_REPRESENTATION(#439,#436);
#435=PROPERTY_DEFINITION_REPRESENTATION(#440,#437);
#436=REPRESENTATION('material name',(#438),#719);
#437=REPRESENTATION('density',(#433),#719);
#438=DESCRIPTIVE_REPRESENTATION_ITEM('Stahl','Stahl');
#439=PROPERTY_DEFINITION('material property','material name',#729);
#440=PROPERTY_DEFINITION('material property','density of part',#729);
#441=AXIS2_PLACEMENT_3D('',#596,#477,#478);
#442=AXIS2_PLACEMENT_3D('',#597,#479,#480);
#443=AXIS2_PLACEMENT_3D('',#606,#485,#486);
#444=AXIS2_PLACEMENT_3D('',#612,#490,#491);
#445=AXIS2_PLACEMENT_3D('',#616,#493,#494);
#446=AXIS2_PLACEMENT_3D('',#620,#496,#497);
#447=AXIS2_PLACEMENT_3D('',#624,#499,#500);
#448=AXIS2_PLACEMENT_3D('',#634,#506,#507);
#449=AXIS2_PLACEMENT_3D('',#640,#511,#512);
#450=AXIS2_PLACEMENT_3D('',#644,#515,#516);
#451=AXIS2_PLACEMENT_3D('',#648,#519,#520);
#452=AXIS2_PLACEMENT_3D('',#652,#523,#524);
#453=AXIS2_PLACEMENT_3D('',#654,#525,#526);
#454=AXIS2_PLACEMENT_3D('',#656,#528,#529);
#455=AXIS2_PLACEMENT_3D('',#661,#532,#533);
#456=AXIS2_PLACEMENT_3D('',#665,#535,#536);
#457=AXIS2_PLACEMENT_3D('',#667,#538,#539);
#458=AXIS2_PLACEMENT_3D('',#669,#541,#542);
#459=AXIS2_PLACEMENT_3D('',#671,#544,#545);
#460=AXIS2_PLACEMENT_3D('',#673,#547,#548);
#461=AXIS2_PLACEMENT_3D('',#674,#549,#550);
#462=AXIS2_PLACEMENT_3D('',#676,#551,#552);
#463=AXIS2_PLACEMENT_3D('',#677,#553,#554);
#464=AXIS2_PLACEMENT_3D('',#678,#555,#556);
#465=AXIS2_PLACEMENT_3D('',#679,#557,#558);
#466=AXIS2_PLACEMENT_3D('',#680,#559,#560);
#467=AXIS2_PLACEMENT_3D('',#684,#562,#563);
#468=AXIS2_PLACEMENT_3D('',#686,#564,#565);
#469=AXIS2_PLACEMENT_3D('',#687,#566,#567);
#470=AXIS2_PLACEMENT_3D('',#688,#568,#569);
#471=AXIS2_PLACEMENT_3D('',#694,#573,#574);
#472=AXIS2_PLACEMENT_3D('',#700,#578,#579);
#473=AXIS2_PLACEMENT_3D('',#706,#583,#584);
#474=AXIS2_PLACEMENT_3D('',#712,#588,#589);
#475=AXIS2_PLACEMENT_3D('',#715,#592,#593);
#476=AXIS2_PLACEMENT_3D('',#716,#594,#595);
#477=DIRECTION('axis',(0.,0.,1.));
#478=DIRECTION('refdir',(1.,0.,0.));
#479=DIRECTION('center_axis',(0.707106781186547,0.707106781186548,0.));
#480=DIRECTION('ref_axis',(0.,0.,-1.));
#481=DIRECTION('',(0.707106781186548,-0.707106781186547,0.));
#482=DIRECTION('',(0.,0.,-1.));
#483=DIRECTION('',(-0.707106781186548,0.707106781186547,0.));
#484=DIRECTION('',(0.,0.,1.));
#485=DIRECTION('center_axis',(1.,0.,0.));
#486=DIRECTION('ref_axis',(0.,0.,-1.));
#487=DIRECTION('',(0.,1.,0.));
#488=DIRECTION('',(0.,0.,1.));
#489=DIRECTION('',(0.,1.,0.));
#490=DIRECTION('center_axis',(0.,0.,1.));
#491=DIRECTION('ref_axis',(1.,0.,0.));
#492=DIRECTION('',(-1.,0.,0.));
#493=DIRECTION('center_axis',(0.,0.,1.));
#494=DIRECTION('ref_axis',(-1.,0.,0.));
#495=DIRECTION('',(-0.329364025879261,-0.944203017606174,0.));
#496=DIRECTION('center_axis',(0.,0.,-1.));
#497=DIRECTION('ref_axis',(1.,0.,0.));
#498=DIRECTION('',(-0.329364025879261,0.944203017606174,0.));
#499=DIRECTION('center_axis',(0.,0.,1.));
#500=DIRECTION('ref_axis',(1.,0.,0.));
#501=DIRECTION('',(-1.,0.,0.));
#502=DIRECTION('',(0.707106781186548,0.707106781186547,0.));
#503=DIRECTION('',(0.,1.,0.));
#504=DIRECTION('',(-1.,0.,0.));
#505=DIRECTION('',(-1.,0.,0.));
#506=DIRECTION('center_axis',(-0.707106781186547,0.707106781186548,0.));
#507=DIRECTION('ref_axis',(0.,0.,1.));
#508=DIRECTION('',(0.,0.,-1.));
#509=DIRECTION('',(-0.707106781186548,-0.707106781186547,0.));
#510=DIRECTION('',(0.,0.,1.));
#511=DIRECTION('center_axis',(-1.,0.,0.));
#512=DIRECTION('ref_axis',(0.,0.,1.));
#513=DIRECTION('',(0.,1.,0.));
#514=DIRECTION('',(0.,0.,-1.));
#515=DIRECTION('center_axis',(0.,1.,0.));
#516=DIRECTION('ref_axis',(-1.,0.,0.));
#517=DIRECTION('',(0.,0.,1.));
#518=DIRECTION('',(-1.,0.,0.));
#519=DIRECTION('center_axis',(0.,1.,0.));
#520=DIRECTION('ref_axis',(-1.,0.,0.));
#521=DIRECTION('',(-1.,0.,0.));
#522=DIRECTION('',(0.,0.,-1.));
#523=DIRECTION('center_axis',(0.,0.,1.));
#524=DIRECTION('ref_axis',(1.,0.,0.));
#525=DIRECTION('center_axis',(0.,0.,-1.));
#526=DIRECTION('ref_axis',(-1.,0.,0.));
#527=DIRECTION('',(0.,0.,1.));
#528=DIRECTION('center_axis',(0.,0.,-1.));
#529=DIRECTION('ref_axis',(-1.,0.,0.));
#530=DIRECTION('',(1.,0.,0.));
#531=DIRECTION('',(1.,0.,0.));
#532=DIRECTION('center_axis',(0.,0.,1.));
#533=DIRECTION('ref_axis',(1.,0.,0.));
#534=DIRECTION('',(-0.329364025879261,0.944203017606174,0.));
#535=DIRECTION('center_axis',(0.,0.,1.));
#536=DIRECTION('ref_axis',(1.,0.,0.));
#537=DIRECTION('',(-0.329364025879261,-0.944203017606174,0.));
#538=DIRECTION('center_axis',(0.,0.,1.));
#539=DIRECTION('ref_axis',(-0.992070127399107,0.125685569268393,0.));
#540=DIRECTION('',(0.,0.,1.));
#541=DIRECTION('center_axis',(0.944203017606174,0.329364025879261,0.));
#542=DIRECTION('ref_axis',(-0.329364025879261,0.944203017606174,0.));
#543=DIRECTION('',(0.,0.,1.));
#544=DIRECTION('center_axis',(0.,0.,1.));
#545=DIRECTION('ref_axis',(-1.83697019872103E-16,-1.,0.));
#546=DIRECTION('',(0.,0.,1.));
#547=DIRECTION('center_axis',(-0.944203017606174,0.329364025879261,0.));
#548=DIRECTION('ref_axis',(-0.329364025879261,-0.944203017606174,0.));
#549=DIRECTION('center_axis',(0.,1.,0.));
#550=DIRECTION('ref_axis',(-1.,0.,0.));
#551=DIRECTION('center_axis',(0.,1.,0.));
#552=DIRECTION('ref_axis',(-1.,0.,0.));
#553=DIRECTION('center_axis',(0.,1.,0.));
#554=DIRECTION('ref_axis',(-1.,0.,0.));
#555=DIRECTION('center_axis',(0.,1.,0.));
#556=DIRECTION('ref_axis',(-1.,0.,0.));
#557=DIRECTION('center_axis',(0.,1.,0.));
#558=DIRECTION('ref_axis',(-1.,0.,0.));
#559=DIRECTION('center_axis',(0.,1.,0.));
#560=DIRECTION('ref_axis',(-1.,0.,0.));
#561=DIRECTION('',(0.,-1.,0.));
#562=DIRECTION('center_axis',(0.,-1.,0.));
#563=DIRECTION('ref_axis',(-1.,0.,0.));
#564=DIRECTION('center_axis',(0.,-1.,0.));
#565=DIRECTION('ref_axis',(-1.,0.,0.));
#566=DIRECTION('center_axis',(0.,-1.,0.));
#567=DIRECTION('ref_axis',(-1.,0.,0.));
#568=DIRECTION('center_axis',(0.,1.,0.));
#569=DIRECTION('ref_axis',(-1.,0.,0.));
#570=DIRECTION('',(-1.,0.,0.));
#571=DIRECTION('',(0.,0.,1.));
#572=DIRECTION('',(-1.,0.,0.));
#573=DIRECTION('center_axis',(0.,1.,0.));
#574=DIRECTION('ref_axis',(-1.,0.,0.));
#575=DIRECTION('',(-1.,0.,0.));
#576=DIRECTION('',(0.,0.,1.));
#577=DIRECTION('',(-1.,0.,0.));
#578=DIRECTION('center_axis',(1.,0.,0.));
#579=DIRECTION('ref_axis',(0.,1.,0.));
#580=DIRECTION('',(0.,1.,0.));
#581=DIRECTION('',(0.,1.,0.));
#582=DIRECTION('',(0.,0.,1.));
#583=DIRECTION('center_axis',(0.,-1.,0.));
#584=DIRECTION('ref_axis',(1.,0.,0.));
#585=DIRECTION('',(1.,0.,0.));
#586=DIRECTION('',(1.,0.,0.));
#587=DIRECTION('',(0.,0.,1.));
#588=DIRECTION('center_axis',(-1.,0.,0.));
#589=DIRECTION('ref_axis',(0.,-1.,0.));
#590=DIRECTION('',(0.,-1.,0.));
#591=DIRECTION('',(0.,-1.,0.));
#592=DIRECTION('center_axis',(0.,0.,1.));
#593=DIRECTION('ref_axis',(1.,0.,0.));
#594=DIRECTION('center_axis',(0.,0.,1.));
#595=DIRECTION('ref_axis',(1.,0.,0.));
#596=CARTESIAN_POINT('',(0.,0.,0.));
#597=CARTESIAN_POINT('Origin',(8.49999979883432,4.99999996647239,2.99999993294477));
#598=CARTESIAN_POINT('',(7.99999979883432,5.49999996647239,6.));
#599=CARTESIAN_POINT('',(8.99999979883432,4.49999996647239,5.99999986588955));
#600=CARTESIAN_POINT('',(6.74999984912574,6.74999991618097,5.99999986588955));
#601=CARTESIAN_POINT('',(8.99999979883432,4.49999996647239,0.));
#602=CARTESIAN_POINT('',(8.99999979883432,4.49999996647239,2.99999993294477));
#603=CARTESIAN_POINT('',(7.99999979883432,5.49999996647239,0.));
#604=CARTESIAN_POINT('',(8.99999979883432,4.49999996647239,-2.77555756156289E-16));
#605=CARTESIAN_POINT('',(7.99999979883432,5.49999996647239,2.99999993294477));
#606=CARTESIAN_POINT('Origin',(8.99999979883432,3.49999996647239,5.99999986588955));
#607=CARTESIAN_POINT('',(8.99999979883432,3.49999996647239,5.99999986588955));
#608=CARTESIAN_POINT('',(8.99999979883432,3.49999996647239,5.99999986588955));
#609=CARTESIAN_POINT('',(8.99999979883432,3.49999996647239,0.));
#610=CARTESIAN_POINT('',(8.99999979883432,3.49999996647239,0.));
#611=CARTESIAN_POINT('',(8.99999979883432,3.49999996647239,0.));
#612=CARTESIAN_POINT('Origin',(0.,3.49999996647239,5.99999986588955));
#613=CARTESIAN_POINT('',(7.85410196624968,5.49999996647239,6.));
#614=CARTESIAN_POINT('',(8.99999979883432,5.49999996647239,6.));
#615=CARTESIAN_POINT('',(7.,12.2416573532463,6.));
#616=CARTESIAN_POINT('Origin',(4.5,8.49999996647239,5.99999986588955));
#617=CARTESIAN_POINT('',(6.3,10.2349351237621,6.));
#618=CARTESIAN_POINT('',(7.,12.2416573532463,6.));
#619=CARTESIAN_POINT('',(2.7,10.2349351237621,6.));
#620=CARTESIAN_POINT('Origin',(4.5,8.49999996647239,6.));
#621=CARTESIAN_POINT('',(2.,12.2416573532463,6.));
#622=CARTESIAN_POINT('',(2.7,10.2349351237621,6.));
#623=CARTESIAN_POINT('',(1.14589803375032,5.49999996647239,6.));
#624=CARTESIAN_POINT('Origin',(4.5,8.49999996647239,6.));
#625=CARTESIAN_POINT('',(1.,5.49999996647239,6.));
#626=CARTESIAN_POINT('',(8.99999979883432,5.49999996647239,6.));
#627=CARTESIAN_POINT('',(0.,4.49999996647239,5.99999986588955));
#628=CARTESIAN_POINT('',(-3.46944695195361E-17,4.49999996647239,5.99999986588955));
#629=CARTESIAN_POINT('',(0.,3.49999996647239,5.99999986588955));
#630=CARTESIAN_POINT('',(0.,3.49999996647239,5.99999986588955));
#631=CARTESIAN_POINT('',(4.49999989941716,3.49999996647239,5.99999986588955));
#632=CARTESIAN_POINT('',(8.99999979883432,3.49999996647239,5.99999986588955));
#633=CARTESIAN_POINT('',(8.99999979883432,3.49999996647239,5.99999986588955));
#634=CARTESIAN_POINT('Origin',(0.5,4.99999996647239,0.));
#635=CARTESIAN_POINT('',(1.,5.49999996647239,0.));
#636=CARTESIAN_POINT('',(1.,5.49999996647239,0.));
#637=CARTESIAN_POINT('',(0.,4.49999996647239,0.));
#638=CARTESIAN_POINT('',(2.24999994970858,6.74999991618097,0.));
#639=CARTESIAN_POINT('',(0.,4.49999996647239,0.));
#640=CARTESIAN_POINT('Origin',(0.,3.49999996647239,0.));
#641=CARTESIAN_POINT('',(0.,3.49999996647239,0.));
#642=CARTESIAN_POINT('',(0.,3.4999999217689,0.));
#643=CARTESIAN_POINT('',(0.,3.49999996647239,5.99999986588955));
#644=CARTESIAN_POINT('Origin',(1.14589803375032,5.49999996647239,0.));
#645=CARTESIAN_POINT('',(1.14589803375032,5.49999996647239,0.));
#646=CARTESIAN_POINT('',(1.14589803375032,5.49999996647239,0.));
#647=CARTESIAN_POINT('',(8.99999979883432,5.49999996647239,0.));
#648=CARTESIAN_POINT('Origin',(8.99999979883432,5.49999996647239,0.));
#649=CARTESIAN_POINT('',(7.85410196624968,5.49999996647239,0.));
#650=CARTESIAN_POINT('',(8.99999979883432,5.49999996647239,0.));
#651=CARTESIAN_POINT('',(7.85410196624968,5.49999996647239,0.));
#652=CARTESIAN_POINT('Origin',(4.5,8.49999996647239,0.));
#653=CARTESIAN_POINT('',(7.,12.2416573532463,0.));
#654=CARTESIAN_POINT('Origin',(4.5,8.49999996647239,0.));
#655=CARTESIAN_POINT('',(7.,12.2416573532463,0.));
#656=CARTESIAN_POINT('Origin',(8.99999979883432,3.49999996647239,0.));
#657=CARTESIAN_POINT('',(4.49999989941716,3.49999996647239,0.));
#658=CARTESIAN_POINT('',(0.,3.49999996647239,0.));
#659=CARTESIAN_POINT('',(0.,3.49999996647239,0.));
#660=CARTESIAN_POINT('',(2.,12.2416573532463,0.));
#661=CARTESIAN_POINT('Origin',(4.5,8.49999996647239,0.));
#662=CARTESIAN_POINT('',(2.7,10.2349351237621,0.));
#663=CARTESIAN_POINT('',(2.7,10.2349351237621,0.));
#664=CARTESIAN_POINT('',(6.3,10.2349351237621,0.));
#665=CARTESIAN_POINT('Origin',(4.5,8.49999996647239,0.));
#666=CARTESIAN_POINT('',(7.,12.2416573532463,0.));
#667=CARTESIAN_POINT('Origin',(4.5,8.49999996647239,0.));
#668=CARTESIAN_POINT('',(2.,12.2416573532463,0.));
#669=CARTESIAN_POINT('Origin',(2.7,10.2349351237621,0.));
#670=CARTESIAN_POINT('',(2.7,10.2349351237621,0.));
#671=CARTESIAN_POINT('Origin',(4.5,8.49999996647239,0.));
#672=CARTESIAN_POINT('',(6.3,10.2349351237621,0.));
#673=CARTESIAN_POINT('Origin',(7.,12.2416573532463,0.));
#674=CARTESIAN_POINT('Origin',(4.49999989941716,3.49999996647239,2.99999993294477));
#675=CARTESIAN_POINT('',(7.49999989941716,3.49999996647239,3.));
#676=CARTESIAN_POINT('Origin',(4.49999989941716,3.49999996647239,3.));
#677=CARTESIAN_POINT('Origin',(4.49999989941716,3.49999996647239,3.));
#678=CARTESIAN_POINT('Origin',(4.49999989941716,3.49999996647239,2.99999993294477));
#679=CARTESIAN_POINT('Origin',(4.49999989941716,3.49999996647239,3.));
#680=CARTESIAN_POINT('Origin',(4.49999989941716,1.49999996647239,3.));
#681=CARTESIAN_POINT('',(7.49999989941716,1.49999996647239,3.));
#682=CARTESIAN_POINT('',(7.49999989941716,1.49999996647239,3.));
#683=CARTESIAN_POINT('',(4.49999989941716,1.49999996647239,0.));
#684=CARTESIAN_POINT('Origin',(4.49999989941716,1.49999996647239,3.));
#685=CARTESIAN_POINT('',(4.49999989941716,1.49999996647239,6.));
#686=CARTESIAN_POINT('Origin',(4.49999989941716,1.49999996647239,3.));
#687=CARTESIAN_POINT('Origin',(4.49999989941716,1.49999996647239,3.));
#688=CARTESIAN_POINT('Origin',(8.99999979883432,1.49999996647239,0.));
#689=CARTESIAN_POINT('',(0.,1.49999996647239,0.));
#690=CARTESIAN_POINT('',(8.99999979883432,1.49999996647239,0.));
#691=CARTESIAN_POINT('',(0.,1.49999996647239,6.));
#692=CARTESIAN_POINT('',(0.,1.49999996647239,0.));
#693=CARTESIAN_POINT('',(8.99999979883432,1.49999996647239,6.));
#694=CARTESIAN_POINT('Origin',(8.99999979883432,1.49999996647239,0.));
#695=CARTESIAN_POINT('',(8.99999979883432,1.49999996647239,6.));
#696=CARTESIAN_POINT('',(8.99999979883432,1.49999996647239,6.));
#697=CARTESIAN_POINT('',(8.99999979883432,1.49999996647239,0.));
#698=CARTESIAN_POINT('',(8.99999979883432,1.49999996647239,0.));
#699=CARTESIAN_POINT('',(8.99999979883432,1.49999996647239,0.));
#700=CARTESIAN_POINT('Origin',(8.99999979883432,0.,0.));
#701=CARTESIAN_POINT('',(8.99999979883432,0.,0.));
#702=CARTESIAN_POINT('',(8.99999979883432,0.,0.));
#703=CARTESIAN_POINT('',(8.99999979883432,0.,6.));
#704=CARTESIAN_POINT('',(8.99999979883432,0.,6.));
#705=CARTESIAN_POINT('',(8.99999979883432,0.,0.));
#706=CARTESIAN_POINT('Origin',(0.,0.,0.));
#707=CARTESIAN_POINT('',(0.,0.,0.));
#708=CARTESIAN_POINT('',(0.,0.,0.));
#709=CARTESIAN_POINT('',(0.,0.,6.));
#710=CARTESIAN_POINT('',(0.,0.,6.));
#711=CARTESIAN_POINT('',(0.,0.,0.));
#712=CARTESIAN_POINT('Origin',(0.,1.49999996647239,0.));
#713=CARTESIAN_POINT('',(0.,1.49999996647239,0.));
#714=CARTESIAN_POINT('',(0.,1.49999996647239,6.));
#715=CARTESIAN_POINT('Origin',(4.49999989941716,0.749999983236194,6.));
#716=CARTESIAN_POINT('Origin',(4.49999989941716,0.749999983236194,0.));
#717=UNCERTAINTY_MEASURE_WITH_UNIT(LENGTH_MEASURE(0.01),#721,
'DISTANCE_ACCURACY_VALUE',
'Maximum model space distance between geometric entities at asserted c
onnectivities');
#718=UNCERTAINTY_MEASURE_WITH_UNIT(LENGTH_MEASURE(0.01),#721,
'DISTANCE_ACCURACY_VALUE',
'Maximum model space distance between geometric entities at asserted c
onnectivities');
#719=(
GEOMETRIC_REPRESENTATION_CONTEXT(3)
GLOBAL_UNCERTAINTY_ASSIGNED_CONTEXT((#717))
GLOBAL_UNIT_ASSIGNED_CONTEXT((#721,#723,#724))
REPRESENTATION_CONTEXT('','3D')
);
#720=(
GEOMETRIC_REPRESENTATION_CONTEXT(3)
GLOBAL_UNCERTAINTY_ASSIGNED_CONTEXT((#718))
GLOBAL_UNIT_ASSIGNED_CONTEXT((#721,#723,#724))
REPRESENTATION_CONTEXT('','3D')
);
#721=(
LENGTH_UNIT()
NAMED_UNIT(*)
SI_UNIT(.MILLI.,.METRE.)
);
#722=(
LENGTH_UNIT()
NAMED_UNIT(*)
SI_UNIT($,.METRE.)
);
#723=(
NAMED_UNIT(*)
PLANE_ANGLE_UNIT()
SI_UNIT($,.RADIAN.)
);
#724=(
NAMED_UNIT(*)
SI_UNIT($,.STERADIAN.)
SOLID_ANGLE_UNIT()
);
#725=SHAPE_DEFINITION_REPRESENTATION(#726,#727);
#726=PRODUCT_DEFINITION_SHAPE('',$,#729);
#727=SHAPE_REPRESENTATION('',(#441),#719);
#728=PRODUCT_DEFINITION_CONTEXT('part definition',#733,'design');
#729=PRODUCT_DEFINITION('cable clip','cable clip v2',#730,#728);
#730=PRODUCT_DEFINITION_FORMATION('',$,#735);
#731=PRODUCT_RELATED_PRODUCT_CATEGORY('cable clip v2','cable clip v2',(#735));
#732=APPLICATION_PROTOCOL_DEFINITION('international standard',
'automotive_design',2009,#733);
#733=APPLICATION_CONTEXT(
'Core Data for Automotive Mechanical Design Process');
#734=PRODUCT_CONTEXT('part definition',#733,'mechanical');
#735=PRODUCT('cable clip','cable clip v2',$,(#734));
#736=PRESENTATION_STYLE_ASSIGNMENT((#737));
#737=SURFACE_STYLE_USAGE(.BOTH.,#738);
#738=SURFACE_SIDE_STYLE('',(#739));
#739=SURFACE_STYLE_FILL_AREA(#740);
#740=FILL_AREA_STYLE('Stahl - satiniert',(#741));
#741=FILL_AREA_STYLE_COLOUR('Stahl - satiniert',#742);
#742=COLOUR_RGB('Stahl - satiniert',0.627450980392157,0.627450980392157,
0.627450980392157);
ENDSEC;
END-ISO-10303-21;
