%TF.GenerationSoftware,KiCad,Pcbnew,(6.0.10)*%
%TF.CreationDate,2025-06-24T19:53:20+02:00*%
%TF.ProjectId,esp_shield,6573705f-7368-4696-956c-642e6b696361,1.0*%
%TF.SameCoordinates,Original*%
%TF.FileFunction,Drillmap*%
%TF.FilePolarity,Positive*%
%FSLAX45Y45*%
G04 Gerber Fmt 4.5, Leading zero omitted, Abs format (unit mm)*
G04 Created by KiCad (PCBNEW (6.0.10)) date 2025-06-24 19:53:20*
%MOMM*%
%LPD*%
G01*
G04 APERTURE LIST*
%ADD10C,0.100000*%
%ADD11C,0.200000*%
%ADD12C,0.040000*%
%ADD13C,0.080000*%
%ADD14C,0.130000*%
G04 APERTURE END LIST*
D10*
X15550000Y-10975000D02*
G75*
G03*
X15550000Y-10975000I-150000J0D01*
G01*
X21050000Y-10225000D02*
G75*
G03*
X21050000Y-10225000I-150000J0D01*
G01*
X20800000Y-8725000D02*
G75*
G03*
X20800000Y-8725000I-150000J0D01*
G01*
X9300000Y-9725000D02*
G75*
G03*
X9300000Y-9725000I-150000J0D01*
G01*
X8300000Y-13000000D02*
X14500000Y-13000000D01*
X14500000Y-7000000D02*
X8300000Y-7000000D01*
X14500000Y-7000000D02*
X24500000Y-7000000D01*
X8300000Y-13000000D02*
X8300000Y-7000000D01*
X24500000Y-13000000D02*
X14500000Y-13000000D01*
X24500000Y-7000000D02*
X24500000Y-13000000D01*
D11*
D12*
X13730000Y-9280000D02*
X13770000Y-9320000D01*
X13770000Y-9280000D02*
X13730000Y-9320000D01*
X14480000Y-9430000D02*
X14520000Y-9470000D01*
X14520000Y-9430000D02*
X14480000Y-9470000D01*
X17080000Y-9130000D02*
X17120000Y-9170000D01*
X17120000Y-9130000D02*
X17080000Y-9170000D01*
X17430000Y-9722000D02*
X17470000Y-9762000D01*
X17470000Y-9722000D02*
X17430000Y-9762000D01*
X17680000Y-9280000D02*
X17720000Y-9320000D01*
X17720000Y-9280000D02*
X17680000Y-9320000D01*
X18580000Y-9830000D02*
X18620000Y-9870000D01*
X18620000Y-9830000D02*
X18580000Y-9870000D01*
X18580000Y-10030000D02*
X18620000Y-10070000D01*
X18620000Y-10030000D02*
X18580000Y-10070000D01*
X18580000Y-10230000D02*
X18620000Y-10270000D01*
X18620000Y-10230000D02*
X18580000Y-10270000D01*
X18580000Y-10430000D02*
X18620000Y-10470000D01*
X18620000Y-10430000D02*
X18580000Y-10470000D01*
X22430000Y-8630000D02*
X22470000Y-8670000D01*
X22470000Y-8630000D02*
X22430000Y-8670000D01*
D13*
X16482000Y-10950000D02*
G75*
G03*
X16482000Y-10950000I-40000J0D01*
G01*
X17498000Y-10950000D02*
G75*
G03*
X17498000Y-10950000I-40000J0D01*
G01*
X21490000Y-10150000D02*
G75*
G03*
X21490000Y-10150000I-40000J0D01*
G01*
X21490000Y-10900000D02*
G75*
G03*
X21490000Y-10900000I-40000J0D01*
G01*
X22506000Y-10150000D02*
G75*
G03*
X22506000Y-10150000I-40000J0D01*
G01*
X22506000Y-10900000D02*
G75*
G03*
X22506000Y-10900000I-40000J0D01*
G01*
D10*
X8913000Y-11200000D02*
X8913000Y-11300000D01*
X8863000Y-11250000D02*
X8963000Y-11250000D01*
X8914000Y-8650000D02*
X8914000Y-8750000D01*
X8864000Y-8700000D02*
X8964000Y-8700000D01*
X8915000Y-11625000D02*
X8915000Y-11725000D01*
X8865000Y-11675000D02*
X8965000Y-11675000D01*
X9167000Y-11200000D02*
X9167000Y-11300000D01*
X9117000Y-11250000D02*
X9217000Y-11250000D01*
X9168000Y-8650000D02*
X9168000Y-8750000D01*
X9118000Y-8700000D02*
X9218000Y-8700000D01*
X9169000Y-11625000D02*
X9169000Y-11725000D01*
X9119000Y-11675000D02*
X9219000Y-11675000D01*
X9421000Y-11200000D02*
X9421000Y-11300000D01*
X9371000Y-11250000D02*
X9471000Y-11250000D01*
X9422000Y-8650000D02*
X9422000Y-8750000D01*
X9372000Y-8700000D02*
X9472000Y-8700000D01*
X9423000Y-11625000D02*
X9423000Y-11725000D01*
X9373000Y-11675000D02*
X9473000Y-11675000D01*
X9675000Y-11200000D02*
X9675000Y-11300000D01*
X9625000Y-11250000D02*
X9725000Y-11250000D01*
X9676000Y-8650000D02*
X9676000Y-8750000D01*
X9626000Y-8700000D02*
X9726000Y-8700000D01*
X9677000Y-11625000D02*
X9677000Y-11725000D01*
X9627000Y-11675000D02*
X9727000Y-11675000D01*
X9929000Y-11200000D02*
X9929000Y-11300000D01*
X9879000Y-11250000D02*
X9979000Y-11250000D01*
X9930000Y-8650000D02*
X9930000Y-8750000D01*
X9880000Y-8700000D02*
X9980000Y-8700000D01*
X9931000Y-11625000D02*
X9931000Y-11725000D01*
X9881000Y-11675000D02*
X9981000Y-11675000D01*
X10183000Y-11200000D02*
X10183000Y-11300000D01*
X10133000Y-11250000D02*
X10233000Y-11250000D01*
X10184000Y-8650000D02*
X10184000Y-8750000D01*
X10134000Y-8700000D02*
X10234000Y-8700000D01*
X10185000Y-11625000D02*
X10185000Y-11725000D01*
X10135000Y-11675000D02*
X10235000Y-11675000D01*
X10437000Y-11200000D02*
X10437000Y-11300000D01*
X10387000Y-11250000D02*
X10487000Y-11250000D01*
X10438000Y-8650000D02*
X10438000Y-8750000D01*
X10388000Y-8700000D02*
X10488000Y-8700000D01*
X10439000Y-11625000D02*
X10439000Y-11725000D01*
X10389000Y-11675000D02*
X10489000Y-11675000D01*
X10650000Y-7646000D02*
X10650000Y-7746000D01*
X10600000Y-7696000D02*
X10700000Y-7696000D01*
X10650000Y-7900000D02*
X10650000Y-8000000D01*
X10600000Y-7950000D02*
X10700000Y-7950000D01*
X10691000Y-11200000D02*
X10691000Y-11300000D01*
X10641000Y-11250000D02*
X10741000Y-11250000D01*
X10692000Y-8650000D02*
X10692000Y-8750000D01*
X10642000Y-8700000D02*
X10742000Y-8700000D01*
X10693000Y-11625000D02*
X10693000Y-11725000D01*
X10643000Y-11675000D02*
X10743000Y-11675000D01*
X10904000Y-7646000D02*
X10904000Y-7746000D01*
X10854000Y-7696000D02*
X10954000Y-7696000D01*
X10904000Y-7900000D02*
X10904000Y-8000000D01*
X10854000Y-7950000D02*
X10954000Y-7950000D01*
X10945000Y-11200000D02*
X10945000Y-11300000D01*
X10895000Y-11250000D02*
X10995000Y-11250000D01*
X10946000Y-8650000D02*
X10946000Y-8750000D01*
X10896000Y-8700000D02*
X10996000Y-8700000D01*
X10947000Y-11625000D02*
X10947000Y-11725000D01*
X10897000Y-11675000D02*
X10997000Y-11675000D01*
X11158000Y-7646000D02*
X11158000Y-7746000D01*
X11108000Y-7696000D02*
X11208000Y-7696000D01*
X11158000Y-7900000D02*
X11158000Y-8000000D01*
X11108000Y-7950000D02*
X11208000Y-7950000D01*
X11199000Y-11200000D02*
X11199000Y-11300000D01*
X11149000Y-11250000D02*
X11249000Y-11250000D01*
X11200000Y-8650000D02*
X11200000Y-8750000D01*
X11150000Y-8700000D02*
X11250000Y-8700000D01*
X11201000Y-11625000D02*
X11201000Y-11725000D01*
X11151000Y-11675000D02*
X11251000Y-11675000D01*
X11453000Y-11200000D02*
X11453000Y-11300000D01*
X11403000Y-11250000D02*
X11503000Y-11250000D01*
X11454000Y-8650000D02*
X11454000Y-8750000D01*
X11404000Y-8700000D02*
X11504000Y-8700000D01*
X11455000Y-11625000D02*
X11455000Y-11725000D01*
X11405000Y-11675000D02*
X11505000Y-11675000D01*
X11707000Y-11200000D02*
X11707000Y-11300000D01*
X11657000Y-11250000D02*
X11757000Y-11250000D01*
X11708000Y-8650000D02*
X11708000Y-8750000D01*
X11658000Y-8700000D02*
X11758000Y-8700000D01*
X11709000Y-11625000D02*
X11709000Y-11725000D01*
X11659000Y-11675000D02*
X11759000Y-11675000D01*
X11961000Y-11200000D02*
X11961000Y-11300000D01*
X11911000Y-11250000D02*
X12011000Y-11250000D01*
X11962000Y-8650000D02*
X11962000Y-8750000D01*
X11912000Y-8700000D02*
X12012000Y-8700000D01*
X11963000Y-11625000D02*
X11963000Y-11725000D01*
X11913000Y-11675000D02*
X12013000Y-11675000D01*
X12215000Y-11200000D02*
X12215000Y-11300000D01*
X12165000Y-11250000D02*
X12265000Y-11250000D01*
X12216000Y-8650000D02*
X12216000Y-8750000D01*
X12166000Y-8700000D02*
X12266000Y-8700000D01*
X12217000Y-11625000D02*
X12217000Y-11725000D01*
X12167000Y-11675000D02*
X12267000Y-11675000D01*
X12469000Y-11200000D02*
X12469000Y-11300000D01*
X12419000Y-11250000D02*
X12519000Y-11250000D01*
X12470000Y-8650000D02*
X12470000Y-8750000D01*
X12420000Y-8700000D02*
X12520000Y-8700000D01*
X12471000Y-11625000D02*
X12471000Y-11725000D01*
X12421000Y-11675000D02*
X12521000Y-11675000D01*
X12723000Y-11200000D02*
X12723000Y-11300000D01*
X12673000Y-11250000D02*
X12773000Y-11250000D01*
X12724000Y-8650000D02*
X12724000Y-8750000D01*
X12674000Y-8700000D02*
X12774000Y-8700000D01*
X12725000Y-11625000D02*
X12725000Y-11725000D01*
X12675000Y-11675000D02*
X12775000Y-11675000D01*
X12977000Y-11200000D02*
X12977000Y-11300000D01*
X12927000Y-11250000D02*
X13027000Y-11250000D01*
X12978000Y-8650000D02*
X12978000Y-8750000D01*
X12928000Y-8700000D02*
X13028000Y-8700000D01*
X12979000Y-11625000D02*
X12979000Y-11725000D01*
X12929000Y-11675000D02*
X13029000Y-11675000D01*
X13231000Y-11200000D02*
X13231000Y-11300000D01*
X13181000Y-11250000D02*
X13281000Y-11250000D01*
X13232000Y-8650000D02*
X13232000Y-8750000D01*
X13182000Y-8700000D02*
X13282000Y-8700000D01*
X13233000Y-11625000D02*
X13233000Y-11725000D01*
X13183000Y-11675000D02*
X13283000Y-11675000D01*
X13485000Y-11200000D02*
X13485000Y-11300000D01*
X13435000Y-11250000D02*
X13535000Y-11250000D01*
X13486000Y-8650000D02*
X13486000Y-8750000D01*
X13436000Y-8700000D02*
X13536000Y-8700000D01*
X13487000Y-11625000D02*
X13487000Y-11725000D01*
X13437000Y-11675000D02*
X13537000Y-11675000D01*
X13739000Y-11200000D02*
X13739000Y-11300000D01*
X13689000Y-11250000D02*
X13789000Y-11250000D01*
X13740000Y-8650000D02*
X13740000Y-8750000D01*
X13690000Y-8700000D02*
X13790000Y-8700000D01*
X13993000Y-11200000D02*
X13993000Y-11300000D01*
X13943000Y-11250000D02*
X14043000Y-11250000D01*
X13994000Y-8650000D02*
X13994000Y-8750000D01*
X13944000Y-8700000D02*
X14044000Y-8700000D01*
X14247000Y-11200000D02*
X14247000Y-11300000D01*
X14197000Y-11250000D02*
X14297000Y-11250000D01*
X14248000Y-8650000D02*
X14248000Y-8750000D01*
X14198000Y-8700000D02*
X14298000Y-8700000D01*
D14*
X9095962Y-7795962D02*
X9095962Y-7704038D01*
X9004038Y-7704038D01*
X9004038Y-7795962D01*
X9095962Y-7795962D01*
X9595962Y-7795962D02*
X9595962Y-7704038D01*
X9504038Y-7704038D01*
X9504038Y-7795962D01*
X9595962Y-7795962D01*
X12216062Y-7815462D02*
X12216062Y-7723538D01*
X12124138Y-7723538D01*
X12124138Y-7815462D01*
X12216062Y-7815462D01*
X12716062Y-7815462D02*
X12716062Y-7723538D01*
X12624138Y-7723538D01*
X12624138Y-7815462D01*
X12716062Y-7815462D01*
X13216062Y-7815462D02*
X13216062Y-7723538D01*
X13124138Y-7723538D01*
X13124138Y-7815462D01*
X13216062Y-7815462D01*
X13716062Y-7815462D02*
X13716062Y-7723538D01*
X13624138Y-7723538D01*
X13624138Y-7815462D01*
X13716062Y-7815462D01*
X14216062Y-7815462D02*
X14216062Y-7723538D01*
X14124138Y-7723538D01*
X14124138Y-7815462D01*
X14216062Y-7815462D01*
X14916062Y-7832562D02*
X14916062Y-7740638D01*
X14824138Y-7740638D01*
X14824138Y-7832562D01*
X14916062Y-7832562D01*
X15416062Y-7832562D02*
X15416062Y-7740638D01*
X15324138Y-7740638D01*
X15324138Y-7832562D01*
X15416062Y-7832562D01*
X15668262Y-12188662D02*
X15668262Y-12096738D01*
X15576338Y-12096738D01*
X15576338Y-12188662D01*
X15668262Y-12188662D01*
X15916062Y-7832562D02*
X15916062Y-7740638D01*
X15824138Y-7740638D01*
X15824138Y-7832562D01*
X15916062Y-7832562D01*
X16176262Y-12188662D02*
X16176262Y-12096738D01*
X16084338Y-12096738D01*
X16084338Y-12188662D01*
X16176262Y-12188662D01*
X16416062Y-7832562D02*
X16416062Y-7740638D01*
X16324138Y-7740638D01*
X16324138Y-7832562D01*
X16416062Y-7832562D01*
X16684262Y-12188662D02*
X16684262Y-12096738D01*
X16592338Y-12096738D01*
X16592338Y-12188662D01*
X16684262Y-12188662D01*
X16916062Y-7832562D02*
X16916062Y-7740638D01*
X16824138Y-7740638D01*
X16824138Y-7832562D01*
X16916062Y-7832562D01*
X17437462Y-12195962D02*
X17437462Y-12104038D01*
X17345538Y-12104038D01*
X17345538Y-12195962D01*
X17437462Y-12195962D01*
X17650062Y-7834962D02*
X17650062Y-7743038D01*
X17558138Y-7743038D01*
X17558138Y-7834962D01*
X17650062Y-7834962D01*
X17945462Y-12195962D02*
X17945462Y-12104038D01*
X17853538Y-12104038D01*
X17853538Y-12195962D01*
X17945462Y-12195962D01*
X18158062Y-7834962D02*
X18158062Y-7743038D01*
X18066138Y-7743038D01*
X18066138Y-7834962D01*
X18158062Y-7834962D01*
X18453462Y-12195962D02*
X18453462Y-12104038D01*
X18361538Y-12104038D01*
X18361538Y-12195962D01*
X18453462Y-12195962D01*
X18666062Y-7834962D02*
X18666062Y-7743038D01*
X18574138Y-7743038D01*
X18574138Y-7834962D01*
X18666062Y-7834962D01*
X19245962Y-12195962D02*
X19245962Y-12104038D01*
X19154038Y-12104038D01*
X19154038Y-12195962D01*
X19245962Y-12195962D01*
X19400062Y-7834962D02*
X19400062Y-7743038D01*
X19308138Y-7743038D01*
X19308138Y-7834962D01*
X19400062Y-7834962D01*
X19745962Y-12195962D02*
X19745962Y-12104038D01*
X19654038Y-12104038D01*
X19654038Y-12195962D01*
X19745962Y-12195962D01*
X19908062Y-7834962D02*
X19908062Y-7743038D01*
X19816138Y-7743038D01*
X19816138Y-7834962D01*
X19908062Y-7834962D01*
X20245962Y-12195962D02*
X20245962Y-12104038D01*
X20154038Y-12104038D01*
X20154038Y-12195962D01*
X20245962Y-12195962D01*
X20416062Y-7834962D02*
X20416062Y-7743038D01*
X20324138Y-7743038D01*
X20324138Y-7834962D01*
X20416062Y-7834962D01*
X20745962Y-12195962D02*
X20745962Y-12104038D01*
X20654038Y-12104038D01*
X20654038Y-12195962D01*
X20745962Y-12195962D01*
X21150062Y-7834962D02*
X21150062Y-7743038D01*
X21058138Y-7743038D01*
X21058138Y-7834962D01*
X21150062Y-7834962D01*
X21245962Y-12195962D02*
X21245962Y-12104038D01*
X21154038Y-12104038D01*
X21154038Y-12195962D01*
X21245962Y-12195962D01*
X21658062Y-7834962D02*
X21658062Y-7743038D01*
X21566138Y-7743038D01*
X21566138Y-7834962D01*
X21658062Y-7834962D01*
X21745962Y-12195962D02*
X21745962Y-12104038D01*
X21654038Y-12104038D01*
X21654038Y-12195962D01*
X21745962Y-12195962D01*
X22166062Y-7834962D02*
X22166062Y-7743038D01*
X22074138Y-7743038D01*
X22074138Y-7834962D01*
X22166062Y-7834962D01*
X22545962Y-12195962D02*
X22545962Y-12104038D01*
X22454038Y-12104038D01*
X22454038Y-12195962D01*
X22545962Y-12195962D01*
X22900062Y-7834962D02*
X22900062Y-7743038D01*
X22808138Y-7743038D01*
X22808138Y-7834962D01*
X22900062Y-7834962D01*
X23045962Y-12195962D02*
X23045962Y-12104038D01*
X22954038Y-12104038D01*
X22954038Y-12195962D01*
X23045962Y-12195962D01*
X23408062Y-7834962D02*
X23408062Y-7743038D01*
X23316138Y-7743038D01*
X23316138Y-7834962D01*
X23408062Y-7834962D01*
X23545962Y-12195962D02*
X23545962Y-12104038D01*
X23454038Y-12104038D01*
X23454038Y-12195962D01*
X23545962Y-12195962D01*
X23727662Y-8880112D02*
X23727662Y-8788188D01*
X23635738Y-8788188D01*
X23635738Y-8880112D01*
X23727662Y-8880112D01*
X23727662Y-9380112D02*
X23727662Y-9288188D01*
X23635738Y-9288188D01*
X23635738Y-9380112D01*
X23727662Y-9380112D01*
X23727662Y-10048262D02*
X23727662Y-9956338D01*
X23635738Y-9956338D01*
X23635738Y-10048262D01*
X23727662Y-10048262D01*
X23727662Y-10556262D02*
X23727662Y-10464338D01*
X23635738Y-10464338D01*
X23635738Y-10556262D01*
X23727662Y-10556262D01*
X23727662Y-11064262D02*
X23727662Y-10972338D01*
X23635738Y-10972338D01*
X23635738Y-11064262D01*
X23727662Y-11064262D01*
X23916062Y-7834962D02*
X23916062Y-7743038D01*
X23824138Y-7743038D01*
X23824138Y-7834962D01*
X23916062Y-7834962D01*
X24045962Y-12195962D02*
X24045962Y-12104038D01*
X23954038Y-12104038D01*
X23954038Y-12195962D01*
X24045962Y-12195962D01*
D11*
X8552619Y-13315476D02*
X8552619Y-13115476D01*
X8600238Y-13115476D01*
X8628810Y-13125000D01*
X8647857Y-13144048D01*
X8657381Y-13163095D01*
X8666905Y-13201190D01*
X8666905Y-13229762D01*
X8657381Y-13267857D01*
X8647857Y-13286905D01*
X8628810Y-13305952D01*
X8600238Y-13315476D01*
X8552619Y-13315476D01*
X8752619Y-13315476D02*
X8752619Y-13182143D01*
X8752619Y-13220238D02*
X8762143Y-13201190D01*
X8771667Y-13191667D01*
X8790714Y-13182143D01*
X8809762Y-13182143D01*
X8876429Y-13315476D02*
X8876429Y-13182143D01*
X8876429Y-13115476D02*
X8866905Y-13125000D01*
X8876429Y-13134524D01*
X8885952Y-13125000D01*
X8876429Y-13115476D01*
X8876429Y-13134524D01*
X9000238Y-13315476D02*
X8981190Y-13305952D01*
X8971667Y-13286905D01*
X8971667Y-13115476D01*
X9105000Y-13315476D02*
X9085952Y-13305952D01*
X9076429Y-13286905D01*
X9076429Y-13115476D01*
X9333571Y-13315476D02*
X9333571Y-13115476D01*
X9400238Y-13258333D01*
X9466905Y-13115476D01*
X9466905Y-13315476D01*
X9647857Y-13315476D02*
X9647857Y-13210714D01*
X9638333Y-13191667D01*
X9619286Y-13182143D01*
X9581190Y-13182143D01*
X9562143Y-13191667D01*
X9647857Y-13305952D02*
X9628810Y-13315476D01*
X9581190Y-13315476D01*
X9562143Y-13305952D01*
X9552619Y-13286905D01*
X9552619Y-13267857D01*
X9562143Y-13248809D01*
X9581190Y-13239286D01*
X9628810Y-13239286D01*
X9647857Y-13229762D01*
X9743095Y-13182143D02*
X9743095Y-13382143D01*
X9743095Y-13191667D02*
X9762143Y-13182143D01*
X9800238Y-13182143D01*
X9819286Y-13191667D01*
X9828810Y-13201190D01*
X9838333Y-13220238D01*
X9838333Y-13277381D01*
X9828810Y-13296428D01*
X9819286Y-13305952D01*
X9800238Y-13315476D01*
X9762143Y-13315476D01*
X9743095Y-13305952D01*
X9924048Y-13296428D02*
X9933571Y-13305952D01*
X9924048Y-13315476D01*
X9914524Y-13305952D01*
X9924048Y-13296428D01*
X9924048Y-13315476D01*
X9924048Y-13191667D02*
X9933571Y-13201190D01*
X9924048Y-13210714D01*
X9914524Y-13201190D01*
X9924048Y-13191667D01*
X9924048Y-13210714D01*
D12*
X8255000Y-13625000D02*
X8295000Y-13665000D01*
X8295000Y-13625000D02*
X8255000Y-13665000D01*
D11*
X8590714Y-13535476D02*
X8609762Y-13535476D01*
X8628810Y-13545000D01*
X8638333Y-13554524D01*
X8647857Y-13573571D01*
X8657381Y-13611667D01*
X8657381Y-13659286D01*
X8647857Y-13697381D01*
X8638333Y-13716428D01*
X8628810Y-13725952D01*
X8609762Y-13735476D01*
X8590714Y-13735476D01*
X8571667Y-13725952D01*
X8562143Y-13716428D01*
X8552619Y-13697381D01*
X8543095Y-13659286D01*
X8543095Y-13611667D01*
X8552619Y-13573571D01*
X8562143Y-13554524D01*
X8571667Y-13545000D01*
X8590714Y-13535476D01*
X8743095Y-13716428D02*
X8752619Y-13725952D01*
X8743095Y-13735476D01*
X8733571Y-13725952D01*
X8743095Y-13716428D01*
X8743095Y-13735476D01*
X8924048Y-13602143D02*
X8924048Y-13735476D01*
X8876429Y-13525952D02*
X8828810Y-13668809D01*
X8952619Y-13668809D01*
X9066905Y-13535476D02*
X9085952Y-13535476D01*
X9105000Y-13545000D01*
X9114524Y-13554524D01*
X9124048Y-13573571D01*
X9133571Y-13611667D01*
X9133571Y-13659286D01*
X9124048Y-13697381D01*
X9114524Y-13716428D01*
X9105000Y-13725952D01*
X9085952Y-13735476D01*
X9066905Y-13735476D01*
X9047857Y-13725952D01*
X9038333Y-13716428D01*
X9028810Y-13697381D01*
X9019286Y-13659286D01*
X9019286Y-13611667D01*
X9028810Y-13573571D01*
X9038333Y-13554524D01*
X9047857Y-13545000D01*
X9066905Y-13535476D01*
X9257381Y-13535476D02*
X9276429Y-13535476D01*
X9295476Y-13545000D01*
X9305000Y-13554524D01*
X9314524Y-13573571D01*
X9324048Y-13611667D01*
X9324048Y-13659286D01*
X9314524Y-13697381D01*
X9305000Y-13716428D01*
X9295476Y-13725952D01*
X9276429Y-13735476D01*
X9257381Y-13735476D01*
X9238333Y-13725952D01*
X9228810Y-13716428D01*
X9219286Y-13697381D01*
X9209762Y-13659286D01*
X9209762Y-13611667D01*
X9219286Y-13573571D01*
X9228810Y-13554524D01*
X9238333Y-13545000D01*
X9257381Y-13535476D01*
X9409762Y-13735476D02*
X9409762Y-13602143D01*
X9409762Y-13621190D02*
X9419286Y-13611667D01*
X9438333Y-13602143D01*
X9466905Y-13602143D01*
X9485952Y-13611667D01*
X9495476Y-13630714D01*
X9495476Y-13735476D01*
X9495476Y-13630714D02*
X9505000Y-13611667D01*
X9524048Y-13602143D01*
X9552619Y-13602143D01*
X9571667Y-13611667D01*
X9581190Y-13630714D01*
X9581190Y-13735476D01*
X9676429Y-13735476D02*
X9676429Y-13602143D01*
X9676429Y-13621190D02*
X9685952Y-13611667D01*
X9705000Y-13602143D01*
X9733571Y-13602143D01*
X9752619Y-13611667D01*
X9762143Y-13630714D01*
X9762143Y-13735476D01*
X9762143Y-13630714D02*
X9771667Y-13611667D01*
X9790714Y-13602143D01*
X9819286Y-13602143D01*
X9838333Y-13611667D01*
X9847857Y-13630714D01*
X9847857Y-13735476D01*
X10238333Y-13525952D02*
X10066905Y-13783095D01*
X10495476Y-13535476D02*
X10514524Y-13535476D01*
X10533571Y-13545000D01*
X10543095Y-13554524D01*
X10552619Y-13573571D01*
X10562143Y-13611667D01*
X10562143Y-13659286D01*
X10552619Y-13697381D01*
X10543095Y-13716428D01*
X10533571Y-13725952D01*
X10514524Y-13735476D01*
X10495476Y-13735476D01*
X10476429Y-13725952D01*
X10466905Y-13716428D01*
X10457381Y-13697381D01*
X10447857Y-13659286D01*
X10447857Y-13611667D01*
X10457381Y-13573571D01*
X10466905Y-13554524D01*
X10476429Y-13545000D01*
X10495476Y-13535476D01*
X10647857Y-13716428D02*
X10657381Y-13725952D01*
X10647857Y-13735476D01*
X10638333Y-13725952D01*
X10647857Y-13716428D01*
X10647857Y-13735476D01*
X10781190Y-13535476D02*
X10800238Y-13535476D01*
X10819286Y-13545000D01*
X10828810Y-13554524D01*
X10838333Y-13573571D01*
X10847857Y-13611667D01*
X10847857Y-13659286D01*
X10838333Y-13697381D01*
X10828810Y-13716428D01*
X10819286Y-13725952D01*
X10800238Y-13735476D01*
X10781190Y-13735476D01*
X10762143Y-13725952D01*
X10752619Y-13716428D01*
X10743095Y-13697381D01*
X10733571Y-13659286D01*
X10733571Y-13611667D01*
X10743095Y-13573571D01*
X10752619Y-13554524D01*
X10762143Y-13545000D01*
X10781190Y-13535476D01*
X11038333Y-13735476D02*
X10924048Y-13735476D01*
X10981190Y-13735476D02*
X10981190Y-13535476D01*
X10962143Y-13564048D01*
X10943095Y-13583095D01*
X10924048Y-13592619D01*
X11219286Y-13535476D02*
X11124048Y-13535476D01*
X11114524Y-13630714D01*
X11124048Y-13621190D01*
X11143095Y-13611667D01*
X11190714Y-13611667D01*
X11209762Y-13621190D01*
X11219286Y-13630714D01*
X11228809Y-13649762D01*
X11228809Y-13697381D01*
X11219286Y-13716428D01*
X11209762Y-13725952D01*
X11190714Y-13735476D01*
X11143095Y-13735476D01*
X11124048Y-13725952D01*
X11114524Y-13716428D01*
X11295476Y-13535476D02*
X11428809Y-13535476D01*
X11343095Y-13735476D01*
X11495476Y-13535476D02*
X11495476Y-13573571D01*
X11571667Y-13535476D02*
X11571667Y-13573571D01*
X11866905Y-13811667D02*
X11857381Y-13802143D01*
X11838333Y-13773571D01*
X11828809Y-13754524D01*
X11819286Y-13725952D01*
X11809762Y-13678333D01*
X11809762Y-13640238D01*
X11819286Y-13592619D01*
X11828809Y-13564048D01*
X11838333Y-13545000D01*
X11857381Y-13516428D01*
X11866905Y-13506905D01*
X12047857Y-13735476D02*
X11933571Y-13735476D01*
X11990714Y-13735476D02*
X11990714Y-13535476D01*
X11971667Y-13564048D01*
X11952619Y-13583095D01*
X11933571Y-13592619D01*
X12171667Y-13535476D02*
X12190714Y-13535476D01*
X12209762Y-13545000D01*
X12219286Y-13554524D01*
X12228809Y-13573571D01*
X12238333Y-13611667D01*
X12238333Y-13659286D01*
X12228809Y-13697381D01*
X12219286Y-13716428D01*
X12209762Y-13725952D01*
X12190714Y-13735476D01*
X12171667Y-13735476D01*
X12152619Y-13725952D01*
X12143095Y-13716428D01*
X12133571Y-13697381D01*
X12124048Y-13659286D01*
X12124048Y-13611667D01*
X12133571Y-13573571D01*
X12143095Y-13554524D01*
X12152619Y-13545000D01*
X12171667Y-13535476D01*
X12476428Y-13735476D02*
X12476428Y-13535476D01*
X12562143Y-13735476D02*
X12562143Y-13630714D01*
X12552619Y-13611667D01*
X12533571Y-13602143D01*
X12505000Y-13602143D01*
X12485952Y-13611667D01*
X12476428Y-13621190D01*
X12685952Y-13735476D02*
X12666905Y-13725952D01*
X12657381Y-13716428D01*
X12647857Y-13697381D01*
X12647857Y-13640238D01*
X12657381Y-13621190D01*
X12666905Y-13611667D01*
X12685952Y-13602143D01*
X12714524Y-13602143D01*
X12733571Y-13611667D01*
X12743095Y-13621190D01*
X12752619Y-13640238D01*
X12752619Y-13697381D01*
X12743095Y-13716428D01*
X12733571Y-13725952D01*
X12714524Y-13735476D01*
X12685952Y-13735476D01*
X12866905Y-13735476D02*
X12847857Y-13725952D01*
X12838333Y-13706905D01*
X12838333Y-13535476D01*
X13019286Y-13725952D02*
X13000238Y-13735476D01*
X12962143Y-13735476D01*
X12943095Y-13725952D01*
X12933571Y-13706905D01*
X12933571Y-13630714D01*
X12943095Y-13611667D01*
X12962143Y-13602143D01*
X13000238Y-13602143D01*
X13019286Y-13611667D01*
X13028809Y-13630714D01*
X13028809Y-13649762D01*
X12933571Y-13668809D01*
X13105000Y-13725952D02*
X13124048Y-13735476D01*
X13162143Y-13735476D01*
X13181190Y-13725952D01*
X13190714Y-13706905D01*
X13190714Y-13697381D01*
X13181190Y-13678333D01*
X13162143Y-13668809D01*
X13133571Y-13668809D01*
X13114524Y-13659286D01*
X13105000Y-13640238D01*
X13105000Y-13630714D01*
X13114524Y-13611667D01*
X13133571Y-13602143D01*
X13162143Y-13602143D01*
X13181190Y-13611667D01*
X13257381Y-13811667D02*
X13266905Y-13802143D01*
X13285952Y-13773571D01*
X13295476Y-13754524D01*
X13305000Y-13725952D01*
X13314524Y-13678333D01*
X13314524Y-13640238D01*
X13305000Y-13592619D01*
X13295476Y-13564048D01*
X13285952Y-13545000D01*
X13266905Y-13516428D01*
X13257381Y-13506905D01*
D13*
X8295000Y-13909000D02*
G75*
G03*
X8295000Y-13909000I-40000J0D01*
G01*
D11*
X8590714Y-13799476D02*
X8609762Y-13799476D01*
X8628810Y-13809000D01*
X8638333Y-13818524D01*
X8647857Y-13837571D01*
X8657381Y-13875667D01*
X8657381Y-13923286D01*
X8647857Y-13961381D01*
X8638333Y-13980428D01*
X8628810Y-13989952D01*
X8609762Y-13999476D01*
X8590714Y-13999476D01*
X8571667Y-13989952D01*
X8562143Y-13980428D01*
X8552619Y-13961381D01*
X8543095Y-13923286D01*
X8543095Y-13875667D01*
X8552619Y-13837571D01*
X8562143Y-13818524D01*
X8571667Y-13809000D01*
X8590714Y-13799476D01*
X8743095Y-13980428D02*
X8752619Y-13989952D01*
X8743095Y-13999476D01*
X8733571Y-13989952D01*
X8743095Y-13980428D01*
X8743095Y-13999476D01*
X8866905Y-13885190D02*
X8847857Y-13875667D01*
X8838333Y-13866143D01*
X8828810Y-13847095D01*
X8828810Y-13837571D01*
X8838333Y-13818524D01*
X8847857Y-13809000D01*
X8866905Y-13799476D01*
X8905000Y-13799476D01*
X8924048Y-13809000D01*
X8933571Y-13818524D01*
X8943095Y-13837571D01*
X8943095Y-13847095D01*
X8933571Y-13866143D01*
X8924048Y-13875667D01*
X8905000Y-13885190D01*
X8866905Y-13885190D01*
X8847857Y-13894714D01*
X8838333Y-13904238D01*
X8828810Y-13923286D01*
X8828810Y-13961381D01*
X8838333Y-13980428D01*
X8847857Y-13989952D01*
X8866905Y-13999476D01*
X8905000Y-13999476D01*
X8924048Y-13989952D01*
X8933571Y-13980428D01*
X8943095Y-13961381D01*
X8943095Y-13923286D01*
X8933571Y-13904238D01*
X8924048Y-13894714D01*
X8905000Y-13885190D01*
X9066905Y-13799476D02*
X9085952Y-13799476D01*
X9105000Y-13809000D01*
X9114524Y-13818524D01*
X9124048Y-13837571D01*
X9133571Y-13875667D01*
X9133571Y-13923286D01*
X9124048Y-13961381D01*
X9114524Y-13980428D01*
X9105000Y-13989952D01*
X9085952Y-13999476D01*
X9066905Y-13999476D01*
X9047857Y-13989952D01*
X9038333Y-13980428D01*
X9028810Y-13961381D01*
X9019286Y-13923286D01*
X9019286Y-13875667D01*
X9028810Y-13837571D01*
X9038333Y-13818524D01*
X9047857Y-13809000D01*
X9066905Y-13799476D01*
X9257381Y-13799476D02*
X9276429Y-13799476D01*
X9295476Y-13809000D01*
X9305000Y-13818524D01*
X9314524Y-13837571D01*
X9324048Y-13875667D01*
X9324048Y-13923286D01*
X9314524Y-13961381D01*
X9305000Y-13980428D01*
X9295476Y-13989952D01*
X9276429Y-13999476D01*
X9257381Y-13999476D01*
X9238333Y-13989952D01*
X9228810Y-13980428D01*
X9219286Y-13961381D01*
X9209762Y-13923286D01*
X9209762Y-13875667D01*
X9219286Y-13837571D01*
X9228810Y-13818524D01*
X9238333Y-13809000D01*
X9257381Y-13799476D01*
X9409762Y-13999476D02*
X9409762Y-13866143D01*
X9409762Y-13885190D02*
X9419286Y-13875667D01*
X9438333Y-13866143D01*
X9466905Y-13866143D01*
X9485952Y-13875667D01*
X9495476Y-13894714D01*
X9495476Y-13999476D01*
X9495476Y-13894714D02*
X9505000Y-13875667D01*
X9524048Y-13866143D01*
X9552619Y-13866143D01*
X9571667Y-13875667D01*
X9581190Y-13894714D01*
X9581190Y-13999476D01*
X9676429Y-13999476D02*
X9676429Y-13866143D01*
X9676429Y-13885190D02*
X9685952Y-13875667D01*
X9705000Y-13866143D01*
X9733571Y-13866143D01*
X9752619Y-13875667D01*
X9762143Y-13894714D01*
X9762143Y-13999476D01*
X9762143Y-13894714D02*
X9771667Y-13875667D01*
X9790714Y-13866143D01*
X9819286Y-13866143D01*
X9838333Y-13875667D01*
X9847857Y-13894714D01*
X9847857Y-13999476D01*
X10238333Y-13789952D02*
X10066905Y-14047095D01*
X10495476Y-13799476D02*
X10514524Y-13799476D01*
X10533571Y-13809000D01*
X10543095Y-13818524D01*
X10552619Y-13837571D01*
X10562143Y-13875667D01*
X10562143Y-13923286D01*
X10552619Y-13961381D01*
X10543095Y-13980428D01*
X10533571Y-13989952D01*
X10514524Y-13999476D01*
X10495476Y-13999476D01*
X10476429Y-13989952D01*
X10466905Y-13980428D01*
X10457381Y-13961381D01*
X10447857Y-13923286D01*
X10447857Y-13875667D01*
X10457381Y-13837571D01*
X10466905Y-13818524D01*
X10476429Y-13809000D01*
X10495476Y-13799476D01*
X10647857Y-13980428D02*
X10657381Y-13989952D01*
X10647857Y-13999476D01*
X10638333Y-13989952D01*
X10647857Y-13980428D01*
X10647857Y-13999476D01*
X10781190Y-13799476D02*
X10800238Y-13799476D01*
X10819286Y-13809000D01*
X10828810Y-13818524D01*
X10838333Y-13837571D01*
X10847857Y-13875667D01*
X10847857Y-13923286D01*
X10838333Y-13961381D01*
X10828810Y-13980428D01*
X10819286Y-13989952D01*
X10800238Y-13999476D01*
X10781190Y-13999476D01*
X10762143Y-13989952D01*
X10752619Y-13980428D01*
X10743095Y-13961381D01*
X10733571Y-13923286D01*
X10733571Y-13875667D01*
X10743095Y-13837571D01*
X10752619Y-13818524D01*
X10762143Y-13809000D01*
X10781190Y-13799476D01*
X10914524Y-13799476D02*
X11038333Y-13799476D01*
X10971667Y-13875667D01*
X11000238Y-13875667D01*
X11019286Y-13885190D01*
X11028810Y-13894714D01*
X11038333Y-13913762D01*
X11038333Y-13961381D01*
X11028810Y-13980428D01*
X11019286Y-13989952D01*
X11000238Y-13999476D01*
X10943095Y-13999476D01*
X10924048Y-13989952D01*
X10914524Y-13980428D01*
X11228809Y-13999476D02*
X11114524Y-13999476D01*
X11171667Y-13999476D02*
X11171667Y-13799476D01*
X11152619Y-13828048D01*
X11133571Y-13847095D01*
X11114524Y-13856619D01*
X11409762Y-13799476D02*
X11314524Y-13799476D01*
X11305000Y-13894714D01*
X11314524Y-13885190D01*
X11333571Y-13875667D01*
X11381190Y-13875667D01*
X11400238Y-13885190D01*
X11409762Y-13894714D01*
X11419286Y-13913762D01*
X11419286Y-13961381D01*
X11409762Y-13980428D01*
X11400238Y-13989952D01*
X11381190Y-13999476D01*
X11333571Y-13999476D01*
X11314524Y-13989952D01*
X11305000Y-13980428D01*
X11495476Y-13799476D02*
X11495476Y-13837571D01*
X11571667Y-13799476D02*
X11571667Y-13837571D01*
X11866905Y-14075667D02*
X11857381Y-14066143D01*
X11838333Y-14037571D01*
X11828809Y-14018524D01*
X11819286Y-13989952D01*
X11809762Y-13942333D01*
X11809762Y-13904238D01*
X11819286Y-13856619D01*
X11828809Y-13828048D01*
X11838333Y-13809000D01*
X11857381Y-13780428D01*
X11866905Y-13770905D01*
X12028809Y-13799476D02*
X11990714Y-13799476D01*
X11971667Y-13809000D01*
X11962143Y-13818524D01*
X11943095Y-13847095D01*
X11933571Y-13885190D01*
X11933571Y-13961381D01*
X11943095Y-13980428D01*
X11952619Y-13989952D01*
X11971667Y-13999476D01*
X12009762Y-13999476D01*
X12028809Y-13989952D01*
X12038333Y-13980428D01*
X12047857Y-13961381D01*
X12047857Y-13913762D01*
X12038333Y-13894714D01*
X12028809Y-13885190D01*
X12009762Y-13875667D01*
X11971667Y-13875667D01*
X11952619Y-13885190D01*
X11943095Y-13894714D01*
X11933571Y-13913762D01*
X12285952Y-13999476D02*
X12285952Y-13799476D01*
X12371667Y-13999476D02*
X12371667Y-13894714D01*
X12362143Y-13875667D01*
X12343095Y-13866143D01*
X12314524Y-13866143D01*
X12295476Y-13875667D01*
X12285952Y-13885190D01*
X12495476Y-13999476D02*
X12476428Y-13989952D01*
X12466905Y-13980428D01*
X12457381Y-13961381D01*
X12457381Y-13904238D01*
X12466905Y-13885190D01*
X12476428Y-13875667D01*
X12495476Y-13866143D01*
X12524048Y-13866143D01*
X12543095Y-13875667D01*
X12552619Y-13885190D01*
X12562143Y-13904238D01*
X12562143Y-13961381D01*
X12552619Y-13980428D01*
X12543095Y-13989952D01*
X12524048Y-13999476D01*
X12495476Y-13999476D01*
X12676428Y-13999476D02*
X12657381Y-13989952D01*
X12647857Y-13970905D01*
X12647857Y-13799476D01*
X12828809Y-13989952D02*
X12809762Y-13999476D01*
X12771667Y-13999476D01*
X12752619Y-13989952D01*
X12743095Y-13970905D01*
X12743095Y-13894714D01*
X12752619Y-13875667D01*
X12771667Y-13866143D01*
X12809762Y-13866143D01*
X12828809Y-13875667D01*
X12838333Y-13894714D01*
X12838333Y-13913762D01*
X12743095Y-13932809D01*
X12914524Y-13989952D02*
X12933571Y-13999476D01*
X12971667Y-13999476D01*
X12990714Y-13989952D01*
X13000238Y-13970905D01*
X13000238Y-13961381D01*
X12990714Y-13942333D01*
X12971667Y-13932809D01*
X12943095Y-13932809D01*
X12924048Y-13923286D01*
X12914524Y-13904238D01*
X12914524Y-13894714D01*
X12924048Y-13875667D01*
X12943095Y-13866143D01*
X12971667Y-13866143D01*
X12990714Y-13875667D01*
X13066905Y-14075667D02*
X13076428Y-14066143D01*
X13095476Y-14037571D01*
X13105000Y-14018524D01*
X13114524Y-13989952D01*
X13124048Y-13942333D01*
X13124048Y-13904238D01*
X13114524Y-13856619D01*
X13105000Y-13828048D01*
X13095476Y-13809000D01*
X13076428Y-13780428D01*
X13066905Y-13770905D01*
D10*
X8245000Y-14123000D02*
X8245000Y-14223000D01*
X8195000Y-14173000D02*
X8295000Y-14173000D01*
D11*
X8657381Y-14263476D02*
X8543095Y-14263476D01*
X8600238Y-14263476D02*
X8600238Y-14063476D01*
X8581190Y-14092048D01*
X8562143Y-14111095D01*
X8543095Y-14120619D01*
X8743095Y-14244428D02*
X8752619Y-14253952D01*
X8743095Y-14263476D01*
X8733571Y-14253952D01*
X8743095Y-14244428D01*
X8743095Y-14263476D01*
X8876429Y-14063476D02*
X8895476Y-14063476D01*
X8914524Y-14073000D01*
X8924048Y-14082524D01*
X8933571Y-14101571D01*
X8943095Y-14139667D01*
X8943095Y-14187286D01*
X8933571Y-14225381D01*
X8924048Y-14244428D01*
X8914524Y-14253952D01*
X8895476Y-14263476D01*
X8876429Y-14263476D01*
X8857381Y-14253952D01*
X8847857Y-14244428D01*
X8838333Y-14225381D01*
X8828810Y-14187286D01*
X8828810Y-14139667D01*
X8838333Y-14101571D01*
X8847857Y-14082524D01*
X8857381Y-14073000D01*
X8876429Y-14063476D01*
X9066905Y-14063476D02*
X9085952Y-14063476D01*
X9105000Y-14073000D01*
X9114524Y-14082524D01*
X9124048Y-14101571D01*
X9133571Y-14139667D01*
X9133571Y-14187286D01*
X9124048Y-14225381D01*
X9114524Y-14244428D01*
X9105000Y-14253952D01*
X9085952Y-14263476D01*
X9066905Y-14263476D01*
X9047857Y-14253952D01*
X9038333Y-14244428D01*
X9028810Y-14225381D01*
X9019286Y-14187286D01*
X9019286Y-14139667D01*
X9028810Y-14101571D01*
X9038333Y-14082524D01*
X9047857Y-14073000D01*
X9066905Y-14063476D01*
X9257381Y-14063476D02*
X9276429Y-14063476D01*
X9295476Y-14073000D01*
X9305000Y-14082524D01*
X9314524Y-14101571D01*
X9324048Y-14139667D01*
X9324048Y-14187286D01*
X9314524Y-14225381D01*
X9305000Y-14244428D01*
X9295476Y-14253952D01*
X9276429Y-14263476D01*
X9257381Y-14263476D01*
X9238333Y-14253952D01*
X9228810Y-14244428D01*
X9219286Y-14225381D01*
X9209762Y-14187286D01*
X9209762Y-14139667D01*
X9219286Y-14101571D01*
X9228810Y-14082524D01*
X9238333Y-14073000D01*
X9257381Y-14063476D01*
X9409762Y-14263476D02*
X9409762Y-14130143D01*
X9409762Y-14149190D02*
X9419286Y-14139667D01*
X9438333Y-14130143D01*
X9466905Y-14130143D01*
X9485952Y-14139667D01*
X9495476Y-14158714D01*
X9495476Y-14263476D01*
X9495476Y-14158714D02*
X9505000Y-14139667D01*
X9524048Y-14130143D01*
X9552619Y-14130143D01*
X9571667Y-14139667D01*
X9581190Y-14158714D01*
X9581190Y-14263476D01*
X9676429Y-14263476D02*
X9676429Y-14130143D01*
X9676429Y-14149190D02*
X9685952Y-14139667D01*
X9705000Y-14130143D01*
X9733571Y-14130143D01*
X9752619Y-14139667D01*
X9762143Y-14158714D01*
X9762143Y-14263476D01*
X9762143Y-14158714D02*
X9771667Y-14139667D01*
X9790714Y-14130143D01*
X9819286Y-14130143D01*
X9838333Y-14139667D01*
X9847857Y-14158714D01*
X9847857Y-14263476D01*
X10238333Y-14053952D02*
X10066905Y-14311095D01*
X10495476Y-14063476D02*
X10514524Y-14063476D01*
X10533571Y-14073000D01*
X10543095Y-14082524D01*
X10552619Y-14101571D01*
X10562143Y-14139667D01*
X10562143Y-14187286D01*
X10552619Y-14225381D01*
X10543095Y-14244428D01*
X10533571Y-14253952D01*
X10514524Y-14263476D01*
X10495476Y-14263476D01*
X10476429Y-14253952D01*
X10466905Y-14244428D01*
X10457381Y-14225381D01*
X10447857Y-14187286D01*
X10447857Y-14139667D01*
X10457381Y-14101571D01*
X10466905Y-14082524D01*
X10476429Y-14073000D01*
X10495476Y-14063476D01*
X10647857Y-14244428D02*
X10657381Y-14253952D01*
X10647857Y-14263476D01*
X10638333Y-14253952D01*
X10647857Y-14244428D01*
X10647857Y-14263476D01*
X10781190Y-14063476D02*
X10800238Y-14063476D01*
X10819286Y-14073000D01*
X10828810Y-14082524D01*
X10838333Y-14101571D01*
X10847857Y-14139667D01*
X10847857Y-14187286D01*
X10838333Y-14225381D01*
X10828810Y-14244428D01*
X10819286Y-14253952D01*
X10800238Y-14263476D01*
X10781190Y-14263476D01*
X10762143Y-14253952D01*
X10752619Y-14244428D01*
X10743095Y-14225381D01*
X10733571Y-14187286D01*
X10733571Y-14139667D01*
X10743095Y-14101571D01*
X10752619Y-14082524D01*
X10762143Y-14073000D01*
X10781190Y-14063476D01*
X10914524Y-14063476D02*
X11038333Y-14063476D01*
X10971667Y-14139667D01*
X11000238Y-14139667D01*
X11019286Y-14149190D01*
X11028810Y-14158714D01*
X11038333Y-14177762D01*
X11038333Y-14225381D01*
X11028810Y-14244428D01*
X11019286Y-14253952D01*
X11000238Y-14263476D01*
X10943095Y-14263476D01*
X10924048Y-14253952D01*
X10914524Y-14244428D01*
X11133571Y-14263476D02*
X11171667Y-14263476D01*
X11190714Y-14253952D01*
X11200238Y-14244428D01*
X11219286Y-14215857D01*
X11228809Y-14177762D01*
X11228809Y-14101571D01*
X11219286Y-14082524D01*
X11209762Y-14073000D01*
X11190714Y-14063476D01*
X11152619Y-14063476D01*
X11133571Y-14073000D01*
X11124048Y-14082524D01*
X11114524Y-14101571D01*
X11114524Y-14149190D01*
X11124048Y-14168238D01*
X11133571Y-14177762D01*
X11152619Y-14187286D01*
X11190714Y-14187286D01*
X11209762Y-14177762D01*
X11219286Y-14168238D01*
X11228809Y-14149190D01*
X11400238Y-14130143D02*
X11400238Y-14263476D01*
X11352619Y-14053952D02*
X11305000Y-14196809D01*
X11428809Y-14196809D01*
X11495476Y-14063476D02*
X11495476Y-14101571D01*
X11571667Y-14063476D02*
X11571667Y-14101571D01*
X11866905Y-14339667D02*
X11857381Y-14330143D01*
X11838333Y-14301571D01*
X11828809Y-14282524D01*
X11819286Y-14253952D01*
X11809762Y-14206333D01*
X11809762Y-14168238D01*
X11819286Y-14120619D01*
X11828809Y-14092048D01*
X11838333Y-14073000D01*
X11857381Y-14044428D01*
X11866905Y-14034905D01*
X12028809Y-14063476D02*
X11990714Y-14063476D01*
X11971667Y-14073000D01*
X11962143Y-14082524D01*
X11943095Y-14111095D01*
X11933571Y-14149190D01*
X11933571Y-14225381D01*
X11943095Y-14244428D01*
X11952619Y-14253952D01*
X11971667Y-14263476D01*
X12009762Y-14263476D01*
X12028809Y-14253952D01*
X12038333Y-14244428D01*
X12047857Y-14225381D01*
X12047857Y-14177762D01*
X12038333Y-14158714D01*
X12028809Y-14149190D01*
X12009762Y-14139667D01*
X11971667Y-14139667D01*
X11952619Y-14149190D01*
X11943095Y-14158714D01*
X11933571Y-14177762D01*
X12143095Y-14263476D02*
X12181190Y-14263476D01*
X12200238Y-14253952D01*
X12209762Y-14244428D01*
X12228809Y-14215857D01*
X12238333Y-14177762D01*
X12238333Y-14101571D01*
X12228809Y-14082524D01*
X12219286Y-14073000D01*
X12200238Y-14063476D01*
X12162143Y-14063476D01*
X12143095Y-14073000D01*
X12133571Y-14082524D01*
X12124048Y-14101571D01*
X12124048Y-14149190D01*
X12133571Y-14168238D01*
X12143095Y-14177762D01*
X12162143Y-14187286D01*
X12200238Y-14187286D01*
X12219286Y-14177762D01*
X12228809Y-14168238D01*
X12238333Y-14149190D01*
X12476428Y-14263476D02*
X12476428Y-14063476D01*
X12562143Y-14263476D02*
X12562143Y-14158714D01*
X12552619Y-14139667D01*
X12533571Y-14130143D01*
X12505000Y-14130143D01*
X12485952Y-14139667D01*
X12476428Y-14149190D01*
X12685952Y-14263476D02*
X12666905Y-14253952D01*
X12657381Y-14244428D01*
X12647857Y-14225381D01*
X12647857Y-14168238D01*
X12657381Y-14149190D01*
X12666905Y-14139667D01*
X12685952Y-14130143D01*
X12714524Y-14130143D01*
X12733571Y-14139667D01*
X12743095Y-14149190D01*
X12752619Y-14168238D01*
X12752619Y-14225381D01*
X12743095Y-14244428D01*
X12733571Y-14253952D01*
X12714524Y-14263476D01*
X12685952Y-14263476D01*
X12866905Y-14263476D02*
X12847857Y-14253952D01*
X12838333Y-14234905D01*
X12838333Y-14063476D01*
X13019286Y-14253952D02*
X13000238Y-14263476D01*
X12962143Y-14263476D01*
X12943095Y-14253952D01*
X12933571Y-14234905D01*
X12933571Y-14158714D01*
X12943095Y-14139667D01*
X12962143Y-14130143D01*
X13000238Y-14130143D01*
X13019286Y-14139667D01*
X13028809Y-14158714D01*
X13028809Y-14177762D01*
X12933571Y-14196809D01*
X13105000Y-14253952D02*
X13124048Y-14263476D01*
X13162143Y-14263476D01*
X13181190Y-14253952D01*
X13190714Y-14234905D01*
X13190714Y-14225381D01*
X13181190Y-14206333D01*
X13162143Y-14196809D01*
X13133571Y-14196809D01*
X13114524Y-14187286D01*
X13105000Y-14168238D01*
X13105000Y-14158714D01*
X13114524Y-14139667D01*
X13133571Y-14130143D01*
X13162143Y-14130143D01*
X13181190Y-14139667D01*
X13257381Y-14339667D02*
X13266905Y-14330143D01*
X13285952Y-14301571D01*
X13295476Y-14282524D01*
X13305000Y-14253952D01*
X13314524Y-14206333D01*
X13314524Y-14168238D01*
X13305000Y-14120619D01*
X13295476Y-14092048D01*
X13285952Y-14073000D01*
X13266905Y-14044428D01*
X13257381Y-14034905D01*
D14*
X8275962Y-14482962D02*
X8275962Y-14391038D01*
X8184038Y-14391038D01*
X8184038Y-14482962D01*
X8275962Y-14482962D01*
D11*
X8657381Y-14527476D02*
X8543095Y-14527476D01*
X8600238Y-14527476D02*
X8600238Y-14327476D01*
X8581190Y-14356048D01*
X8562143Y-14375095D01*
X8543095Y-14384619D01*
X8743095Y-14508428D02*
X8752619Y-14517952D01*
X8743095Y-14527476D01*
X8733571Y-14517952D01*
X8743095Y-14508428D01*
X8743095Y-14527476D01*
X8819286Y-14327476D02*
X8943095Y-14327476D01*
X8876429Y-14403667D01*
X8905000Y-14403667D01*
X8924048Y-14413190D01*
X8933571Y-14422714D01*
X8943095Y-14441762D01*
X8943095Y-14489381D01*
X8933571Y-14508428D01*
X8924048Y-14517952D01*
X8905000Y-14527476D01*
X8847857Y-14527476D01*
X8828810Y-14517952D01*
X8819286Y-14508428D01*
X9066905Y-14327476D02*
X9085952Y-14327476D01*
X9105000Y-14337000D01*
X9114524Y-14346524D01*
X9124048Y-14365571D01*
X9133571Y-14403667D01*
X9133571Y-14451286D01*
X9124048Y-14489381D01*
X9114524Y-14508428D01*
X9105000Y-14517952D01*
X9085952Y-14527476D01*
X9066905Y-14527476D01*
X9047857Y-14517952D01*
X9038333Y-14508428D01*
X9028810Y-14489381D01*
X9019286Y-14451286D01*
X9019286Y-14403667D01*
X9028810Y-14365571D01*
X9038333Y-14346524D01*
X9047857Y-14337000D01*
X9066905Y-14327476D01*
X9257381Y-14327476D02*
X9276429Y-14327476D01*
X9295476Y-14337000D01*
X9305000Y-14346524D01*
X9314524Y-14365571D01*
X9324048Y-14403667D01*
X9324048Y-14451286D01*
X9314524Y-14489381D01*
X9305000Y-14508428D01*
X9295476Y-14517952D01*
X9276429Y-14527476D01*
X9257381Y-14527476D01*
X9238333Y-14517952D01*
X9228810Y-14508428D01*
X9219286Y-14489381D01*
X9209762Y-14451286D01*
X9209762Y-14403667D01*
X9219286Y-14365571D01*
X9228810Y-14346524D01*
X9238333Y-14337000D01*
X9257381Y-14327476D01*
X9409762Y-14527476D02*
X9409762Y-14394143D01*
X9409762Y-14413190D02*
X9419286Y-14403667D01*
X9438333Y-14394143D01*
X9466905Y-14394143D01*
X9485952Y-14403667D01*
X9495476Y-14422714D01*
X9495476Y-14527476D01*
X9495476Y-14422714D02*
X9505000Y-14403667D01*
X9524048Y-14394143D01*
X9552619Y-14394143D01*
X9571667Y-14403667D01*
X9581190Y-14422714D01*
X9581190Y-14527476D01*
X9676429Y-14527476D02*
X9676429Y-14394143D01*
X9676429Y-14413190D02*
X9685952Y-14403667D01*
X9705000Y-14394143D01*
X9733571Y-14394143D01*
X9752619Y-14403667D01*
X9762143Y-14422714D01*
X9762143Y-14527476D01*
X9762143Y-14422714D02*
X9771667Y-14403667D01*
X9790714Y-14394143D01*
X9819286Y-14394143D01*
X9838333Y-14403667D01*
X9847857Y-14422714D01*
X9847857Y-14527476D01*
X10238333Y-14317952D02*
X10066905Y-14575095D01*
X10495476Y-14327476D02*
X10514524Y-14327476D01*
X10533571Y-14337000D01*
X10543095Y-14346524D01*
X10552619Y-14365571D01*
X10562143Y-14403667D01*
X10562143Y-14451286D01*
X10552619Y-14489381D01*
X10543095Y-14508428D01*
X10533571Y-14517952D01*
X10514524Y-14527476D01*
X10495476Y-14527476D01*
X10476429Y-14517952D01*
X10466905Y-14508428D01*
X10457381Y-14489381D01*
X10447857Y-14451286D01*
X10447857Y-14403667D01*
X10457381Y-14365571D01*
X10466905Y-14346524D01*
X10476429Y-14337000D01*
X10495476Y-14327476D01*
X10647857Y-14508428D02*
X10657381Y-14517952D01*
X10647857Y-14527476D01*
X10638333Y-14517952D01*
X10647857Y-14508428D01*
X10647857Y-14527476D01*
X10781190Y-14327476D02*
X10800238Y-14327476D01*
X10819286Y-14337000D01*
X10828810Y-14346524D01*
X10838333Y-14365571D01*
X10847857Y-14403667D01*
X10847857Y-14451286D01*
X10838333Y-14489381D01*
X10828810Y-14508428D01*
X10819286Y-14517952D01*
X10800238Y-14527476D01*
X10781190Y-14527476D01*
X10762143Y-14517952D01*
X10752619Y-14508428D01*
X10743095Y-14489381D01*
X10733571Y-14451286D01*
X10733571Y-14403667D01*
X10743095Y-14365571D01*
X10752619Y-14346524D01*
X10762143Y-14337000D01*
X10781190Y-14327476D01*
X11028810Y-14327476D02*
X10933571Y-14327476D01*
X10924048Y-14422714D01*
X10933571Y-14413190D01*
X10952619Y-14403667D01*
X11000238Y-14403667D01*
X11019286Y-14413190D01*
X11028810Y-14422714D01*
X11038333Y-14441762D01*
X11038333Y-14489381D01*
X11028810Y-14508428D01*
X11019286Y-14517952D01*
X11000238Y-14527476D01*
X10952619Y-14527476D01*
X10933571Y-14517952D01*
X10924048Y-14508428D01*
X11228809Y-14527476D02*
X11114524Y-14527476D01*
X11171667Y-14527476D02*
X11171667Y-14327476D01*
X11152619Y-14356048D01*
X11133571Y-14375095D01*
X11114524Y-14384619D01*
X11305000Y-14346524D02*
X11314524Y-14337000D01*
X11333571Y-14327476D01*
X11381190Y-14327476D01*
X11400238Y-14337000D01*
X11409762Y-14346524D01*
X11419286Y-14365571D01*
X11419286Y-14384619D01*
X11409762Y-14413190D01*
X11295476Y-14527476D01*
X11419286Y-14527476D01*
X11495476Y-14327476D02*
X11495476Y-14365571D01*
X11571667Y-14327476D02*
X11571667Y-14365571D01*
X11866905Y-14603667D02*
X11857381Y-14594143D01*
X11838333Y-14565571D01*
X11828809Y-14546524D01*
X11819286Y-14517952D01*
X11809762Y-14470333D01*
X11809762Y-14432238D01*
X11819286Y-14384619D01*
X11828809Y-14356048D01*
X11838333Y-14337000D01*
X11857381Y-14308428D01*
X11866905Y-14298905D01*
X12028809Y-14394143D02*
X12028809Y-14527476D01*
X11981190Y-14317952D02*
X11933571Y-14460809D01*
X12057381Y-14460809D01*
X12228809Y-14327476D02*
X12133571Y-14327476D01*
X12124048Y-14422714D01*
X12133571Y-14413190D01*
X12152619Y-14403667D01*
X12200238Y-14403667D01*
X12219286Y-14413190D01*
X12228809Y-14422714D01*
X12238333Y-14441762D01*
X12238333Y-14489381D01*
X12228809Y-14508428D01*
X12219286Y-14517952D01*
X12200238Y-14527476D01*
X12152619Y-14527476D01*
X12133571Y-14517952D01*
X12124048Y-14508428D01*
X12476428Y-14527476D02*
X12476428Y-14327476D01*
X12562143Y-14527476D02*
X12562143Y-14422714D01*
X12552619Y-14403667D01*
X12533571Y-14394143D01*
X12505000Y-14394143D01*
X12485952Y-14403667D01*
X12476428Y-14413190D01*
X12685952Y-14527476D02*
X12666905Y-14517952D01*
X12657381Y-14508428D01*
X12647857Y-14489381D01*
X12647857Y-14432238D01*
X12657381Y-14413190D01*
X12666905Y-14403667D01*
X12685952Y-14394143D01*
X12714524Y-14394143D01*
X12733571Y-14403667D01*
X12743095Y-14413190D01*
X12752619Y-14432238D01*
X12752619Y-14489381D01*
X12743095Y-14508428D01*
X12733571Y-14517952D01*
X12714524Y-14527476D01*
X12685952Y-14527476D01*
X12866905Y-14527476D02*
X12847857Y-14517952D01*
X12838333Y-14498905D01*
X12838333Y-14327476D01*
X13019286Y-14517952D02*
X13000238Y-14527476D01*
X12962143Y-14527476D01*
X12943095Y-14517952D01*
X12933571Y-14498905D01*
X12933571Y-14422714D01*
X12943095Y-14403667D01*
X12962143Y-14394143D01*
X13000238Y-14394143D01*
X13019286Y-14403667D01*
X13028809Y-14422714D01*
X13028809Y-14441762D01*
X12933571Y-14460809D01*
X13105000Y-14517952D02*
X13124048Y-14527476D01*
X13162143Y-14527476D01*
X13181190Y-14517952D01*
X13190714Y-14498905D01*
X13190714Y-14489381D01*
X13181190Y-14470333D01*
X13162143Y-14460809D01*
X13133571Y-14460809D01*
X13114524Y-14451286D01*
X13105000Y-14432238D01*
X13105000Y-14422714D01*
X13114524Y-14403667D01*
X13133571Y-14394143D01*
X13162143Y-14394143D01*
X13181190Y-14403667D01*
X13257381Y-14603667D02*
X13266905Y-14594143D01*
X13285952Y-14565571D01*
X13295476Y-14546524D01*
X13305000Y-14517952D01*
X13314524Y-14470333D01*
X13314524Y-14432238D01*
X13305000Y-14384619D01*
X13295476Y-14356048D01*
X13285952Y-14337000D01*
X13266905Y-14308428D01*
X13257381Y-14298905D01*
M02*
