%TF.GenerationSoftware,KiCad,Pcbnew,(6.0.10)*%
%TF.CreationDate,2025-06-24T19:53:16+02:00*%
%TF.ProjectId,esp_shield,6573705f-7368-4696-956c-642e6b696361,1.0*%
%TF.SameCoordinates,Original*%
%TF.FileFunction,Copper,L1,Top*%
%TF.FilePolarity,Positive*%
%FSLAX46Y46*%
G04 Gerber Fmt 4.6, Leading zero omitted, Abs format (unit mm)*
G04 Created by KiCad (PCBNEW (6.0.10)) date 2025-06-24 19:53:16*
%MOMM*%
%LPD*%
G01*
G04 APERTURE LIST*
%TA.AperFunction,ComponentPad*%
%ADD10R,1.700000X1.700000*%
%TD*%
%TA.AperFunction,ComponentPad*%
%ADD11O,1.700000X1.700000*%
%TD*%
%TA.AperFunction,ComponentPad*%
%ADD12R,2.600000X2.600000*%
%TD*%
%TA.AperFunction,ComponentPad*%
%ADD13C,2.600000*%
%TD*%
%TA.AperFunction,ComponentPad*%
%ADD14O,1.600000X1.600000*%
%TD*%
%TA.AperFunction,ComponentPad*%
%ADD15C,1.600000*%
%TD*%
%TA.AperFunction,ViaPad*%
%ADD16C,0.800000*%
%TD*%
%TA.AperFunction,Conductor*%
%ADD17C,0.500000*%
%TD*%
%TA.AperFunction,Conductor*%
%ADD18C,0.250000*%
%TD*%
G04 APERTURE END LIST*
D10*
%TO.P,J17,1,Pin_1*%
%TO.N,GND*%
X89150000Y-116750000D03*
D11*
%TO.P,J17,2,Pin_2*%
X91690000Y-116750000D03*
%TO.P,J17,3,Pin_3*%
%TO.N,19*%
X94230000Y-116750000D03*
%TO.P,J17,4,Pin_4*%
%TO.N,20*%
X96770000Y-116750000D03*
%TO.P,J17,5,Pin_5*%
%TO.N,21*%
X99310000Y-116750000D03*
%TO.P,J17,6,Pin_6*%
%TO.N,47*%
X101850000Y-116750000D03*
%TO.P,J17,7,Pin_7*%
%TO.N,48*%
X104390000Y-116750000D03*
%TO.P,J17,8,Pin_8*%
%TO.N,45*%
X106930000Y-116750000D03*
%TO.P,J17,9,Pin_9*%
%TO.N,0*%
X109470000Y-116750000D03*
%TO.P,J17,10,Pin_10*%
%TO.N,35*%
X112010000Y-116750000D03*
%TO.P,J17,11,Pin_11*%
%TO.N,36*%
X114550000Y-116750000D03*
%TO.P,J17,12,Pin_12*%
%TO.N,37*%
X117090000Y-116750000D03*
%TO.P,J17,13,Pin_13*%
%TO.N,38*%
X119630000Y-116750000D03*
%TO.P,J17,14,Pin_14*%
%TO.N,39*%
X122170000Y-116750000D03*
%TO.P,J17,15,Pin_15*%
%TO.N,40*%
X124710000Y-116750000D03*
%TO.P,J17,16,Pin_16*%
%TO.N,41*%
X127250000Y-116750000D03*
%TO.P,J17,17,Pin_17*%
%TO.N,42*%
X129790000Y-116750000D03*
%TO.P,J17,18,Pin_18*%
%TO.N,2*%
X132330000Y-116750000D03*
%TO.P,J17,19,Pin_19*%
%TO.N,1*%
X134870000Y-116750000D03*
%TD*%
D10*
%TO.P,J16,1,Pin_1*%
%TO.N,11*%
X106500000Y-79500000D03*
D11*
%TO.P,J16,2,Pin_2*%
%TO.N,12*%
X106500000Y-76960000D03*
%TO.P,J16,3,Pin_3*%
%TO.N,46*%
X109040000Y-79500000D03*
%TO.P,J16,4,Pin_4*%
%TO.N,13*%
X109040000Y-76960000D03*
%TO.P,J16,5,Pin_5*%
%TO.N,3*%
X111580000Y-79500000D03*
%TO.P,J16,6,Pin_6*%
%TO.N,14*%
X111580000Y-76960000D03*
%TD*%
D12*
%TO.P,J11,1,Pin_1*%
%TO.N,GND*%
X168701000Y-77866001D03*
D13*
%TO.P,J11,2,Pin_2*%
%TO.N,8*%
X163701000Y-77866001D03*
%TO.P,J11,3,Pin_3*%
%TO.N,9*%
X158701000Y-77866001D03*
%TO.P,J11,4,Pin_4*%
%TO.N,GND*%
X153701000Y-77866001D03*
%TO.P,J11,5,Pin_5*%
%TO.N,3V3*%
X148701000Y-77866001D03*
%TD*%
D12*
%TO.P,J15,1,Pin_1*%
%TO.N,GND*%
X236817000Y-93341500D03*
D13*
%TO.P,J15,2,Pin_2*%
%TO.N,5V*%
X236817000Y-88341500D03*
%TD*%
D12*
%TO.P,J14,1,Pin_1*%
%TO.N,5V*%
X95500000Y-77500000D03*
D13*
%TO.P,J14,2,Pin_2*%
%TO.N,GND*%
X90500000Y-77500000D03*
%TD*%
D10*
%TO.P,J2,1,Pin_1*%
%TO.N,GND*%
X89130000Y-112500000D03*
D11*
%TO.P,J2,2,Pin_2*%
X91670000Y-112500000D03*
%TO.P,J2,3,Pin_3*%
%TO.N,19*%
X94210000Y-112500000D03*
%TO.P,J2,4,Pin_4*%
%TO.N,20*%
X96750000Y-112500000D03*
%TO.P,J2,5,Pin_5*%
%TO.N,21*%
X99290000Y-112500000D03*
%TO.P,J2,6,Pin_6*%
%TO.N,47*%
X101830000Y-112500000D03*
%TO.P,J2,7,Pin_7*%
%TO.N,48*%
X104370000Y-112500000D03*
%TO.P,J2,8,Pin_8*%
%TO.N,45*%
X106910000Y-112500000D03*
%TO.P,J2,9,Pin_9*%
%TO.N,0*%
X109450000Y-112500000D03*
%TO.P,J2,10,Pin_10*%
%TO.N,35*%
X111990000Y-112500000D03*
%TO.P,J2,11,Pin_11*%
%TO.N,36*%
X114530000Y-112500000D03*
%TO.P,J2,12,Pin_12*%
%TO.N,37*%
X117070000Y-112500000D03*
%TO.P,J2,13,Pin_13*%
%TO.N,38*%
X119610000Y-112500000D03*
%TO.P,J2,14,Pin_14*%
%TO.N,39*%
X122150000Y-112500000D03*
%TO.P,J2,15,Pin_15*%
%TO.N,40*%
X124690000Y-112500000D03*
%TO.P,J2,16,Pin_16*%
%TO.N,41*%
X127230000Y-112500000D03*
%TO.P,J2,17,Pin_17*%
%TO.N,42*%
X129770000Y-112500000D03*
%TO.P,J2,18,Pin_18*%
%TO.N,2*%
X132310000Y-112500000D03*
%TO.P,J2,19,Pin_19*%
%TO.N,1*%
X134850000Y-112500000D03*
%TO.P,J2,20,Pin_20*%
%TO.N,RX*%
X137390000Y-112500000D03*
%TO.P,J2,21,Pin_21*%
%TO.N,TX*%
X139930000Y-112500000D03*
%TO.P,J2,22,Pin_22*%
%TO.N,GND*%
X142470000Y-112500000D03*
%TD*%
D10*
%TO.P,J1,1,Pin_1*%
%TO.N,3V3*%
X142480000Y-87000000D03*
D11*
%TO.P,J1,2,Pin_2*%
X139940000Y-87000000D03*
%TO.P,J1,3,Pin_3*%
%TO.N,RST*%
X137400000Y-87000000D03*
%TO.P,J1,4,Pin_4*%
%TO.N,4*%
X134860000Y-87000000D03*
%TO.P,J1,5,Pin_5*%
%TO.N,5*%
X132320000Y-87000000D03*
%TO.P,J1,6,Pin_6*%
%TO.N,6*%
X129780000Y-87000000D03*
%TO.P,J1,7,Pin_7*%
%TO.N,7*%
X127240000Y-87000000D03*
%TO.P,J1,8,Pin_8*%
%TO.N,15*%
X124700000Y-87000000D03*
%TO.P,J1,9,Pin_9*%
%TO.N,16*%
X122160000Y-87000000D03*
%TO.P,J1,10,Pin_10*%
%TO.N,17*%
X119620000Y-87000000D03*
%TO.P,J1,11,Pin_11*%
%TO.N,18*%
X117080000Y-87000000D03*
%TO.P,J1,12,Pin_12*%
%TO.N,8*%
X114540000Y-87000000D03*
%TO.P,J1,13,Pin_13*%
%TO.N,3*%
X112000000Y-87000000D03*
%TO.P,J1,14,Pin_14*%
%TO.N,46*%
X109460000Y-87000000D03*
%TO.P,J1,15,Pin_15*%
%TO.N,9*%
X106920000Y-87000000D03*
%TO.P,J1,16,Pin_16*%
%TO.N,10*%
X104380000Y-87000000D03*
%TO.P,J1,17,Pin_17*%
%TO.N,11*%
X101840000Y-87000000D03*
%TO.P,J1,18,Pin_18*%
%TO.N,12*%
X99300000Y-87000000D03*
%TO.P,J1,19,Pin_19*%
%TO.N,13*%
X96760000Y-87000000D03*
%TO.P,J1,20,Pin_20*%
%TO.N,14*%
X94220000Y-87000000D03*
%TO.P,J1,21,Pin_21*%
%TO.N,5V*%
X91680000Y-87000000D03*
%TO.P,J1,22,Pin_22*%
%TO.N,GND*%
X89140000Y-87000000D03*
%TD*%
D12*
%TO.P,J13,1,Pin_1*%
%TO.N,TX*%
X225000000Y-121500000D03*
D13*
%TO.P,J13,2,Pin_2*%
%TO.N,Net-(J13-Pad2)*%
X230000000Y-121500000D03*
%TO.P,J13,3,Pin_3*%
%TO.N,GND*%
X235000000Y-121500000D03*
%TO.P,J13,4,Pin_4*%
%TO.N,5V*%
X240000000Y-121500000D03*
%TD*%
D12*
%TO.P,J12,1,Pin_1*%
%TO.N,3V3*%
X141701000Y-77695001D03*
D13*
%TO.P,J12,2,Pin_2*%
%TO.N,8*%
X136701000Y-77695001D03*
%TO.P,J12,3,Pin_3*%
%TO.N,9*%
X131701000Y-77695001D03*
%TO.P,J12,4,Pin_4*%
%TO.N,GND*%
X126701000Y-77695001D03*
%TO.P,J12,5,Pin_5*%
%TO.N,3V3*%
X121701000Y-77695001D03*
%TD*%
D14*
%TO.P,R3,2*%
%TO.N,GND*%
X224660000Y-101500000D03*
D15*
%TO.P,R3,1*%
%TO.N,RX*%
X214500000Y-101500000D03*
%TD*%
D14*
%TO.P,R2,2*%
%TO.N,Net-(J13-Pad2)*%
X224660000Y-109000000D03*
D15*
%TO.P,R2,1*%
%TO.N,RX*%
X214500000Y-109000000D03*
%TD*%
D12*
%TO.P,J10,1,Pin_1*%
%TO.N,18*%
X192000000Y-121500000D03*
D13*
%TO.P,J10,2,Pin_2*%
%TO.N,17*%
X197000000Y-121500000D03*
%TO.P,J10,3,Pin_3*%
%TO.N,16*%
X202000000Y-121500000D03*
%TO.P,J10,4,Pin_4*%
%TO.N,15*%
X207000000Y-121500000D03*
%TO.P,J10,5,Pin_5*%
%TO.N,5V*%
X212000000Y-121500000D03*
%TO.P,J10,6,Pin_6*%
%TO.N,GND*%
X217000000Y-121500000D03*
%TD*%
%TO.P,J9,3,Pin_3*%
%TO.N,GND*%
X176041000Y-77890000D03*
%TO.P,J9,2,Pin_2*%
%TO.N,5V*%
X181121000Y-77890000D03*
D12*
%TO.P,J9,1,Pin_1*%
%TO.N,7*%
X186201000Y-77890000D03*
%TD*%
%TO.P,J8,1,Pin_1*%
%TO.N,6*%
X203701000Y-77890000D03*
D13*
%TO.P,J8,2,Pin_2*%
%TO.N,5V*%
X198621000Y-77890000D03*
%TO.P,J8,3,Pin_3*%
%TO.N,GND*%
X193541000Y-77890000D03*
%TD*%
D12*
%TO.P,J7,1,Pin_1*%
%TO.N,5*%
X221201000Y-77890000D03*
D13*
%TO.P,J7,2,Pin_2*%
%TO.N,5V*%
X216121000Y-77890000D03*
%TO.P,J7,3,Pin_3*%
%TO.N,GND*%
X211041000Y-77890000D03*
%TD*%
D12*
%TO.P,J6,1,Pin_1*%
%TO.N,4*%
X238701000Y-77890000D03*
D13*
%TO.P,J6,2,Pin_2*%
%TO.N,5V*%
X233621000Y-77890000D03*
%TO.P,J6,3,Pin_3*%
%TO.N,GND*%
X228541000Y-77890000D03*
%TD*%
%TO.P,J5,3,Pin_3*%
%TO.N,GND*%
X236817000Y-100023000D03*
%TO.P,J5,2,Pin_2*%
%TO.N,5V*%
X236817000Y-105103000D03*
D12*
%TO.P,J5,1,Pin_1*%
%TO.N,10*%
X236817000Y-110183000D03*
%TD*%
D15*
%TO.P,R1,1*%
%TO.N,3V3*%
X174580000Y-109500000D03*
D14*
%TO.P,R1,2*%
%TO.N,1*%
X164420000Y-109500000D03*
%TD*%
D13*
%TO.P,J4,3,Pin_3*%
%TO.N,GND*%
X166383000Y-121427000D03*
%TO.P,J4,2,Pin_2*%
%TO.N,3V3*%
X161303000Y-121427000D03*
D12*
%TO.P,J4,1,Pin_1*%
%TO.N,1*%
X156223000Y-121427000D03*
%TD*%
%TO.P,J3,1,Pin_1*%
%TO.N,1*%
X173915000Y-121500000D03*
D13*
%TO.P,J3,2,Pin_2*%
%TO.N,3V3*%
X178995000Y-121500000D03*
%TO.P,J3,3,Pin_3*%
%TO.N,GND*%
X184075000Y-121500000D03*
%TD*%
D16*
%TO.N,4*%
X224500000Y-86500000D03*
X177000000Y-93000000D03*
%TO.N,18*%
X186000000Y-104500000D03*
%TO.N,17*%
X186000000Y-102500000D03*
%TO.N,16*%
X186000000Y-100500000D03*
%TO.N,15*%
X186000000Y-98500000D03*
%TO.N,5*%
X145000000Y-94500000D03*
%TO.N,6*%
X137500000Y-93000000D03*
%TO.N,3V3*%
X171000000Y-91500000D03*
X174500000Y-97420000D03*
%TD*%
D17*
%TO.N,5V*%
X219250000Y-96000000D02*
X209500000Y-96000000D01*
X226908500Y-88341500D02*
X219250000Y-96000000D01*
X236817000Y-88341500D02*
X226908500Y-88341500D01*
X233621000Y-80621000D02*
X233621000Y-77890000D01*
X236817000Y-88341500D02*
X236817000Y-83817000D01*
X236817000Y-83817000D02*
X233621000Y-80621000D01*
X240000000Y-91524500D02*
X236817000Y-88341500D01*
X240000000Y-101920000D02*
X240000000Y-91524500D01*
X236817000Y-105103000D02*
X240000000Y-101920000D01*
%TO.N,3V3*%
X174580000Y-97500000D02*
X174580000Y-109500000D01*
D18*
%TO.N,1*%
X134850000Y-112500000D02*
X134850000Y-116250000D01*
%TO.N,2*%
X132310000Y-112500000D02*
X132310000Y-116250000D01*
%TO.N,42*%
X129770000Y-112500000D02*
X129770000Y-116250000D01*
%TO.N,41*%
X127230000Y-112500000D02*
X127230000Y-116250000D01*
%TO.N,40*%
X124690000Y-112500000D02*
X124690000Y-116250000D01*
%TO.N,39*%
X122150000Y-112500000D02*
X122150000Y-116250000D01*
%TO.N,38*%
X119610000Y-112500000D02*
X119610000Y-116250000D01*
%TO.N,37*%
X117070000Y-112500000D02*
X117070000Y-116250000D01*
%TO.N,36*%
X114530000Y-112500000D02*
X114530000Y-116250000D01*
%TO.N,35*%
X111990000Y-112500000D02*
X111990000Y-116250000D01*
%TO.N,0*%
X109450000Y-112500000D02*
X109450000Y-116250000D01*
%TO.N,45*%
X106910000Y-112500000D02*
X106910000Y-116250000D01*
%TO.N,48*%
X104370000Y-112500000D02*
X104370000Y-116250000D01*
%TO.N,47*%
X101830000Y-112500000D02*
X101830000Y-116250000D01*
%TO.N,21*%
X99290000Y-112500000D02*
X99290000Y-116250000D01*
%TO.N,20*%
X96750000Y-112500000D02*
X96750000Y-116250000D01*
%TO.N,19*%
X94210000Y-112500000D02*
X94210000Y-116250000D01*
%TO.N,GND*%
X89130000Y-112500000D02*
X89130000Y-116250000D01*
X91670000Y-112500000D02*
X91670000Y-116250000D01*
D17*
%TO.N,3V3*%
X141500000Y-82000000D02*
X142480000Y-82980000D01*
X142480000Y-80480000D02*
X142480000Y-82980000D01*
X141701000Y-79701000D02*
X142480000Y-80480000D01*
D18*
%TO.N,12*%
X99300000Y-85200000D02*
X99300000Y-87000000D01*
X102750000Y-81750000D02*
X99300000Y-85200000D01*
X103540000Y-76960000D02*
X102750000Y-77750000D01*
X106500000Y-76960000D02*
X103540000Y-76960000D01*
X102750000Y-77750000D02*
X102750000Y-81750000D01*
%TO.N,13*%
X108500000Y-75000000D02*
X109040000Y-75540000D01*
X109040000Y-75540000D02*
X109040000Y-76960000D01*
X103250000Y-75000000D02*
X108500000Y-75000000D01*
X100750000Y-77500000D02*
X103250000Y-75000000D01*
X100750000Y-81000000D02*
X100750000Y-77500000D01*
X96760000Y-84990000D02*
X100750000Y-81000000D01*
X96760000Y-87000000D02*
X96760000Y-84990000D01*
%TO.N,14*%
X102250000Y-74250000D02*
X99500000Y-77000000D01*
X110250000Y-74250000D02*
X102250000Y-74250000D01*
X111580000Y-75580000D02*
X110250000Y-74250000D01*
X111580000Y-76960000D02*
X111580000Y-75580000D01*
X99500000Y-77000000D02*
X99500000Y-80000000D01*
X99500000Y-80000000D02*
X94220000Y-85280000D01*
X94220000Y-85280000D02*
X94220000Y-87000000D01*
%TO.N,11*%
X101840000Y-85410000D02*
X106500000Y-80750000D01*
X101840000Y-87000000D02*
X101840000Y-85410000D01*
X106500000Y-79500000D02*
X106500000Y-80750000D01*
%TO.N,46*%
X109460000Y-82960000D02*
X109460000Y-87000000D01*
X109040000Y-82540000D02*
X109460000Y-82960000D01*
X109040000Y-79500000D02*
X109040000Y-82540000D01*
%TO.N,3*%
X112000000Y-83000000D02*
X112000000Y-87000000D01*
X111580000Y-82580000D02*
X112000000Y-83000000D01*
X111580000Y-79500000D02*
X111580000Y-82580000D01*
%TO.N,4*%
X231000000Y-76000000D02*
X233000000Y-74000000D01*
X233000000Y-74000000D02*
X237500000Y-74000000D01*
X237500000Y-74000000D02*
X238701000Y-75201000D01*
X238701000Y-75201000D02*
X238701000Y-77890000D01*
X231000000Y-80000000D02*
X231000000Y-76000000D01*
X224500000Y-86500000D02*
X231000000Y-80000000D01*
X175500000Y-93000000D02*
X177000000Y-93000000D01*
D17*
%TO.N,5V*%
X177500000Y-96000000D02*
X174500000Y-96000000D01*
X181121000Y-92379000D02*
X177500000Y-96000000D01*
X181121000Y-77890000D02*
X181121000Y-92379000D01*
D18*
%TO.N,4*%
X167000000Y-93000000D02*
X175500000Y-93000000D01*
X143500000Y-93000000D02*
X167000000Y-93000000D01*
X143000000Y-92500000D02*
X143500000Y-93000000D01*
X140500000Y-90000000D02*
X143000000Y-92500000D01*
X134860000Y-87000000D02*
X137860000Y-90000000D01*
X137860000Y-90000000D02*
X140500000Y-90000000D01*
%TO.N,15*%
X200500000Y-98500000D02*
X186000000Y-98500000D01*
X207000000Y-105000000D02*
X200500000Y-98500000D01*
X207000000Y-121500000D02*
X207000000Y-105000000D01*
%TO.N,16*%
X195500000Y-100500000D02*
X186000000Y-100500000D01*
X196000000Y-101000000D02*
X195500000Y-100500000D01*
X202000000Y-107000000D02*
X196000000Y-101000000D01*
X202000000Y-121500000D02*
X202000000Y-107000000D01*
%TO.N,17*%
X192000000Y-102500000D02*
X186000000Y-102500000D01*
X197000000Y-107500000D02*
X192000000Y-102500000D01*
X197000000Y-121500000D02*
X197000000Y-107500000D01*
%TO.N,18*%
X192000000Y-108000000D02*
X188500000Y-104500000D01*
X188500000Y-104500000D02*
X186000000Y-104500000D01*
X192000000Y-121500000D02*
X192000000Y-108000000D01*
D17*
%TO.N,3V3*%
X174500000Y-97420000D02*
X174580000Y-97500000D01*
%TO.N,5V*%
X216121000Y-89379000D02*
X209500000Y-96000000D01*
X216121000Y-77890000D02*
X216121000Y-89379000D01*
X191500000Y-96000000D02*
X209500000Y-96000000D01*
X174500000Y-96000000D02*
X191500000Y-96000000D01*
X194000000Y-93500000D02*
X191500000Y-96000000D01*
X91680000Y-90680000D02*
X91680000Y-87000000D01*
X174500000Y-96000000D02*
X97000000Y-96000000D01*
X97000000Y-96000000D02*
X91680000Y-90680000D01*
X212000000Y-124000000D02*
X212000000Y-121500000D01*
X216500000Y-128500000D02*
X212000000Y-124000000D01*
X240000000Y-125000000D02*
X236500000Y-128500000D01*
X236500000Y-128500000D02*
X216500000Y-128500000D01*
X240000000Y-121500000D02*
X240000000Y-125000000D01*
X233000000Y-108920000D02*
X236817000Y-105103000D01*
X233000000Y-111500000D02*
X233000000Y-108920000D01*
X240000000Y-118500000D02*
X233000000Y-111500000D01*
X240000000Y-121500000D02*
X240000000Y-118500000D01*
D18*
%TO.N,RX*%
X214500000Y-101500000D02*
X214500000Y-109000000D01*
%TO.N,5*%
X138500000Y-91500000D02*
X141500000Y-94500000D01*
X136820000Y-91500000D02*
X138500000Y-91500000D01*
X141500000Y-94500000D02*
X145000000Y-94500000D01*
X132320000Y-87000000D02*
X136820000Y-91500000D01*
%TO.N,6*%
X137500000Y-93000000D02*
X135780000Y-93000000D01*
X135780000Y-93000000D02*
X129780000Y-87000000D01*
D17*
%TO.N,5V*%
X198621000Y-88879000D02*
X194000000Y-93500000D01*
X198621000Y-77890000D02*
X198621000Y-88879000D01*
%TO.N,3V3*%
X142480000Y-89480000D02*
X144500000Y-91500000D01*
X142480000Y-87000000D02*
X142480000Y-89480000D01*
X144500000Y-91500000D02*
X171000000Y-91500000D01*
X178995000Y-117495000D02*
X174580000Y-113080000D01*
X178995000Y-121500000D02*
X178995000Y-117495000D01*
X174580000Y-113080000D02*
X174580000Y-109500000D01*
X179000000Y-123500000D02*
X178995000Y-123495000D01*
X162500000Y-125000000D02*
X177500000Y-125000000D01*
X161303000Y-123803000D02*
X162500000Y-125000000D01*
X177500000Y-125000000D02*
X179000000Y-123500000D01*
X178995000Y-123495000D02*
X178995000Y-121500000D01*
X161303000Y-121427000D02*
X161303000Y-123803000D01*
D18*
%TO.N,1*%
X164420000Y-110920000D02*
X164420000Y-109500000D01*
X167000000Y-113500000D02*
X164420000Y-110920000D01*
X170000000Y-113500000D02*
X167000000Y-113500000D01*
X173915000Y-117415000D02*
X170000000Y-113500000D01*
X173915000Y-121500000D02*
X173915000Y-117415000D01*
X160500000Y-109500000D02*
X164420000Y-109500000D01*
X156223000Y-113777000D02*
X160500000Y-109500000D01*
X156223000Y-121427000D02*
X156223000Y-113777000D01*
D17*
%TO.N,5V*%
X95500000Y-80500000D02*
X95500000Y-79000000D01*
X91680000Y-84320000D02*
X95500000Y-80500000D01*
X91680000Y-87000000D02*
X91680000Y-84320000D01*
X95500000Y-77500000D02*
X95500000Y-79000000D01*
%TO.N,3V3*%
X142480000Y-83480000D02*
X142480000Y-82980000D01*
X142480000Y-84020000D02*
X142480000Y-83480000D01*
X141701000Y-77695001D02*
X141701000Y-79701000D01*
X147500000Y-83000000D02*
X143500000Y-83000000D01*
X143500000Y-83000000D02*
X142480000Y-84020000D01*
X142480000Y-87000000D02*
X142480000Y-84020000D01*
X123000000Y-82000000D02*
X121701000Y-80701000D01*
X141500000Y-82000000D02*
X123000000Y-82000000D01*
X121701000Y-80701000D02*
X121701000Y-77695001D01*
X148701000Y-81799000D02*
X147500000Y-83000000D01*
X148701000Y-77866001D02*
X148701000Y-81799000D01*
%TD*%
M02*
