%TF.GenerationSoftware,KiCad,Pcbnew,(6.0.10)*%
%TF.CreationDate,2025-06-24T19:53:20+02:00*%
%TF.ProjectId,esp_shield,6573705f-7368-4696-956c-642e6b696361,1.0*%
%TF.SameCoordinates,Original*%
%TF.FileFunction,Drillmap*%
%TF.FilePolarity,Positive*%
%FSLAX45Y45*%
G04 Gerber Fmt 4.5, Leading zero omitted, Abs format (unit mm)*
G04 Created by KiCad (PCBNEW (6.0.10)) date 2025-06-24 19:53:20*
%MOMM*%
%LPD*%
G01*
G04 APERTURE LIST*
%ADD10C,0.100000*%
%ADD11C,0.200000*%
G04 APERTURE END LIST*
D10*
X15550000Y-10975000D02*
G75*
G03*
X15550000Y-10975000I-150000J0D01*
G01*
X21050000Y-10225000D02*
G75*
G03*
X21050000Y-10225000I-150000J0D01*
G01*
X20800000Y-8725000D02*
G75*
G03*
X20800000Y-8725000I-150000J0D01*
G01*
X9300000Y-9725000D02*
G75*
G03*
X9300000Y-9725000I-150000J0D01*
G01*
X8300000Y-13000000D02*
X14500000Y-13000000D01*
X14500000Y-7000000D02*
X8300000Y-7000000D01*
X14500000Y-7000000D02*
X24500000Y-7000000D01*
X8300000Y-13000000D02*
X8300000Y-7000000D01*
X24500000Y-13000000D02*
X14500000Y-13000000D01*
X24500000Y-7000000D02*
X24500000Y-13000000D01*
D11*
X8552619Y-13315476D02*
X8552619Y-13115476D01*
X8600238Y-13115476D01*
X8628810Y-13125000D01*
X8647857Y-13144048D01*
X8657381Y-13163095D01*
X8666905Y-13201190D01*
X8666905Y-13229762D01*
X8657381Y-13267857D01*
X8647857Y-13286905D01*
X8628810Y-13305952D01*
X8600238Y-13315476D01*
X8552619Y-13315476D01*
X8752619Y-13315476D02*
X8752619Y-13182143D01*
X8752619Y-13220238D02*
X8762143Y-13201190D01*
X8771667Y-13191667D01*
X8790714Y-13182143D01*
X8809762Y-13182143D01*
X8876429Y-13315476D02*
X8876429Y-13182143D01*
X8876429Y-13115476D02*
X8866905Y-13125000D01*
X8876429Y-13134524D01*
X8885952Y-13125000D01*
X8876429Y-13115476D01*
X8876429Y-13134524D01*
X9000238Y-13315476D02*
X8981190Y-13305952D01*
X8971667Y-13286905D01*
X8971667Y-13115476D01*
X9105000Y-13315476D02*
X9085952Y-13305952D01*
X9076429Y-13286905D01*
X9076429Y-13115476D01*
X9333571Y-13315476D02*
X9333571Y-13115476D01*
X9400238Y-13258333D01*
X9466905Y-13115476D01*
X9466905Y-13315476D01*
X9647857Y-13315476D02*
X9647857Y-13210714D01*
X9638333Y-13191667D01*
X9619286Y-13182143D01*
X9581190Y-13182143D01*
X9562143Y-13191667D01*
X9647857Y-13305952D02*
X9628810Y-13315476D01*
X9581190Y-13315476D01*
X9562143Y-13305952D01*
X9552619Y-13286905D01*
X9552619Y-13267857D01*
X9562143Y-13248809D01*
X9581190Y-13239286D01*
X9628810Y-13239286D01*
X9647857Y-13229762D01*
X9743095Y-13182143D02*
X9743095Y-13382143D01*
X9743095Y-13191667D02*
X9762143Y-13182143D01*
X9800238Y-13182143D01*
X9819286Y-13191667D01*
X9828810Y-13201190D01*
X9838333Y-13220238D01*
X9838333Y-13277381D01*
X9828810Y-13296428D01*
X9819286Y-13305952D01*
X9800238Y-13315476D01*
X9762143Y-13315476D01*
X9743095Y-13305952D01*
X9924048Y-13296428D02*
X9933571Y-13305952D01*
X9924048Y-13315476D01*
X9914524Y-13305952D01*
X9924048Y-13296428D01*
X9924048Y-13315476D01*
X9924048Y-13191667D02*
X9933571Y-13201190D01*
X9924048Y-13210714D01*
X9914524Y-13201190D01*
X9924048Y-13191667D01*
X9924048Y-13210714D01*
M02*
