%TF.GenerationSoftware,KiCad,Pcbnew,(6.0.10)*%
%TF.CreationDate,2025-06-24T19:53:16+02:00*%
%TF.ProjectId,esp_shield,6573705f-7368-4696-956c-642e6b696361,1.0*%
%TF.SameCoordinates,Original*%
%TF.FileFunction,Legend,Top*%
%TF.FilePolarity,Positive*%
%FSLAX46Y46*%
G04 Gerber Fmt 4.6, Leading zero omitted, Abs format (unit mm)*
G04 Created by KiCad (PCBNEW (6.0.10)) date 2025-06-24 19:53:16*
%MOMM*%
%LPD*%
G01*
G04 APERTURE LIST*
%ADD10C,0.150000*%
%ADD11C,0.120000*%
G04 APERTURE END LIST*
D10*
X95309523Y-70952380D02*
X94833333Y-70952380D01*
X94785714Y-71428571D01*
X94833333Y-71380952D01*
X94928571Y-71333333D01*
X95166666Y-71333333D01*
X95261904Y-71380952D01*
X95309523Y-71428571D01*
X95357142Y-71523809D01*
X95357142Y-71761904D01*
X95309523Y-71857142D01*
X95261904Y-71904761D01*
X95166666Y-71952380D01*
X94928571Y-71952380D01*
X94833333Y-71904761D01*
X94785714Y-71857142D01*
X95642857Y-70952380D02*
X95976190Y-71952380D01*
X96309523Y-70952380D01*
X89738095Y-71000000D02*
X89642857Y-70952380D01*
X89500000Y-70952380D01*
X89357142Y-71000000D01*
X89261904Y-71095238D01*
X89214285Y-71190476D01*
X89166666Y-71380952D01*
X89166666Y-71523809D01*
X89214285Y-71714285D01*
X89261904Y-71809523D01*
X89357142Y-71904761D01*
X89500000Y-71952380D01*
X89595238Y-71952380D01*
X89738095Y-71904761D01*
X89785714Y-71857142D01*
X89785714Y-71523809D01*
X89595238Y-71523809D01*
X90214285Y-71952380D02*
X90214285Y-70952380D01*
X90785714Y-71952380D01*
X90785714Y-70952380D01*
X91261904Y-71952380D02*
X91261904Y-70952380D01*
X91500000Y-70952380D01*
X91642857Y-71000000D01*
X91738095Y-71095238D01*
X91785714Y-71190476D01*
X91833333Y-71380952D01*
X91833333Y-71523809D01*
X91785714Y-71714285D01*
X91738095Y-71809523D01*
X91642857Y-71904761D01*
X91500000Y-71952380D01*
X91261904Y-71952380D01*
X112023809Y-99428571D02*
X112357142Y-99428571D01*
X112500000Y-99952380D02*
X112023809Y-99952380D01*
X112023809Y-98952380D01*
X112500000Y-98952380D01*
X112880952Y-99904761D02*
X113023809Y-99952380D01*
X113261904Y-99952380D01*
X113357142Y-99904761D01*
X113404761Y-99857142D01*
X113452380Y-99761904D01*
X113452380Y-99666666D01*
X113404761Y-99571428D01*
X113357142Y-99523809D01*
X113261904Y-99476190D01*
X113071428Y-99428571D01*
X112976190Y-99380952D01*
X112928571Y-99333333D01*
X112880952Y-99238095D01*
X112880952Y-99142857D01*
X112928571Y-99047619D01*
X112976190Y-99000000D01*
X113071428Y-98952380D01*
X113309523Y-98952380D01*
X113452380Y-99000000D01*
X113880952Y-99952380D02*
X113880952Y-98952380D01*
X114261904Y-98952380D01*
X114357142Y-99000000D01*
X114404761Y-99047619D01*
X114452380Y-99142857D01*
X114452380Y-99285714D01*
X114404761Y-99380952D01*
X114357142Y-99428571D01*
X114261904Y-99476190D01*
X113880952Y-99476190D01*
X114785714Y-98952380D02*
X115404761Y-98952380D01*
X115071428Y-99333333D01*
X115214285Y-99333333D01*
X115309523Y-99380952D01*
X115357142Y-99428571D01*
X115404761Y-99523809D01*
X115404761Y-99761904D01*
X115357142Y-99857142D01*
X115309523Y-99904761D01*
X115214285Y-99952380D01*
X114928571Y-99952380D01*
X114833333Y-99904761D01*
X114785714Y-99857142D01*
X115785714Y-99047619D02*
X115833333Y-99000000D01*
X115928571Y-98952380D01*
X116166666Y-98952380D01*
X116261904Y-99000000D01*
X116309523Y-99047619D01*
X116357142Y-99142857D01*
X116357142Y-99238095D01*
X116309523Y-99380952D01*
X115738095Y-99952380D01*
X116357142Y-99952380D01*
X117500000Y-99904761D02*
X117642857Y-99952380D01*
X117880952Y-99952380D01*
X117976190Y-99904761D01*
X118023809Y-99857142D01*
X118071428Y-99761904D01*
X118071428Y-99666666D01*
X118023809Y-99571428D01*
X117976190Y-99523809D01*
X117880952Y-99476190D01*
X117690476Y-99428571D01*
X117595238Y-99380952D01*
X117547619Y-99333333D01*
X117500000Y-99238095D01*
X117500000Y-99142857D01*
X117547619Y-99047619D01*
X117595238Y-99000000D01*
X117690476Y-98952380D01*
X117928571Y-98952380D01*
X118071428Y-99000000D01*
X118404761Y-98952380D02*
X119023809Y-98952380D01*
X118690476Y-99333333D01*
X118833333Y-99333333D01*
X118928571Y-99380952D01*
X118976190Y-99428571D01*
X119023809Y-99523809D01*
X119023809Y-99761904D01*
X118976190Y-99857142D01*
X118928571Y-99904761D01*
X118833333Y-99952380D01*
X118547619Y-99952380D01*
X118452380Y-99904761D01*
X118404761Y-99857142D01*
X242952380Y-89690476D02*
X242952380Y-90166666D01*
X243428571Y-90214285D01*
X243380952Y-90166666D01*
X243333333Y-90071428D01*
X243333333Y-89833333D01*
X243380952Y-89738095D01*
X243428571Y-89690476D01*
X243523809Y-89642857D01*
X243761904Y-89642857D01*
X243857142Y-89690476D01*
X243904761Y-89738095D01*
X243952380Y-89833333D01*
X243952380Y-90071428D01*
X243904761Y-90166666D01*
X243857142Y-90214285D01*
X242952380Y-89357142D02*
X243952380Y-89023809D01*
X242952380Y-88690476D01*
X243000000Y-95261904D02*
X242952380Y-95357142D01*
X242952380Y-95500000D01*
X243000000Y-95642857D01*
X243095238Y-95738095D01*
X243190476Y-95785714D01*
X243380952Y-95833333D01*
X243523809Y-95833333D01*
X243714285Y-95785714D01*
X243809523Y-95738095D01*
X243904761Y-95642857D01*
X243952380Y-95500000D01*
X243952380Y-95404761D01*
X243904761Y-95261904D01*
X243857142Y-95214285D01*
X243523809Y-95214285D01*
X243523809Y-95404761D01*
X243952380Y-94785714D02*
X242952380Y-94785714D01*
X243952380Y-94214285D01*
X242952380Y-94214285D01*
X243952380Y-93738095D02*
X242952380Y-93738095D01*
X242952380Y-93500000D01*
X243000000Y-93357142D01*
X243095238Y-93261904D01*
X243190476Y-93214285D01*
X243380952Y-93166666D01*
X243523809Y-93166666D01*
X243714285Y-93214285D01*
X243809523Y-93261904D01*
X243904761Y-93357142D01*
X243952380Y-93500000D01*
X243952380Y-93738095D01*
X110952380Y-91333333D02*
X110952380Y-90714285D01*
X111333333Y-91047619D01*
X111333333Y-90904761D01*
X111380952Y-90809523D01*
X111428571Y-90761904D01*
X111523809Y-90714285D01*
X111761904Y-90714285D01*
X111857142Y-90761904D01*
X111904761Y-90809523D01*
X111952380Y-90904761D01*
X111952380Y-91190476D01*
X111904761Y-91285714D01*
X111857142Y-91333333D01*
X113880952Y-91095238D02*
X113833333Y-91190476D01*
X113785714Y-91238095D01*
X113690476Y-91285714D01*
X113642857Y-91285714D01*
X113547619Y-91238095D01*
X113500000Y-91190476D01*
X113452380Y-91095238D01*
X113452380Y-90904761D01*
X113500000Y-90809523D01*
X113547619Y-90761904D01*
X113642857Y-90714285D01*
X113690476Y-90714285D01*
X113785714Y-90761904D01*
X113833333Y-90809523D01*
X113880952Y-90904761D01*
X113880952Y-91095238D01*
X113928571Y-91190476D01*
X113976190Y-91238095D01*
X114071428Y-91285714D01*
X114261904Y-91285714D01*
X114357142Y-91238095D01*
X114404761Y-91190476D01*
X114452380Y-91095238D01*
X114452380Y-90904761D01*
X114404761Y-90809523D01*
X114357142Y-90761904D01*
X114261904Y-90714285D01*
X114071428Y-90714285D01*
X113976190Y-90761904D01*
X113928571Y-90809523D01*
X113880952Y-90904761D01*
X101952380Y-91190476D02*
X101952380Y-91761904D01*
X101952380Y-91476190D02*
X100952380Y-91476190D01*
X101095238Y-91571428D01*
X101190476Y-91666666D01*
X101238095Y-91761904D01*
X101952380Y-90238095D02*
X101952380Y-90809523D01*
X101952380Y-90523809D02*
X100952380Y-90523809D01*
X101095238Y-90619047D01*
X101190476Y-90714285D01*
X101238095Y-90809523D01*
X124452380Y-91190476D02*
X124452380Y-91761904D01*
X124452380Y-91476190D02*
X123452380Y-91476190D01*
X123595238Y-91571428D01*
X123690476Y-91666666D01*
X123738095Y-91761904D01*
X123452380Y-90285714D02*
X123452380Y-90761904D01*
X123928571Y-90809523D01*
X123880952Y-90761904D01*
X123833333Y-90666666D01*
X123833333Y-90428571D01*
X123880952Y-90333333D01*
X123928571Y-90285714D01*
X124023809Y-90238095D01*
X124261904Y-90238095D01*
X124357142Y-90285714D01*
X124404761Y-90333333D01*
X124452380Y-90428571D01*
X124452380Y-90666666D01*
X124404761Y-90761904D01*
X124357142Y-90809523D01*
X116952380Y-91190476D02*
X116952380Y-91761904D01*
X116952380Y-91476190D02*
X115952380Y-91476190D01*
X116095238Y-91571428D01*
X116190476Y-91666666D01*
X116238095Y-91761904D01*
X116380952Y-90619047D02*
X116333333Y-90714285D01*
X116285714Y-90761904D01*
X116190476Y-90809523D01*
X116142857Y-90809523D01*
X116047619Y-90761904D01*
X116000000Y-90714285D01*
X115952380Y-90619047D01*
X115952380Y-90428571D01*
X116000000Y-90333333D01*
X116047619Y-90285714D01*
X116142857Y-90238095D01*
X116190476Y-90238095D01*
X116285714Y-90285714D01*
X116333333Y-90333333D01*
X116380952Y-90428571D01*
X116380952Y-90619047D01*
X116428571Y-90714285D01*
X116476190Y-90761904D01*
X116571428Y-90809523D01*
X116761904Y-90809523D01*
X116857142Y-90761904D01*
X116904761Y-90714285D01*
X116952380Y-90619047D01*
X116952380Y-90428571D01*
X116904761Y-90333333D01*
X116857142Y-90285714D01*
X116761904Y-90238095D01*
X116571428Y-90238095D01*
X116476190Y-90285714D01*
X116428571Y-90333333D01*
X116380952Y-90428571D01*
X108785714Y-91285714D02*
X109452380Y-91285714D01*
X108404761Y-91523809D02*
X109119047Y-91761904D01*
X109119047Y-91142857D01*
X108452380Y-90333333D02*
X108452380Y-90523809D01*
X108500000Y-90619047D01*
X108547619Y-90666666D01*
X108690476Y-90761904D01*
X108880952Y-90809523D01*
X109261904Y-90809523D01*
X109357142Y-90761904D01*
X109404761Y-90714285D01*
X109452380Y-90619047D01*
X109452380Y-90428571D01*
X109404761Y-90333333D01*
X109357142Y-90285714D01*
X109261904Y-90238095D01*
X109023809Y-90238095D01*
X108928571Y-90285714D01*
X108880952Y-90333333D01*
X108833333Y-90428571D01*
X108833333Y-90619047D01*
X108880952Y-90714285D01*
X108928571Y-90761904D01*
X109023809Y-90809523D01*
X106952380Y-91190476D02*
X106952380Y-91000000D01*
X106904761Y-90904761D01*
X106857142Y-90857142D01*
X106714285Y-90761904D01*
X106523809Y-90714285D01*
X106142857Y-90714285D01*
X106047619Y-90761904D01*
X106000000Y-90809523D01*
X105952380Y-90904761D01*
X105952380Y-91095238D01*
X106000000Y-91190476D01*
X106047619Y-91238095D01*
X106142857Y-91285714D01*
X106380952Y-91285714D01*
X106476190Y-91238095D01*
X106523809Y-91190476D01*
X106571428Y-91095238D01*
X106571428Y-90904761D01*
X106523809Y-90809523D01*
X106476190Y-90761904D01*
X106380952Y-90714285D01*
X104452380Y-91190476D02*
X104452380Y-91761904D01*
X104452380Y-91476190D02*
X103452380Y-91476190D01*
X103595238Y-91571428D01*
X103690476Y-91666666D01*
X103738095Y-91761904D01*
X103452380Y-90571428D02*
X103452380Y-90476190D01*
X103500000Y-90380952D01*
X103547619Y-90333333D01*
X103642857Y-90285714D01*
X103833333Y-90238095D01*
X104071428Y-90238095D01*
X104261904Y-90285714D01*
X104357142Y-90333333D01*
X104404761Y-90380952D01*
X104452380Y-90476190D01*
X104452380Y-90571428D01*
X104404761Y-90666666D01*
X104357142Y-90714285D01*
X104261904Y-90761904D01*
X104071428Y-90809523D01*
X103833333Y-90809523D01*
X103642857Y-90761904D01*
X103547619Y-90714285D01*
X103500000Y-90666666D01*
X103452380Y-90571428D01*
X121952380Y-91190476D02*
X121952380Y-91761904D01*
X121952380Y-91476190D02*
X120952380Y-91476190D01*
X121095238Y-91571428D01*
X121190476Y-91666666D01*
X121238095Y-91761904D01*
X120952380Y-90333333D02*
X120952380Y-90523809D01*
X121000000Y-90619047D01*
X121047619Y-90666666D01*
X121190476Y-90761904D01*
X121380952Y-90809523D01*
X121761904Y-90809523D01*
X121857142Y-90761904D01*
X121904761Y-90714285D01*
X121952380Y-90619047D01*
X121952380Y-90428571D01*
X121904761Y-90333333D01*
X121857142Y-90285714D01*
X121761904Y-90238095D01*
X121523809Y-90238095D01*
X121428571Y-90285714D01*
X121380952Y-90333333D01*
X121333333Y-90428571D01*
X121333333Y-90619047D01*
X121380952Y-90714285D01*
X121428571Y-90761904D01*
X121523809Y-90809523D01*
X119452380Y-91190476D02*
X119452380Y-91761904D01*
X119452380Y-91476190D02*
X118452380Y-91476190D01*
X118595238Y-91571428D01*
X118690476Y-91666666D01*
X118738095Y-91761904D01*
X118452380Y-90857142D02*
X118452380Y-90190476D01*
X119452380Y-90619047D01*
X99452380Y-91190476D02*
X99452380Y-91761904D01*
X99452380Y-91476190D02*
X98452380Y-91476190D01*
X98595238Y-91571428D01*
X98690476Y-91666666D01*
X98738095Y-91761904D01*
X98547619Y-90809523D02*
X98500000Y-90761904D01*
X98452380Y-90666666D01*
X98452380Y-90428571D01*
X98500000Y-90333333D01*
X98547619Y-90285714D01*
X98642857Y-90238095D01*
X98738095Y-90238095D01*
X98880952Y-90285714D01*
X99452380Y-90857142D01*
X99452380Y-90238095D01*
X96952380Y-91190476D02*
X96952380Y-91761904D01*
X96952380Y-91476190D02*
X95952380Y-91476190D01*
X96095238Y-91571428D01*
X96190476Y-91666666D01*
X96238095Y-91761904D01*
X95952380Y-90857142D02*
X95952380Y-90238095D01*
X96333333Y-90571428D01*
X96333333Y-90428571D01*
X96380952Y-90333333D01*
X96428571Y-90285714D01*
X96523809Y-90238095D01*
X96761904Y-90238095D01*
X96857142Y-90285714D01*
X96904761Y-90333333D01*
X96952380Y-90428571D01*
X96952380Y-90714285D01*
X96904761Y-90809523D01*
X96857142Y-90857142D01*
X94452380Y-91190476D02*
X94452380Y-91761904D01*
X94452380Y-91476190D02*
X93452380Y-91476190D01*
X93595238Y-91571428D01*
X93690476Y-91666666D01*
X93738095Y-91761904D01*
X93785714Y-90333333D02*
X94452380Y-90333333D01*
X93404761Y-90571428D02*
X94119047Y-90809523D01*
X94119047Y-90190476D01*
X90952380Y-91880952D02*
X90952380Y-92357142D01*
X91428571Y-92404761D01*
X91380952Y-92357142D01*
X91333333Y-92261904D01*
X91333333Y-92023809D01*
X91380952Y-91928571D01*
X91428571Y-91880952D01*
X91523809Y-91833333D01*
X91761904Y-91833333D01*
X91857142Y-91880952D01*
X91904761Y-91928571D01*
X91952380Y-92023809D01*
X91952380Y-92261904D01*
X91904761Y-92357142D01*
X91857142Y-92404761D01*
X90952380Y-91547619D02*
X91952380Y-91214285D01*
X90952380Y-90880952D01*
X91952380Y-90547619D02*
X91285714Y-90547619D01*
X90952380Y-90547619D02*
X91000000Y-90595238D01*
X91047619Y-90547619D01*
X91000000Y-90500000D01*
X90952380Y-90547619D01*
X91047619Y-90547619D01*
X91285714Y-90071428D02*
X91952380Y-90071428D01*
X91380952Y-90071428D02*
X91333333Y-90023809D01*
X91285714Y-89928571D01*
X91285714Y-89785714D01*
X91333333Y-89690476D01*
X91428571Y-89642857D01*
X91952380Y-89642857D01*
X140952380Y-92238095D02*
X140952380Y-91619047D01*
X141333333Y-91952380D01*
X141333333Y-91809523D01*
X141380952Y-91714285D01*
X141428571Y-91666666D01*
X141523809Y-91619047D01*
X141761904Y-91619047D01*
X141857142Y-91666666D01*
X141904761Y-91714285D01*
X141952380Y-91809523D01*
X141952380Y-92095238D01*
X141904761Y-92190476D01*
X141857142Y-92238095D01*
X140952380Y-91333333D02*
X141952380Y-91000000D01*
X140952380Y-90666666D01*
X140952380Y-90428571D02*
X140952380Y-89809523D01*
X141333333Y-90142857D01*
X141333333Y-90000000D01*
X141380952Y-89904761D01*
X141428571Y-89857142D01*
X141523809Y-89809523D01*
X141761904Y-89809523D01*
X141857142Y-89857142D01*
X141904761Y-89904761D01*
X141952380Y-90000000D01*
X141952380Y-90285714D01*
X141904761Y-90380952D01*
X141857142Y-90428571D01*
X136952380Y-91547619D02*
X136476190Y-91880952D01*
X136952380Y-92119047D02*
X135952380Y-92119047D01*
X135952380Y-91738095D01*
X136000000Y-91642857D01*
X136047619Y-91595238D01*
X136142857Y-91547619D01*
X136285714Y-91547619D01*
X136380952Y-91595238D01*
X136428571Y-91642857D01*
X136476190Y-91738095D01*
X136476190Y-92119047D01*
X136904761Y-91166666D02*
X136952380Y-91023809D01*
X136952380Y-90785714D01*
X136904761Y-90690476D01*
X136857142Y-90642857D01*
X136761904Y-90595238D01*
X136666666Y-90595238D01*
X136571428Y-90642857D01*
X136523809Y-90690476D01*
X136476190Y-90785714D01*
X136428571Y-90976190D01*
X136380952Y-91071428D01*
X136333333Y-91119047D01*
X136238095Y-91166666D01*
X136142857Y-91166666D01*
X136047619Y-91119047D01*
X136000000Y-91071428D01*
X135952380Y-90976190D01*
X135952380Y-90738095D01*
X136000000Y-90595238D01*
X135952380Y-90309523D02*
X135952380Y-89738095D01*
X136952380Y-90023809D02*
X135952380Y-90023809D01*
X138452380Y-92238095D02*
X138452380Y-91619047D01*
X138833333Y-91952380D01*
X138833333Y-91809523D01*
X138880952Y-91714285D01*
X138928571Y-91666666D01*
X139023809Y-91619047D01*
X139261904Y-91619047D01*
X139357142Y-91666666D01*
X139404761Y-91714285D01*
X139452380Y-91809523D01*
X139452380Y-92095238D01*
X139404761Y-92190476D01*
X139357142Y-92238095D01*
X138452380Y-91333333D02*
X139452380Y-91000000D01*
X138452380Y-90666666D01*
X138452380Y-90428571D02*
X138452380Y-89809523D01*
X138833333Y-90142857D01*
X138833333Y-90000000D01*
X138880952Y-89904761D01*
X138928571Y-89857142D01*
X139023809Y-89809523D01*
X139261904Y-89809523D01*
X139357142Y-89857142D01*
X139404761Y-89904761D01*
X139452380Y-90000000D01*
X139452380Y-90285714D01*
X139404761Y-90380952D01*
X139357142Y-90428571D01*
X133785714Y-90809523D02*
X134452380Y-90809523D01*
X133404761Y-91047619D02*
X134119047Y-91285714D01*
X134119047Y-90666666D01*
X130952380Y-90761904D02*
X130952380Y-91238095D01*
X131428571Y-91285714D01*
X131380952Y-91238095D01*
X131333333Y-91142857D01*
X131333333Y-90904761D01*
X131380952Y-90809523D01*
X131428571Y-90761904D01*
X131523809Y-90714285D01*
X131761904Y-90714285D01*
X131857142Y-90761904D01*
X131904761Y-90809523D01*
X131952380Y-90904761D01*
X131952380Y-91142857D01*
X131904761Y-91238095D01*
X131857142Y-91285714D01*
X125952380Y-91333333D02*
X125952380Y-90666666D01*
X126952380Y-91095238D01*
X128452380Y-90809523D02*
X128452380Y-91000000D01*
X128500000Y-91095238D01*
X128547619Y-91142857D01*
X128690476Y-91238095D01*
X128880952Y-91285714D01*
X129261904Y-91285714D01*
X129357142Y-91238095D01*
X129404761Y-91190476D01*
X129452380Y-91095238D01*
X129452380Y-90904761D01*
X129404761Y-90809523D01*
X129357142Y-90761904D01*
X129261904Y-90714285D01*
X129023809Y-90714285D01*
X128928571Y-90761904D01*
X128880952Y-90809523D01*
X128833333Y-90904761D01*
X128833333Y-91095238D01*
X128880952Y-91190476D01*
X128928571Y-91238095D01*
X129023809Y-91285714D01*
X141000000Y-109261904D02*
X140952380Y-109357142D01*
X140952380Y-109500000D01*
X141000000Y-109642857D01*
X141095238Y-109738095D01*
X141190476Y-109785714D01*
X141380952Y-109833333D01*
X141523809Y-109833333D01*
X141714285Y-109785714D01*
X141809523Y-109738095D01*
X141904761Y-109642857D01*
X141952380Y-109500000D01*
X141952380Y-109404761D01*
X141904761Y-109261904D01*
X141857142Y-109214285D01*
X141523809Y-109214285D01*
X141523809Y-109404761D01*
X141952380Y-108785714D02*
X140952380Y-108785714D01*
X141952380Y-108214285D01*
X140952380Y-108214285D01*
X141952380Y-107738095D02*
X140952380Y-107738095D01*
X140952380Y-107500000D01*
X141000000Y-107357142D01*
X141095238Y-107261904D01*
X141190476Y-107214285D01*
X141380952Y-107166666D01*
X141523809Y-107166666D01*
X141714285Y-107214285D01*
X141809523Y-107261904D01*
X141904761Y-107357142D01*
X141952380Y-107500000D01*
X141952380Y-107738095D01*
X138452380Y-109261904D02*
X138452380Y-108690476D01*
X139452380Y-108976190D02*
X138452380Y-108976190D01*
X138452380Y-108452380D02*
X139452380Y-107785714D01*
X138452380Y-107785714D02*
X139452380Y-108452380D01*
X136952380Y-108666666D02*
X136476190Y-109000000D01*
X136952380Y-109238095D02*
X135952380Y-109238095D01*
X135952380Y-108857142D01*
X136000000Y-108761904D01*
X136047619Y-108714285D01*
X136142857Y-108666666D01*
X136285714Y-108666666D01*
X136380952Y-108714285D01*
X136428571Y-108761904D01*
X136476190Y-108857142D01*
X136476190Y-109238095D01*
X135952380Y-108333333D02*
X136952380Y-107666666D01*
X135952380Y-107666666D02*
X136952380Y-108333333D01*
X134452380Y-108214285D02*
X134452380Y-108785714D01*
X134452380Y-108500000D02*
X133452380Y-108500000D01*
X133595238Y-108595238D01*
X133690476Y-108690476D01*
X133738095Y-108785714D01*
X131047619Y-108785714D02*
X131000000Y-108738095D01*
X130952380Y-108642857D01*
X130952380Y-108404761D01*
X131000000Y-108309523D01*
X131047619Y-108261904D01*
X131142857Y-108214285D01*
X131238095Y-108214285D01*
X131380952Y-108261904D01*
X131952380Y-108833333D01*
X131952380Y-108214285D01*
X128785714Y-108785714D02*
X129452380Y-108785714D01*
X128404761Y-109023809D02*
X129119047Y-109261904D01*
X129119047Y-108642857D01*
X128547619Y-108309523D02*
X128500000Y-108261904D01*
X128452380Y-108166666D01*
X128452380Y-107928571D01*
X128500000Y-107833333D01*
X128547619Y-107785714D01*
X128642857Y-107738095D01*
X128738095Y-107738095D01*
X128880952Y-107785714D01*
X129452380Y-108357142D01*
X129452380Y-107738095D01*
X126285714Y-108785714D02*
X126952380Y-108785714D01*
X125904761Y-109023809D02*
X126619047Y-109261904D01*
X126619047Y-108642857D01*
X126952380Y-107738095D02*
X126952380Y-108309523D01*
X126952380Y-108023809D02*
X125952380Y-108023809D01*
X126095238Y-108119047D01*
X126190476Y-108214285D01*
X126238095Y-108309523D01*
X123785714Y-108785714D02*
X124452380Y-108785714D01*
X123404761Y-109023809D02*
X124119047Y-109261904D01*
X124119047Y-108642857D01*
X123452380Y-108071428D02*
X123452380Y-107976190D01*
X123500000Y-107880952D01*
X123547619Y-107833333D01*
X123642857Y-107785714D01*
X123833333Y-107738095D01*
X124071428Y-107738095D01*
X124261904Y-107785714D01*
X124357142Y-107833333D01*
X124404761Y-107880952D01*
X124452380Y-107976190D01*
X124452380Y-108071428D01*
X124404761Y-108166666D01*
X124357142Y-108214285D01*
X124261904Y-108261904D01*
X124071428Y-108309523D01*
X123833333Y-108309523D01*
X123642857Y-108261904D01*
X123547619Y-108214285D01*
X123500000Y-108166666D01*
X123452380Y-108071428D01*
X120952380Y-109309523D02*
X120952380Y-108690476D01*
X121333333Y-109023809D01*
X121333333Y-108880952D01*
X121380952Y-108785714D01*
X121428571Y-108738095D01*
X121523809Y-108690476D01*
X121761904Y-108690476D01*
X121857142Y-108738095D01*
X121904761Y-108785714D01*
X121952380Y-108880952D01*
X121952380Y-109166666D01*
X121904761Y-109261904D01*
X121857142Y-109309523D01*
X121952380Y-108214285D02*
X121952380Y-108023809D01*
X121904761Y-107928571D01*
X121857142Y-107880952D01*
X121714285Y-107785714D01*
X121523809Y-107738095D01*
X121142857Y-107738095D01*
X121047619Y-107785714D01*
X121000000Y-107833333D01*
X120952380Y-107928571D01*
X120952380Y-108119047D01*
X121000000Y-108214285D01*
X121047619Y-108261904D01*
X121142857Y-108309523D01*
X121380952Y-108309523D01*
X121476190Y-108261904D01*
X121523809Y-108214285D01*
X121571428Y-108119047D01*
X121571428Y-107928571D01*
X121523809Y-107833333D01*
X121476190Y-107785714D01*
X121380952Y-107738095D01*
X118452380Y-109309523D02*
X118452380Y-108690476D01*
X118833333Y-109023809D01*
X118833333Y-108880952D01*
X118880952Y-108785714D01*
X118928571Y-108738095D01*
X119023809Y-108690476D01*
X119261904Y-108690476D01*
X119357142Y-108738095D01*
X119404761Y-108785714D01*
X119452380Y-108880952D01*
X119452380Y-109166666D01*
X119404761Y-109261904D01*
X119357142Y-109309523D01*
X118880952Y-108119047D02*
X118833333Y-108214285D01*
X118785714Y-108261904D01*
X118690476Y-108309523D01*
X118642857Y-108309523D01*
X118547619Y-108261904D01*
X118500000Y-108214285D01*
X118452380Y-108119047D01*
X118452380Y-107928571D01*
X118500000Y-107833333D01*
X118547619Y-107785714D01*
X118642857Y-107738095D01*
X118690476Y-107738095D01*
X118785714Y-107785714D01*
X118833333Y-107833333D01*
X118880952Y-107928571D01*
X118880952Y-108119047D01*
X118928571Y-108214285D01*
X118976190Y-108261904D01*
X119071428Y-108309523D01*
X119261904Y-108309523D01*
X119357142Y-108261904D01*
X119404761Y-108214285D01*
X119452380Y-108119047D01*
X119452380Y-107928571D01*
X119404761Y-107833333D01*
X119357142Y-107785714D01*
X119261904Y-107738095D01*
X119071428Y-107738095D01*
X118976190Y-107785714D01*
X118928571Y-107833333D01*
X118880952Y-107928571D01*
X115952380Y-109309523D02*
X115952380Y-108690476D01*
X116333333Y-109023809D01*
X116333333Y-108880952D01*
X116380952Y-108785714D01*
X116428571Y-108738095D01*
X116523809Y-108690476D01*
X116761904Y-108690476D01*
X116857142Y-108738095D01*
X116904761Y-108785714D01*
X116952380Y-108880952D01*
X116952380Y-109166666D01*
X116904761Y-109261904D01*
X116857142Y-109309523D01*
X115952380Y-108357142D02*
X115952380Y-107690476D01*
X116952380Y-108119047D01*
X113452380Y-109309523D02*
X113452380Y-108690476D01*
X113833333Y-109023809D01*
X113833333Y-108880952D01*
X113880952Y-108785714D01*
X113928571Y-108738095D01*
X114023809Y-108690476D01*
X114261904Y-108690476D01*
X114357142Y-108738095D01*
X114404761Y-108785714D01*
X114452380Y-108880952D01*
X114452380Y-109166666D01*
X114404761Y-109261904D01*
X114357142Y-109309523D01*
X113452380Y-107833333D02*
X113452380Y-108023809D01*
X113500000Y-108119047D01*
X113547619Y-108166666D01*
X113690476Y-108261904D01*
X113880952Y-108309523D01*
X114261904Y-108309523D01*
X114357142Y-108261904D01*
X114404761Y-108214285D01*
X114452380Y-108119047D01*
X114452380Y-107928571D01*
X114404761Y-107833333D01*
X114357142Y-107785714D01*
X114261904Y-107738095D01*
X114023809Y-107738095D01*
X113928571Y-107785714D01*
X113880952Y-107833333D01*
X113833333Y-107928571D01*
X113833333Y-108119047D01*
X113880952Y-108214285D01*
X113928571Y-108261904D01*
X114023809Y-108309523D01*
X110952380Y-109309523D02*
X110952380Y-108690476D01*
X111333333Y-109023809D01*
X111333333Y-108880952D01*
X111380952Y-108785714D01*
X111428571Y-108738095D01*
X111523809Y-108690476D01*
X111761904Y-108690476D01*
X111857142Y-108738095D01*
X111904761Y-108785714D01*
X111952380Y-108880952D01*
X111952380Y-109166666D01*
X111904761Y-109261904D01*
X111857142Y-109309523D01*
X110952380Y-107785714D02*
X110952380Y-108261904D01*
X111428571Y-108309523D01*
X111380952Y-108261904D01*
X111333333Y-108166666D01*
X111333333Y-107928571D01*
X111380952Y-107833333D01*
X111428571Y-107785714D01*
X111523809Y-107738095D01*
X111761904Y-107738095D01*
X111857142Y-107785714D01*
X111904761Y-107833333D01*
X111952380Y-107928571D01*
X111952380Y-108166666D01*
X111904761Y-108261904D01*
X111857142Y-108309523D01*
X108452380Y-108547619D02*
X108452380Y-108452380D01*
X108500000Y-108357142D01*
X108547619Y-108309523D01*
X108642857Y-108261904D01*
X108833333Y-108214285D01*
X109071428Y-108214285D01*
X109261904Y-108261904D01*
X109357142Y-108309523D01*
X109404761Y-108357142D01*
X109452380Y-108452380D01*
X109452380Y-108547619D01*
X109404761Y-108642857D01*
X109357142Y-108690476D01*
X109261904Y-108738095D01*
X109071428Y-108785714D01*
X108833333Y-108785714D01*
X108642857Y-108738095D01*
X108547619Y-108690476D01*
X108500000Y-108642857D01*
X108452380Y-108547619D01*
X106285714Y-108785714D02*
X106952380Y-108785714D01*
X105904761Y-109023809D02*
X106619047Y-109261904D01*
X106619047Y-108642857D01*
X105952380Y-107785714D02*
X105952380Y-108261904D01*
X106428571Y-108309523D01*
X106380952Y-108261904D01*
X106333333Y-108166666D01*
X106333333Y-107928571D01*
X106380952Y-107833333D01*
X106428571Y-107785714D01*
X106523809Y-107738095D01*
X106761904Y-107738095D01*
X106857142Y-107785714D01*
X106904761Y-107833333D01*
X106952380Y-107928571D01*
X106952380Y-108166666D01*
X106904761Y-108261904D01*
X106857142Y-108309523D01*
X103785714Y-108785714D02*
X104452380Y-108785714D01*
X103404761Y-109023809D02*
X104119047Y-109261904D01*
X104119047Y-108642857D01*
X103880952Y-108119047D02*
X103833333Y-108214285D01*
X103785714Y-108261904D01*
X103690476Y-108309523D01*
X103642857Y-108309523D01*
X103547619Y-108261904D01*
X103500000Y-108214285D01*
X103452380Y-108119047D01*
X103452380Y-107928571D01*
X103500000Y-107833333D01*
X103547619Y-107785714D01*
X103642857Y-107738095D01*
X103690476Y-107738095D01*
X103785714Y-107785714D01*
X103833333Y-107833333D01*
X103880952Y-107928571D01*
X103880952Y-108119047D01*
X103928571Y-108214285D01*
X103976190Y-108261904D01*
X104071428Y-108309523D01*
X104261904Y-108309523D01*
X104357142Y-108261904D01*
X104404761Y-108214285D01*
X104452380Y-108119047D01*
X104452380Y-107928571D01*
X104404761Y-107833333D01*
X104357142Y-107785714D01*
X104261904Y-107738095D01*
X104071428Y-107738095D01*
X103976190Y-107785714D01*
X103928571Y-107833333D01*
X103880952Y-107928571D01*
X101285714Y-108785714D02*
X101952380Y-108785714D01*
X100904761Y-109023809D02*
X101619047Y-109261904D01*
X101619047Y-108642857D01*
X100952380Y-108357142D02*
X100952380Y-107690476D01*
X101952380Y-108119047D01*
X98547619Y-109261904D02*
X98500000Y-109214285D01*
X98452380Y-109119047D01*
X98452380Y-108880952D01*
X98500000Y-108785714D01*
X98547619Y-108738095D01*
X98642857Y-108690476D01*
X98738095Y-108690476D01*
X98880952Y-108738095D01*
X99452380Y-109309523D01*
X99452380Y-108690476D01*
X99452380Y-107738095D02*
X99452380Y-108309523D01*
X99452380Y-108023809D02*
X98452380Y-108023809D01*
X98595238Y-108119047D01*
X98690476Y-108214285D01*
X98738095Y-108309523D01*
X96047619Y-109261904D02*
X96000000Y-109214285D01*
X95952380Y-109119047D01*
X95952380Y-108880952D01*
X96000000Y-108785714D01*
X96047619Y-108738095D01*
X96142857Y-108690476D01*
X96238095Y-108690476D01*
X96380952Y-108738095D01*
X96952380Y-109309523D01*
X96952380Y-108690476D01*
X95952380Y-108071428D02*
X95952380Y-107976190D01*
X96000000Y-107880952D01*
X96047619Y-107833333D01*
X96142857Y-107785714D01*
X96333333Y-107738095D01*
X96571428Y-107738095D01*
X96761904Y-107785714D01*
X96857142Y-107833333D01*
X96904761Y-107880952D01*
X96952380Y-107976190D01*
X96952380Y-108071428D01*
X96904761Y-108166666D01*
X96857142Y-108214285D01*
X96761904Y-108261904D01*
X96571428Y-108309523D01*
X96333333Y-108309523D01*
X96142857Y-108261904D01*
X96047619Y-108214285D01*
X96000000Y-108166666D01*
X95952380Y-108071428D01*
X94452380Y-108690476D02*
X94452380Y-109261904D01*
X94452380Y-108976190D02*
X93452380Y-108976190D01*
X93595238Y-109071428D01*
X93690476Y-109166666D01*
X93738095Y-109261904D01*
X94452380Y-108214285D02*
X94452380Y-108023809D01*
X94404761Y-107928571D01*
X94357142Y-107880952D01*
X94214285Y-107785714D01*
X94023809Y-107738095D01*
X93642857Y-107738095D01*
X93547619Y-107785714D01*
X93500000Y-107833333D01*
X93452380Y-107928571D01*
X93452380Y-108119047D01*
X93500000Y-108214285D01*
X93547619Y-108261904D01*
X93642857Y-108309523D01*
X93880952Y-108309523D01*
X93976190Y-108261904D01*
X94023809Y-108214285D01*
X94071428Y-108119047D01*
X94071428Y-107928571D01*
X94023809Y-107833333D01*
X93976190Y-107785714D01*
X93880952Y-107738095D01*
X91000000Y-109261904D02*
X90952380Y-109357142D01*
X90952380Y-109500000D01*
X91000000Y-109642857D01*
X91095238Y-109738095D01*
X91190476Y-109785714D01*
X91380952Y-109833333D01*
X91523809Y-109833333D01*
X91714285Y-109785714D01*
X91809523Y-109738095D01*
X91904761Y-109642857D01*
X91952380Y-109500000D01*
X91952380Y-109404761D01*
X91904761Y-109261904D01*
X91857142Y-109214285D01*
X91523809Y-109214285D01*
X91523809Y-109404761D01*
X91952380Y-108785714D02*
X90952380Y-108785714D01*
X91952380Y-108214285D01*
X90952380Y-108214285D01*
X91952380Y-107738095D02*
X90952380Y-107738095D01*
X90952380Y-107500000D01*
X91000000Y-107357142D01*
X91095238Y-107261904D01*
X91190476Y-107214285D01*
X91380952Y-107166666D01*
X91523809Y-107166666D01*
X91714285Y-107214285D01*
X91809523Y-107261904D01*
X91904761Y-107357142D01*
X91952380Y-107500000D01*
X91952380Y-107738095D01*
X88500000Y-109261904D02*
X88452380Y-109357142D01*
X88452380Y-109500000D01*
X88500000Y-109642857D01*
X88595238Y-109738095D01*
X88690476Y-109785714D01*
X88880952Y-109833333D01*
X89023809Y-109833333D01*
X89214285Y-109785714D01*
X89309523Y-109738095D01*
X89404761Y-109642857D01*
X89452380Y-109500000D01*
X89452380Y-109404761D01*
X89404761Y-109261904D01*
X89357142Y-109214285D01*
X89023809Y-109214285D01*
X89023809Y-109404761D01*
X89452380Y-108785714D02*
X88452380Y-108785714D01*
X89452380Y-108214285D01*
X88452380Y-108214285D01*
X89452380Y-107738095D02*
X88452380Y-107738095D01*
X88452380Y-107500000D01*
X88500000Y-107357142D01*
X88595238Y-107261904D01*
X88690476Y-107214285D01*
X88880952Y-107166666D01*
X89023809Y-107166666D01*
X89214285Y-107214285D01*
X89309523Y-107261904D01*
X89404761Y-107357142D01*
X89452380Y-107500000D01*
X89452380Y-107738095D01*
X88500000Y-91761904D02*
X88452380Y-91857142D01*
X88452380Y-92000000D01*
X88500000Y-92142857D01*
X88595238Y-92238095D01*
X88690476Y-92285714D01*
X88880952Y-92333333D01*
X89023809Y-92333333D01*
X89214285Y-92285714D01*
X89309523Y-92238095D01*
X89404761Y-92142857D01*
X89452380Y-92000000D01*
X89452380Y-91904761D01*
X89404761Y-91761904D01*
X89357142Y-91714285D01*
X89023809Y-91714285D01*
X89023809Y-91904761D01*
X89452380Y-91285714D02*
X88452380Y-91285714D01*
X89452380Y-90714285D01*
X88452380Y-90714285D01*
X89452380Y-90238095D02*
X88452380Y-90238095D01*
X88452380Y-90000000D01*
X88500000Y-89857142D01*
X88595238Y-89761904D01*
X88690476Y-89714285D01*
X88880952Y-89666666D01*
X89023809Y-89666666D01*
X89214285Y-89714285D01*
X89309523Y-89761904D01*
X89404761Y-89857142D01*
X89452380Y-90000000D01*
X89452380Y-90238095D01*
X242952380Y-105190476D02*
X242952380Y-105666666D01*
X243428571Y-105714285D01*
X243380952Y-105666666D01*
X243333333Y-105571428D01*
X243333333Y-105333333D01*
X243380952Y-105238095D01*
X243428571Y-105190476D01*
X243523809Y-105142857D01*
X243761904Y-105142857D01*
X243857142Y-105190476D01*
X243904761Y-105238095D01*
X243952380Y-105333333D01*
X243952380Y-105571428D01*
X243904761Y-105666666D01*
X243857142Y-105714285D01*
X242952380Y-104857142D02*
X243952380Y-104523809D01*
X242952380Y-104190476D01*
X243000000Y-100761904D02*
X242952380Y-100857142D01*
X242952380Y-101000000D01*
X243000000Y-101142857D01*
X243095238Y-101238095D01*
X243190476Y-101285714D01*
X243380952Y-101333333D01*
X243523809Y-101333333D01*
X243714285Y-101285714D01*
X243809523Y-101238095D01*
X243904761Y-101142857D01*
X243952380Y-101000000D01*
X243952380Y-100904761D01*
X243904761Y-100761904D01*
X243857142Y-100714285D01*
X243523809Y-100714285D01*
X243523809Y-100904761D01*
X243952380Y-100285714D02*
X242952380Y-100285714D01*
X243952380Y-99714285D01*
X242952380Y-99714285D01*
X243952380Y-99238095D02*
X242952380Y-99238095D01*
X242952380Y-99000000D01*
X243000000Y-98857142D01*
X243095238Y-98761904D01*
X243190476Y-98714285D01*
X243380952Y-98666666D01*
X243523809Y-98666666D01*
X243714285Y-98714285D01*
X243809523Y-98761904D01*
X243904761Y-98857142D01*
X243952380Y-99000000D01*
X243952380Y-99238095D01*
X147261904Y-70952380D02*
X147880952Y-70952380D01*
X147547619Y-71333333D01*
X147690476Y-71333333D01*
X147785714Y-71380952D01*
X147833333Y-71428571D01*
X147880952Y-71523809D01*
X147880952Y-71761904D01*
X147833333Y-71857142D01*
X147785714Y-71904761D01*
X147690476Y-71952380D01*
X147404761Y-71952380D01*
X147309523Y-71904761D01*
X147261904Y-71857142D01*
X148166666Y-70952380D02*
X148500000Y-71952380D01*
X148833333Y-70952380D01*
X149071428Y-70952380D02*
X149690476Y-70952380D01*
X149357142Y-71333333D01*
X149500000Y-71333333D01*
X149595238Y-71380952D01*
X149642857Y-71428571D01*
X149690476Y-71523809D01*
X149690476Y-71761904D01*
X149642857Y-71857142D01*
X149595238Y-71904761D01*
X149500000Y-71952380D01*
X149214285Y-71952380D01*
X149119047Y-71904761D01*
X149071428Y-71857142D01*
X120261904Y-70952380D02*
X120880952Y-70952380D01*
X120547619Y-71333333D01*
X120690476Y-71333333D01*
X120785714Y-71380952D01*
X120833333Y-71428571D01*
X120880952Y-71523809D01*
X120880952Y-71761904D01*
X120833333Y-71857142D01*
X120785714Y-71904761D01*
X120690476Y-71952380D01*
X120404761Y-71952380D01*
X120309523Y-71904761D01*
X120261904Y-71857142D01*
X121166666Y-70952380D02*
X121500000Y-71952380D01*
X121833333Y-70952380D01*
X122071428Y-70952380D02*
X122690476Y-70952380D01*
X122357142Y-71333333D01*
X122500000Y-71333333D01*
X122595238Y-71380952D01*
X122642857Y-71428571D01*
X122690476Y-71523809D01*
X122690476Y-71761904D01*
X122642857Y-71857142D01*
X122595238Y-71904761D01*
X122500000Y-71952380D01*
X122214285Y-71952380D01*
X122119047Y-71904761D01*
X122071428Y-71857142D01*
X125738095Y-71000000D02*
X125642857Y-70952380D01*
X125500000Y-70952380D01*
X125357142Y-71000000D01*
X125261904Y-71095238D01*
X125214285Y-71190476D01*
X125166666Y-71380952D01*
X125166666Y-71523809D01*
X125214285Y-71714285D01*
X125261904Y-71809523D01*
X125357142Y-71904761D01*
X125500000Y-71952380D01*
X125595238Y-71952380D01*
X125738095Y-71904761D01*
X125785714Y-71857142D01*
X125785714Y-71523809D01*
X125595238Y-71523809D01*
X126214285Y-71952380D02*
X126214285Y-70952380D01*
X126785714Y-71952380D01*
X126785714Y-70952380D01*
X127261904Y-71952380D02*
X127261904Y-70952380D01*
X127500000Y-70952380D01*
X127642857Y-71000000D01*
X127738095Y-71095238D01*
X127785714Y-71190476D01*
X127833333Y-71380952D01*
X127833333Y-71523809D01*
X127785714Y-71714285D01*
X127738095Y-71809523D01*
X127642857Y-71904761D01*
X127500000Y-71952380D01*
X127261904Y-71952380D01*
X152738095Y-71000000D02*
X152642857Y-70952380D01*
X152500000Y-70952380D01*
X152357142Y-71000000D01*
X152261904Y-71095238D01*
X152214285Y-71190476D01*
X152166666Y-71380952D01*
X152166666Y-71523809D01*
X152214285Y-71714285D01*
X152261904Y-71809523D01*
X152357142Y-71904761D01*
X152500000Y-71952380D01*
X152595238Y-71952380D01*
X152738095Y-71904761D01*
X152785714Y-71857142D01*
X152785714Y-71523809D01*
X152595238Y-71523809D01*
X153214285Y-71952380D02*
X153214285Y-70952380D01*
X153785714Y-71952380D01*
X153785714Y-70952380D01*
X154261904Y-71952380D02*
X154261904Y-70952380D01*
X154500000Y-70952380D01*
X154642857Y-71000000D01*
X154738095Y-71095238D01*
X154785714Y-71190476D01*
X154833333Y-71380952D01*
X154833333Y-71523809D01*
X154785714Y-71714285D01*
X154738095Y-71809523D01*
X154642857Y-71904761D01*
X154500000Y-71952380D01*
X154261904Y-71952380D01*
X175238095Y-71000000D02*
X175142857Y-70952380D01*
X175000000Y-70952380D01*
X174857142Y-71000000D01*
X174761904Y-71095238D01*
X174714285Y-71190476D01*
X174666666Y-71380952D01*
X174666666Y-71523809D01*
X174714285Y-71714285D01*
X174761904Y-71809523D01*
X174857142Y-71904761D01*
X175000000Y-71952380D01*
X175095238Y-71952380D01*
X175238095Y-71904761D01*
X175285714Y-71857142D01*
X175285714Y-71523809D01*
X175095238Y-71523809D01*
X175714285Y-71952380D02*
X175714285Y-70952380D01*
X176285714Y-71952380D01*
X176285714Y-70952380D01*
X176761904Y-71952380D02*
X176761904Y-70952380D01*
X177000000Y-70952380D01*
X177142857Y-71000000D01*
X177238095Y-71095238D01*
X177285714Y-71190476D01*
X177333333Y-71380952D01*
X177333333Y-71523809D01*
X177285714Y-71714285D01*
X177238095Y-71809523D01*
X177142857Y-71904761D01*
X177000000Y-71952380D01*
X176761904Y-71952380D01*
X180809523Y-70952380D02*
X180333333Y-70952380D01*
X180285714Y-71428571D01*
X180333333Y-71380952D01*
X180428571Y-71333333D01*
X180666666Y-71333333D01*
X180761904Y-71380952D01*
X180809523Y-71428571D01*
X180857142Y-71523809D01*
X180857142Y-71761904D01*
X180809523Y-71857142D01*
X180761904Y-71904761D01*
X180666666Y-71952380D01*
X180428571Y-71952380D01*
X180333333Y-71904761D01*
X180285714Y-71857142D01*
X181142857Y-70952380D02*
X181476190Y-71952380D01*
X181809523Y-70952380D01*
X227738095Y-71000000D02*
X227642857Y-70952380D01*
X227500000Y-70952380D01*
X227357142Y-71000000D01*
X227261904Y-71095238D01*
X227214285Y-71190476D01*
X227166666Y-71380952D01*
X227166666Y-71523809D01*
X227214285Y-71714285D01*
X227261904Y-71809523D01*
X227357142Y-71904761D01*
X227500000Y-71952380D01*
X227595238Y-71952380D01*
X227738095Y-71904761D01*
X227785714Y-71857142D01*
X227785714Y-71523809D01*
X227595238Y-71523809D01*
X228214285Y-71952380D02*
X228214285Y-70952380D01*
X228785714Y-71952380D01*
X228785714Y-70952380D01*
X229261904Y-71952380D02*
X229261904Y-70952380D01*
X229500000Y-70952380D01*
X229642857Y-71000000D01*
X229738095Y-71095238D01*
X229785714Y-71190476D01*
X229833333Y-71380952D01*
X229833333Y-71523809D01*
X229785714Y-71714285D01*
X229738095Y-71809523D01*
X229642857Y-71904761D01*
X229500000Y-71952380D01*
X229261904Y-71952380D01*
X233309523Y-70952380D02*
X232833333Y-70952380D01*
X232785714Y-71428571D01*
X232833333Y-71380952D01*
X232928571Y-71333333D01*
X233166666Y-71333333D01*
X233261904Y-71380952D01*
X233309523Y-71428571D01*
X233357142Y-71523809D01*
X233357142Y-71761904D01*
X233309523Y-71857142D01*
X233261904Y-71904761D01*
X233166666Y-71952380D01*
X232928571Y-71952380D01*
X232833333Y-71904761D01*
X232785714Y-71857142D01*
X233642857Y-70952380D02*
X233976190Y-71952380D01*
X234309523Y-70952380D01*
X215809523Y-70952380D02*
X215333333Y-70952380D01*
X215285714Y-71428571D01*
X215333333Y-71380952D01*
X215428571Y-71333333D01*
X215666666Y-71333333D01*
X215761904Y-71380952D01*
X215809523Y-71428571D01*
X215857142Y-71523809D01*
X215857142Y-71761904D01*
X215809523Y-71857142D01*
X215761904Y-71904761D01*
X215666666Y-71952380D01*
X215428571Y-71952380D01*
X215333333Y-71904761D01*
X215285714Y-71857142D01*
X216142857Y-70952380D02*
X216476190Y-71952380D01*
X216809523Y-70952380D01*
X210238095Y-71000000D02*
X210142857Y-70952380D01*
X210000000Y-70952380D01*
X209857142Y-71000000D01*
X209761904Y-71095238D01*
X209714285Y-71190476D01*
X209666666Y-71380952D01*
X209666666Y-71523809D01*
X209714285Y-71714285D01*
X209761904Y-71809523D01*
X209857142Y-71904761D01*
X210000000Y-71952380D01*
X210095238Y-71952380D01*
X210238095Y-71904761D01*
X210285714Y-71857142D01*
X210285714Y-71523809D01*
X210095238Y-71523809D01*
X210714285Y-71952380D02*
X210714285Y-70952380D01*
X211285714Y-71952380D01*
X211285714Y-70952380D01*
X211761904Y-71952380D02*
X211761904Y-70952380D01*
X212000000Y-70952380D01*
X212142857Y-71000000D01*
X212238095Y-71095238D01*
X212285714Y-71190476D01*
X212333333Y-71380952D01*
X212333333Y-71523809D01*
X212285714Y-71714285D01*
X212238095Y-71809523D01*
X212142857Y-71904761D01*
X212000000Y-71952380D01*
X211761904Y-71952380D01*
X198309523Y-70952380D02*
X197833333Y-70952380D01*
X197785714Y-71428571D01*
X197833333Y-71380952D01*
X197928571Y-71333333D01*
X198166666Y-71333333D01*
X198261904Y-71380952D01*
X198309523Y-71428571D01*
X198357142Y-71523809D01*
X198357142Y-71761904D01*
X198309523Y-71857142D01*
X198261904Y-71904761D01*
X198166666Y-71952380D01*
X197928571Y-71952380D01*
X197833333Y-71904761D01*
X197785714Y-71857142D01*
X198642857Y-70952380D02*
X198976190Y-71952380D01*
X199309523Y-70952380D01*
X192738095Y-71000000D02*
X192642857Y-70952380D01*
X192500000Y-70952380D01*
X192357142Y-71000000D01*
X192261904Y-71095238D01*
X192214285Y-71190476D01*
X192166666Y-71380952D01*
X192166666Y-71523809D01*
X192214285Y-71714285D01*
X192261904Y-71809523D01*
X192357142Y-71904761D01*
X192500000Y-71952380D01*
X192595238Y-71952380D01*
X192738095Y-71904761D01*
X192785714Y-71857142D01*
X192785714Y-71523809D01*
X192595238Y-71523809D01*
X193214285Y-71952380D02*
X193214285Y-70952380D01*
X193785714Y-71952380D01*
X193785714Y-70952380D01*
X194261904Y-71952380D02*
X194261904Y-70952380D01*
X194500000Y-70952380D01*
X194642857Y-71000000D01*
X194738095Y-71095238D01*
X194785714Y-71190476D01*
X194833333Y-71380952D01*
X194833333Y-71523809D01*
X194785714Y-71714285D01*
X194738095Y-71809523D01*
X194642857Y-71904761D01*
X194500000Y-71952380D01*
X194261904Y-71952380D01*
X160261904Y-127452380D02*
X160880952Y-127452380D01*
X160547619Y-127833333D01*
X160690476Y-127833333D01*
X160785714Y-127880952D01*
X160833333Y-127928571D01*
X160880952Y-128023809D01*
X160880952Y-128261904D01*
X160833333Y-128357142D01*
X160785714Y-128404761D01*
X160690476Y-128452380D01*
X160404761Y-128452380D01*
X160309523Y-128404761D01*
X160261904Y-128357142D01*
X161166666Y-127452380D02*
X161500000Y-128452380D01*
X161833333Y-127452380D01*
X162071428Y-127452380D02*
X162690476Y-127452380D01*
X162357142Y-127833333D01*
X162500000Y-127833333D01*
X162595238Y-127880952D01*
X162642857Y-127928571D01*
X162690476Y-128023809D01*
X162690476Y-128261904D01*
X162642857Y-128357142D01*
X162595238Y-128404761D01*
X162500000Y-128452380D01*
X162214285Y-128452380D01*
X162119047Y-128404761D01*
X162071428Y-128357142D01*
X165738095Y-127500000D02*
X165642857Y-127452380D01*
X165500000Y-127452380D01*
X165357142Y-127500000D01*
X165261904Y-127595238D01*
X165214285Y-127690476D01*
X165166666Y-127880952D01*
X165166666Y-128023809D01*
X165214285Y-128214285D01*
X165261904Y-128309523D01*
X165357142Y-128404761D01*
X165500000Y-128452380D01*
X165595238Y-128452380D01*
X165738095Y-128404761D01*
X165785714Y-128357142D01*
X165785714Y-128023809D01*
X165595238Y-128023809D01*
X166214285Y-128452380D02*
X166214285Y-127452380D01*
X166785714Y-128452380D01*
X166785714Y-127452380D01*
X167261904Y-128452380D02*
X167261904Y-127452380D01*
X167500000Y-127452380D01*
X167642857Y-127500000D01*
X167738095Y-127595238D01*
X167785714Y-127690476D01*
X167833333Y-127880952D01*
X167833333Y-128023809D01*
X167785714Y-128214285D01*
X167738095Y-128309523D01*
X167642857Y-128404761D01*
X167500000Y-128452380D01*
X167261904Y-128452380D01*
X177761904Y-127452380D02*
X178380952Y-127452380D01*
X178047619Y-127833333D01*
X178190476Y-127833333D01*
X178285714Y-127880952D01*
X178333333Y-127928571D01*
X178380952Y-128023809D01*
X178380952Y-128261904D01*
X178333333Y-128357142D01*
X178285714Y-128404761D01*
X178190476Y-128452380D01*
X177904761Y-128452380D01*
X177809523Y-128404761D01*
X177761904Y-128357142D01*
X178666666Y-127452380D02*
X179000000Y-128452380D01*
X179333333Y-127452380D01*
X179571428Y-127452380D02*
X180190476Y-127452380D01*
X179857142Y-127833333D01*
X180000000Y-127833333D01*
X180095238Y-127880952D01*
X180142857Y-127928571D01*
X180190476Y-128023809D01*
X180190476Y-128261904D01*
X180142857Y-128357142D01*
X180095238Y-128404761D01*
X180000000Y-128452380D01*
X179714285Y-128452380D01*
X179619047Y-128404761D01*
X179571428Y-128357142D01*
X183238095Y-127500000D02*
X183142857Y-127452380D01*
X183000000Y-127452380D01*
X182857142Y-127500000D01*
X182761904Y-127595238D01*
X182714285Y-127690476D01*
X182666666Y-127880952D01*
X182666666Y-128023809D01*
X182714285Y-128214285D01*
X182761904Y-128309523D01*
X182857142Y-128404761D01*
X183000000Y-128452380D01*
X183095238Y-128452380D01*
X183238095Y-128404761D01*
X183285714Y-128357142D01*
X183285714Y-128023809D01*
X183095238Y-128023809D01*
X183714285Y-128452380D02*
X183714285Y-127452380D01*
X184285714Y-128452380D01*
X184285714Y-127452380D01*
X184761904Y-128452380D02*
X184761904Y-127452380D01*
X185000000Y-127452380D01*
X185142857Y-127500000D01*
X185238095Y-127595238D01*
X185285714Y-127690476D01*
X185333333Y-127880952D01*
X185333333Y-128023809D01*
X185285714Y-128214285D01*
X185238095Y-128309523D01*
X185142857Y-128404761D01*
X185000000Y-128452380D01*
X184761904Y-128452380D01*
X234238095Y-127195000D02*
X234142857Y-127147380D01*
X234000000Y-127147380D01*
X233857142Y-127195000D01*
X233761904Y-127290238D01*
X233714285Y-127385476D01*
X233666666Y-127575952D01*
X233666666Y-127718809D01*
X233714285Y-127909285D01*
X233761904Y-128004523D01*
X233857142Y-128099761D01*
X234000000Y-128147380D01*
X234095238Y-128147380D01*
X234238095Y-128099761D01*
X234285714Y-128052142D01*
X234285714Y-127718809D01*
X234095238Y-127718809D01*
X234714285Y-128147380D02*
X234714285Y-127147380D01*
X235285714Y-128147380D01*
X235285714Y-127147380D01*
X235761904Y-128147380D02*
X235761904Y-127147380D01*
X236000000Y-127147380D01*
X236142857Y-127195000D01*
X236238095Y-127290238D01*
X236285714Y-127385476D01*
X236333333Y-127575952D01*
X236333333Y-127718809D01*
X236285714Y-127909285D01*
X236238095Y-128004523D01*
X236142857Y-128099761D01*
X236000000Y-128147380D01*
X235761904Y-128147380D01*
X239809523Y-127147380D02*
X239333333Y-127147380D01*
X239285714Y-127623571D01*
X239333333Y-127575952D01*
X239428571Y-127528333D01*
X239666666Y-127528333D01*
X239761904Y-127575952D01*
X239809523Y-127623571D01*
X239857142Y-127718809D01*
X239857142Y-127956904D01*
X239809523Y-128052142D01*
X239761904Y-128099761D01*
X239666666Y-128147380D01*
X239428571Y-128147380D01*
X239333333Y-128099761D01*
X239285714Y-128052142D01*
X240142857Y-127147380D02*
X240476190Y-128147380D01*
X240809523Y-127147380D01*
X211809523Y-127147380D02*
X211333333Y-127147380D01*
X211285714Y-127623571D01*
X211333333Y-127575952D01*
X211428571Y-127528333D01*
X211666666Y-127528333D01*
X211761904Y-127575952D01*
X211809523Y-127623571D01*
X211857142Y-127718809D01*
X211857142Y-127956904D01*
X211809523Y-128052142D01*
X211761904Y-128099761D01*
X211666666Y-128147380D01*
X211428571Y-128147380D01*
X211333333Y-128099761D01*
X211285714Y-128052142D01*
X212142857Y-127147380D02*
X212476190Y-128147380D01*
X212809523Y-127147380D01*
X216238095Y-127195000D02*
X216142857Y-127147380D01*
X216000000Y-127147380D01*
X215857142Y-127195000D01*
X215761904Y-127290238D01*
X215714285Y-127385476D01*
X215666666Y-127575952D01*
X215666666Y-127718809D01*
X215714285Y-127909285D01*
X215761904Y-128004523D01*
X215857142Y-128099761D01*
X216000000Y-128147380D01*
X216095238Y-128147380D01*
X216238095Y-128099761D01*
X216285714Y-128052142D01*
X216285714Y-127718809D01*
X216095238Y-127718809D01*
X216714285Y-128147380D02*
X216714285Y-127147380D01*
X217285714Y-128147380D01*
X217285714Y-127147380D01*
X217761904Y-128147380D02*
X217761904Y-127147380D01*
X218000000Y-127147380D01*
X218142857Y-127195000D01*
X218238095Y-127290238D01*
X218285714Y-127385476D01*
X218333333Y-127575952D01*
X218333333Y-127718809D01*
X218285714Y-127909285D01*
X218238095Y-128004523D01*
X218142857Y-128099761D01*
X218000000Y-128147380D01*
X217761904Y-128147380D01*
%TO.C,J17*%
X86272380Y-117559523D02*
X86986666Y-117559523D01*
X87129523Y-117607142D01*
X87224761Y-117702380D01*
X87272380Y-117845238D01*
X87272380Y-117940476D01*
X87272380Y-116559523D02*
X87272380Y-117130952D01*
X87272380Y-116845238D02*
X86272380Y-116845238D01*
X86415238Y-116940476D01*
X86510476Y-117035714D01*
X86558095Y-117130952D01*
X86272380Y-116226190D02*
X86272380Y-115559523D01*
X87272380Y-115988095D01*
%TO.C,J16*%
X103622380Y-79039523D02*
X104336666Y-79039523D01*
X104479523Y-79087142D01*
X104574761Y-79182380D01*
X104622380Y-79325238D01*
X104622380Y-79420476D01*
X104622380Y-78039523D02*
X104622380Y-78610952D01*
X104622380Y-78325238D02*
X103622380Y-78325238D01*
X103765238Y-78420476D01*
X103860476Y-78515714D01*
X103908095Y-78610952D01*
X103622380Y-77182380D02*
X103622380Y-77372857D01*
X103670000Y-77468095D01*
X103717619Y-77515714D01*
X103860476Y-77610952D01*
X104050952Y-77658571D01*
X104431904Y-77658571D01*
X104527142Y-77610952D01*
X104574761Y-77563333D01*
X104622380Y-77468095D01*
X104622380Y-77277619D01*
X104574761Y-77182380D01*
X104527142Y-77134761D01*
X104431904Y-77087142D01*
X104193809Y-77087142D01*
X104098571Y-77134761D01*
X104050952Y-77182380D01*
X104003333Y-77277619D01*
X104003333Y-77468095D01*
X104050952Y-77563333D01*
X104098571Y-77610952D01*
X104193809Y-77658571D01*
%TO.C,J11*%
X146891476Y-84452381D02*
X146891476Y-85166667D01*
X146843857Y-85309524D01*
X146748619Y-85404762D01*
X146605761Y-85452381D01*
X146510523Y-85452381D01*
X147891476Y-85452381D02*
X147320047Y-85452381D01*
X147605761Y-85452381D02*
X147605761Y-84452381D01*
X147510523Y-84595239D01*
X147415285Y-84690477D01*
X147320047Y-84738096D01*
X148843857Y-85452381D02*
X148272428Y-85452381D01*
X148558142Y-85452381D02*
X148558142Y-84452381D01*
X148462904Y-84595239D01*
X148367666Y-84690477D01*
X148272428Y-84738096D01*
X150986714Y-84928572D02*
X151129571Y-84976191D01*
X151177190Y-85023810D01*
X151224809Y-85119048D01*
X151224809Y-85261905D01*
X151177190Y-85357143D01*
X151129571Y-85404762D01*
X151034333Y-85452381D01*
X150653380Y-85452381D01*
X150653380Y-84452381D01*
X150986714Y-84452381D01*
X151081952Y-84500001D01*
X151129571Y-84547620D01*
X151177190Y-84642858D01*
X151177190Y-84738096D01*
X151129571Y-84833334D01*
X151081952Y-84880953D01*
X150986714Y-84928572D01*
X150653380Y-84928572D01*
X151653380Y-85452381D02*
X151653380Y-84452381D01*
X151653380Y-84928572D02*
X152224809Y-84928572D01*
X152224809Y-85452381D02*
X152224809Y-84452381D01*
X153224809Y-85452381D02*
X152653380Y-85452381D01*
X152939095Y-85452381D02*
X152939095Y-84452381D01*
X152843857Y-84595239D01*
X152748619Y-84690477D01*
X152653380Y-84738096D01*
X153558142Y-84452381D02*
X154224809Y-84452381D01*
X153796238Y-85452381D01*
X155081952Y-84452381D02*
X154605761Y-84452381D01*
X154558142Y-84928572D01*
X154605761Y-84880953D01*
X154701000Y-84833334D01*
X154939095Y-84833334D01*
X155034333Y-84880953D01*
X155081952Y-84928572D01*
X155129571Y-85023810D01*
X155129571Y-85261905D01*
X155081952Y-85357143D01*
X155034333Y-85404762D01*
X154939095Y-85452381D01*
X154701000Y-85452381D01*
X154605761Y-85404762D01*
X154558142Y-85357143D01*
X155748619Y-84452381D02*
X155843857Y-84452381D01*
X155939095Y-84500001D01*
X155986714Y-84547620D01*
X156034333Y-84642858D01*
X156081952Y-84833334D01*
X156081952Y-85071429D01*
X156034333Y-85261905D01*
X155986714Y-85357143D01*
X155939095Y-85404762D01*
X155843857Y-85452381D01*
X155748619Y-85452381D01*
X155653380Y-85404762D01*
X155605761Y-85357143D01*
X155558142Y-85261905D01*
X155510523Y-85071429D01*
X155510523Y-84833334D01*
X155558142Y-84642858D01*
X155605761Y-84547620D01*
X155653380Y-84500001D01*
X155748619Y-84452381D01*
X156272428Y-85547620D02*
X157034333Y-85547620D01*
X157796238Y-85452381D02*
X157224809Y-85452381D01*
X157510523Y-85452381D02*
X157510523Y-84452381D01*
X157415285Y-84595239D01*
X157320047Y-84690477D01*
X157224809Y-84738096D01*
%TO.C,J15*%
X225964380Y-95151023D02*
X226678666Y-95151023D01*
X226821523Y-95198642D01*
X226916761Y-95293880D01*
X226964380Y-95436738D01*
X226964380Y-95531976D01*
X226964380Y-94151023D02*
X226964380Y-94722452D01*
X226964380Y-94436738D02*
X225964380Y-94436738D01*
X226107238Y-94531976D01*
X226202476Y-94627214D01*
X226250095Y-94722452D01*
X225964380Y-93246261D02*
X225964380Y-93722452D01*
X226440571Y-93770071D01*
X226392952Y-93722452D01*
X226345333Y-93627214D01*
X226345333Y-93389119D01*
X226392952Y-93293880D01*
X226440571Y-93246261D01*
X226535809Y-93198642D01*
X226773904Y-93198642D01*
X226869142Y-93246261D01*
X226916761Y-93293880D01*
X226964380Y-93389119D01*
X226964380Y-93627214D01*
X226916761Y-93722452D01*
X226869142Y-93770071D01*
X229464380Y-95627214D02*
X228464380Y-95627214D01*
X228464380Y-95246261D01*
X228512000Y-95151023D01*
X228559619Y-95103404D01*
X228654857Y-95055785D01*
X228797714Y-95055785D01*
X228892952Y-95103404D01*
X228940571Y-95151023D01*
X228988190Y-95246261D01*
X228988190Y-95627214D01*
X229464380Y-94484357D02*
X229416761Y-94579595D01*
X229369142Y-94627214D01*
X229273904Y-94674833D01*
X228988190Y-94674833D01*
X228892952Y-94627214D01*
X228845333Y-94579595D01*
X228797714Y-94484357D01*
X228797714Y-94341500D01*
X228845333Y-94246261D01*
X228892952Y-94198642D01*
X228988190Y-94151023D01*
X229273904Y-94151023D01*
X229369142Y-94198642D01*
X229416761Y-94246261D01*
X229464380Y-94341500D01*
X229464380Y-94484357D01*
X228797714Y-93817690D02*
X229464380Y-93627214D01*
X228988190Y-93436738D01*
X229464380Y-93246261D01*
X228797714Y-93055785D01*
X229416761Y-92293880D02*
X229464380Y-92389119D01*
X229464380Y-92579595D01*
X229416761Y-92674833D01*
X229321523Y-92722452D01*
X228940571Y-92722452D01*
X228845333Y-92674833D01*
X228797714Y-92579595D01*
X228797714Y-92389119D01*
X228845333Y-92293880D01*
X228940571Y-92246261D01*
X229035809Y-92246261D01*
X229131047Y-92722452D01*
X229464380Y-91817690D02*
X228797714Y-91817690D01*
X228988190Y-91817690D02*
X228892952Y-91770071D01*
X228845333Y-91722452D01*
X228797714Y-91627214D01*
X228797714Y-91531976D01*
X228464380Y-90246261D02*
X228464380Y-90055785D01*
X228512000Y-89960547D01*
X228607238Y-89865309D01*
X228797714Y-89817690D01*
X229131047Y-89817690D01*
X229321523Y-89865309D01*
X229416761Y-89960547D01*
X229464380Y-90055785D01*
X229464380Y-90246261D01*
X229416761Y-90341500D01*
X229321523Y-90436738D01*
X229131047Y-90484357D01*
X228797714Y-90484357D01*
X228607238Y-90436738D01*
X228512000Y-90341500D01*
X228464380Y-90246261D01*
X228464380Y-89389119D02*
X229273904Y-89389119D01*
X229369142Y-89341500D01*
X229416761Y-89293880D01*
X229464380Y-89198642D01*
X229464380Y-89008166D01*
X229416761Y-88912928D01*
X229369142Y-88865309D01*
X229273904Y-88817690D01*
X228464380Y-88817690D01*
X228464380Y-88484357D02*
X228464380Y-87912928D01*
X229464380Y-88198642D02*
X228464380Y-88198642D01*
%TO.C,J14*%
X85452380Y-82309523D02*
X86166666Y-82309523D01*
X86309523Y-82357142D01*
X86404761Y-82452380D01*
X86452380Y-82595238D01*
X86452380Y-82690476D01*
X86452380Y-81309523D02*
X86452380Y-81880952D01*
X86452380Y-81595238D02*
X85452380Y-81595238D01*
X85595238Y-81690476D01*
X85690476Y-81785714D01*
X85738095Y-81880952D01*
X85785714Y-80452380D02*
X86452380Y-80452380D01*
X85404761Y-80690476D02*
X86119047Y-80928571D01*
X86119047Y-80309523D01*
X86452380Y-79119047D02*
X85452380Y-79119047D01*
X85452380Y-78738095D01*
X85500000Y-78642857D01*
X85547619Y-78595238D01*
X85642857Y-78547619D01*
X85785714Y-78547619D01*
X85880952Y-78595238D01*
X85928571Y-78642857D01*
X85976190Y-78738095D01*
X85976190Y-79119047D01*
X86452380Y-77976190D02*
X86404761Y-78071428D01*
X86357142Y-78119047D01*
X86261904Y-78166666D01*
X85976190Y-78166666D01*
X85880952Y-78119047D01*
X85833333Y-78071428D01*
X85785714Y-77976190D01*
X85785714Y-77833333D01*
X85833333Y-77738095D01*
X85880952Y-77690476D01*
X85976190Y-77642857D01*
X86261904Y-77642857D01*
X86357142Y-77690476D01*
X86404761Y-77738095D01*
X86452380Y-77833333D01*
X86452380Y-77976190D01*
X85785714Y-77309523D02*
X86452380Y-77119047D01*
X85976190Y-76928571D01*
X86452380Y-76738095D01*
X85785714Y-76547619D01*
X86404761Y-75785714D02*
X86452380Y-75880952D01*
X86452380Y-76071428D01*
X86404761Y-76166666D01*
X86309523Y-76214285D01*
X85928571Y-76214285D01*
X85833333Y-76166666D01*
X85785714Y-76071428D01*
X85785714Y-75880952D01*
X85833333Y-75785714D01*
X85928571Y-75738095D01*
X86023809Y-75738095D01*
X86119047Y-76214285D01*
X86452380Y-75309523D02*
X85785714Y-75309523D01*
X85976190Y-75309523D02*
X85880952Y-75261904D01*
X85833333Y-75214285D01*
X85785714Y-75119047D01*
X85785714Y-75023809D01*
X86452380Y-73928571D02*
X85452380Y-73928571D01*
X86452380Y-73452380D02*
X85452380Y-73452380D01*
X86452380Y-72880952D01*
X85452380Y-72880952D01*
%TO.C,J2*%
X85812380Y-112833333D02*
X86526666Y-112833333D01*
X86669523Y-112880952D01*
X86764761Y-112976190D01*
X86812380Y-113119047D01*
X86812380Y-113214285D01*
X85907619Y-112404761D02*
X85860000Y-112357142D01*
X85812380Y-112261904D01*
X85812380Y-112023809D01*
X85860000Y-111928571D01*
X85907619Y-111880952D01*
X86002857Y-111833333D01*
X86098095Y-111833333D01*
X86240952Y-111880952D01*
X86812380Y-112452380D01*
X86812380Y-111833333D01*
%TO.C,J1*%
X144702380Y-87333333D02*
X145416666Y-87333333D01*
X145559523Y-87380952D01*
X145654761Y-87476190D01*
X145702380Y-87619047D01*
X145702380Y-87714285D01*
X145702380Y-86333333D02*
X145702380Y-86904761D01*
X145702380Y-86619047D02*
X144702380Y-86619047D01*
X144845238Y-86714285D01*
X144940476Y-86809523D01*
X144988095Y-86904761D01*
%TO.C,J13*%
X223190476Y-113647380D02*
X223190476Y-114361666D01*
X223142857Y-114504523D01*
X223047619Y-114599761D01*
X222904761Y-114647380D01*
X222809523Y-114647380D01*
X224190476Y-114647380D02*
X223619047Y-114647380D01*
X223904761Y-114647380D02*
X223904761Y-113647380D01*
X223809523Y-113790238D01*
X223714285Y-113885476D01*
X223619047Y-113933095D01*
X224523809Y-113647380D02*
X225142857Y-113647380D01*
X224809523Y-114028333D01*
X224952380Y-114028333D01*
X225047619Y-114075952D01*
X225095238Y-114123571D01*
X225142857Y-114218809D01*
X225142857Y-114456904D01*
X225095238Y-114552142D01*
X225047619Y-114599761D01*
X224952380Y-114647380D01*
X224666666Y-114647380D01*
X224571428Y-114599761D01*
X224523809Y-114552142D01*
X227095238Y-114647380D02*
X227095238Y-113647380D01*
X227428571Y-114361666D01*
X227761904Y-113647380D01*
X227761904Y-114647380D01*
X228238095Y-114647380D02*
X228238095Y-113647380D01*
X228238095Y-114123571D02*
X228809523Y-114123571D01*
X228809523Y-114647380D02*
X228809523Y-113647380D01*
X229285714Y-114266428D02*
X230047619Y-114266428D01*
X230428571Y-113647380D02*
X231095238Y-113647380D01*
X230428571Y-114647380D01*
X231095238Y-114647380D01*
X232000000Y-114647380D02*
X231428571Y-114647380D01*
X231714285Y-114647380D02*
X231714285Y-113647380D01*
X231619047Y-113790238D01*
X231523809Y-113885476D01*
X231428571Y-113933095D01*
X232476190Y-114647380D02*
X232666666Y-114647380D01*
X232761904Y-114599761D01*
X232809523Y-114552142D01*
X232904761Y-114409285D01*
X232952380Y-114218809D01*
X232952380Y-113837857D01*
X232904761Y-113742619D01*
X232857142Y-113695000D01*
X232761904Y-113647380D01*
X232571428Y-113647380D01*
X232476190Y-113695000D01*
X232428571Y-113742619D01*
X232380952Y-113837857D01*
X232380952Y-114075952D01*
X232428571Y-114171190D01*
X232476190Y-114218809D01*
X232571428Y-114266428D01*
X232761904Y-114266428D01*
X232857142Y-114218809D01*
X232904761Y-114171190D01*
X232952380Y-114075952D01*
%TO.C,J12*%
X119891476Y-83952381D02*
X119891476Y-84666667D01*
X119843857Y-84809524D01*
X119748619Y-84904762D01*
X119605761Y-84952381D01*
X119510523Y-84952381D01*
X120891476Y-84952381D02*
X120320047Y-84952381D01*
X120605761Y-84952381D02*
X120605761Y-83952381D01*
X120510523Y-84095239D01*
X120415285Y-84190477D01*
X120320047Y-84238096D01*
X121272428Y-84047620D02*
X121320047Y-84000001D01*
X121415285Y-83952381D01*
X121653380Y-83952381D01*
X121748619Y-84000001D01*
X121796238Y-84047620D01*
X121843857Y-84142858D01*
X121843857Y-84238096D01*
X121796238Y-84380953D01*
X121224809Y-84952381D01*
X121843857Y-84952381D01*
X123986714Y-84428572D02*
X124129571Y-84476191D01*
X124177190Y-84523810D01*
X124224809Y-84619048D01*
X124224809Y-84761905D01*
X124177190Y-84857143D01*
X124129571Y-84904762D01*
X124034333Y-84952381D01*
X123653380Y-84952381D01*
X123653380Y-83952381D01*
X123986714Y-83952381D01*
X124081952Y-84000001D01*
X124129571Y-84047620D01*
X124177190Y-84142858D01*
X124177190Y-84238096D01*
X124129571Y-84333334D01*
X124081952Y-84380953D01*
X123986714Y-84428572D01*
X123653380Y-84428572D01*
X124653380Y-84952381D02*
X124653380Y-83952381D01*
X124653380Y-84428572D02*
X125224809Y-84428572D01*
X125224809Y-84952381D02*
X125224809Y-83952381D01*
X126224809Y-84952381D02*
X125653380Y-84952381D01*
X125939095Y-84952381D02*
X125939095Y-83952381D01*
X125843857Y-84095239D01*
X125748619Y-84190477D01*
X125653380Y-84238096D01*
X126558142Y-83952381D02*
X127224809Y-83952381D01*
X126796238Y-84952381D01*
X128081952Y-83952381D02*
X127605761Y-83952381D01*
X127558142Y-84428572D01*
X127605761Y-84380953D01*
X127701000Y-84333334D01*
X127939095Y-84333334D01*
X128034333Y-84380953D01*
X128081952Y-84428572D01*
X128129571Y-84523810D01*
X128129571Y-84761905D01*
X128081952Y-84857143D01*
X128034333Y-84904762D01*
X127939095Y-84952381D01*
X127701000Y-84952381D01*
X127605761Y-84904762D01*
X127558142Y-84857143D01*
X128748619Y-83952381D02*
X128843857Y-83952381D01*
X128939095Y-84000001D01*
X128986714Y-84047620D01*
X129034333Y-84142858D01*
X129081952Y-84333334D01*
X129081952Y-84571429D01*
X129034333Y-84761905D01*
X128986714Y-84857143D01*
X128939095Y-84904762D01*
X128843857Y-84952381D01*
X128748619Y-84952381D01*
X128653380Y-84904762D01*
X128605761Y-84857143D01*
X128558142Y-84761905D01*
X128510523Y-84571429D01*
X128510523Y-84333334D01*
X128558142Y-84142858D01*
X128605761Y-84047620D01*
X128653380Y-84000001D01*
X128748619Y-83952381D01*
X129272428Y-85047620D02*
X130034333Y-85047620D01*
X130224809Y-84047620D02*
X130272428Y-84000001D01*
X130367666Y-83952381D01*
X130605761Y-83952381D01*
X130701000Y-84000001D01*
X130748619Y-84047620D01*
X130796238Y-84142858D01*
X130796238Y-84238096D01*
X130748619Y-84380953D01*
X130177190Y-84952381D01*
X130796238Y-84952381D01*
%TO.C,R3*%
X214913333Y-99452380D02*
X214580000Y-98976190D01*
X214341904Y-99452380D02*
X214341904Y-98452380D01*
X214722857Y-98452380D01*
X214818095Y-98500000D01*
X214865714Y-98547619D01*
X214913333Y-98642857D01*
X214913333Y-98785714D01*
X214865714Y-98880952D01*
X214818095Y-98928571D01*
X214722857Y-98976190D01*
X214341904Y-98976190D01*
X215246666Y-98452380D02*
X215865714Y-98452380D01*
X215532380Y-98833333D01*
X215675238Y-98833333D01*
X215770476Y-98880952D01*
X215818095Y-98928571D01*
X215865714Y-99023809D01*
X215865714Y-99261904D01*
X215818095Y-99357142D01*
X215770476Y-99404761D01*
X215675238Y-99452380D01*
X215389523Y-99452380D01*
X215294285Y-99404761D01*
X215246666Y-99357142D01*
X217841904Y-98452380D02*
X218460952Y-98452380D01*
X218127619Y-98833333D01*
X218270476Y-98833333D01*
X218365714Y-98880952D01*
X218413333Y-98928571D01*
X218460952Y-99023809D01*
X218460952Y-99261904D01*
X218413333Y-99357142D01*
X218365714Y-99404761D01*
X218270476Y-99452380D01*
X217984761Y-99452380D01*
X217889523Y-99404761D01*
X217841904Y-99357142D01*
X218889523Y-99452380D02*
X218889523Y-98452380D01*
X218984761Y-99071428D02*
X219270476Y-99452380D01*
X219270476Y-98785714D02*
X218889523Y-99166666D01*
%TO.C,R2*%
X214913333Y-106952380D02*
X214580000Y-106476190D01*
X214341904Y-106952380D02*
X214341904Y-105952380D01*
X214722857Y-105952380D01*
X214818095Y-106000000D01*
X214865714Y-106047619D01*
X214913333Y-106142857D01*
X214913333Y-106285714D01*
X214865714Y-106380952D01*
X214818095Y-106428571D01*
X214722857Y-106476190D01*
X214341904Y-106476190D01*
X215294285Y-106047619D02*
X215341904Y-106000000D01*
X215437142Y-105952380D01*
X215675238Y-105952380D01*
X215770476Y-106000000D01*
X215818095Y-106047619D01*
X215865714Y-106142857D01*
X215865714Y-106238095D01*
X215818095Y-106380952D01*
X215246666Y-106952380D01*
X215865714Y-106952380D01*
X217889523Y-106047619D02*
X217937142Y-106000000D01*
X218032380Y-105952380D01*
X218270476Y-105952380D01*
X218365714Y-106000000D01*
X218413333Y-106047619D01*
X218460952Y-106142857D01*
X218460952Y-106238095D01*
X218413333Y-106380952D01*
X217841904Y-106952380D01*
X218460952Y-106952380D01*
X218889523Y-106952380D02*
X218889523Y-105952380D01*
X218984761Y-106571428D02*
X219270476Y-106952380D01*
X219270476Y-106285714D02*
X218889523Y-106666666D01*
%TO.C,J10*%
X190190476Y-113647380D02*
X190190476Y-114361666D01*
X190142857Y-114504523D01*
X190047619Y-114599761D01*
X189904761Y-114647380D01*
X189809523Y-114647380D01*
X191190476Y-114647380D02*
X190619047Y-114647380D01*
X190904761Y-114647380D02*
X190904761Y-113647380D01*
X190809523Y-113790238D01*
X190714285Y-113885476D01*
X190619047Y-113933095D01*
X191809523Y-113647380D02*
X191904761Y-113647380D01*
X192000000Y-113695000D01*
X192047619Y-113742619D01*
X192095238Y-113837857D01*
X192142857Y-114028333D01*
X192142857Y-114266428D01*
X192095238Y-114456904D01*
X192047619Y-114552142D01*
X192000000Y-114599761D01*
X191904761Y-114647380D01*
X191809523Y-114647380D01*
X191714285Y-114599761D01*
X191666666Y-114552142D01*
X191619047Y-114456904D01*
X191571428Y-114266428D01*
X191571428Y-114028333D01*
X191619047Y-113837857D01*
X191666666Y-113742619D01*
X191714285Y-113695000D01*
X191809523Y-113647380D01*
X194523809Y-114647380D02*
X194190476Y-114171190D01*
X193952380Y-114647380D02*
X193952380Y-113647380D01*
X194333333Y-113647380D01*
X194428571Y-113695000D01*
X194476190Y-113742619D01*
X194523809Y-113837857D01*
X194523809Y-113980714D01*
X194476190Y-114075952D01*
X194428571Y-114123571D01*
X194333333Y-114171190D01*
X193952380Y-114171190D01*
X195333333Y-114599761D02*
X195238095Y-114647380D01*
X195047619Y-114647380D01*
X194952380Y-114599761D01*
X194904761Y-114504523D01*
X194904761Y-114123571D01*
X194952380Y-114028333D01*
X195047619Y-113980714D01*
X195238095Y-113980714D01*
X195333333Y-114028333D01*
X195380952Y-114123571D01*
X195380952Y-114218809D01*
X194904761Y-114314047D01*
X195952380Y-114647380D02*
X195857142Y-114599761D01*
X195809523Y-114504523D01*
X195809523Y-113647380D01*
X196761904Y-114647380D02*
X196761904Y-114123571D01*
X196714285Y-114028333D01*
X196619047Y-113980714D01*
X196428571Y-113980714D01*
X196333333Y-114028333D01*
X196761904Y-114599761D02*
X196666666Y-114647380D01*
X196428571Y-114647380D01*
X196333333Y-114599761D01*
X196285714Y-114504523D01*
X196285714Y-114409285D01*
X196333333Y-114314047D01*
X196428571Y-114266428D01*
X196666666Y-114266428D01*
X196761904Y-114218809D01*
X197238095Y-114647380D02*
X197238095Y-113980714D01*
X197238095Y-113647380D02*
X197190476Y-113695000D01*
X197238095Y-113742619D01*
X197285714Y-113695000D01*
X197238095Y-113647380D01*
X197238095Y-113742619D01*
X197666666Y-114599761D02*
X197761904Y-114647380D01*
X197952380Y-114647380D01*
X198047619Y-114599761D01*
X198095238Y-114504523D01*
X198095238Y-114456904D01*
X198047619Y-114361666D01*
X197952380Y-114314047D01*
X197809523Y-114314047D01*
X197714285Y-114266428D01*
X197666666Y-114171190D01*
X197666666Y-114123571D01*
X197714285Y-114028333D01*
X197809523Y-113980714D01*
X197952380Y-113980714D01*
X198047619Y-114028333D01*
%TO.C,J9*%
X174367666Y-84452381D02*
X174367666Y-85166667D01*
X174320047Y-85309524D01*
X174224809Y-85404762D01*
X174081952Y-85452381D01*
X173986714Y-85452381D01*
X174891476Y-85452381D02*
X175081952Y-85452381D01*
X175177190Y-85404762D01*
X175224809Y-85357143D01*
X175320047Y-85214286D01*
X175367666Y-85023810D01*
X175367666Y-84642858D01*
X175320047Y-84547620D01*
X175272428Y-84500001D01*
X175177190Y-84452381D01*
X174986714Y-84452381D01*
X174891476Y-84500001D01*
X174843857Y-84547620D01*
X174796238Y-84642858D01*
X174796238Y-84880953D01*
X174843857Y-84976191D01*
X174891476Y-85023810D01*
X174986714Y-85071429D01*
X175177190Y-85071429D01*
X175272428Y-85023810D01*
X175320047Y-84976191D01*
X175367666Y-84880953D01*
X176939095Y-85404762D02*
X177081952Y-85452381D01*
X177320047Y-85452381D01*
X177415285Y-85404762D01*
X177462904Y-85357143D01*
X177510523Y-85261905D01*
X177510523Y-85166667D01*
X177462904Y-85071429D01*
X177415285Y-85023810D01*
X177320047Y-84976191D01*
X177129571Y-84928572D01*
X177034333Y-84880953D01*
X176986714Y-84833334D01*
X176939095Y-84738096D01*
X176939095Y-84642858D01*
X176986714Y-84547620D01*
X177034333Y-84500001D01*
X177129571Y-84452381D01*
X177367666Y-84452381D01*
X177510523Y-84500001D01*
X178081952Y-85452381D02*
X177986714Y-85404762D01*
X177939095Y-85357143D01*
X177891476Y-85261905D01*
X177891476Y-84976191D01*
X177939095Y-84880953D01*
X177986714Y-84833334D01*
X178081952Y-84785715D01*
X178224809Y-84785715D01*
X178320047Y-84833334D01*
X178367666Y-84880953D01*
X178415285Y-84976191D01*
X178415285Y-85261905D01*
X178367666Y-85357143D01*
X178320047Y-85404762D01*
X178224809Y-85452381D01*
X178081952Y-85452381D01*
X178843857Y-85452381D02*
X178843857Y-84785715D01*
X178843857Y-84452381D02*
X178796238Y-84500001D01*
X178843857Y-84547620D01*
X178891476Y-84500001D01*
X178843857Y-84452381D01*
X178843857Y-84547620D01*
X179462904Y-85452381D02*
X179367666Y-85404762D01*
X179320047Y-85309524D01*
X179320047Y-84452381D01*
X180605761Y-85452381D02*
X180605761Y-84452381D01*
X180939095Y-85166667D01*
X181272428Y-84452381D01*
X181272428Y-85452381D01*
X181891476Y-85452381D02*
X181796238Y-85404762D01*
X181748619Y-85357143D01*
X181701000Y-85261905D01*
X181701000Y-84976191D01*
X181748619Y-84880953D01*
X181796238Y-84833334D01*
X181891476Y-84785715D01*
X182034333Y-84785715D01*
X182129571Y-84833334D01*
X182177190Y-84880953D01*
X182224809Y-84976191D01*
X182224809Y-85261905D01*
X182177190Y-85357143D01*
X182129571Y-85404762D01*
X182034333Y-85452381D01*
X181891476Y-85452381D01*
X182653380Y-85452381D02*
X182653380Y-84785715D01*
X182653380Y-84452381D02*
X182605761Y-84500001D01*
X182653380Y-84547620D01*
X182701000Y-84500001D01*
X182653380Y-84452381D01*
X182653380Y-84547620D01*
X183081952Y-85404762D02*
X183177190Y-85452381D01*
X183367666Y-85452381D01*
X183462904Y-85404762D01*
X183510523Y-85309524D01*
X183510523Y-85261905D01*
X183462904Y-85166667D01*
X183367666Y-85119048D01*
X183224809Y-85119048D01*
X183129571Y-85071429D01*
X183081952Y-84976191D01*
X183081952Y-84928572D01*
X183129571Y-84833334D01*
X183224809Y-84785715D01*
X183367666Y-84785715D01*
X183462904Y-84833334D01*
X183796238Y-84785715D02*
X184177190Y-84785715D01*
X183939095Y-84452381D02*
X183939095Y-85309524D01*
X183986714Y-85404762D01*
X184081952Y-85452381D01*
X184177190Y-85452381D01*
X184939095Y-84785715D02*
X184939095Y-85452381D01*
X184510523Y-84785715D02*
X184510523Y-85309524D01*
X184558142Y-85404762D01*
X184653380Y-85452381D01*
X184796238Y-85452381D01*
X184891476Y-85404762D01*
X184939095Y-85357143D01*
X185415285Y-85452381D02*
X185415285Y-84785715D01*
X185415285Y-84976191D02*
X185462904Y-84880953D01*
X185510523Y-84833334D01*
X185605761Y-84785715D01*
X185701000Y-84785715D01*
X186415285Y-85404762D02*
X186320047Y-85452381D01*
X186129571Y-85452381D01*
X186034333Y-85404762D01*
X185986714Y-85309524D01*
X185986714Y-84928572D01*
X186034333Y-84833334D01*
X186129571Y-84785715D01*
X186320047Y-84785715D01*
X186415285Y-84833334D01*
X186462904Y-84928572D01*
X186462904Y-85023810D01*
X185986714Y-85119048D01*
%TO.C,J8*%
X191867666Y-84452381D02*
X191867666Y-85166667D01*
X191820047Y-85309524D01*
X191724809Y-85404762D01*
X191581952Y-85452381D01*
X191486714Y-85452381D01*
X192486714Y-84880953D02*
X192391476Y-84833334D01*
X192343857Y-84785715D01*
X192296238Y-84690477D01*
X192296238Y-84642858D01*
X192343857Y-84547620D01*
X192391476Y-84500001D01*
X192486714Y-84452381D01*
X192677190Y-84452381D01*
X192772428Y-84500001D01*
X192820047Y-84547620D01*
X192867666Y-84642858D01*
X192867666Y-84690477D01*
X192820047Y-84785715D01*
X192772428Y-84833334D01*
X192677190Y-84880953D01*
X192486714Y-84880953D01*
X192391476Y-84928572D01*
X192343857Y-84976191D01*
X192296238Y-85071429D01*
X192296238Y-85261905D01*
X192343857Y-85357143D01*
X192391476Y-85404762D01*
X192486714Y-85452381D01*
X192677190Y-85452381D01*
X192772428Y-85404762D01*
X192820047Y-85357143D01*
X192867666Y-85261905D01*
X192867666Y-85071429D01*
X192820047Y-84976191D01*
X192772428Y-84928572D01*
X192677190Y-84880953D01*
X194439095Y-85404762D02*
X194581952Y-85452381D01*
X194820047Y-85452381D01*
X194915285Y-85404762D01*
X194962904Y-85357143D01*
X195010523Y-85261905D01*
X195010523Y-85166667D01*
X194962904Y-85071429D01*
X194915285Y-85023810D01*
X194820047Y-84976191D01*
X194629571Y-84928572D01*
X194534333Y-84880953D01*
X194486714Y-84833334D01*
X194439095Y-84738096D01*
X194439095Y-84642858D01*
X194486714Y-84547620D01*
X194534333Y-84500001D01*
X194629571Y-84452381D01*
X194867666Y-84452381D01*
X195010523Y-84500001D01*
X195581952Y-85452381D02*
X195486714Y-85404762D01*
X195439095Y-85357143D01*
X195391476Y-85261905D01*
X195391476Y-84976191D01*
X195439095Y-84880953D01*
X195486714Y-84833334D01*
X195581952Y-84785715D01*
X195724809Y-84785715D01*
X195820047Y-84833334D01*
X195867666Y-84880953D01*
X195915285Y-84976191D01*
X195915285Y-85261905D01*
X195867666Y-85357143D01*
X195820047Y-85404762D01*
X195724809Y-85452381D01*
X195581952Y-85452381D01*
X196343857Y-85452381D02*
X196343857Y-84785715D01*
X196343857Y-84452381D02*
X196296238Y-84500001D01*
X196343857Y-84547620D01*
X196391476Y-84500001D01*
X196343857Y-84452381D01*
X196343857Y-84547620D01*
X196962904Y-85452381D02*
X196867666Y-85404762D01*
X196820047Y-85309524D01*
X196820047Y-84452381D01*
X198105761Y-85452381D02*
X198105761Y-84452381D01*
X198439095Y-85166667D01*
X198772428Y-84452381D01*
X198772428Y-85452381D01*
X199391476Y-85452381D02*
X199296238Y-85404762D01*
X199248619Y-85357143D01*
X199201000Y-85261905D01*
X199201000Y-84976191D01*
X199248619Y-84880953D01*
X199296238Y-84833334D01*
X199391476Y-84785715D01*
X199534333Y-84785715D01*
X199629571Y-84833334D01*
X199677190Y-84880953D01*
X199724809Y-84976191D01*
X199724809Y-85261905D01*
X199677190Y-85357143D01*
X199629571Y-85404762D01*
X199534333Y-85452381D01*
X199391476Y-85452381D01*
X200153380Y-85452381D02*
X200153380Y-84785715D01*
X200153380Y-84452381D02*
X200105761Y-84500001D01*
X200153380Y-84547620D01*
X200201000Y-84500001D01*
X200153380Y-84452381D01*
X200153380Y-84547620D01*
X200581952Y-85404762D02*
X200677190Y-85452381D01*
X200867666Y-85452381D01*
X200962904Y-85404762D01*
X201010523Y-85309524D01*
X201010523Y-85261905D01*
X200962904Y-85166667D01*
X200867666Y-85119048D01*
X200724809Y-85119048D01*
X200629571Y-85071429D01*
X200581952Y-84976191D01*
X200581952Y-84928572D01*
X200629571Y-84833334D01*
X200724809Y-84785715D01*
X200867666Y-84785715D01*
X200962904Y-84833334D01*
X201296238Y-84785715D02*
X201677190Y-84785715D01*
X201439095Y-84452381D02*
X201439095Y-85309524D01*
X201486714Y-85404762D01*
X201581952Y-85452381D01*
X201677190Y-85452381D01*
X202439095Y-84785715D02*
X202439095Y-85452381D01*
X202010523Y-84785715D02*
X202010523Y-85309524D01*
X202058142Y-85404762D01*
X202153380Y-85452381D01*
X202296238Y-85452381D01*
X202391476Y-85404762D01*
X202439095Y-85357143D01*
X202915285Y-85452381D02*
X202915285Y-84785715D01*
X202915285Y-84976191D02*
X202962904Y-84880953D01*
X203010523Y-84833334D01*
X203105761Y-84785715D01*
X203201000Y-84785715D01*
X203915285Y-85404762D02*
X203820047Y-85452381D01*
X203629571Y-85452381D01*
X203534333Y-85404762D01*
X203486714Y-85309524D01*
X203486714Y-84928572D01*
X203534333Y-84833334D01*
X203629571Y-84785715D01*
X203820047Y-84785715D01*
X203915285Y-84833334D01*
X203962904Y-84928572D01*
X203962904Y-85023810D01*
X203486714Y-85119048D01*
%TO.C,J7*%
X209367666Y-84452381D02*
X209367666Y-85166667D01*
X209320047Y-85309524D01*
X209224809Y-85404762D01*
X209081952Y-85452381D01*
X208986714Y-85452381D01*
X209748619Y-84452381D02*
X210415285Y-84452381D01*
X209986714Y-85452381D01*
X211939095Y-85404762D02*
X212081952Y-85452381D01*
X212320047Y-85452381D01*
X212415285Y-85404762D01*
X212462904Y-85357143D01*
X212510523Y-85261905D01*
X212510523Y-85166667D01*
X212462904Y-85071429D01*
X212415285Y-85023810D01*
X212320047Y-84976191D01*
X212129571Y-84928572D01*
X212034333Y-84880953D01*
X211986714Y-84833334D01*
X211939095Y-84738096D01*
X211939095Y-84642858D01*
X211986714Y-84547620D01*
X212034333Y-84500001D01*
X212129571Y-84452381D01*
X212367666Y-84452381D01*
X212510523Y-84500001D01*
X213081952Y-85452381D02*
X212986714Y-85404762D01*
X212939095Y-85357143D01*
X212891476Y-85261905D01*
X212891476Y-84976191D01*
X212939095Y-84880953D01*
X212986714Y-84833334D01*
X213081952Y-84785715D01*
X213224809Y-84785715D01*
X213320047Y-84833334D01*
X213367666Y-84880953D01*
X213415285Y-84976191D01*
X213415285Y-85261905D01*
X213367666Y-85357143D01*
X213320047Y-85404762D01*
X213224809Y-85452381D01*
X213081952Y-85452381D01*
X213843857Y-85452381D02*
X213843857Y-84785715D01*
X213843857Y-84452381D02*
X213796238Y-84500001D01*
X213843857Y-84547620D01*
X213891476Y-84500001D01*
X213843857Y-84452381D01*
X213843857Y-84547620D01*
X214462904Y-85452381D02*
X214367666Y-85404762D01*
X214320047Y-85309524D01*
X214320047Y-84452381D01*
X215605761Y-85452381D02*
X215605761Y-84452381D01*
X215939095Y-85166667D01*
X216272428Y-84452381D01*
X216272428Y-85452381D01*
X216891476Y-85452381D02*
X216796238Y-85404762D01*
X216748619Y-85357143D01*
X216701000Y-85261905D01*
X216701000Y-84976191D01*
X216748619Y-84880953D01*
X216796238Y-84833334D01*
X216891476Y-84785715D01*
X217034333Y-84785715D01*
X217129571Y-84833334D01*
X217177190Y-84880953D01*
X217224809Y-84976191D01*
X217224809Y-85261905D01*
X217177190Y-85357143D01*
X217129571Y-85404762D01*
X217034333Y-85452381D01*
X216891476Y-85452381D01*
X217653380Y-85452381D02*
X217653380Y-84785715D01*
X217653380Y-84452381D02*
X217605761Y-84500001D01*
X217653380Y-84547620D01*
X217701000Y-84500001D01*
X217653380Y-84452381D01*
X217653380Y-84547620D01*
X218081952Y-85404762D02*
X218177190Y-85452381D01*
X218367666Y-85452381D01*
X218462904Y-85404762D01*
X218510523Y-85309524D01*
X218510523Y-85261905D01*
X218462904Y-85166667D01*
X218367666Y-85119048D01*
X218224809Y-85119048D01*
X218129571Y-85071429D01*
X218081952Y-84976191D01*
X218081952Y-84928572D01*
X218129571Y-84833334D01*
X218224809Y-84785715D01*
X218367666Y-84785715D01*
X218462904Y-84833334D01*
X218796238Y-84785715D02*
X219177190Y-84785715D01*
X218939095Y-84452381D02*
X218939095Y-85309524D01*
X218986714Y-85404762D01*
X219081952Y-85452381D01*
X219177190Y-85452381D01*
X219939095Y-84785715D02*
X219939095Y-85452381D01*
X219510523Y-84785715D02*
X219510523Y-85309524D01*
X219558142Y-85404762D01*
X219653380Y-85452381D01*
X219796238Y-85452381D01*
X219891476Y-85404762D01*
X219939095Y-85357143D01*
X220415285Y-85452381D02*
X220415285Y-84785715D01*
X220415285Y-84976191D02*
X220462904Y-84880953D01*
X220510523Y-84833334D01*
X220605761Y-84785715D01*
X220701000Y-84785715D01*
X221415285Y-85404762D02*
X221320047Y-85452381D01*
X221129571Y-85452381D01*
X221034333Y-85404762D01*
X220986714Y-85309524D01*
X220986714Y-84928572D01*
X221034333Y-84833334D01*
X221129571Y-84785715D01*
X221320047Y-84785715D01*
X221415285Y-84833334D01*
X221462904Y-84928572D01*
X221462904Y-85023810D01*
X220986714Y-85119048D01*
%TO.C,J6*%
X226867666Y-84452381D02*
X226867666Y-85166667D01*
X226820047Y-85309524D01*
X226724809Y-85404762D01*
X226581952Y-85452381D01*
X226486714Y-85452381D01*
X227772428Y-84452381D02*
X227581952Y-84452381D01*
X227486714Y-84500001D01*
X227439095Y-84547620D01*
X227343857Y-84690477D01*
X227296238Y-84880953D01*
X227296238Y-85261905D01*
X227343857Y-85357143D01*
X227391476Y-85404762D01*
X227486714Y-85452381D01*
X227677190Y-85452381D01*
X227772428Y-85404762D01*
X227820047Y-85357143D01*
X227867666Y-85261905D01*
X227867666Y-85023810D01*
X227820047Y-84928572D01*
X227772428Y-84880953D01*
X227677190Y-84833334D01*
X227486714Y-84833334D01*
X227391476Y-84880953D01*
X227343857Y-84928572D01*
X227296238Y-85023810D01*
X229439095Y-85404762D02*
X229581952Y-85452381D01*
X229820047Y-85452381D01*
X229915285Y-85404762D01*
X229962904Y-85357143D01*
X230010523Y-85261905D01*
X230010523Y-85166667D01*
X229962904Y-85071429D01*
X229915285Y-85023810D01*
X229820047Y-84976191D01*
X229629571Y-84928572D01*
X229534333Y-84880953D01*
X229486714Y-84833334D01*
X229439095Y-84738096D01*
X229439095Y-84642858D01*
X229486714Y-84547620D01*
X229534333Y-84500001D01*
X229629571Y-84452381D01*
X229867666Y-84452381D01*
X230010523Y-84500001D01*
X230581952Y-85452381D02*
X230486714Y-85404762D01*
X230439095Y-85357143D01*
X230391476Y-85261905D01*
X230391476Y-84976191D01*
X230439095Y-84880953D01*
X230486714Y-84833334D01*
X230581952Y-84785715D01*
X230724809Y-84785715D01*
X230820047Y-84833334D01*
X230867666Y-84880953D01*
X230915285Y-84976191D01*
X230915285Y-85261905D01*
X230867666Y-85357143D01*
X230820047Y-85404762D01*
X230724809Y-85452381D01*
X230581952Y-85452381D01*
X231343857Y-85452381D02*
X231343857Y-84785715D01*
X231343857Y-84452381D02*
X231296238Y-84500001D01*
X231343857Y-84547620D01*
X231391476Y-84500001D01*
X231343857Y-84452381D01*
X231343857Y-84547620D01*
X231962904Y-85452381D02*
X231867666Y-85404762D01*
X231820047Y-85309524D01*
X231820047Y-84452381D01*
X233105761Y-85452381D02*
X233105761Y-84452381D01*
X233439095Y-85166667D01*
X233772428Y-84452381D01*
X233772428Y-85452381D01*
X234391476Y-85452381D02*
X234296238Y-85404762D01*
X234248619Y-85357143D01*
X234201000Y-85261905D01*
X234201000Y-84976191D01*
X234248619Y-84880953D01*
X234296238Y-84833334D01*
X234391476Y-84785715D01*
X234534333Y-84785715D01*
X234629571Y-84833334D01*
X234677190Y-84880953D01*
X234724809Y-84976191D01*
X234724809Y-85261905D01*
X234677190Y-85357143D01*
X234629571Y-85404762D01*
X234534333Y-85452381D01*
X234391476Y-85452381D01*
X235153380Y-85452381D02*
X235153380Y-84785715D01*
X235153380Y-84452381D02*
X235105761Y-84500001D01*
X235153380Y-84547620D01*
X235201000Y-84500001D01*
X235153380Y-84452381D01*
X235153380Y-84547620D01*
X235581952Y-85404762D02*
X235677190Y-85452381D01*
X235867666Y-85452381D01*
X235962904Y-85404762D01*
X236010523Y-85309524D01*
X236010523Y-85261905D01*
X235962904Y-85166667D01*
X235867666Y-85119048D01*
X235724809Y-85119048D01*
X235629571Y-85071429D01*
X235581952Y-84976191D01*
X235581952Y-84928572D01*
X235629571Y-84833334D01*
X235724809Y-84785715D01*
X235867666Y-84785715D01*
X235962904Y-84833334D01*
X236296238Y-84785715D02*
X236677190Y-84785715D01*
X236439095Y-84452381D02*
X236439095Y-85309524D01*
X236486714Y-85404762D01*
X236581952Y-85452381D01*
X236677190Y-85452381D01*
X237439095Y-84785715D02*
X237439095Y-85452381D01*
X237010523Y-84785715D02*
X237010523Y-85309524D01*
X237058142Y-85404762D01*
X237153380Y-85452381D01*
X237296238Y-85452381D01*
X237391476Y-85404762D01*
X237439095Y-85357143D01*
X237915285Y-85452381D02*
X237915285Y-84785715D01*
X237915285Y-84976191D02*
X237962904Y-84880953D01*
X238010523Y-84833334D01*
X238105761Y-84785715D01*
X238201000Y-84785715D01*
X238915285Y-85404762D02*
X238820047Y-85452381D01*
X238629571Y-85452381D01*
X238534333Y-85404762D01*
X238486714Y-85309524D01*
X238486714Y-84928572D01*
X238534333Y-84833334D01*
X238629571Y-84785715D01*
X238820047Y-84785715D01*
X238915285Y-84833334D01*
X238962904Y-84928572D01*
X238962904Y-85023810D01*
X238486714Y-85119048D01*
%TO.C,J5*%
X228726865Y-111650200D02*
X229441151Y-111650200D01*
X229584008Y-111697819D01*
X229679246Y-111793057D01*
X229726865Y-111935914D01*
X229726865Y-112031152D01*
X228726865Y-110697819D02*
X228726865Y-111174009D01*
X229203056Y-111221628D01*
X229155437Y-111174009D01*
X229107818Y-111078771D01*
X229107818Y-110840676D01*
X229155437Y-110745438D01*
X229203056Y-110697819D01*
X229298294Y-110650200D01*
X229536389Y-110650200D01*
X229631627Y-110697819D01*
X229679246Y-110745438D01*
X229726865Y-110840676D01*
X229726865Y-111078771D01*
X229679246Y-111174009D01*
X229631627Y-111221628D01*
X229726865Y-108935914D02*
X228726865Y-108935914D01*
X228726865Y-108697819D01*
X228774485Y-108554962D01*
X228869723Y-108459724D01*
X228964961Y-108412105D01*
X229155437Y-108364486D01*
X229298294Y-108364486D01*
X229488770Y-108412105D01*
X229584008Y-108459724D01*
X229679246Y-108554962D01*
X229726865Y-108697819D01*
X229726865Y-108935914D01*
X229726865Y-107935914D02*
X228726865Y-107935914D01*
X229203056Y-107935914D02*
X229203056Y-107364486D01*
X229726865Y-107364486D02*
X228726865Y-107364486D01*
X228726865Y-107031152D02*
X228726865Y-106459724D01*
X229726865Y-106745438D02*
X228726865Y-106745438D01*
X228822104Y-106174009D02*
X228774485Y-106126390D01*
X228726865Y-106031152D01*
X228726865Y-105793057D01*
X228774485Y-105697819D01*
X228822104Y-105650200D01*
X228917342Y-105602581D01*
X229012580Y-105602581D01*
X229155437Y-105650200D01*
X229726865Y-106221628D01*
X229726865Y-105602581D01*
X228822104Y-105221628D02*
X228774485Y-105174009D01*
X228726865Y-105078771D01*
X228726865Y-104840676D01*
X228774485Y-104745438D01*
X228822104Y-104697819D01*
X228917342Y-104650200D01*
X229012580Y-104650200D01*
X229155437Y-104697819D01*
X229726865Y-105269247D01*
X229726865Y-104650200D01*
%TO.C,R1*%
X164833333Y-107452380D02*
X164500000Y-106976190D01*
X164261904Y-107452380D02*
X164261904Y-106452380D01*
X164642857Y-106452380D01*
X164738095Y-106500000D01*
X164785714Y-106547619D01*
X164833333Y-106642857D01*
X164833333Y-106785714D01*
X164785714Y-106880952D01*
X164738095Y-106928571D01*
X164642857Y-106976190D01*
X164261904Y-106976190D01*
X165785714Y-107452380D02*
X165214285Y-107452380D01*
X165500000Y-107452380D02*
X165500000Y-106452380D01*
X165404761Y-106595238D01*
X165309523Y-106690476D01*
X165214285Y-106738095D01*
X168238095Y-106452380D02*
X167761904Y-106452380D01*
X167714285Y-106928571D01*
X167761904Y-106880952D01*
X167857142Y-106833333D01*
X168095238Y-106833333D01*
X168190476Y-106880952D01*
X168238095Y-106928571D01*
X168285714Y-107023809D01*
X168285714Y-107261904D01*
X168238095Y-107357142D01*
X168190476Y-107404761D01*
X168095238Y-107452380D01*
X167857142Y-107452380D01*
X167761904Y-107404761D01*
X167714285Y-107357142D01*
X168714285Y-107452380D02*
X168714285Y-106452380D01*
X169285714Y-107452380D02*
X168857142Y-106880952D01*
X169285714Y-106452380D02*
X168714285Y-107023809D01*
%TO.C,J4*%
X153974666Y-114074380D02*
X153974666Y-114788666D01*
X153927047Y-114931523D01*
X153831809Y-115026761D01*
X153688952Y-115074380D01*
X153593714Y-115074380D01*
X154879428Y-114407714D02*
X154879428Y-115074380D01*
X154641333Y-114026761D02*
X154403238Y-114741047D01*
X155022285Y-114741047D01*
X156665142Y-115074380D02*
X156665142Y-114074380D01*
X156903238Y-114074380D01*
X157046095Y-114122000D01*
X157141333Y-114217238D01*
X157188952Y-114312476D01*
X157236571Y-114502952D01*
X157236571Y-114645809D01*
X157188952Y-114836285D01*
X157141333Y-114931523D01*
X157046095Y-115026761D01*
X156903238Y-115074380D01*
X156665142Y-115074380D01*
X157617523Y-115026761D02*
X157760380Y-115074380D01*
X157998476Y-115074380D01*
X158093714Y-115026761D01*
X158141333Y-114979142D01*
X158188952Y-114883904D01*
X158188952Y-114788666D01*
X158141333Y-114693428D01*
X158093714Y-114645809D01*
X157998476Y-114598190D01*
X157808000Y-114550571D01*
X157712761Y-114502952D01*
X157665142Y-114455333D01*
X157617523Y-114360095D01*
X157617523Y-114264857D01*
X157665142Y-114169619D01*
X157712761Y-114122000D01*
X157808000Y-114074380D01*
X158046095Y-114074380D01*
X158188952Y-114122000D01*
X159141333Y-115074380D02*
X158569904Y-115074380D01*
X158855619Y-115074380D02*
X158855619Y-114074380D01*
X158760380Y-114217238D01*
X158665142Y-114312476D01*
X158569904Y-114360095D01*
X159712761Y-114502952D02*
X159617523Y-114455333D01*
X159569904Y-114407714D01*
X159522285Y-114312476D01*
X159522285Y-114264857D01*
X159569904Y-114169619D01*
X159617523Y-114122000D01*
X159712761Y-114074380D01*
X159903238Y-114074380D01*
X159998476Y-114122000D01*
X160046095Y-114169619D01*
X160093714Y-114264857D01*
X160093714Y-114312476D01*
X160046095Y-114407714D01*
X159998476Y-114455333D01*
X159903238Y-114502952D01*
X159712761Y-114502952D01*
X159617523Y-114550571D01*
X159569904Y-114598190D01*
X159522285Y-114693428D01*
X159522285Y-114883904D01*
X159569904Y-114979142D01*
X159617523Y-115026761D01*
X159712761Y-115074380D01*
X159903238Y-115074380D01*
X159998476Y-115026761D01*
X160046095Y-114979142D01*
X160093714Y-114883904D01*
X160093714Y-114693428D01*
X160046095Y-114598190D01*
X159998476Y-114550571D01*
X159903238Y-114502952D01*
X160855619Y-114550571D02*
X160998476Y-114598190D01*
X161046095Y-114645809D01*
X161093714Y-114741047D01*
X161093714Y-114883904D01*
X161046095Y-114979142D01*
X160998476Y-115026761D01*
X160903238Y-115074380D01*
X160522285Y-115074380D01*
X160522285Y-114074380D01*
X160855619Y-114074380D01*
X160950857Y-114122000D01*
X160998476Y-114169619D01*
X161046095Y-114264857D01*
X161046095Y-114360095D01*
X160998476Y-114455333D01*
X160950857Y-114502952D01*
X160855619Y-114550571D01*
X160522285Y-114550571D01*
X161474666Y-114169619D02*
X161522285Y-114122000D01*
X161617523Y-114074380D01*
X161855619Y-114074380D01*
X161950857Y-114122000D01*
X161998476Y-114169619D01*
X162046095Y-114264857D01*
X162046095Y-114360095D01*
X161998476Y-114502952D01*
X161427047Y-115074380D01*
X162046095Y-115074380D01*
X162665142Y-114074380D02*
X162760380Y-114074380D01*
X162855619Y-114122000D01*
X162903238Y-114169619D01*
X162950857Y-114264857D01*
X162998476Y-114455333D01*
X162998476Y-114693428D01*
X162950857Y-114883904D01*
X162903238Y-114979142D01*
X162855619Y-115026761D01*
X162760380Y-115074380D01*
X162665142Y-115074380D01*
X162569904Y-115026761D01*
X162522285Y-114979142D01*
X162474666Y-114883904D01*
X162427047Y-114693428D01*
X162427047Y-114455333D01*
X162474666Y-114264857D01*
X162522285Y-114169619D01*
X162569904Y-114122000D01*
X162665142Y-114074380D01*
%TO.C,J3*%
X171666666Y-114147380D02*
X171666666Y-114861666D01*
X171619047Y-115004523D01*
X171523809Y-115099761D01*
X171380952Y-115147380D01*
X171285714Y-115147380D01*
X172047619Y-114147380D02*
X172666666Y-114147380D01*
X172333333Y-114528333D01*
X172476190Y-114528333D01*
X172571428Y-114575952D01*
X172619047Y-114623571D01*
X172666666Y-114718809D01*
X172666666Y-114956904D01*
X172619047Y-115052142D01*
X172571428Y-115099761D01*
X172476190Y-115147380D01*
X172190476Y-115147380D01*
X172095238Y-115099761D01*
X172047619Y-115052142D01*
X174357142Y-115147380D02*
X174357142Y-114147380D01*
X174595238Y-114147380D01*
X174738095Y-114195000D01*
X174833333Y-114290238D01*
X174880952Y-114385476D01*
X174928571Y-114575952D01*
X174928571Y-114718809D01*
X174880952Y-114909285D01*
X174833333Y-115004523D01*
X174738095Y-115099761D01*
X174595238Y-115147380D01*
X174357142Y-115147380D01*
X175309523Y-115099761D02*
X175452380Y-115147380D01*
X175690476Y-115147380D01*
X175785714Y-115099761D01*
X175833333Y-115052142D01*
X175880952Y-114956904D01*
X175880952Y-114861666D01*
X175833333Y-114766428D01*
X175785714Y-114718809D01*
X175690476Y-114671190D01*
X175500000Y-114623571D01*
X175404761Y-114575952D01*
X175357142Y-114528333D01*
X175309523Y-114433095D01*
X175309523Y-114337857D01*
X175357142Y-114242619D01*
X175404761Y-114195000D01*
X175500000Y-114147380D01*
X175738095Y-114147380D01*
X175880952Y-114195000D01*
X176833333Y-115147380D02*
X176261904Y-115147380D01*
X176547619Y-115147380D02*
X176547619Y-114147380D01*
X176452380Y-114290238D01*
X176357142Y-114385476D01*
X176261904Y-114433095D01*
X177404761Y-114575952D02*
X177309523Y-114528333D01*
X177261904Y-114480714D01*
X177214285Y-114385476D01*
X177214285Y-114337857D01*
X177261904Y-114242619D01*
X177309523Y-114195000D01*
X177404761Y-114147380D01*
X177595238Y-114147380D01*
X177690476Y-114195000D01*
X177738095Y-114242619D01*
X177785714Y-114337857D01*
X177785714Y-114385476D01*
X177738095Y-114480714D01*
X177690476Y-114528333D01*
X177595238Y-114575952D01*
X177404761Y-114575952D01*
X177309523Y-114623571D01*
X177261904Y-114671190D01*
X177214285Y-114766428D01*
X177214285Y-114956904D01*
X177261904Y-115052142D01*
X177309523Y-115099761D01*
X177404761Y-115147380D01*
X177595238Y-115147380D01*
X177690476Y-115099761D01*
X177738095Y-115052142D01*
X177785714Y-114956904D01*
X177785714Y-114766428D01*
X177738095Y-114671190D01*
X177690476Y-114623571D01*
X177595238Y-114575952D01*
X178547619Y-114623571D02*
X178690476Y-114671190D01*
X178738095Y-114718809D01*
X178785714Y-114814047D01*
X178785714Y-114956904D01*
X178738095Y-115052142D01*
X178690476Y-115099761D01*
X178595238Y-115147380D01*
X178214285Y-115147380D01*
X178214285Y-114147380D01*
X178547619Y-114147380D01*
X178642857Y-114195000D01*
X178690476Y-114242619D01*
X178738095Y-114337857D01*
X178738095Y-114433095D01*
X178690476Y-114528333D01*
X178642857Y-114575952D01*
X178547619Y-114623571D01*
X178214285Y-114623571D01*
X179166666Y-114242619D02*
X179214285Y-114195000D01*
X179309523Y-114147380D01*
X179547619Y-114147380D01*
X179642857Y-114195000D01*
X179690476Y-114242619D01*
X179738095Y-114337857D01*
X179738095Y-114433095D01*
X179690476Y-114575952D01*
X179119047Y-115147380D01*
X179738095Y-115147380D01*
X180357142Y-114147380D02*
X180452380Y-114147380D01*
X180547619Y-114195000D01*
X180595238Y-114242619D01*
X180642857Y-114337857D01*
X180690476Y-114528333D01*
X180690476Y-114766428D01*
X180642857Y-114956904D01*
X180595238Y-115052142D01*
X180547619Y-115099761D01*
X180452380Y-115147380D01*
X180357142Y-115147380D01*
X180261904Y-115099761D01*
X180214285Y-115052142D01*
X180166666Y-114956904D01*
X180119047Y-114766428D01*
X180119047Y-114528333D01*
X180166666Y-114337857D01*
X180214285Y-114242619D01*
X180261904Y-114195000D01*
X180357142Y-114147380D01*
D11*
%TO.C,J17*%
X90420000Y-118080000D02*
X90420000Y-115420000D01*
X90420000Y-118080000D02*
X136200000Y-118080000D01*
X136200000Y-118080000D02*
X136200000Y-115420000D01*
X89150000Y-118080000D02*
X87820000Y-118080000D01*
X87820000Y-118080000D02*
X87820000Y-116750000D01*
X90420000Y-115420000D02*
X136200000Y-115420000D01*
%TO.C,J16*%
X107770000Y-78230000D02*
X105170000Y-78230000D01*
X112910000Y-80830000D02*
X112910000Y-75630000D01*
X105170000Y-75630000D02*
X112910000Y-75630000D01*
X105170000Y-80830000D02*
X105170000Y-79500000D01*
X107770000Y-80830000D02*
X112910000Y-80830000D01*
X107770000Y-80830000D02*
X107770000Y-78230000D01*
X106500000Y-80830000D02*
X105170000Y-80830000D01*
X105170000Y-78230000D02*
X105170000Y-75630000D01*
%TO.C,J11*%
X149928000Y-76843001D02*
X149975000Y-76797001D01*
X152426000Y-78935001D02*
X152473000Y-78889001D01*
X157426000Y-78935001D02*
X157473000Y-78889001D01*
X171261000Y-83127001D02*
X146141000Y-83127001D01*
X152631000Y-79141001D02*
X152666000Y-79105001D01*
X164735000Y-76627001D02*
X164770000Y-76592001D01*
X147631000Y-79141001D02*
X147666000Y-79105001D01*
X171261000Y-73206001D02*
X146141000Y-73206001D01*
X162426000Y-78935001D02*
X162473000Y-78889001D01*
X171501000Y-72966001D02*
X171001000Y-72966001D01*
X159735000Y-76627001D02*
X159770000Y-76592001D01*
X149735000Y-76627001D02*
X149770000Y-76592001D01*
X171261000Y-75266001D02*
X146141000Y-75266001D01*
X162631000Y-79141001D02*
X162666000Y-79105001D01*
X171501000Y-73706001D02*
X171501000Y-72966001D01*
X157631000Y-79141001D02*
X157666000Y-79105001D01*
X164928000Y-76843001D02*
X164975000Y-76797001D01*
X159928000Y-76843001D02*
X159975000Y-76797001D01*
X154735000Y-76627001D02*
X154770000Y-76592001D01*
X146141000Y-83127001D02*
X146141000Y-73206001D01*
X171261000Y-73766001D02*
X146141000Y-73766001D01*
X147426000Y-78935001D02*
X147473000Y-78889001D01*
X171261000Y-83127001D02*
X171261000Y-73206001D01*
X154928000Y-76843001D02*
X154975000Y-76797001D01*
X171261000Y-80167001D02*
X146141000Y-80167001D01*
X168017000Y-79401001D02*
G75*
G03*
X169384042Y-79401428I684001J1534993D01*
G01*
X167165999Y-77182001D02*
G75*
G03*
X167165573Y-78549043I1535001J-684000D01*
G01*
X169385000Y-76331001D02*
G75*
G03*
X168672195Y-76185748I-683999J-1535001D01*
G01*
X168701000Y-76186001D02*
G75*
G03*
X168017682Y-76331245I0J-1680000D01*
G01*
X170236000Y-78550001D02*
G75*
G03*
X170236427Y-77182959I-1534993J684001D01*
G01*
X160381000Y-77866001D02*
G75*
G03*
X160381000Y-77866001I-1680000J0D01*
G01*
X155381000Y-77866001D02*
G75*
G03*
X155381000Y-77866001I-1680000J0D01*
G01*
X150381000Y-77866001D02*
G75*
G03*
X150381000Y-77866001I-1680000J0D01*
G01*
X165381000Y-77866001D02*
G75*
G03*
X165381000Y-77866001I-1680000J0D01*
G01*
%TO.C,J15*%
X231556000Y-95901500D02*
X231556000Y-85781500D01*
X241717000Y-96141500D02*
X241717000Y-95641500D01*
X241477000Y-95901500D02*
X241477000Y-85781500D01*
X237840000Y-89568500D02*
X237886000Y-89615500D01*
X239417000Y-95901500D02*
X239417000Y-85781500D01*
X238056000Y-89375500D02*
X238091000Y-89410500D01*
X240977000Y-96141500D02*
X241717000Y-96141500D01*
X231556000Y-95901500D02*
X241477000Y-95901500D01*
X231556000Y-85781500D02*
X241477000Y-85781500D01*
X235748000Y-87066500D02*
X235794000Y-87113500D01*
X235542000Y-87271500D02*
X235578000Y-87306500D01*
X234516000Y-95901500D02*
X234516000Y-85781500D01*
X240917000Y-95901500D02*
X240917000Y-85781500D01*
X237501000Y-91806499D02*
G75*
G03*
X236133958Y-91806073I-684000J-1535001D01*
G01*
X238352000Y-94025500D02*
G75*
G03*
X238497253Y-93312695I-1535001J683999D01*
G01*
X238497000Y-93341500D02*
G75*
G03*
X238351756Y-92658182I-1680000J0D01*
G01*
X236133000Y-94876500D02*
G75*
G03*
X237500042Y-94876927I684001J1534993D01*
G01*
X235282000Y-92657500D02*
G75*
G03*
X235281573Y-94024542I1534993J-684001D01*
G01*
X238497000Y-88341500D02*
G75*
G03*
X238497000Y-88341500I-1680000J0D01*
G01*
%TO.C,J14*%
X98060000Y-82761000D02*
X87940000Y-82761000D01*
X98300000Y-72600000D02*
X97800000Y-72600000D01*
X98060000Y-72840000D02*
X87940000Y-72840000D01*
X91727000Y-76477000D02*
X91774000Y-76431000D01*
X98060000Y-74900000D02*
X87940000Y-74900000D01*
X91534000Y-76261000D02*
X91569000Y-76226000D01*
X98300000Y-73340000D02*
X98300000Y-72600000D01*
X98060000Y-82761000D02*
X98060000Y-72840000D01*
X87940000Y-82761000D02*
X87940000Y-72840000D01*
X89225000Y-78569000D02*
X89272000Y-78523000D01*
X89430000Y-78775000D02*
X89465000Y-78739000D01*
X98060000Y-79801000D02*
X87940000Y-79801000D01*
X98060000Y-73400000D02*
X87940000Y-73400000D01*
X93964999Y-76816000D02*
G75*
G03*
X93964573Y-78183042I1535001J-684000D01*
G01*
X96184000Y-75965000D02*
G75*
G03*
X95471195Y-75819747I-683999J-1535001D01*
G01*
X95500000Y-75820000D02*
G75*
G03*
X94816682Y-75965244I0J-1680000D01*
G01*
X97035000Y-78184000D02*
G75*
G03*
X97035427Y-76816958I-1534993J684001D01*
G01*
X94816000Y-79035000D02*
G75*
G03*
X96183042Y-79035427I684001J1534993D01*
G01*
X92180000Y-77500000D02*
G75*
G03*
X92180000Y-77500000I-1680000J0D01*
G01*
%TO.C,J2*%
X143800000Y-113830000D02*
X143800000Y-111170000D01*
X87800000Y-111170000D02*
X89130000Y-111170000D01*
X87800000Y-112500000D02*
X87800000Y-111170000D01*
X90400000Y-113830000D02*
X143800000Y-113830000D01*
X90400000Y-113830000D02*
X90400000Y-111170000D01*
X90400000Y-111170000D02*
X143800000Y-111170000D01*
%TO.C,J1*%
X87810000Y-85670000D02*
X87810000Y-88330000D01*
X143810000Y-88330000D02*
X142480000Y-88330000D01*
X143810000Y-87000000D02*
X143810000Y-88330000D01*
X141210000Y-85670000D02*
X87810000Y-85670000D01*
X141210000Y-85670000D02*
X141210000Y-88330000D01*
X141210000Y-88330000D02*
X87810000Y-88330000D01*
%TO.C,J13*%
X233966000Y-122739000D02*
X233931000Y-122774000D01*
X241070000Y-120225000D02*
X241035000Y-120261000D01*
X233773000Y-122523000D02*
X233726000Y-122569000D01*
X228966000Y-122739000D02*
X228931000Y-122774000D01*
X238966000Y-122739000D02*
X238931000Y-122774000D01*
X236275000Y-120431000D02*
X236228000Y-120477000D01*
X222440000Y-125600000D02*
X242561000Y-125600000D01*
X228773000Y-122523000D02*
X228726000Y-122569000D01*
X231275000Y-120431000D02*
X231228000Y-120477000D01*
X231070000Y-120225000D02*
X231035000Y-120261000D01*
X236070000Y-120225000D02*
X236035000Y-120261000D01*
X222440000Y-126160000D02*
X242561000Y-126160000D01*
X222440000Y-119199000D02*
X242561000Y-119199000D01*
X222200000Y-126400000D02*
X222700000Y-126400000D01*
X222440000Y-116239000D02*
X242561000Y-116239000D01*
X241275000Y-120431000D02*
X241228000Y-120477000D01*
X238773000Y-122523000D02*
X238726000Y-122569000D01*
X222200000Y-125660000D02*
X222200000Y-126400000D01*
X222440000Y-116239000D02*
X222440000Y-126160000D01*
X222440000Y-124100000D02*
X242561000Y-124100000D01*
X242561000Y-116239000D02*
X242561000Y-126160000D01*
X225684000Y-119965000D02*
G75*
G03*
X224316958Y-119964573I-684001J-1534993D01*
G01*
X226535001Y-122184000D02*
G75*
G03*
X226535427Y-120816958I-1535001J684000D01*
G01*
X225000000Y-123180000D02*
G75*
G03*
X225683318Y-123034756I0J1680000D01*
G01*
X224316000Y-123035000D02*
G75*
G03*
X225028805Y-123180253I683999J1535001D01*
G01*
X223465000Y-120816000D02*
G75*
G03*
X223464573Y-122183042I1534993J-684001D01*
G01*
X241680000Y-121500000D02*
G75*
G03*
X241680000Y-121500000I-1680000J0D01*
G01*
X231680000Y-121500000D02*
G75*
G03*
X231680000Y-121500000I-1680000J0D01*
G01*
X236680000Y-121500000D02*
G75*
G03*
X236680000Y-121500000I-1680000J0D01*
G01*
%TO.C,J12*%
X122928000Y-76672001D02*
X122975000Y-76626001D01*
X125426000Y-78764001D02*
X125473000Y-78718001D01*
X130426000Y-78764001D02*
X130473000Y-78718001D01*
X144261000Y-82956001D02*
X119141000Y-82956001D01*
X125631000Y-78970001D02*
X125666000Y-78934001D01*
X137735000Y-76456001D02*
X137770000Y-76421001D01*
X120631000Y-78970001D02*
X120666000Y-78934001D01*
X144261000Y-73035001D02*
X119141000Y-73035001D01*
X135426000Y-78764001D02*
X135473000Y-78718001D01*
X144501000Y-72795001D02*
X144001000Y-72795001D01*
X132735000Y-76456001D02*
X132770000Y-76421001D01*
X122735000Y-76456001D02*
X122770000Y-76421001D01*
X144261000Y-75095001D02*
X119141000Y-75095001D01*
X135631000Y-78970001D02*
X135666000Y-78934001D01*
X144501000Y-73535001D02*
X144501000Y-72795001D01*
X130631000Y-78970001D02*
X130666000Y-78934001D01*
X137928000Y-76672001D02*
X137975000Y-76626001D01*
X132928000Y-76672001D02*
X132975000Y-76626001D01*
X127735000Y-76456001D02*
X127770000Y-76421001D01*
X119141000Y-82956001D02*
X119141000Y-73035001D01*
X144261000Y-73595001D02*
X119141000Y-73595001D01*
X120426000Y-78764001D02*
X120473000Y-78718001D01*
X144261000Y-82956001D02*
X144261000Y-73035001D01*
X127928000Y-76672001D02*
X127975000Y-76626001D01*
X144261000Y-79996001D02*
X119141000Y-79996001D01*
X141017000Y-79230001D02*
G75*
G03*
X142384042Y-79230428I684001J1534993D01*
G01*
X140165999Y-77011001D02*
G75*
G03*
X140165573Y-78378043I1535001J-684000D01*
G01*
X142385000Y-76160001D02*
G75*
G03*
X141672195Y-76014748I-683999J-1535001D01*
G01*
X141701000Y-76015001D02*
G75*
G03*
X141017682Y-76160245I0J-1680000D01*
G01*
X143236000Y-78379001D02*
G75*
G03*
X143236427Y-77011959I-1534993J684001D01*
G01*
X133381000Y-77695001D02*
G75*
G03*
X133381000Y-77695001I-1680000J0D01*
G01*
X128381000Y-77695001D02*
G75*
G03*
X128381000Y-77695001I-1680000J0D01*
G01*
X123381000Y-77695001D02*
G75*
G03*
X123381000Y-77695001I-1680000J0D01*
G01*
X138381000Y-77695001D02*
G75*
G03*
X138381000Y-77695001I-1680000J0D01*
G01*
%TO.C,R3*%
X222850000Y-100130000D02*
X216310000Y-100130000D01*
X216310000Y-102870000D02*
X222850000Y-102870000D01*
X222850000Y-102870000D02*
X222850000Y-100130000D01*
X216310000Y-100130000D02*
X216310000Y-102870000D01*
X215540000Y-101500000D02*
X216310000Y-101500000D01*
X223620000Y-101500000D02*
X222850000Y-101500000D01*
%TO.C,R2*%
X222850000Y-107630000D02*
X216310000Y-107630000D01*
X216310000Y-110370000D02*
X222850000Y-110370000D01*
X222850000Y-110370000D02*
X222850000Y-107630000D01*
X216310000Y-107630000D02*
X216310000Y-110370000D01*
X215540000Y-109000000D02*
X216310000Y-109000000D01*
X223620000Y-109000000D02*
X222850000Y-109000000D01*
%TO.C,J10*%
X198275000Y-120431000D02*
X198228000Y-120477000D01*
X215773000Y-122523000D02*
X215726000Y-122569000D01*
X189440000Y-125600000D02*
X219560000Y-125600000D01*
X210773000Y-122523000D02*
X210726000Y-122569000D01*
X205966000Y-122739000D02*
X205931000Y-122774000D01*
X189440000Y-116239000D02*
X189440000Y-126160000D01*
X189440000Y-126160000D02*
X219560000Y-126160000D01*
X218275000Y-120431000D02*
X218228000Y-120477000D01*
X210966000Y-122739000D02*
X210931000Y-122774000D01*
X189200000Y-126400000D02*
X189700000Y-126400000D01*
X200966000Y-122739000D02*
X200931000Y-122774000D01*
X213070000Y-120225000D02*
X213035000Y-120261000D01*
X218070000Y-120225000D02*
X218035000Y-120261000D01*
X208275000Y-120431000D02*
X208228000Y-120477000D01*
X203070000Y-120225000D02*
X203035000Y-120261000D01*
X215966000Y-122739000D02*
X215931000Y-122774000D01*
X189440000Y-119199000D02*
X219560000Y-119199000D01*
X198070000Y-120225000D02*
X198035000Y-120261000D01*
X200773000Y-122523000D02*
X200726000Y-122569000D01*
X195773000Y-122523000D02*
X195726000Y-122569000D01*
X219560000Y-116239000D02*
X219560000Y-126160000D01*
X189200000Y-125660000D02*
X189200000Y-126400000D01*
X189440000Y-116239000D02*
X219560000Y-116239000D01*
X205773000Y-122523000D02*
X205726000Y-122569000D01*
X195966000Y-122739000D02*
X195931000Y-122774000D01*
X189440000Y-124100000D02*
X219560000Y-124100000D01*
X208070000Y-120225000D02*
X208035000Y-120261000D01*
X213275000Y-120431000D02*
X213228000Y-120477000D01*
X203275000Y-120431000D02*
X203228000Y-120477000D01*
X192684000Y-119965000D02*
G75*
G03*
X191316958Y-119964573I-684001J-1534993D01*
G01*
X190465000Y-120816000D02*
G75*
G03*
X190464573Y-122183042I1534993J-684001D01*
G01*
X192000000Y-123180000D02*
G75*
G03*
X192683318Y-123034756I0J1680000D01*
G01*
X191316000Y-123035000D02*
G75*
G03*
X192028805Y-123180253I683999J1535001D01*
G01*
X193535001Y-122184000D02*
G75*
G03*
X193535427Y-120816958I-1535001J684000D01*
G01*
X198680000Y-121500000D02*
G75*
G03*
X198680000Y-121500000I-1680000J0D01*
G01*
X203680000Y-121500000D02*
G75*
G03*
X203680000Y-121500000I-1680000J0D01*
G01*
X208680000Y-121500000D02*
G75*
G03*
X208680000Y-121500000I-1680000J0D01*
G01*
X213680000Y-121500000D02*
G75*
G03*
X213680000Y-121500000I-1680000J0D01*
G01*
X218680000Y-121500000D02*
G75*
G03*
X218680000Y-121500000I-1680000J0D01*
G01*
%TO.C,J9*%
X182801000Y-77890000D02*
G75*
G03*
X182801000Y-77890000I-1680000J0D01*
G01*
X177721000Y-77890000D02*
G75*
G03*
X177721000Y-77890000I-1680000J0D01*
G01*
X186201000Y-76210000D02*
G75*
G03*
X185517682Y-76355244I0J-1680000D01*
G01*
X186885000Y-76355000D02*
G75*
G03*
X186172195Y-76209747I-683999J-1535001D01*
G01*
X185517000Y-79425000D02*
G75*
G03*
X186884042Y-79425427I684001J1534993D01*
G01*
X184665999Y-77206000D02*
G75*
G03*
X184665573Y-78573042I1535001J-684000D01*
G01*
X187736000Y-78574000D02*
G75*
G03*
X187736427Y-77206958I-1534993J684001D01*
G01*
X188801000Y-75290000D02*
X173441000Y-75290000D01*
X179846000Y-78959000D02*
X179893000Y-78913000D01*
X177075000Y-76651000D02*
X177110000Y-76616000D01*
X174971000Y-79165000D02*
X175006000Y-79129000D01*
X189041000Y-72990000D02*
X188541000Y-72990000D01*
X180051000Y-79165000D02*
X180086000Y-79129000D01*
X177268000Y-76867000D02*
X177315000Y-76821000D01*
X182348000Y-76867000D02*
X182395000Y-76821000D01*
X182155000Y-76651000D02*
X182190000Y-76616000D01*
X173441000Y-83151000D02*
X173441000Y-73230000D01*
X188801000Y-73790000D02*
X173441000Y-73790000D01*
X188801000Y-83151000D02*
X188801000Y-73230000D01*
X174766000Y-78959000D02*
X174813000Y-78913000D01*
X188801000Y-80191000D02*
X173441000Y-80191000D01*
X188801000Y-83151000D02*
X173441000Y-83151000D01*
X189041000Y-73730000D02*
X189041000Y-72990000D01*
X188801000Y-73230000D02*
X173441000Y-73230000D01*
%TO.C,J8*%
X206301000Y-73230000D02*
X190941000Y-73230000D01*
X206541000Y-73730000D02*
X206541000Y-72990000D01*
X206301000Y-83151000D02*
X190941000Y-83151000D01*
X206301000Y-80191000D02*
X190941000Y-80191000D01*
X192266000Y-78959000D02*
X192313000Y-78913000D01*
X206301000Y-83151000D02*
X206301000Y-73230000D01*
X206301000Y-73790000D02*
X190941000Y-73790000D01*
X190941000Y-83151000D02*
X190941000Y-73230000D01*
X199655000Y-76651000D02*
X199690000Y-76616000D01*
X199848000Y-76867000D02*
X199895000Y-76821000D01*
X194768000Y-76867000D02*
X194815000Y-76821000D01*
X197551000Y-79165000D02*
X197586000Y-79129000D01*
X206541000Y-72990000D02*
X206041000Y-72990000D01*
X192471000Y-79165000D02*
X192506000Y-79129000D01*
X194575000Y-76651000D02*
X194610000Y-76616000D01*
X197346000Y-78959000D02*
X197393000Y-78913000D01*
X206301000Y-75290000D02*
X190941000Y-75290000D01*
X205236000Y-78574000D02*
G75*
G03*
X205236427Y-77206958I-1534993J684001D01*
G01*
X202165999Y-77206000D02*
G75*
G03*
X202165573Y-78573042I1535001J-684000D01*
G01*
X203017000Y-79425000D02*
G75*
G03*
X204384042Y-79425427I684001J1534993D01*
G01*
X204385000Y-76355000D02*
G75*
G03*
X203672195Y-76209747I-683999J-1535001D01*
G01*
X203701000Y-76210000D02*
G75*
G03*
X203017682Y-76355244I0J-1680000D01*
G01*
X195221000Y-77890000D02*
G75*
G03*
X195221000Y-77890000I-1680000J0D01*
G01*
X200301000Y-77890000D02*
G75*
G03*
X200301000Y-77890000I-1680000J0D01*
G01*
%TO.C,J7*%
X223801000Y-73230000D02*
X208441000Y-73230000D01*
X224041000Y-73730000D02*
X224041000Y-72990000D01*
X223801000Y-83151000D02*
X208441000Y-83151000D01*
X223801000Y-80191000D02*
X208441000Y-80191000D01*
X209766000Y-78959000D02*
X209813000Y-78913000D01*
X223801000Y-83151000D02*
X223801000Y-73230000D01*
X223801000Y-73790000D02*
X208441000Y-73790000D01*
X208441000Y-83151000D02*
X208441000Y-73230000D01*
X217155000Y-76651000D02*
X217190000Y-76616000D01*
X217348000Y-76867000D02*
X217395000Y-76821000D01*
X212268000Y-76867000D02*
X212315000Y-76821000D01*
X215051000Y-79165000D02*
X215086000Y-79129000D01*
X224041000Y-72990000D02*
X223541000Y-72990000D01*
X209971000Y-79165000D02*
X210006000Y-79129000D01*
X212075000Y-76651000D02*
X212110000Y-76616000D01*
X214846000Y-78959000D02*
X214893000Y-78913000D01*
X223801000Y-75290000D02*
X208441000Y-75290000D01*
X222736000Y-78574000D02*
G75*
G03*
X222736427Y-77206958I-1534993J684001D01*
G01*
X219665999Y-77206000D02*
G75*
G03*
X219665573Y-78573042I1535001J-684000D01*
G01*
X220517000Y-79425000D02*
G75*
G03*
X221884042Y-79425427I684001J1534993D01*
G01*
X221885000Y-76355000D02*
G75*
G03*
X221172195Y-76209747I-683999J-1535001D01*
G01*
X221201000Y-76210000D02*
G75*
G03*
X220517682Y-76355244I0J-1680000D01*
G01*
X212721000Y-77890000D02*
G75*
G03*
X212721000Y-77890000I-1680000J0D01*
G01*
X217801000Y-77890000D02*
G75*
G03*
X217801000Y-77890000I-1680000J0D01*
G01*
%TO.C,J6*%
X241301000Y-73230000D02*
X225941000Y-73230000D01*
X241541000Y-73730000D02*
X241541000Y-72990000D01*
X241301000Y-83151000D02*
X225941000Y-83151000D01*
X241301000Y-80191000D02*
X225941000Y-80191000D01*
X227266000Y-78959000D02*
X227313000Y-78913000D01*
X241301000Y-83151000D02*
X241301000Y-73230000D01*
X241301000Y-73790000D02*
X225941000Y-73790000D01*
X225941000Y-83151000D02*
X225941000Y-73230000D01*
X234655000Y-76651000D02*
X234690000Y-76616000D01*
X234848000Y-76867000D02*
X234895000Y-76821000D01*
X229768000Y-76867000D02*
X229815000Y-76821000D01*
X232551000Y-79165000D02*
X232586000Y-79129000D01*
X241541000Y-72990000D02*
X241041000Y-72990000D01*
X227471000Y-79165000D02*
X227506000Y-79129000D01*
X229575000Y-76651000D02*
X229610000Y-76616000D01*
X232346000Y-78959000D02*
X232393000Y-78913000D01*
X241301000Y-75290000D02*
X225941000Y-75290000D01*
X240236000Y-78574000D02*
G75*
G03*
X240236427Y-77206958I-1534993J684001D01*
G01*
X237165999Y-77206000D02*
G75*
G03*
X237165573Y-78573042I1535001J-684000D01*
G01*
X238017000Y-79425000D02*
G75*
G03*
X239384042Y-79425427I684001J1534993D01*
G01*
X239385000Y-76355000D02*
G75*
G03*
X238672195Y-76209747I-683999J-1535001D01*
G01*
X238701000Y-76210000D02*
G75*
G03*
X238017682Y-76355244I0J-1680000D01*
G01*
X230221000Y-77890000D02*
G75*
G03*
X230221000Y-77890000I-1680000J0D01*
G01*
X235301000Y-77890000D02*
G75*
G03*
X235301000Y-77890000I-1680000J0D01*
G01*
%TO.C,J5*%
X238497000Y-105103000D02*
G75*
G03*
X238497000Y-105103000I-1680000J0D01*
G01*
X238497000Y-100023000D02*
G75*
G03*
X238497000Y-100023000I-1680000J0D01*
G01*
X238497000Y-110183000D02*
G75*
G03*
X238351756Y-109499682I-1680000J0D01*
G01*
X238352000Y-110867000D02*
G75*
G03*
X238497253Y-110154195I-1535001J683999D01*
G01*
X235282000Y-109499000D02*
G75*
G03*
X235281573Y-110866042I1534993J-684001D01*
G01*
X237501000Y-108647999D02*
G75*
G03*
X236133958Y-108647573I-684000J-1535001D01*
G01*
X236133000Y-111718000D02*
G75*
G03*
X237500042Y-111718427I684001J1534993D01*
G01*
X239417000Y-112783000D02*
X239417000Y-97423000D01*
X235748000Y-103828000D02*
X235794000Y-103875000D01*
X238056000Y-101057000D02*
X238091000Y-101092000D01*
X235542000Y-98953000D02*
X235578000Y-98988000D01*
X241717000Y-113023000D02*
X241717000Y-112523000D01*
X235542000Y-104033000D02*
X235578000Y-104068000D01*
X237840000Y-101250000D02*
X237886000Y-101297000D01*
X237840000Y-106330000D02*
X237886000Y-106377000D01*
X238056000Y-106137000D02*
X238091000Y-106172000D01*
X231556000Y-97423000D02*
X241477000Y-97423000D01*
X240917000Y-112783000D02*
X240917000Y-97423000D01*
X231556000Y-112783000D02*
X241477000Y-112783000D01*
X235748000Y-98748000D02*
X235794000Y-98795000D01*
X234516000Y-112783000D02*
X234516000Y-97423000D01*
X231556000Y-112783000D02*
X231556000Y-97423000D01*
X240977000Y-113023000D02*
X241717000Y-113023000D01*
X241477000Y-112783000D02*
X241477000Y-97423000D01*
%TO.C,R1*%
X165460000Y-109500000D02*
X166230000Y-109500000D01*
X173540000Y-109500000D02*
X172770000Y-109500000D01*
X172770000Y-110870000D02*
X172770000Y-108130000D01*
X166230000Y-108130000D02*
X166230000Y-110870000D01*
X172770000Y-108130000D02*
X166230000Y-108130000D01*
X166230000Y-110870000D02*
X172770000Y-110870000D01*
%TO.C,J4*%
X162983000Y-121427000D02*
G75*
G03*
X162983000Y-121427000I-1680000J0D01*
G01*
X168063000Y-121427000D02*
G75*
G03*
X168063000Y-121427000I-1680000J0D01*
G01*
X156223000Y-123107000D02*
G75*
G03*
X156906318Y-122961756I0J1680000D01*
G01*
X155539000Y-122962000D02*
G75*
G03*
X156251805Y-123107253I683999J1535001D01*
G01*
X156907000Y-119892000D02*
G75*
G03*
X155539958Y-119891573I-684001J-1534993D01*
G01*
X157758001Y-122111000D02*
G75*
G03*
X157758427Y-120743958I-1535001J684000D01*
G01*
X154688000Y-120743000D02*
G75*
G03*
X154687573Y-122110042I1534993J-684001D01*
G01*
X153623000Y-124027000D02*
X168983000Y-124027000D01*
X162578000Y-120358000D02*
X162531000Y-120404000D01*
X165349000Y-122666000D02*
X165314000Y-122701000D01*
X167453000Y-120152000D02*
X167418000Y-120188000D01*
X153383000Y-126327000D02*
X153883000Y-126327000D01*
X162373000Y-120152000D02*
X162338000Y-120188000D01*
X165156000Y-122450000D02*
X165109000Y-122496000D01*
X160076000Y-122450000D02*
X160029000Y-122496000D01*
X160269000Y-122666000D02*
X160234000Y-122701000D01*
X168983000Y-116166000D02*
X168983000Y-126087000D01*
X153623000Y-125527000D02*
X168983000Y-125527000D01*
X153623000Y-116166000D02*
X153623000Y-126087000D01*
X167658000Y-120358000D02*
X167611000Y-120404000D01*
X153623000Y-119126000D02*
X168983000Y-119126000D01*
X153623000Y-116166000D02*
X168983000Y-116166000D01*
X153383000Y-125587000D02*
X153383000Y-126327000D01*
X153623000Y-126087000D02*
X168983000Y-126087000D01*
%TO.C,J3*%
X171315000Y-126160000D02*
X186675000Y-126160000D01*
X171075000Y-125660000D02*
X171075000Y-126400000D01*
X171315000Y-116239000D02*
X186675000Y-116239000D01*
X171315000Y-119199000D02*
X186675000Y-119199000D01*
X185350000Y-120431000D02*
X185303000Y-120477000D01*
X171315000Y-116239000D02*
X171315000Y-126160000D01*
X171315000Y-125600000D02*
X186675000Y-125600000D01*
X186675000Y-116239000D02*
X186675000Y-126160000D01*
X177961000Y-122739000D02*
X177926000Y-122774000D01*
X177768000Y-122523000D02*
X177721000Y-122569000D01*
X182848000Y-122523000D02*
X182801000Y-122569000D01*
X180065000Y-120225000D02*
X180030000Y-120261000D01*
X171075000Y-126400000D02*
X171575000Y-126400000D01*
X185145000Y-120225000D02*
X185110000Y-120261000D01*
X183041000Y-122739000D02*
X183006000Y-122774000D01*
X180270000Y-120431000D02*
X180223000Y-120477000D01*
X171315000Y-124100000D02*
X186675000Y-124100000D01*
X172380000Y-120816000D02*
G75*
G03*
X172379573Y-122183042I1534993J-684001D01*
G01*
X175450001Y-122184000D02*
G75*
G03*
X175450427Y-120816958I-1535001J684000D01*
G01*
X174599000Y-119965000D02*
G75*
G03*
X173231958Y-119964573I-684001J-1534993D01*
G01*
X173231000Y-123035000D02*
G75*
G03*
X173943805Y-123180253I683999J1535001D01*
G01*
X173915000Y-123180000D02*
G75*
G03*
X174598318Y-123034756I0J1680000D01*
G01*
X185755000Y-121500000D02*
G75*
G03*
X185755000Y-121500000I-1680000J0D01*
G01*
X180675000Y-121500000D02*
G75*
G03*
X180675000Y-121500000I-1680000J0D01*
G01*
%TD*%
M02*
