M48
; DRILL file {KiCad (6.0.10)} date Tue Jun 24 19:53:19 2025
; FORMAT={-:-/ absolute / inch / decimal}
; #@! TF.CreationDate,2025-06-24T19:53:19+02:00
; #@! TF.GenerationSoftware,Kicad,Pcbnew,(6.0.10)
; #@! TF.FileFunction,Plated,1,2,PTH
FMAT,2
INCH
; #@! TA.AperFunction,Plated,PTH,ViaDrill
T1C0.0157
; #@! TA.AperFunction,Plated,PTH,ComponentDrill
T2C0.0315
; #@! TA.AperFunction,Plated,PTH,ComponentDrill
T3C0.0394
; #@! TA.AperFunction,Plated,PTH,ComponentDrill
T4C0.0512
%
G90
G05
T1
X5.4134Y-3.6614
X5.7087Y-3.7205
X6.7323Y-3.6024
X6.8701Y-3.8354
X6.9685Y-3.6614
X7.3228Y-3.878
X7.3228Y-3.9567
X7.3228Y-4.0354
X7.3228Y-4.1142
X8.8386Y-3.4055
T2
X6.4732Y-4.311
X6.8732Y-4.311
X8.4449Y-3.9961
X8.4449Y-4.2913
X8.8449Y-3.9961
X8.8449Y-4.2913
T3
X3.5091Y-4.4291
X3.5094Y-3.4252
X3.5098Y-4.5965
X3.6091Y-4.4291
X3.6094Y-3.4252
X3.6098Y-4.5965
X3.7091Y-4.4291
X3.7094Y-3.4252
X3.7098Y-4.5965
X3.8091Y-4.4291
X3.8094Y-3.4252
X3.8098Y-4.5965
X3.9091Y-4.4291
X3.9094Y-3.4252
X3.9098Y-4.5965
X4.0091Y-4.4291
X4.0094Y-3.4252
X4.0098Y-4.5965
X4.1091Y-4.4291
X4.1094Y-3.4252
X4.1098Y-4.5965
X4.1929Y-3.0299
X4.1929Y-3.1299
X4.2091Y-4.4291
X4.2094Y-3.4252
X4.2098Y-4.5965
X4.2929Y-3.0299
X4.2929Y-3.1299
X4.3091Y-4.4291
X4.3094Y-3.4252
X4.3098Y-4.5965
X4.3929Y-3.0299
X4.3929Y-3.1299
X4.4091Y-4.4291
X4.4094Y-3.4252
X4.4098Y-4.5965
X4.5091Y-4.4291
X4.5094Y-3.4252
X4.5098Y-4.5965
X4.6091Y-4.4291
X4.6094Y-3.4252
X4.6098Y-4.5965
X4.7091Y-4.4291
X4.7094Y-3.4252
X4.7098Y-4.5965
X4.8091Y-4.4291
X4.8094Y-3.4252
X4.8098Y-4.5965
X4.9091Y-4.4291
X4.9094Y-3.4252
X4.9098Y-4.5965
X5.0091Y-4.4291
X5.0094Y-3.4252
X5.0098Y-4.5965
X5.1091Y-4.4291
X5.1094Y-3.4252
X5.1098Y-4.5965
X5.2091Y-4.4291
X5.2094Y-3.4252
X5.2098Y-4.5965
X5.3091Y-4.4291
X5.3094Y-3.4252
X5.3098Y-4.5965
X5.4091Y-4.4291
X5.4094Y-3.4252
X5.5091Y-4.4291
X5.5094Y-3.4252
X5.6091Y-4.4291
X5.6094Y-3.4252
T4
X3.563Y-3.0512
X3.7598Y-3.0512
X4.7914Y-3.0589
X4.9882Y-3.0589
X5.1851Y-3.0589
X5.3819Y-3.0589
X5.5788Y-3.0589
X5.8544Y-3.0656
X6.0512Y-3.0656
X6.1505Y-4.7806
X6.2481Y-3.0656
X6.3505Y-4.7806
X6.4449Y-3.0656
X6.5505Y-4.7806
X6.6418Y-3.0656
X6.847Y-4.7835
X6.9307Y-3.0665
X7.047Y-4.7835
X7.1307Y-3.0665
X7.247Y-4.7835
X7.3307Y-3.0665
X7.5591Y-4.7835
X7.6197Y-3.0665
X7.7559Y-4.7835
X7.8197Y-3.0665
X7.9528Y-4.7835
X8.0197Y-3.0665
X8.1496Y-4.7835
X8.3087Y-3.0665
X8.3465Y-4.7835
X8.5087Y-3.0665
X8.5433Y-4.7835
X8.7087Y-3.0665
X8.8583Y-4.7835
X8.9977Y-3.0665
X9.0551Y-4.7835
X9.1977Y-3.0665
X9.252Y-4.7835
X9.3235Y-3.478
X9.3235Y-3.6749
X9.3235Y-3.9379
X9.3235Y-4.1379
X9.3235Y-4.3379
X9.3977Y-3.0665
X9.4488Y-4.7835
T0
M30
