%TF.GenerationSoftware,KiCad,Pcbnew,(6.0.10)*%
%TF.CreationDate,2025-06-24T19:53:16+02:00*%
%TF.ProjectId,esp_shield,6573705f-7368-4696-956c-642e6b696361,1.0*%
%TF.SameCoordinates,Original*%
%TF.FileFunction,Soldermask,Bot*%
%TF.FilePolarity,Negative*%
%FSLAX46Y46*%
G04 Gerber Fmt 4.6, Leading zero omitted, Abs format (unit mm)*
G04 Created by KiCad (PCBNEW (6.0.10)) date 2025-06-24 19:53:16*
%MOMM*%
%LPD*%
G01*
G04 APERTURE LIST*
%ADD10R,1.700000X1.700000*%
%ADD11O,1.700000X1.700000*%
%ADD12R,2.600000X2.600000*%
%ADD13C,2.600000*%
%ADD14O,1.600000X1.600000*%
%ADD15C,1.600000*%
G04 APERTURE END LIST*
D10*
%TO.C,J17*%
X89150000Y-116750000D03*
D11*
X91690000Y-116750000D03*
X94230000Y-116750000D03*
X96770000Y-116750000D03*
X99310000Y-116750000D03*
X101850000Y-116750000D03*
X104390000Y-116750000D03*
X106930000Y-116750000D03*
X109470000Y-116750000D03*
X112010000Y-116750000D03*
X114550000Y-116750000D03*
X117090000Y-116750000D03*
X119630000Y-116750000D03*
X122170000Y-116750000D03*
X124710000Y-116750000D03*
X127250000Y-116750000D03*
X129790000Y-116750000D03*
X132330000Y-116750000D03*
X134870000Y-116750000D03*
%TD*%
D10*
%TO.C,J16*%
X106500000Y-79500000D03*
D11*
X106500000Y-76960000D03*
X109040000Y-79500000D03*
X109040000Y-76960000D03*
X111580000Y-79500000D03*
X111580000Y-76960000D03*
%TD*%
D12*
%TO.C,J11*%
X168701000Y-77866001D03*
D13*
X163701000Y-77866001D03*
X158701000Y-77866001D03*
X153701000Y-77866001D03*
X148701000Y-77866001D03*
%TD*%
D12*
%TO.C,J15*%
X236817000Y-93341500D03*
D13*
X236817000Y-88341500D03*
%TD*%
D12*
%TO.C,J14*%
X95500000Y-77500000D03*
D13*
X90500000Y-77500000D03*
%TD*%
D10*
%TO.C,J2*%
X89130000Y-112500000D03*
D11*
X91670000Y-112500000D03*
X94210000Y-112500000D03*
X96750000Y-112500000D03*
X99290000Y-112500000D03*
X101830000Y-112500000D03*
X104370000Y-112500000D03*
X106910000Y-112500000D03*
X109450000Y-112500000D03*
X111990000Y-112500000D03*
X114530000Y-112500000D03*
X117070000Y-112500000D03*
X119610000Y-112500000D03*
X122150000Y-112500000D03*
X124690000Y-112500000D03*
X127230000Y-112500000D03*
X129770000Y-112500000D03*
X132310000Y-112500000D03*
X134850000Y-112500000D03*
X137390000Y-112500000D03*
X139930000Y-112500000D03*
X142470000Y-112500000D03*
%TD*%
D10*
%TO.C,J1*%
X142480000Y-87000000D03*
D11*
X139940000Y-87000000D03*
X137400000Y-87000000D03*
X134860000Y-87000000D03*
X132320000Y-87000000D03*
X129780000Y-87000000D03*
X127240000Y-87000000D03*
X124700000Y-87000000D03*
X122160000Y-87000000D03*
X119620000Y-87000000D03*
X117080000Y-87000000D03*
X114540000Y-87000000D03*
X112000000Y-87000000D03*
X109460000Y-87000000D03*
X106920000Y-87000000D03*
X104380000Y-87000000D03*
X101840000Y-87000000D03*
X99300000Y-87000000D03*
X96760000Y-87000000D03*
X94220000Y-87000000D03*
X91680000Y-87000000D03*
X89140000Y-87000000D03*
%TD*%
D12*
%TO.C,J13*%
X225000000Y-121500000D03*
D13*
X230000000Y-121500000D03*
X235000000Y-121500000D03*
X240000000Y-121500000D03*
%TD*%
D12*
%TO.C,J12*%
X141701000Y-77695001D03*
D13*
X136701000Y-77695001D03*
X131701000Y-77695001D03*
X126701000Y-77695001D03*
X121701000Y-77695001D03*
%TD*%
D14*
%TO.C,R3*%
X224660000Y-101500000D03*
D15*
X214500000Y-101500000D03*
%TD*%
D14*
%TO.C,R2*%
X224660000Y-109000000D03*
D15*
X214500000Y-109000000D03*
%TD*%
D12*
%TO.C,J10*%
X192000000Y-121500000D03*
D13*
X197000000Y-121500000D03*
X202000000Y-121500000D03*
X207000000Y-121500000D03*
X212000000Y-121500000D03*
X217000000Y-121500000D03*
%TD*%
%TO.C,J9*%
X176041000Y-77890000D03*
X181121000Y-77890000D03*
D12*
X186201000Y-77890000D03*
%TD*%
%TO.C,J8*%
X203701000Y-77890000D03*
D13*
X198621000Y-77890000D03*
X193541000Y-77890000D03*
%TD*%
D12*
%TO.C,J7*%
X221201000Y-77890000D03*
D13*
X216121000Y-77890000D03*
X211041000Y-77890000D03*
%TD*%
D12*
%TO.C,J6*%
X238701000Y-77890000D03*
D13*
X233621000Y-77890000D03*
X228541000Y-77890000D03*
%TD*%
%TO.C,J5*%
X236817000Y-100023000D03*
X236817000Y-105103000D03*
D12*
X236817000Y-110183000D03*
%TD*%
D15*
%TO.C,R1*%
X174580000Y-109500000D03*
D14*
X164420000Y-109500000D03*
%TD*%
D13*
%TO.C,J4*%
X166383000Y-121427000D03*
X161303000Y-121427000D03*
D12*
X156223000Y-121427000D03*
%TD*%
%TO.C,J3*%
X173915000Y-121500000D03*
D13*
X178995000Y-121500000D03*
X184075000Y-121500000D03*
%TD*%
M02*
