ISO-10303-21;
HEADER;
/* Generated by software containing ST-Developer
 * from STEP Tools, Inc. (www.steptools.com) 
 */

FILE_DESCRIPTION(
/* description */ (''),
/* implementation_level */ '2;1');

FILE_NAME(
/* name */ 'M3_nut_adapter.step',
/* time_stamp */ '2025-07-18T23:02:51+02:00',
/* author */ (''),
/* organization */ (''),
/* preprocessor_version */ 'ST-DEVELOPER v20',
/* originating_system */ 'Autodesk Translation Framework v13.20.0.188',

/* authorisation */ '');

FILE_SCHEMA (('AUTOMOTIVE_DESIGN { 1 0 10303 214 3 1 1 }'));
ENDSEC;

DATA;
#10=MECHANICAL_DESIGN_GEOMETRIC_PRESENTATION_REPRESENTATION('',(#19,#20),
#942);
#11=ITEM_DEFINED_TRANSFORMATION($,$,#574,#613);
#12=(
REPRESENTATION_RELATIONSHIP($,$,#953,#952)
REPRESENTATION_RELATIONSHIP_WITH_TRANSFORMATION(#11)
SHAPE_REPRESENTATION_RELATIONSHIP()
);
#13=CONTEXT_DEPENDENT_SHAPE_REPRESENTATION(#12,#951);
#14=NEXT_ASSEMBLY_USAGE_OCCURRENCE(
'Sechskantmutter, normale Form UNI EN 24032 - M3 Stahl 6 Einfach v1:1',
'Sechskantmutter, normale Form UNI EN 24032 - M3 Stahl 6 Einfach v1:1',
'Sechskantmutter, normale Form UNI EN 24032 - M3 Stahl 6 Einfach v1:1',
#955,#956,
'Sechskantmutter, normale Form UNI EN 24032 - M3 Stahl 6 Einfach v1:1');
#15=SHAPE_REPRESENTATION_RELATIONSHIP('SRR','None',#953,#17);
#16=SHAPE_REPRESENTATION_RELATIONSHIP('SRR','None',#952,#18);
#17=ADVANCED_BREP_SHAPE_REPRESENTATION('',(#21),#941);
#18=ADVANCED_BREP_SHAPE_REPRESENTATION('',(#22),#940);
#19=STYLED_ITEM('',(#967),#21);
#20=STYLED_ITEM('',(#966),#22);
#21=MANIFOLD_SOLID_BREP('K\X\F6rper1',#559);
#22=MANIFOLD_SOLID_BREP('K\X\F6rper1',#560);
#23=CYLINDRICAL_SURFACE('',#593,1.2645);
#24=CYLINDRICAL_SURFACE('',#607,1.5);
#25=FACE_BOUND('',#107,.T.);
#26=FACE_BOUND('',#110,.T.);
#27=FACE_BOUND('',#120,.T.);
#28=FACE_BOUND('',#130,.T.);
#29=(
BOUNDED_CURVE()
B_SPLINE_CURVE(2,(#769,#770,#771),.UNSPECIFIED.,.F.,.F.)
B_SPLINE_CURVE_WITH_KNOTS((3,3),(0.000144272746223086,0.321515614919824),
 .UNSPECIFIED.)
CURVE()
GEOMETRIC_REPRESENTATION_ITEM()
RATIONAL_B_SPLINE_CURVE((1.00013898062186,1.15486101937814,1.00013898062186))
REPRESENTATION_ITEM('')
);
#30=(
BOUNDED_CURVE()
B_SPLINE_CURVE(2,(#774,#775,#776),.UNSPECIFIED.,.F.,.F.)
B_SPLINE_CURVE_WITH_KNOTS((3,3),(0.0001442727462233,0.321515614919824),
 .UNSPECIFIED.)
CURVE()
GEOMETRIC_REPRESENTATION_ITEM()
RATIONAL_B_SPLINE_CURVE((1.00013898062186,1.15486101937814,1.00013898062186))
REPRESENTATION_ITEM('')
);
#31=(
BOUNDED_CURVE()
B_SPLINE_CURVE(2,(#779,#780,#781),.UNSPECIFIED.,.F.,.F.)
B_SPLINE_CURVE_WITH_KNOTS((3,3),(0.000144272746223172,0.321515614919824),
 .UNSPECIFIED.)
CURVE()
GEOMETRIC_REPRESENTATION_ITEM()
RATIONAL_B_SPLINE_CURVE((1.00013898062186,1.15486101937814,1.00013898062186))
REPRESENTATION_ITEM('')
);
#32=(
BOUNDED_CURVE()
B_SPLINE_CURVE(2,(#784,#785,#786),.UNSPECIFIED.,.F.,.F.)
B_SPLINE_CURVE_WITH_KNOTS((3,3),(0.000144272746223098,0.321515614919824),
 .UNSPECIFIED.)
CURVE()
GEOMETRIC_REPRESENTATION_ITEM()
RATIONAL_B_SPLINE_CURVE((1.00013898062186,1.15486101937814,1.00013898062186))
REPRESENTATION_ITEM('')
);
#33=(
BOUNDED_CURVE()
B_SPLINE_CURVE(2,(#793,#794,#795),.UNSPECIFIED.,.F.,.F.)
B_SPLINE_CURVE_WITH_KNOTS((3,3),(0.160829943833023,0.321515614919824),
 .UNSPECIFIED.)
CURVE()
GEOMETRIC_REPRESENTATION_ITEM()
RATIONAL_B_SPLINE_CURVE((1.0775,1.0775,1.00013898062186))
REPRESENTATION_ITEM('')
);
#34=(
BOUNDED_CURVE()
B_SPLINE_CURVE(2,(#797,#798,#799),.UNSPECIFIED.,.F.,.F.)
B_SPLINE_CURVE_WITH_KNOTS((3,3),(0.000144272746223155,0.321515614919824),
 .UNSPECIFIED.)
CURVE()
GEOMETRIC_REPRESENTATION_ITEM()
RATIONAL_B_SPLINE_CURVE((1.00013898062186,1.15486101937814,1.00013898062186))
REPRESENTATION_ITEM('')
);
#35=(
BOUNDED_CURVE()
B_SPLINE_CURVE(2,(#800,#801,#802),.UNSPECIFIED.,.F.,.F.)
B_SPLINE_CURVE_WITH_KNOTS((3,3),(0.000144272746223172,0.321515614919824),
 .UNSPECIFIED.)
CURVE()
GEOMETRIC_REPRESENTATION_ITEM()
RATIONAL_B_SPLINE_CURVE((1.00013898062186,1.15486101937814,1.00013898062186))
REPRESENTATION_ITEM('')
);
#36=(
BOUNDED_CURVE()
B_SPLINE_CURVE(2,(#804,#805,#806),.UNSPECIFIED.,.F.,.F.)
B_SPLINE_CURVE_WITH_KNOTS((3,3),(0.000144272746223243,0.321515614919824),
 .UNSPECIFIED.)
CURVE()
GEOMETRIC_REPRESENTATION_ITEM()
RATIONAL_B_SPLINE_CURVE((1.00013898062186,1.15486101937814,1.00013898062186))
REPRESENTATION_ITEM('')
);
#37=(
BOUNDED_CURVE()
B_SPLINE_CURVE(2,(#807,#808,#809),.UNSPECIFIED.,.F.,.F.)
B_SPLINE_CURVE_WITH_KNOTS((3,3),(0.000144272746223245,0.160829943833023),
 .UNSPECIFIED.)
CURVE()
GEOMETRIC_REPRESENTATION_ITEM()
RATIONAL_B_SPLINE_CURVE((1.00013898062186,1.0775,1.0775))
REPRESENTATION_ITEM('')
);
#38=(
BOUNDED_CURVE()
B_SPLINE_CURVE(2,(#812,#813,#814),.UNSPECIFIED.,.F.,.F.)
B_SPLINE_CURVE_WITH_KNOTS((3,3),(0.00014427274622302,0.321515614919823),
 .UNSPECIFIED.)
CURVE()
GEOMETRIC_REPRESENTATION_ITEM()
RATIONAL_B_SPLINE_CURVE((1.00013898062186,1.15486101937814,1.00013898062186))
REPRESENTATION_ITEM('')
);
#39=(
BOUNDED_CURVE()
B_SPLINE_CURVE(2,(#818,#819,#820),.UNSPECIFIED.,.F.,.F.)
B_SPLINE_CURVE_WITH_KNOTS((3,3),(0.160829943833024,0.321515614919823),
 .UNSPECIFIED.)
CURVE()
GEOMETRIC_REPRESENTATION_ITEM()
RATIONAL_B_SPLINE_CURVE((1.0775,1.0775,1.00013898062186))
REPRESENTATION_ITEM('')
);
#40=(
BOUNDED_CURVE()
B_SPLINE_CURVE(2,(#822,#823,#824),.UNSPECIFIED.,.F.,.F.)
B_SPLINE_CURVE_WITH_KNOTS((3,3),(0.000144272746223017,0.160829943833024),
 .UNSPECIFIED.)
CURVE()
GEOMETRIC_REPRESENTATION_ITEM()
RATIONAL_B_SPLINE_CURVE((1.00013898062186,1.0775,1.0775))
REPRESENTATION_ITEM('')
);
#41=(
BOUNDED_CURVE()
B_SPLINE_CURVE(2,(#828,#829,#830),.UNSPECIFIED.,.F.,.F.)
B_SPLINE_CURVE_WITH_KNOTS((3,3),(0.000144272746223089,0.321515614919824),
 .UNSPECIFIED.)
CURVE()
GEOMETRIC_REPRESENTATION_ITEM()
RATIONAL_B_SPLINE_CURVE((1.00013898062186,1.15486101937814,1.00013898062186))
REPRESENTATION_ITEM('')
);
#42=(
BOUNDED_CURVE()
B_SPLINE_CURVE(2,(#833,#834,#835),.UNSPECIFIED.,.F.,.F.)
B_SPLINE_CURVE_WITH_KNOTS((3,3),(0.000144272746223187,0.321515614919824),
 .UNSPECIFIED.)
CURVE()
GEOMETRIC_REPRESENTATION_ITEM()
RATIONAL_B_SPLINE_CURVE((1.00013898062186,1.15486101937814,1.00013898062186))
REPRESENTATION_ITEM('')
);
#43=PLANE('',#581);
#44=PLANE('',#582);
#45=PLANE('',#585);
#46=PLANE('',#586);
#47=PLANE('',#587);
#48=PLANE('',#588);
#49=PLANE('',#589);
#50=PLANE('',#592);
#51=PLANE('',#594);
#52=PLANE('',#595);
#53=PLANE('',#596);
#54=PLANE('',#597);
#55=PLANE('',#598);
#56=PLANE('',#599);
#57=PLANE('',#600);
#58=PLANE('',#601);
#59=PLANE('',#603);
#60=PLANE('',#604);
#61=PLANE('',#605);
#62=PLANE('',#606);
#63=PLANE('',#609);
#64=PLANE('',#610);
#65=PLANE('',#611);
#66=PLANE('',#612);
#67=FACE_OUTER_BOUND('',#97,.T.);
#68=FACE_OUTER_BOUND('',#98,.T.);
#69=FACE_OUTER_BOUND('',#99,.T.);
#70=FACE_OUTER_BOUND('',#100,.T.);
#71=FACE_OUTER_BOUND('',#101,.T.);
#72=FACE_OUTER_BOUND('',#102,.T.);
#73=FACE_OUTER_BOUND('',#103,.T.);
#74=FACE_OUTER_BOUND('',#104,.T.);
#75=FACE_OUTER_BOUND('',#105,.T.);
#76=FACE_OUTER_BOUND('',#106,.T.);
#77=FACE_OUTER_BOUND('',#108,.T.);
#78=FACE_OUTER_BOUND('',#109,.T.);
#79=FACE_OUTER_BOUND('',#111,.T.);
#80=FACE_OUTER_BOUND('',#112,.T.);
#81=FACE_OUTER_BOUND('',#113,.T.);
#82=FACE_OUTER_BOUND('',#114,.T.);
#83=FACE_OUTER_BOUND('',#115,.T.);
#84=FACE_OUTER_BOUND('',#116,.T.);
#85=FACE_OUTER_BOUND('',#117,.T.);
#86=FACE_OUTER_BOUND('',#118,.T.);
#87=FACE_OUTER_BOUND('',#119,.T.);
#88=FACE_OUTER_BOUND('',#121,.T.);
#89=FACE_OUTER_BOUND('',#122,.T.);
#90=FACE_OUTER_BOUND('',#123,.T.);
#91=FACE_OUTER_BOUND('',#124,.T.);
#92=FACE_OUTER_BOUND('',#125,.T.);
#93=FACE_OUTER_BOUND('',#126,.T.);
#94=FACE_OUTER_BOUND('',#127,.T.);
#95=FACE_OUTER_BOUND('',#128,.T.);
#96=FACE_OUTER_BOUND('',#129,.T.);
#97=EDGE_LOOP('',(#373,#374,#375,#376));
#98=EDGE_LOOP('',(#377,#378,#379,#380));
#99=EDGE_LOOP('',(#381,#382,#383,#384));
#100=EDGE_LOOP('',(#385,#386,#387,#388));
#101=EDGE_LOOP('',(#389,#390,#391,#392,#393,#394,#395,#396,#397,#398));
#102=EDGE_LOOP('',(#399,#400,#401,#402));
#103=EDGE_LOOP('',(#403,#404,#405,#406,#407,#408));
#104=EDGE_LOOP('',(#409,#410,#411,#412));
#105=EDGE_LOOP('',(#413,#414,#415,#416));
#106=EDGE_LOOP('',(#417));
#107=EDGE_LOOP('',(#418));
#108=EDGE_LOOP('',(#419,#420,#421,#422,#423,#424,#425,#426,#427,#428));
#109=EDGE_LOOP('',(#429));
#110=EDGE_LOOP('',(#430));
#111=EDGE_LOOP('',(#431,#432,#433,#434));
#112=EDGE_LOOP('',(#435,#436,#437,#438));
#113=EDGE_LOOP('',(#439,#440,#441,#442,#443,#444));
#114=EDGE_LOOP('',(#445,#446,#447,#448,#449,#450,#451,#452,#453,#454));
#115=EDGE_LOOP('',(#455,#456,#457,#458));
#116=EDGE_LOOP('',(#459,#460,#461,#462,#463,#464));
#117=EDGE_LOOP('',(#465,#466,#467,#468));
#118=EDGE_LOOP('',(#469,#470,#471,#472));
#119=EDGE_LOOP('',(#473,#474,#475,#476,#477,#478,#479,#480));
#120=EDGE_LOOP('',(#481));
#121=EDGE_LOOP('',(#482,#483,#484,#485));
#122=EDGE_LOOP('',(#486,#487,#488,#489));
#123=EDGE_LOOP('',(#490,#491,#492,#493));
#124=EDGE_LOOP('',(#494,#495,#496,#497));
#125=EDGE_LOOP('',(#498,#499,#500,#501));
#126=EDGE_LOOP('',(#502,#503,#504,#505,#506,#507,#508,#509,#510,#511));
#127=EDGE_LOOP('',(#512,#513,#514,#515));
#128=EDGE_LOOP('',(#516,#517,#518,#519));
#129=EDGE_LOOP('',(#520,#521,#522,#523));
#130=EDGE_LOOP('',(#524));
#131=LINE('',#756,#185);
#132=LINE('',#762,#186);
#133=LINE('',#767,#187);
#134=LINE('',#773,#188);
#135=LINE('',#783,#189);
#136=LINE('',#791,#190);
#137=LINE('',#815,#191);
#138=LINE('',#825,#192);
#139=LINE('',#831,#193);
#140=LINE('',#840,#194);
#141=LINE('',#843,#195);
#142=LINE('',#847,#196);
#143=LINE('',#849,#197);
#144=LINE('',#851,#198);
#145=LINE('',#852,#199);
#146=LINE('',#855,#200);
#147=LINE('',#857,#201);
#148=LINE('',#859,#202);
#149=LINE('',#861,#203);
#150=LINE('',#862,#204);
#151=LINE('',#865,#205);
#152=LINE('',#867,#206);
#153=LINE('',#869,#207);
#154=LINE('',#871,#208);
#155=LINE('',#873,#209);
#156=LINE('',#875,#210);
#157=LINE('',#877,#211);
#158=LINE('',#878,#212);
#159=LINE('',#882,#213);
#160=LINE('',#883,#214);
#161=LINE('',#884,#215);
#162=LINE('',#887,#216);
#163=LINE('',#889,#217);
#164=LINE('',#891,#218);
#165=LINE('',#892,#219);
#166=LINE('',#895,#220);
#167=LINE('',#896,#221);
#168=LINE('',#900,#222);
#169=LINE('',#901,#223);
#170=LINE('',#902,#224);
#171=LINE('',#905,#225);
#172=LINE('',#907,#226);
#173=LINE('',#909,#227);
#174=LINE('',#910,#228);
#175=LINE('',#911,#229);
#176=LINE('',#915,#230);
#177=LINE('',#917,#231);
#178=LINE('',#918,#232);
#179=LINE('',#924,#233);
#180=LINE('',#927,#234);
#181=LINE('',#929,#235);
#182=LINE('',#930,#236);
#183=LINE('',#932,#237);
#184=LINE('',#934,#238);
#185=VECTOR('',#622,1.15358983848622);
#186=VECTOR('',#629,1.15358983848622);
#187=VECTOR('',#634,10.);
#188=VECTOR('',#635,10.);
#189=VECTOR('',#638,10.);
#190=VECTOR('',#643,2.935625);
#191=VECTOR('',#646,10.);
#192=VECTOR('',#649,10.);
#193=VECTOR('',#652,10.);
#194=VECTOR('',#661,2.935625);
#195=VECTOR('',#666,1.5);
#196=VECTOR('',#669,10.);
#197=VECTOR('',#670,10.);
#198=VECTOR('',#671,10.);
#199=VECTOR('',#672,10.);
#200=VECTOR('',#675,10.);
#201=VECTOR('',#676,10.);
#202=VECTOR('',#677,10.);
#203=VECTOR('',#678,10.);
#204=VECTOR('',#679,10.);
#205=VECTOR('',#682,10.);
#206=VECTOR('',#683,10.);
#207=VECTOR('',#684,10.);
#208=VECTOR('',#685,10.);
#209=VECTOR('',#686,10.);
#210=VECTOR('',#687,10.);
#211=VECTOR('',#688,10.);
#212=VECTOR('',#689,10.);
#213=VECTOR('',#692,10.);
#214=VECTOR('',#693,10.);
#215=VECTOR('',#694,10.);
#216=VECTOR('',#697,10.);
#217=VECTOR('',#698,10.);
#218=VECTOR('',#699,10.);
#219=VECTOR('',#700,10.);
#220=VECTOR('',#703,10.);
#221=VECTOR('',#704,10.);
#222=VECTOR('',#707,10.);
#223=VECTOR('',#708,10.);
#224=VECTOR('',#709,10.);
#225=VECTOR('',#712,10.);
#226=VECTOR('',#713,10.);
#227=VECTOR('',#714,10.);
#228=VECTOR('',#715,10.);
#229=VECTOR('',#716,10.);
#230=VECTOR('',#721,10.);
#231=VECTOR('',#724,10.);
#232=VECTOR('',#725,10.);
#233=VECTOR('',#734,1.5);
#234=VECTOR('',#737,10.);
#235=VECTOR('',#738,10.);
#236=VECTOR('',#739,10.);
#237=VECTOR('',#742,10.);
#238=VECTOR('',#745,10.);
#239=CIRCLE('',#576,1.2645);
#240=CIRCLE('',#577,1.5);
#241=CIRCLE('',#579,1.5);
#242=CIRCLE('',#580,1.2645);
#243=CIRCLE('',#584,2.695);
#244=CIRCLE('',#590,2.695);
#245=CIRCLE('',#602,1.5);
#246=CIRCLE('',#608,1.5);
#247=VERTEX_POINT('',#753);
#248=VERTEX_POINT('',#755);
#249=VERTEX_POINT('',#759);
#250=VERTEX_POINT('',#761);
#251=VERTEX_POINT('',#765);
#252=VERTEX_POINT('',#766);
#253=VERTEX_POINT('',#768);
#254=VERTEX_POINT('',#772);
#255=VERTEX_POINT('',#778);
#256=VERTEX_POINT('',#782);
#257=VERTEX_POINT('',#788);
#258=VERTEX_POINT('',#790);
#259=VERTEX_POINT('',#792);
#260=VERTEX_POINT('',#796);
#261=VERTEX_POINT('',#803);
#262=VERTEX_POINT('',#811);
#263=VERTEX_POINT('',#817);
#264=VERTEX_POINT('',#821);
#265=VERTEX_POINT('',#827);
#266=VERTEX_POINT('',#837);
#267=VERTEX_POINT('',#845);
#268=VERTEX_POINT('',#846);
#269=VERTEX_POINT('',#848);
#270=VERTEX_POINT('',#850);
#271=VERTEX_POINT('',#854);
#272=VERTEX_POINT('',#856);
#273=VERTEX_POINT('',#858);
#274=VERTEX_POINT('',#860);
#275=VERTEX_POINT('',#864);
#276=VERTEX_POINT('',#866);
#277=VERTEX_POINT('',#868);
#278=VERTEX_POINT('',#870);
#279=VERTEX_POINT('',#872);
#280=VERTEX_POINT('',#874);
#281=VERTEX_POINT('',#876);
#282=VERTEX_POINT('',#880);
#283=VERTEX_POINT('',#881);
#284=VERTEX_POINT('',#886);
#285=VERTEX_POINT('',#888);
#286=VERTEX_POINT('',#890);
#287=VERTEX_POINT('',#894);
#288=VERTEX_POINT('',#898);
#289=VERTEX_POINT('',#899);
#290=VERTEX_POINT('',#904);
#291=VERTEX_POINT('',#906);
#292=VERTEX_POINT('',#908);
#293=VERTEX_POINT('',#912);
#294=VERTEX_POINT('',#922);
#295=VERTEX_POINT('',#926);
#296=VERTEX_POINT('',#928);
#297=EDGE_CURVE('',#247,#247,#239,.T.);
#298=EDGE_CURVE('',#247,#248,#131,.T.);
#299=EDGE_CURVE('',#248,#248,#240,.T.);
#300=EDGE_CURVE('',#249,#249,#241,.T.);
#301=EDGE_CURVE('',#249,#250,#132,.T.);
#302=EDGE_CURVE('',#250,#250,#242,.T.);
#303=EDGE_CURVE('',#251,#252,#133,.T.);
#304=EDGE_CURVE('',#253,#251,#29,.T.);
#305=EDGE_CURVE('',#254,#253,#134,.T.);
#306=EDGE_CURVE('',#252,#254,#30,.T.);
#307=EDGE_CURVE('',#255,#253,#31,.T.);
#308=EDGE_CURVE('',#255,#256,#135,.T.);
#309=EDGE_CURVE('',#254,#256,#32,.T.);
#310=EDGE_CURVE('',#257,#257,#243,.T.);
#311=EDGE_CURVE('',#257,#258,#136,.T.);
#312=EDGE_CURVE('',#258,#259,#33,.T.);
#313=EDGE_CURVE('',#259,#260,#34,.T.);
#314=EDGE_CURVE('',#260,#255,#35,.T.);
#315=EDGE_CURVE('',#251,#261,#36,.T.);
#316=EDGE_CURVE('',#261,#258,#37,.T.);
#317=EDGE_CURVE('',#262,#252,#38,.T.);
#318=EDGE_CURVE('',#261,#262,#137,.T.);
#319=EDGE_CURVE('',#263,#262,#39,.T.);
#320=EDGE_CURVE('',#264,#263,#40,.T.);
#321=EDGE_CURVE('',#259,#264,#138,.T.);
#322=EDGE_CURVE('',#265,#264,#41,.T.);
#323=EDGE_CURVE('',#260,#265,#139,.T.);
#324=EDGE_CURVE('',#256,#265,#42,.T.);
#325=EDGE_CURVE('',#266,#266,#244,.T.);
#326=EDGE_CURVE('',#263,#266,#140,.T.);
#327=EDGE_CURVE('',#247,#250,#141,.T.);
#328=EDGE_CURVE('',#267,#268,#142,.T.);
#329=EDGE_CURVE('',#268,#269,#143,.T.);
#330=EDGE_CURVE('',#269,#270,#144,.T.);
#331=EDGE_CURVE('',#270,#267,#145,.T.);
#332=EDGE_CURVE('',#268,#271,#146,.T.);
#333=EDGE_CURVE('',#271,#272,#147,.F.);
#334=EDGE_CURVE('',#272,#273,#148,.F.);
#335=EDGE_CURVE('',#273,#274,#149,.F.);
#336=EDGE_CURVE('',#274,#269,#150,.T.);
#337=EDGE_CURVE('',#267,#275,#151,.T.);
#338=EDGE_CURVE('',#276,#275,#152,.T.);
#339=EDGE_CURVE('',#277,#276,#153,.T.);
#340=EDGE_CURVE('',#278,#277,#154,.T.);
#341=EDGE_CURVE('',#279,#278,#155,.T.);
#342=EDGE_CURVE('',#280,#279,#156,.T.);
#343=EDGE_CURVE('',#280,#281,#157,.T.);
#344=EDGE_CURVE('',#281,#271,#158,.F.);
#345=EDGE_CURVE('',#282,#283,#159,.T.);
#346=EDGE_CURVE('',#283,#278,#160,.T.);
#347=EDGE_CURVE('',#277,#282,#161,.T.);
#348=EDGE_CURVE('',#283,#284,#162,.T.);
#349=EDGE_CURVE('',#284,#285,#163,.F.);
#350=EDGE_CURVE('',#285,#286,#164,.F.);
#351=EDGE_CURVE('',#286,#279,#165,.F.);
#352=EDGE_CURVE('',#287,#281,#166,.F.);
#353=EDGE_CURVE('',#272,#287,#167,.F.);
#354=EDGE_CURVE('',#288,#289,#168,.F.);
#355=EDGE_CURVE('',#288,#274,#169,.T.);
#356=EDGE_CURVE('',#289,#273,#170,.F.);
#357=EDGE_CURVE('',#280,#290,#171,.F.);
#358=EDGE_CURVE('',#290,#291,#172,.F.);
#359=EDGE_CURVE('',#291,#292,#173,.F.);
#360=EDGE_CURVE('',#288,#292,#174,.T.);
#361=EDGE_CURVE('',#289,#287,#175,.F.);
#362=EDGE_CURVE('',#293,#293,#245,.T.);
#363=EDGE_CURVE('',#290,#286,#176,.T.);
#364=EDGE_CURVE('',#285,#291,#177,.F.);
#365=EDGE_CURVE('',#292,#284,#178,.F.);
#366=EDGE_CURVE('',#294,#294,#246,.T.);
#367=EDGE_CURVE('',#294,#293,#179,.T.);
#368=EDGE_CURVE('',#295,#282,#180,.T.);
#369=EDGE_CURVE('',#296,#295,#181,.T.);
#370=EDGE_CURVE('',#270,#296,#182,.T.);
#371=EDGE_CURVE('',#275,#296,#183,.T.);
#372=EDGE_CURVE('',#295,#276,#184,.T.);
#373=ORIENTED_EDGE('',*,*,#297,.F.);
#374=ORIENTED_EDGE('',*,*,#298,.T.);
#375=ORIENTED_EDGE('',*,*,#299,.F.);
#376=ORIENTED_EDGE('',*,*,#298,.F.);
#377=ORIENTED_EDGE('',*,*,#300,.F.);
#378=ORIENTED_EDGE('',*,*,#301,.T.);
#379=ORIENTED_EDGE('',*,*,#302,.F.);
#380=ORIENTED_EDGE('',*,*,#301,.F.);
#381=ORIENTED_EDGE('',*,*,#303,.F.);
#382=ORIENTED_EDGE('',*,*,#304,.F.);
#383=ORIENTED_EDGE('',*,*,#305,.F.);
#384=ORIENTED_EDGE('',*,*,#306,.F.);
#385=ORIENTED_EDGE('',*,*,#305,.T.);
#386=ORIENTED_EDGE('',*,*,#307,.F.);
#387=ORIENTED_EDGE('',*,*,#308,.T.);
#388=ORIENTED_EDGE('',*,*,#309,.F.);
#389=ORIENTED_EDGE('',*,*,#310,.F.);
#390=ORIENTED_EDGE('',*,*,#311,.T.);
#391=ORIENTED_EDGE('',*,*,#312,.T.);
#392=ORIENTED_EDGE('',*,*,#313,.T.);
#393=ORIENTED_EDGE('',*,*,#314,.T.);
#394=ORIENTED_EDGE('',*,*,#307,.T.);
#395=ORIENTED_EDGE('',*,*,#304,.T.);
#396=ORIENTED_EDGE('',*,*,#315,.T.);
#397=ORIENTED_EDGE('',*,*,#316,.T.);
#398=ORIENTED_EDGE('',*,*,#311,.F.);
#399=ORIENTED_EDGE('',*,*,#303,.T.);
#400=ORIENTED_EDGE('',*,*,#317,.F.);
#401=ORIENTED_EDGE('',*,*,#318,.F.);
#402=ORIENTED_EDGE('',*,*,#315,.F.);
#403=ORIENTED_EDGE('',*,*,#318,.T.);
#404=ORIENTED_EDGE('',*,*,#319,.F.);
#405=ORIENTED_EDGE('',*,*,#320,.F.);
#406=ORIENTED_EDGE('',*,*,#321,.F.);
#407=ORIENTED_EDGE('',*,*,#312,.F.);
#408=ORIENTED_EDGE('',*,*,#316,.F.);
#409=ORIENTED_EDGE('',*,*,#321,.T.);
#410=ORIENTED_EDGE('',*,*,#322,.F.);
#411=ORIENTED_EDGE('',*,*,#323,.F.);
#412=ORIENTED_EDGE('',*,*,#313,.F.);
#413=ORIENTED_EDGE('',*,*,#323,.T.);
#414=ORIENTED_EDGE('',*,*,#324,.F.);
#415=ORIENTED_EDGE('',*,*,#308,.F.);
#416=ORIENTED_EDGE('',*,*,#314,.F.);
#417=ORIENTED_EDGE('',*,*,#325,.F.);
#418=ORIENTED_EDGE('',*,*,#300,.T.);
#419=ORIENTED_EDGE('',*,*,#306,.T.);
#420=ORIENTED_EDGE('',*,*,#309,.T.);
#421=ORIENTED_EDGE('',*,*,#324,.T.);
#422=ORIENTED_EDGE('',*,*,#322,.T.);
#423=ORIENTED_EDGE('',*,*,#320,.T.);
#424=ORIENTED_EDGE('',*,*,#326,.T.);
#425=ORIENTED_EDGE('',*,*,#325,.T.);
#426=ORIENTED_EDGE('',*,*,#326,.F.);
#427=ORIENTED_EDGE('',*,*,#319,.T.);
#428=ORIENTED_EDGE('',*,*,#317,.T.);
#429=ORIENTED_EDGE('',*,*,#310,.T.);
#430=ORIENTED_EDGE('',*,*,#299,.T.);
#431=ORIENTED_EDGE('',*,*,#297,.T.);
#432=ORIENTED_EDGE('',*,*,#327,.T.);
#433=ORIENTED_EDGE('',*,*,#302,.T.);
#434=ORIENTED_EDGE('',*,*,#327,.F.);
#435=ORIENTED_EDGE('',*,*,#328,.T.);
#436=ORIENTED_EDGE('',*,*,#329,.T.);
#437=ORIENTED_EDGE('',*,*,#330,.T.);
#438=ORIENTED_EDGE('',*,*,#331,.T.);
#439=ORIENTED_EDGE('',*,*,#329,.F.);
#440=ORIENTED_EDGE('',*,*,#332,.T.);
#441=ORIENTED_EDGE('',*,*,#333,.T.);
#442=ORIENTED_EDGE('',*,*,#334,.T.);
#443=ORIENTED_EDGE('',*,*,#335,.T.);
#444=ORIENTED_EDGE('',*,*,#336,.T.);
#445=ORIENTED_EDGE('',*,*,#328,.F.);
#446=ORIENTED_EDGE('',*,*,#337,.T.);
#447=ORIENTED_EDGE('',*,*,#338,.F.);
#448=ORIENTED_EDGE('',*,*,#339,.F.);
#449=ORIENTED_EDGE('',*,*,#340,.F.);
#450=ORIENTED_EDGE('',*,*,#341,.F.);
#451=ORIENTED_EDGE('',*,*,#342,.F.);
#452=ORIENTED_EDGE('',*,*,#343,.T.);
#453=ORIENTED_EDGE('',*,*,#344,.T.);
#454=ORIENTED_EDGE('',*,*,#332,.F.);
#455=ORIENTED_EDGE('',*,*,#345,.T.);
#456=ORIENTED_EDGE('',*,*,#346,.T.);
#457=ORIENTED_EDGE('',*,*,#340,.T.);
#458=ORIENTED_EDGE('',*,*,#347,.T.);
#459=ORIENTED_EDGE('',*,*,#346,.F.);
#460=ORIENTED_EDGE('',*,*,#348,.T.);
#461=ORIENTED_EDGE('',*,*,#349,.T.);
#462=ORIENTED_EDGE('',*,*,#350,.T.);
#463=ORIENTED_EDGE('',*,*,#351,.T.);
#464=ORIENTED_EDGE('',*,*,#341,.T.);
#465=ORIENTED_EDGE('',*,*,#352,.F.);
#466=ORIENTED_EDGE('',*,*,#353,.F.);
#467=ORIENTED_EDGE('',*,*,#333,.F.);
#468=ORIENTED_EDGE('',*,*,#344,.F.);
#469=ORIENTED_EDGE('',*,*,#354,.F.);
#470=ORIENTED_EDGE('',*,*,#355,.T.);
#471=ORIENTED_EDGE('',*,*,#335,.F.);
#472=ORIENTED_EDGE('',*,*,#356,.F.);
#473=ORIENTED_EDGE('',*,*,#352,.T.);
#474=ORIENTED_EDGE('',*,*,#343,.F.);
#475=ORIENTED_EDGE('',*,*,#357,.T.);
#476=ORIENTED_EDGE('',*,*,#358,.T.);
#477=ORIENTED_EDGE('',*,*,#359,.T.);
#478=ORIENTED_EDGE('',*,*,#360,.F.);
#479=ORIENTED_EDGE('',*,*,#354,.T.);
#480=ORIENTED_EDGE('',*,*,#361,.T.);
#481=ORIENTED_EDGE('',*,*,#362,.F.);
#482=ORIENTED_EDGE('',*,*,#357,.F.);
#483=ORIENTED_EDGE('',*,*,#342,.T.);
#484=ORIENTED_EDGE('',*,*,#351,.F.);
#485=ORIENTED_EDGE('',*,*,#363,.F.);
#486=ORIENTED_EDGE('',*,*,#359,.F.);
#487=ORIENTED_EDGE('',*,*,#364,.F.);
#488=ORIENTED_EDGE('',*,*,#349,.F.);
#489=ORIENTED_EDGE('',*,*,#365,.F.);
#490=ORIENTED_EDGE('',*,*,#353,.T.);
#491=ORIENTED_EDGE('',*,*,#361,.F.);
#492=ORIENTED_EDGE('',*,*,#356,.T.);
#493=ORIENTED_EDGE('',*,*,#334,.F.);
#494=ORIENTED_EDGE('',*,*,#363,.T.);
#495=ORIENTED_EDGE('',*,*,#350,.F.);
#496=ORIENTED_EDGE('',*,*,#364,.T.);
#497=ORIENTED_EDGE('',*,*,#358,.F.);
#498=ORIENTED_EDGE('',*,*,#366,.F.);
#499=ORIENTED_EDGE('',*,*,#367,.T.);
#500=ORIENTED_EDGE('',*,*,#362,.T.);
#501=ORIENTED_EDGE('',*,*,#367,.F.);
#502=ORIENTED_EDGE('',*,*,#330,.F.);
#503=ORIENTED_EDGE('',*,*,#336,.F.);
#504=ORIENTED_EDGE('',*,*,#355,.F.);
#505=ORIENTED_EDGE('',*,*,#360,.T.);
#506=ORIENTED_EDGE('',*,*,#365,.T.);
#507=ORIENTED_EDGE('',*,*,#348,.F.);
#508=ORIENTED_EDGE('',*,*,#345,.F.);
#509=ORIENTED_EDGE('',*,*,#368,.F.);
#510=ORIENTED_EDGE('',*,*,#369,.F.);
#511=ORIENTED_EDGE('',*,*,#370,.F.);
#512=ORIENTED_EDGE('',*,*,#331,.F.);
#513=ORIENTED_EDGE('',*,*,#370,.T.);
#514=ORIENTED_EDGE('',*,*,#371,.F.);
#515=ORIENTED_EDGE('',*,*,#337,.F.);
#516=ORIENTED_EDGE('',*,*,#347,.F.);
#517=ORIENTED_EDGE('',*,*,#339,.T.);
#518=ORIENTED_EDGE('',*,*,#372,.F.);
#519=ORIENTED_EDGE('',*,*,#368,.T.);
#520=ORIENTED_EDGE('',*,*,#372,.T.);
#521=ORIENTED_EDGE('',*,*,#338,.T.);
#522=ORIENTED_EDGE('',*,*,#371,.T.);
#523=ORIENTED_EDGE('',*,*,#369,.T.);
#524=ORIENTED_EDGE('',*,*,#366,.T.);
#525=CONICAL_SURFACE('',#575,1.15358983848622,0.5235987755983);
#526=CONICAL_SURFACE('',#578,1.15358983848622,0.523598775598301);
#527=CONICAL_SURFACE('',#583,2.935625,1.0471975511966);
#528=CONICAL_SURFACE('',#591,2.935625,1.0471975511966);
#529=ADVANCED_FACE('',(#67),#525,.F.);
#530=ADVANCED_FACE('',(#68),#526,.F.);
#531=ADVANCED_FACE('',(#69),#43,.F.);
#532=ADVANCED_FACE('',(#70),#44,.F.);
#533=ADVANCED_FACE('',(#71),#527,.T.);
#534=ADVANCED_FACE('',(#72),#45,.F.);
#535=ADVANCED_FACE('',(#73),#46,.F.);
#536=ADVANCED_FACE('',(#74),#47,.F.);
#537=ADVANCED_FACE('',(#75),#48,.F.);
#538=ADVANCED_FACE('',(#76,#25),#49,.T.);
#539=ADVANCED_FACE('',(#77),#528,.T.);
#540=ADVANCED_FACE('',(#78,#26),#50,.T.);
#541=ADVANCED_FACE('',(#79),#23,.F.);
#542=ADVANCED_FACE('',(#80),#51,.T.);
#543=ADVANCED_FACE('',(#81),#52,.T.);
#544=ADVANCED_FACE('',(#82),#53,.T.);
#545=ADVANCED_FACE('',(#83),#54,.T.);
#546=ADVANCED_FACE('',(#84),#55,.T.);
#547=ADVANCED_FACE('',(#85),#56,.T.);
#548=ADVANCED_FACE('',(#86),#57,.T.);
#549=ADVANCED_FACE('',(#87,#27),#58,.F.);
#550=ADVANCED_FACE('',(#88),#59,.T.);
#551=ADVANCED_FACE('',(#89),#60,.T.);
#552=ADVANCED_FACE('',(#90),#61,.T.);
#553=ADVANCED_FACE('',(#91),#62,.T.);
#554=ADVANCED_FACE('',(#92),#24,.F.);
#555=ADVANCED_FACE('',(#93),#63,.T.);
#556=ADVANCED_FACE('',(#94),#64,.T.);
#557=ADVANCED_FACE('',(#95),#65,.T.);
#558=ADVANCED_FACE('',(#96,#28),#66,.T.);
#559=CLOSED_SHELL('',(#529,#530,#531,#532,#533,#534,#535,#536,#537,#538,
#539,#540,#541));
#560=CLOSED_SHELL('',(#542,#543,#544,#545,#546,#547,#548,#549,#550,#551,
#552,#553,#554,#555,#556,#557,#558));
#561=DERIVED_UNIT_ELEMENT(#563,1.);
#562=DERIVED_UNIT_ELEMENT(#944,-3.);
#563=(
MASS_UNIT()
NAMED_UNIT(*)
SI_UNIT(.KILO.,.GRAM.)
);
#564=DERIVED_UNIT((#561,#562));
#565=MEASURE_REPRESENTATION_ITEM('density measure',
POSITIVE_RATIO_MEASURE(8030.),#564);
#566=PROPERTY_DEFINITION_REPRESENTATION(#571,#568);
#567=PROPERTY_DEFINITION_REPRESENTATION(#572,#569);
#568=REPRESENTATION('material name',(#570),#941);
#569=REPRESENTATION('density',(#565),#941);
#570=DESCRIPTIVE_REPRESENTATION_ITEM('Stahl 6, Einfach',
'Stahl 6, Einfach');
#571=PROPERTY_DEFINITION('material property','material name',#956);
#572=PROPERTY_DEFINITION('material property','density of part',#956);
#573=AXIS2_PLACEMENT_3D('',#750,#614,#615);
#574=AXIS2_PLACEMENT_3D('',#751,#616,#617);
#575=AXIS2_PLACEMENT_3D('',#752,#618,#619);
#576=AXIS2_PLACEMENT_3D('',#754,#620,#621);
#577=AXIS2_PLACEMENT_3D('',#757,#623,#624);
#578=AXIS2_PLACEMENT_3D('',#758,#625,#626);
#579=AXIS2_PLACEMENT_3D('',#760,#627,#628);
#580=AXIS2_PLACEMENT_3D('',#763,#630,#631);
#581=AXIS2_PLACEMENT_3D('',#764,#632,#633);
#582=AXIS2_PLACEMENT_3D('',#777,#636,#637);
#583=AXIS2_PLACEMENT_3D('',#787,#639,#640);
#584=AXIS2_PLACEMENT_3D('',#789,#641,#642);
#585=AXIS2_PLACEMENT_3D('',#810,#644,#645);
#586=AXIS2_PLACEMENT_3D('',#816,#647,#648);
#587=AXIS2_PLACEMENT_3D('',#826,#650,#651);
#588=AXIS2_PLACEMENT_3D('',#832,#653,#654);
#589=AXIS2_PLACEMENT_3D('',#836,#655,#656);
#590=AXIS2_PLACEMENT_3D('',#838,#657,#658);
#591=AXIS2_PLACEMENT_3D('',#839,#659,#660);
#592=AXIS2_PLACEMENT_3D('',#841,#662,#663);
#593=AXIS2_PLACEMENT_3D('',#842,#664,#665);
#594=AXIS2_PLACEMENT_3D('',#844,#667,#668);
#595=AXIS2_PLACEMENT_3D('',#853,#673,#674);
#596=AXIS2_PLACEMENT_3D('',#863,#680,#681);
#597=AXIS2_PLACEMENT_3D('',#879,#690,#691);
#598=AXIS2_PLACEMENT_3D('',#885,#695,#696);
#599=AXIS2_PLACEMENT_3D('',#893,#701,#702);
#600=AXIS2_PLACEMENT_3D('',#897,#705,#706);
#601=AXIS2_PLACEMENT_3D('',#903,#710,#711);
#602=AXIS2_PLACEMENT_3D('',#913,#717,#718);
#603=AXIS2_PLACEMENT_3D('',#914,#719,#720);
#604=AXIS2_PLACEMENT_3D('',#916,#722,#723);
#605=AXIS2_PLACEMENT_3D('',#919,#726,#727);
#606=AXIS2_PLACEMENT_3D('',#920,#728,#729);
#607=AXIS2_PLACEMENT_3D('',#921,#730,#731);
#608=AXIS2_PLACEMENT_3D('',#923,#732,#733);
#609=AXIS2_PLACEMENT_3D('',#925,#735,#736);
#610=AXIS2_PLACEMENT_3D('',#931,#740,#741);
#611=AXIS2_PLACEMENT_3D('',#933,#743,#744);
#612=AXIS2_PLACEMENT_3D('',#935,#746,#747);
#613=AXIS2_PLACEMENT_3D('',#936,#748,#749);
#614=DIRECTION('axis',(0.,0.,1.));
#615=DIRECTION('refdir',(1.,0.,0.));
#616=DIRECTION('axis',(0.,0.,1.));
#617=DIRECTION('refdir',(1.,0.,0.));
#618=DIRECTION('center_axis',(0.,0.,-1.));
#619=DIRECTION('ref_axis',(-1.,0.,0.));
#620=DIRECTION('center_axis',(0.,0.,-1.));
#621=DIRECTION('ref_axis',(-1.,0.,0.));
#622=DIRECTION('',(0.500000000000001,-6.12323399573678E-17,-0.866025403784438));
#623=DIRECTION('center_axis',(0.,0.,1.));
#624=DIRECTION('ref_axis',(-1.,0.,0.));
#625=DIRECTION('center_axis',(0.,0.,1.));
#626=DIRECTION('ref_axis',(-1.,0.,0.));
#627=DIRECTION('center_axis',(0.,0.,-1.));
#628=DIRECTION('ref_axis',(-1.,0.,0.));
#629=DIRECTION('',(-0.500000000000002,6.12323399573679E-17,-0.866025403784437));
#630=DIRECTION('center_axis',(0.,0.,1.));
#631=DIRECTION('ref_axis',(-1.,0.,0.));
#632=DIRECTION('center_axis',(0.499999999999998,-0.86602540378444,0.));
#633=DIRECTION('ref_axis',(-0.86602540378444,-0.499999999999998,0.));
#634=DIRECTION('',(0.,0.,1.));
#635=DIRECTION('',(0.,0.,-1.));
#636=DIRECTION('center_axis',(1.,-1.39706960877889E-15,0.));
#637=DIRECTION('ref_axis',(-1.39706960877889E-15,-1.,0.));
#638=DIRECTION('',(0.,0.,1.));
#639=DIRECTION('center_axis',(0.,0.,1.));
#640=DIRECTION('ref_axis',(-1.,0.,0.));
#641=DIRECTION('center_axis',(0.,0.,-1.));
#642=DIRECTION('ref_axis',(1.,0.,0.));
#643=DIRECTION('',(0.866025403784438,-1.06057523872491E-16,0.5));
#644=DIRECTION('center_axis',(-0.500000000000002,-0.866025403784438,0.));
#645=DIRECTION('ref_axis',(-0.866025403784438,0.500000000000002,0.));
#646=DIRECTION('',(0.,0.,1.));
#647=DIRECTION('center_axis',(-1.,1.51953428869362E-15,0.));
#648=DIRECTION('ref_axis',(1.51953428869362E-15,1.,0.));
#649=DIRECTION('',(0.,0.,1.));
#650=DIRECTION('center_axis',(-0.499999999999999,0.866025403784439,0.));
#651=DIRECTION('ref_axis',(0.866025403784439,0.499999999999999,0.));
#652=DIRECTION('',(0.,0.,1.));
#653=DIRECTION('center_axis',(0.500000000000001,0.866025403784438,0.));
#654=DIRECTION('ref_axis',(0.866025403784438,-0.500000000000001,0.));
#655=DIRECTION('center_axis',(0.,0.,1.));
#656=DIRECTION('ref_axis',(1.,0.,0.));
#657=DIRECTION('center_axis',(0.,0.,-1.));
#658=DIRECTION('ref_axis',(1.,0.,0.));
#659=DIRECTION('center_axis',(0.,0.,-1.));
#660=DIRECTION('ref_axis',(-1.,0.,0.));
#661=DIRECTION('',(-0.866025403784438,1.06057523872491E-16,0.500000000000001));
#662=DIRECTION('center_axis',(0.,0.,-1.));
#663=DIRECTION('ref_axis',(-1.,0.,0.));
#664=DIRECTION('center_axis',(0.,0.,-1.));
#665=DIRECTION('ref_axis',(-1.,0.,0.));
#666=DIRECTION('',(0.,0.,1.));
#667=DIRECTION('center_axis',(-0.707106781186548,-2.72367624753289E-33,
-0.707106781186548));
#668=DIRECTION('ref_axis',(-0.707106781186548,0.,0.707106781186548));
#669=DIRECTION('',(0.707106781186548,0.,-0.707106781186548));
#670=DIRECTION('',(3.85185988877447E-33,-1.,0.));
#671=DIRECTION('',(-0.707106781186548,0.,0.707106781186548));
#672=DIRECTION('',(-3.85185988877447E-33,1.,0.));
#673=DIRECTION('center_axis',(0.,0.,-1.));
#674=DIRECTION('ref_axis',(-1.,0.,0.));
#675=DIRECTION('',(1.,0.,0.));
#676=DIRECTION('',(0.86602540378444,0.499999999999998,0.));
#677=DIRECTION('',(0.,1.,0.));
#678=DIRECTION('',(-0.866025403784438,0.500000000000001,0.));
#679=DIRECTION('',(-1.,0.,0.));
#680=DIRECTION('center_axis',(0.,1.,0.));
#681=DIRECTION('ref_axis',(-1.,0.,0.));
#682=DIRECTION('',(0.,0.,1.));
#683=DIRECTION('',(-1.,0.,0.));
#684=DIRECTION('',(0.,0.,1.));
#685=DIRECTION('',(0.707106781186547,0.,0.707106781186548));
#686=DIRECTION('',(1.,0.,0.));
#687=DIRECTION('',(0.,0.,-1.));
#688=DIRECTION('',(-1.,0.,0.));
#689=DIRECTION('',(0.,0.,1.));
#690=DIRECTION('center_axis',(0.707106781186548,0.,-0.707106781186547));
#691=DIRECTION('ref_axis',(-0.707106781186547,0.,-0.707106781186548));
#692=DIRECTION('',(-0.707106781186547,0.,-0.707106781186548));
#693=DIRECTION('',(0.,1.,0.));
#694=DIRECTION('',(0.,-1.,0.));
#695=DIRECTION('center_axis',(0.,0.,-1.));
#696=DIRECTION('ref_axis',(-1.,0.,0.));
#697=DIRECTION('',(-1.,0.,0.));
#698=DIRECTION('',(-0.866025403784439,-0.499999999999999,0.));
#699=DIRECTION('',(0.,-1.,0.));
#700=DIRECTION('',(0.866025403784438,-0.500000000000002,0.));
#701=DIRECTION('center_axis',(0.499999999999998,-0.86602540378444,0.));
#702=DIRECTION('ref_axis',(-0.86602540378444,-0.499999999999998,0.));
#703=DIRECTION('',(-0.86602540378444,-0.499999999999998,0.));
#704=DIRECTION('',(0.,0.,-1.));
#705=DIRECTION('center_axis',(0.500000000000001,0.866025403784438,0.));
#706=DIRECTION('ref_axis',(0.866025403784438,-0.500000000000001,0.));
#707=DIRECTION('',(0.866025403784438,-0.500000000000001,0.));
#708=DIRECTION('',(0.,0.,-1.));
#709=DIRECTION('',(0.,0.,1.));
#710=DIRECTION('center_axis',(0.,0.,1.));
#711=DIRECTION('ref_axis',(1.,0.,0.));
#712=DIRECTION('',(-0.866025403784438,0.500000000000002,0.));
#713=DIRECTION('',(0.,1.,0.));
#714=DIRECTION('',(0.866025403784439,0.499999999999999,0.));
#715=DIRECTION('',(1.,0.,0.));
#716=DIRECTION('',(0.,-1.,0.));
#717=DIRECTION('center_axis',(0.,0.,-1.));
#718=DIRECTION('ref_axis',(1.,0.,0.));
#719=DIRECTION('center_axis',(-0.500000000000002,-0.866025403784438,0.));
#720=DIRECTION('ref_axis',(-0.866025403784438,0.500000000000002,0.));
#721=DIRECTION('',(0.,0.,-1.));
#722=DIRECTION('center_axis',(-0.499999999999999,0.866025403784439,0.));
#723=DIRECTION('ref_axis',(0.866025403784439,0.499999999999999,0.));
#724=DIRECTION('',(0.,0.,-1.));
#725=DIRECTION('',(0.,0.,1.));
#726=DIRECTION('center_axis',(1.,0.,0.));
#727=DIRECTION('ref_axis',(0.,-1.,0.));
#728=DIRECTION('center_axis',(-1.,0.,0.));
#729=DIRECTION('ref_axis',(0.,1.,0.));
#730=DIRECTION('center_axis',(0.,0.,1.));
#731=DIRECTION('ref_axis',(1.,0.,0.));
#732=DIRECTION('center_axis',(0.,0.,-1.));
#733=DIRECTION('ref_axis',(1.,0.,0.));
#734=DIRECTION('',(0.,0.,-1.));
#735=DIRECTION('center_axis',(0.,-1.,0.));
#736=DIRECTION('ref_axis',(1.,0.,0.));
#737=DIRECTION('',(0.,0.,-1.));
#738=DIRECTION('',(1.,0.,0.));
#739=DIRECTION('',(0.,0.,1.));
#740=DIRECTION('center_axis',(-1.,-3.85185988877447E-33,0.));
#741=DIRECTION('ref_axis',(3.85185988877447E-33,-1.,0.));
#742=DIRECTION('',(3.85185988877447E-33,-1.,0.));
#743=DIRECTION('center_axis',(1.,0.,0.));
#744=DIRECTION('ref_axis',(0.,1.,0.));
#745=DIRECTION('',(0.,1.,0.));
#746=DIRECTION('center_axis',(0.,0.,1.));
#747=DIRECTION('ref_axis',(1.,0.,0.));
#748=DIRECTION('',(0.,0.,1.));
#749=DIRECTION('',(1.,0.,0.));
#750=CARTESIAN_POINT('',(0.,0.,0.));
#751=CARTESIAN_POINT('',(0.,0.,0.));
#752=CARTESIAN_POINT('Origin',(0.,0.,0.599999999999999));
#753=CARTESIAN_POINT('',(1.2645,-1.54856587752183E-16,0.407897965182469));
#754=CARTESIAN_POINT('Origin',(0.,0.,0.407897965182469));
#755=CARTESIAN_POINT('',(1.5,-1.83697019872103E-16,-1.38777878078145E-16));
#756=CARTESIAN_POINT('',(1.15358983848622,-1.41274010323107E-16,0.599999999999999));
#757=CARTESIAN_POINT('Origin',(0.,0.,0.));
#758=CARTESIAN_POINT('Origin',(0.,0.,1.8));
#759=CARTESIAN_POINT('',(1.5,-1.83697019872103E-16,2.4));
#760=CARTESIAN_POINT('Origin',(0.,0.,2.4));
#761=CARTESIAN_POINT('',(1.2645,1.54856587752183E-16,1.99210203481753));
#762=CARTESIAN_POINT('',(1.15358983848622,-1.41274010323107E-16,1.8));
#763=CARTESIAN_POINT('Origin',(0.,0.,1.99210203481753));
#764=CARTESIAN_POINT('Origin',(0.00142582323749751,3.17624967997292,2.4));
#765=CARTESIAN_POINT('',(7.03465354042259E-15,3.17542648054294,0.277374357867291));
#766=CARTESIAN_POINT('',(6.57827691313457E-15,3.17542648054294,2.12262564213271));
#767=CARTESIAN_POINT('',(6.80011602582908E-15,3.17542648054294,2.4));
#768=CARTESIAN_POINT('',(-2.75,1.58771324027148,0.277374357867292));
#769=CARTESIAN_POINT('Ctrl Pts',(-2.75,1.58771324027148,0.277374357867292));
#770=CARTESIAN_POINT('Ctrl Pts',(-1.375,2.38156986040721,-0.180958975466044));
#771=CARTESIAN_POINT('Ctrl Pts',(7.03465354042259E-15,3.17542648054294,
0.277374357867291));
#772=CARTESIAN_POINT('',(-2.75,1.58771324027148,2.12262564213271));
#773=CARTESIAN_POINT('',(-2.75,1.58771324027148,2.4));
#774=CARTESIAN_POINT('Ctrl Pts',(6.57827691313457E-15,3.17542648054294,
2.12262564213271));
#775=CARTESIAN_POINT('Ctrl Pts',(-1.37499999999999,2.38156986040721,2.58095897546604));
#776=CARTESIAN_POINT('Ctrl Pts',(-2.75,1.58771324027148,2.12262564213271));
#777=CARTESIAN_POINT('Origin',(-2.75,1.58935963913144,2.4));
#778=CARTESIAN_POINT('',(-2.75,-1.58771324027147,0.277374357867291));
#779=CARTESIAN_POINT('Ctrl Pts',(-2.75,-1.58771324027147,0.277374357867291));
#780=CARTESIAN_POINT('Ctrl Pts',(-2.75,4.44089209850063E-15,-0.180958975466042));
#781=CARTESIAN_POINT('Ctrl Pts',(-2.75,1.58771324027148,0.277374357867292));
#782=CARTESIAN_POINT('',(-2.75,-1.58771324027147,2.12262564213271));
#783=CARTESIAN_POINT('',(-2.75,-1.58771324027147,2.4));
#784=CARTESIAN_POINT('Ctrl Pts',(-2.75,1.58771324027148,2.12262564213271));
#785=CARTESIAN_POINT('Ctrl Pts',(-2.75,3.33066907387547E-15,2.58095897546604));
#786=CARTESIAN_POINT('Ctrl Pts',(-2.75,-1.58771324027147,2.12262564213271));
#787=CARTESIAN_POINT('Origin',(0.,0.,0.138924908523754));
#788=CARTESIAN_POINT('',(2.695,-3.30042312370212E-16,0.));
#789=CARTESIAN_POINT('Origin',(0.,0.,0.));
#790=CARTESIAN_POINT('',(2.75,-2.00587978520381E-16,0.0317542648054281));
#791=CARTESIAN_POINT('',(2.935625,-3.59510375974695E-16,0.138924908523754));
#792=CARTESIAN_POINT('',(2.75,-1.58771324027148,0.277374357867291));
#793=CARTESIAN_POINT('Ctrl Pts',(2.75,-6.4398087275241E-17,0.0317542648054281));
#794=CARTESIAN_POINT('Ctrl Pts',(2.75,-0.736860279185588,0.0317542648054275));
#795=CARTESIAN_POINT('Ctrl Pts',(2.75,-1.58771324027148,0.277374357867291));
#796=CARTESIAN_POINT('',(-4.74614085467334E-15,-3.17542648054294,0.277374357867291));
#797=CARTESIAN_POINT('Ctrl Pts',(2.75,-1.58771324027148,0.277374357867291));
#798=CARTESIAN_POINT('Ctrl Pts',(1.375,-2.38156986040721,-0.180958975466043));
#799=CARTESIAN_POINT('Ctrl Pts',(-4.74614085467334E-15,-3.17542648054294,
0.277374357867291));
#800=CARTESIAN_POINT('Ctrl Pts',(-4.78961058552643E-15,-3.17542648054294,
0.277374357867291));
#801=CARTESIAN_POINT('Ctrl Pts',(-1.375,-2.3815698604072,-0.180958975466043));
#802=CARTESIAN_POINT('Ctrl Pts',(-2.75,-1.58771324027147,0.277374357867291));
#803=CARTESIAN_POINT('',(2.75,1.58771324027147,0.277374357867291));
#804=CARTESIAN_POINT('Ctrl Pts',(6.99037065794013E-15,3.17542648054294,
0.277374357867291));
#805=CARTESIAN_POINT('Ctrl Pts',(1.375,2.3815698604072,-0.180958975466043));
#806=CARTESIAN_POINT('Ctrl Pts',(2.75,1.58771324027147,0.277374357867291));
#807=CARTESIAN_POINT('Ctrl Pts',(2.75,1.58771324027147,0.277374357867291));
#808=CARTESIAN_POINT('Ctrl Pts',(2.75,0.736860279185584,0.0317542648054287));
#809=CARTESIAN_POINT('Ctrl Pts',(2.75,-6.4398087275241E-17,0.0317542648054281));
#810=CARTESIAN_POINT('Origin',(2.75142582323749,1.58689004084148,2.4));
#811=CARTESIAN_POINT('',(2.75,1.58771324027146,2.12262564213271));
#812=CARTESIAN_POINT('Ctrl Pts',(2.75,1.58771324027146,2.12262564213271));
#813=CARTESIAN_POINT('Ctrl Pts',(1.375,2.3815698604072,2.58095897546604));
#814=CARTESIAN_POINT('Ctrl Pts',(6.46880637503142E-15,3.17542648054294,
2.12262564213271));
#815=CARTESIAN_POINT('',(2.75,1.58771324027147,2.4));
#816=CARTESIAN_POINT('Origin',(2.75,-1.58935963913144,2.4));
#817=CARTESIAN_POINT('',(2.75,-2.32787022158002E-16,2.36824573519457));
#818=CARTESIAN_POINT('Ctrl Pts',(2.75,-1.28796174550482E-16,2.36824573519457));
#819=CARTESIAN_POINT('Ctrl Pts',(2.75,0.736860279185584,2.36824573519457));
#820=CARTESIAN_POINT('Ctrl Pts',(2.75,1.58771324027146,2.12262564213271));
#821=CARTESIAN_POINT('',(2.75,-1.58771324027147,2.12262564213271));
#822=CARTESIAN_POINT('Ctrl Pts',(2.75,-1.58771324027147,2.12262564213271));
#823=CARTESIAN_POINT('Ctrl Pts',(2.75,-0.736860279185589,2.36824573519457));
#824=CARTESIAN_POINT('Ctrl Pts',(2.75,-1.28796174550482E-16,2.36824573519457));
#825=CARTESIAN_POINT('',(2.75,-1.58771324027148,2.4));
#826=CARTESIAN_POINT('Origin',(-0.00142582323749557,-3.17624967997292,2.4));
#827=CARTESIAN_POINT('',(-4.75273187213686E-15,-3.17542648054294,2.12262564213271));
#828=CARTESIAN_POINT('Ctrl Pts',(-4.75273187213686E-15,-3.17542648054294,
2.12262564213271));
#829=CARTESIAN_POINT('Ctrl Pts',(1.375,-2.38156986040721,2.58095897546605));
#830=CARTESIAN_POINT('Ctrl Pts',(2.75,-1.58771324027147,2.12262564213271));
#831=CARTESIAN_POINT('',(-4.57966997657877E-15,-3.17542648054294,2.4));
#832=CARTESIAN_POINT('Origin',(-2.75142582323749,-1.58689004084148,2.4));
#833=CARTESIAN_POINT('Ctrl Pts',(-2.75,-1.58771324027147,2.12262564213271));
#834=CARTESIAN_POINT('Ctrl Pts',(-1.375,-2.3815698604072,2.58095897546604));
#835=CARTESIAN_POINT('Ctrl Pts',(-4.65979541716412E-15,-3.17542648054294,
2.12262564213271));
#836=CARTESIAN_POINT('Origin',(-2.695,0.,2.4));
#837=CARTESIAN_POINT('',(2.695,-3.30042312370212E-16,2.4));
#838=CARTESIAN_POINT('Origin',(0.,0.,2.4));
#839=CARTESIAN_POINT('Origin',(0.,0.,2.26107509147625));
#840=CARTESIAN_POINT('',(2.935625,-3.59510375974695E-16,2.26107509147625));
#841=CARTESIAN_POINT('Origin',(-1.5,0.,0.));
#842=CARTESIAN_POINT('Origin',(0.,0.,1.2));
#843=CARTESIAN_POINT('',(1.2645,-1.54856587752183E-16,1.2));
#844=CARTESIAN_POINT('Origin',(0.5,4.5,-1.5));
#845=CARTESIAN_POINT('',(-2.31111593326468E-32,6.,-1.));
#846=CARTESIAN_POINT('',(1.,6.,-2.));
#847=CARTESIAN_POINT('',(2.25000003352761,6.,-3.25000003352761));
#848=CARTESIAN_POINT('',(1.,0.,-2.));
#849=CARTESIAN_POINT('',(1.,4.5,-2.));
#850=CARTESIAN_POINT('',(0.,0.,-1.));
#851=CARTESIAN_POINT('',(4.33334237487128E-33,-2.77555756156289E-16,-1.));
#852=CARTESIAN_POINT('',(0.,4.5,-1.));
#853=CARTESIAN_POINT('Origin',(0.875,3.,-2.));
#854=CARTESIAN_POINT('',(3.99615242270664,6.,-2.));
#855=CARTESIAN_POINT('',(9.00000013411045,6.,-2.));
#856=CARTESIAN_POINT('',(1.65,4.64544826719044,-2.));
#857=CARTESIAN_POINT('',(2.25120121135332,4.9925519484024,-2.));
#858=CARTESIAN_POINT('',(1.65,1.35455173280957,-2.));
#859=CARTESIAN_POINT('',(1.65,4.5,-2.));
#860=CARTESIAN_POINT('',(3.99615242270663,-1.38777878078145E-16,-2.));
#861=CARTESIAN_POINT('',(1.028125,1.71359143146187,-2.));
#862=CARTESIAN_POINT('',(7.25,0.,-2.));
#863=CARTESIAN_POINT('Origin',(9.00000013411045,6.,0.));
#864=CARTESIAN_POINT('',(0.,6.,1.));
#865=CARTESIAN_POINT('',(-2.31111593326468E-32,6.,0.));
#866=CARTESIAN_POINT('',(9.00000013411045,6.,1.));
#867=CARTESIAN_POINT('',(9.00000013411045,6.,1.));
#868=CARTESIAN_POINT('',(9.00000013411045,6.,-1.));
#869=CARTESIAN_POINT('',(9.00000013411045,6.,0.));
#870=CARTESIAN_POINT('',(8.00000013411045,6.,-2.));
#871=CARTESIAN_POINT('',(9.00000013411045,6.,-1.));
#872=CARTESIAN_POINT('',(5.00384757729337,6.,-2.));
#873=CARTESIAN_POINT('',(1.75,6.,-2.));
#874=CARTESIAN_POINT('',(5.00384757729337,6.,0.));
#875=CARTESIAN_POINT('',(5.00384757729337,6.,0.));
#876=CARTESIAN_POINT('',(3.99615242270664,6.,0.));
#877=CARTESIAN_POINT('',(9.00000013411045,6.,0.));
#878=CARTESIAN_POINT('',(3.99615242270664,6.,0.));
#879=CARTESIAN_POINT('Origin',(8.50000013411045,1.5,-1.5));
#880=CARTESIAN_POINT('',(9.00000013411045,0.,-1.));
#881=CARTESIAN_POINT('',(8.00000013411045,0.,-2.));
#882=CARTESIAN_POINT('',(6.75000010058284,0.,-3.25000003352761));
#883=CARTESIAN_POINT('',(8.00000013411045,1.5,-2.));
#884=CARTESIAN_POINT('',(9.00000013411045,1.5,-1.));
#885=CARTESIAN_POINT('Origin',(8.12500006705523,3.,-2.));
#886=CARTESIAN_POINT('',(5.00384757729336,0.,-2.));
#887=CARTESIAN_POINT('',(0.,0.,-2.));
#888=CARTESIAN_POINT('',(7.35,1.35455173280957,-2.));
#889=CARTESIAN_POINT('',(6.74879881379239,1.00744806611548,-2.));
#890=CARTESIAN_POINT('',(7.35,4.64544826719043,-2.));
#891=CARTESIAN_POINT('',(7.35,1.5,-2.));
#892=CARTESIAN_POINT('',(7.97187502514571,4.28640855402025,-2.));
#893=CARTESIAN_POINT('Origin',(4.14615242270664,6.08660254037845,0.));
#894=CARTESIAN_POINT('',(1.65,4.64544826719044,0.));
#895=CARTESIAN_POINT('',(3.61057623649903,5.77738748509993,0.));
#896=CARTESIAN_POINT('',(1.65,4.64544826719044,0.));
#897=CARTESIAN_POINT('Origin',(1.7,1.32568421935009,0.));
#898=CARTESIAN_POINT('',(3.99615242270663,-1.38777878078145E-16,0.));
#899=CARTESIAN_POINT('',(1.65,1.35455173280957,0.));
#900=CARTESIAN_POINT('',(2.38750002514571,0.92875589476434,0.));
#901=CARTESIAN_POINT('',(3.99615242270663,0.,0.));
#902=CARTESIAN_POINT('',(1.65,1.35455173280957,0.));
#903=CARTESIAN_POINT('Origin',(4.50000006705523,3.,0.));
#904=CARTESIAN_POINT('',(7.35,4.64544826719043,0.));
#905=CARTESIAN_POINT('',(6.61250002514571,5.0712440761999,0.));
#906=CARTESIAN_POINT('',(7.35,1.35455173280957,0.));
#907=CARTESIAN_POINT('',(7.35,1.5,0.));
#908=CARTESIAN_POINT('',(5.00384757729336,0.,0.));
#909=CARTESIAN_POINT('',(5.38942381379239,0.222612543935834,0.));
#910=CARTESIAN_POINT('',(0.,0.,0.));
#911=CARTESIAN_POINT('',(1.65,4.5,0.));
#912=CARTESIAN_POINT('',(3.,3.,0.));
#913=CARTESIAN_POINT('Origin',(4.5,3.,0.));
#914=CARTESIAN_POINT('Origin',(7.3,4.67431578064991,0.));
#915=CARTESIAN_POINT('',(7.35,4.64544826719043,0.));
#916=CARTESIAN_POINT('Origin',(4.85384757729336,-0.0866025403784443,0.));
#917=CARTESIAN_POINT('',(7.35,1.35455173280957,0.));
#918=CARTESIAN_POINT('',(5.00384757729336,-1.38777878078145E-16,0.));
#919=CARTESIAN_POINT('Origin',(1.65,6.,0.));
#920=CARTESIAN_POINT('Origin',(7.35,0.,0.));
#921=CARTESIAN_POINT('Origin',(4.5,3.,0.));
#922=CARTESIAN_POINT('',(3.,3.,1.));
#923=CARTESIAN_POINT('Origin',(4.5,3.,1.));
#924=CARTESIAN_POINT('',(3.,3.,0.));
#925=CARTESIAN_POINT('Origin',(0.,0.,0.));
#926=CARTESIAN_POINT('',(9.00000013411045,0.,1.));
#927=CARTESIAN_POINT('',(9.00000013411045,0.,0.));
#928=CARTESIAN_POINT('',(0.,0.,1.));
#929=CARTESIAN_POINT('',(0.,0.,1.));
#930=CARTESIAN_POINT('',(0.,0.,0.));
#931=CARTESIAN_POINT('Origin',(-2.31111593326468E-32,6.,0.));
#932=CARTESIAN_POINT('',(-2.31111593326468E-32,6.,1.));
#933=CARTESIAN_POINT('Origin',(9.00000013411045,0.,0.));
#934=CARTESIAN_POINT('',(9.00000013411045,0.,1.));
#935=CARTESIAN_POINT('Origin',(4.50000006705523,3.,1.));
#936=CARTESIAN_POINT('',(4.5,3.,-2.4));
#937=UNCERTAINTY_MEASURE_WITH_UNIT(LENGTH_MEASURE(0.01),#943,
'DISTANCE_ACCURACY_VALUE',
'Maximum model space distance between geometric entities at asserted c
onnectivities');
#938=UNCERTAINTY_MEASURE_WITH_UNIT(LENGTH_MEASURE(0.01),#943,
'DISTANCE_ACCURACY_VALUE',
'Maximum model space distance between geometric entities at asserted c
onnectivities');
#939=UNCERTAINTY_MEASURE_WITH_UNIT(LENGTH_MEASURE(0.01),#943,
'DISTANCE_ACCURACY_VALUE',
'Maximum model space distance between geometric entities at asserted c
onnectivities');
#940=(
GEOMETRIC_REPRESENTATION_CONTEXT(3)
GLOBAL_UNCERTAINTY_ASSIGNED_CONTEXT((#937))
GLOBAL_UNIT_ASSIGNED_CONTEXT((#943,#945,#946))
REPRESENTATION_CONTEXT('','3D')
);
#941=(
GEOMETRIC_REPRESENTATION_CONTEXT(3)
GLOBAL_UNCERTAINTY_ASSIGNED_CONTEXT((#938))
GLOBAL_UNIT_ASSIGNED_CONTEXT((#943,#945,#946))
REPRESENTATION_CONTEXT('','3D')
);
#942=(
GEOMETRIC_REPRESENTATION_CONTEXT(3)
GLOBAL_UNCERTAINTY_ASSIGNED_CONTEXT((#939))
GLOBAL_UNIT_ASSIGNED_CONTEXT((#943,#945,#946))
REPRESENTATION_CONTEXT('','3D')
);
#943=(
LENGTH_UNIT()
NAMED_UNIT(*)
SI_UNIT(.MILLI.,.METRE.)
);
#944=(
LENGTH_UNIT()
NAMED_UNIT(*)
SI_UNIT($,.METRE.)
);
#945=(
NAMED_UNIT(*)
PLANE_ANGLE_UNIT()
SI_UNIT($,.RADIAN.)
);
#946=(
NAMED_UNIT(*)
SI_UNIT($,.STERADIAN.)
SOLID_ANGLE_UNIT()
);
#947=SHAPE_DEFINITION_REPRESENTATION(#949,#952);
#948=SHAPE_DEFINITION_REPRESENTATION(#950,#953);
#949=PRODUCT_DEFINITION_SHAPE('',$,#955);
#950=PRODUCT_DEFINITION_SHAPE('',$,#956);
#951=PRODUCT_DEFINITION_SHAPE($,$,#14);
#952=SHAPE_REPRESENTATION('',(#573,#613),#940);
#953=SHAPE_REPRESENTATION('',(#574),#941);
#954=PRODUCT_DEFINITION_CONTEXT('part definition',#962,'design');
#955=PRODUCT_DEFINITION('M3 nut adapter','M3 nut adapter v1',#957,#954);
#956=PRODUCT_DEFINITION(
'Sechskantmutter, normale Form UNI EN 24032 - M3 Stahl 6 Einfach v1',
'Sechskantmutter, normale Form UNI EN 24032 - M3 Stahl 6 Einfach v1',#958,
#954);
#957=PRODUCT_DEFINITION_FORMATION('',$,#964);
#958=PRODUCT_DEFINITION_FORMATION('',$,#965);
#959=PRODUCT_RELATED_PRODUCT_CATEGORY('M3 nut adapter v1',
'M3 nut adapter v1',(#964));
#960=PRODUCT_RELATED_PRODUCT_CATEGORY(
'Sechskantmutter, normale Form UNI EN 24032 - M3 Stahl 6 Einfach v1',
'Sechskantmutter, normale Form UNI EN 24032 - M3 Stahl 6 Einfach v1',(#965));
#961=APPLICATION_PROTOCOL_DEFINITION('international standard',
'automotive_design',2009,#962);
#962=APPLICATION_CONTEXT(
'Core Data for Automotive Mechanical Design Process');
#963=PRODUCT_CONTEXT('part definition',#962,'mechanical');
#964=PRODUCT('M3 nut adapter','M3 nut adapter v1',$,(#963));
#965=PRODUCT(
'Sechskantmutter, normale Form UNI EN 24032 - M3 Stahl 6 Einfach v1',
'Sechskantmutter, normale Form UNI EN 24032 - M3 Stahl 6 Einfach v1',
'Sechskantmutter, normale Form UNI EN 24032 - M3',(#963));
#966=PRESENTATION_STYLE_ASSIGNMENT((#968));
#967=PRESENTATION_STYLE_ASSIGNMENT((#969));
#968=SURFACE_STYLE_USAGE(.BOTH.,#970);
#969=SURFACE_STYLE_USAGE(.BOTH.,#971);
#970=SURFACE_SIDE_STYLE('',(#972));
#971=SURFACE_SIDE_STYLE('',(#973));
#972=SURFACE_STYLE_FILL_AREA(#974);
#973=SURFACE_STYLE_FILL_AREA(#975);
#974=FILL_AREA_STYLE('Stahl - satiniert',(#976));
#975=FILL_AREA_STYLE('Edelstahl - satiniert',(#977));
#976=FILL_AREA_STYLE_COLOUR('Stahl - satiniert',#978);
#977=FILL_AREA_STYLE_COLOUR('Edelstahl - satiniert',#979);
#978=COLOUR_RGB('Stahl - satiniert',0.627450980392157,0.627450980392157,
0.627450980392157);
#979=COLOUR_RGB('Edelstahl - satiniert',0.796078431372549,0.796078431372549,
0.796078431372549);
ENDSEC;
END-ISO-10303-21;
